  0
SECTION
  2
HEADER
  9
$ANGBASE
  50
0.0
  9
$ANGDIR
  70
1
  9
$MEASUREMENT
  70
0
  0
ENDSEC
  0
SECTION
  2
TABLES
  0
TABLE
  2
LTYPE
  70
4
  0
LTYPE
  5
40F
  2
CONTINUOUS
  70
0
  3
Solid line
  72
65
  73
0
  40
0.0
  0
LTYPE
  5
410
  2
DASHDOT
 70
0
  3
Dash Dot ____ _ ____ _
 72
65
 73
4
 40
2.0
 49
1.25
 49
-0.25
 49
0.25
 49
-0.25
  0
LTYPE
  5
411
  2
DASHED
 70
0
  3
Dashed __ __ __ __ __
 72
65
 73
2
 40
0.75
 49
0.5
 49
-0.25
  0
LTYPE
  5
43B
  2
DOTTED
 70
0
  3
Dotted .  .  .  .
 72
65
 73
2
 40
0.2
 49
0.0
 49
-0.2
  0
ENDTAB
  0
TABLE
  2
STYLE
  70
4
  0
STYLE
  2
KICAD
  70
0
  40
0
  41
1
  42
1
  50
0
  71
0
  3
isocp.shx
  0
STYLE
  2
KICADB
  70
0
  40
0
  41
1
  42
1
  50
0
  71
0
  3
isocp.shx
  0
STYLE
  2
KICADI
  70
0
  40
0
  41
1
  42
1
  50
15
  71
0
  3
isocp.shx
  0
STYLE
  2
KICADBI
  70
0
  40
0
  41
1
  42
1
  50
15
  71
0
  3
isocp.shx
  0
ENDTAB
  0
TABLE
  2
LAYER
  70
1
  0
LAYER
  2
BLACK
  70
0
  62
7
  6
CONTINUOUS
  0
ENDTAB
  0
ENDSEC
  0
SECTION
  2
ENTITIES
0
LINE
8
BLACK
6
CONTINUOUS
10
6.80785468503937
20
-1.1874062992125984
11
6.8092738976377953
21
-1.1879941732283463
0
LINE
8
BLACK
6
CONTINUOUS
10
6.8092738976377953
20
-1.1879941732283463
11
6.8103601181102364
21
-1.1890803937007874
0
LINE
8
BLACK
6
CONTINUOUS
10
6.8103601181102364
20
-1.1890803937007874
11
6.8109479921259837
21
-1.1904996062992126
0
LINE
8
BLACK
6
CONTINUOUS
10
6.8109479921259837
20
-1.1904996062992126
11
6.8110236220472435
21
-1.1912676771653543
0
LINE
8
BLACK
6
CONTINUOUS
10
6.8110236220472435
20
-1.1912676771653543
11
6.8110236220472435
21
-3.3869279527559053
0
LINE
8
BLACK
6
CONTINUOUS
10
6.8110236220472435
20
-3.3869279527559053
11
6.8109479921259837
21
-3.387696023622047
0
LINE
8
BLACK
6
CONTINUOUS
10
6.8109479921259837
20
-3.387696023622047
11
6.8109146456692908
21
-3.3877764566929134
0
LINE
8
BLACK
6
CONTINUOUS
10
6.8109146456692908
20
-3.3877764566929134
11
6.8109164566929135
21
-3.3878402362204723
0
LINE
8
BLACK
6
CONTINUOUS
10
6.8109164566929135
20
-3.3878402362204723
11
6.8107958267716535
21
-3.3880632677165354
0
LINE
8
BLACK
6
CONTINUOUS
10
6.8107958267716535
20
-3.3880632677165354
11
6.8103601181102364
21
-3.3891152362204724
0
LINE
8
BLACK
6
CONTINUOUS
10
6.8103601181102364
20
-3.3891152362204724
11
6.8100705511811022
21
-3.3894047637795275
0
LINE
8
BLACK
6
CONTINUOUS
10
6.8100705511811022
20
-3.3894047637795275
11
6.8099472047244092
21
-3.3896329527559055
0
LINE
8
BLACK
6
CONTINUOUS
10
6.8099472047244092
20
-3.3896329527559055
11
6.8096748031496057
21
-3.3898005118110235
0
LINE
8
BLACK
6
CONTINUOUS
10
6.8096748031496057
20
-3.3898005118110235
11
6.8092738976377953
21
-3.3902014566929135
0
LINE
8
BLACK
6
CONTINUOUS
10
6.8092738976377953
20
-3.3902014566929135
11
6.8085063779527557
21
-3.3905193700787399
0
LINE
8
BLACK
6
CONTINUOUS
10
6.8085063779527557
20
-3.3905193700787399
11
6.8082114566929128
21
-3.3907008267716536
0
LINE
8
BLACK
6
CONTINUOUS
10
6.8082114566929128
20
-3.3907008267716536
11
6.8082114960629916
21
-3.3907009448818899
0
LINE
8
BLACK
6
CONTINUOUS
10
6.8082114960629916
20
-3.3907009448818899
11
6.7986790944881887
21
-3.3935437007874016
0
LINE
8
BLACK
6
CONTINUOUS
10
6.7986790944881887
20
-3.3935437007874016
11
6.7800806299212599
21
-3.4006070078740156
0
LINE
8
BLACK
6
CONTINUOUS
10
6.7800806299212599
20
-3.4006070078740156
11
6.7620485826771652
21
-3.409011653543307
0
LINE
8
BLACK
6
CONTINUOUS
10
6.7620485826771652
20
-3.409011653543307
11
6.7446795275590548
21
-3.4187125984251967
0
LINE
8
BLACK
6
CONTINUOUS
10
6.7446795275590548
20
-3.4187125984251967
11
6.7280664566929129
21
-3.429657874015748
0
LINE
8
BLACK
6
CONTINUOUS
10
6.7280664566929129
20
-3.429657874015748
11
6.7122983858267711
21
-3.4417888976377951
0
LINE
8
BLACK
6
CONTINUOUS
10
6.7122983858267711
20
-3.4417888976377951
11
6.6974598031496058
21
-3.4550406299212599
0
LINE
8
BLACK
6
CONTINUOUS
10
6.6974598031496058
20
-3.4550406299212599
11
6.6836301181102362
21
-3.4693421259842521
0
LINE
8
BLACK
6
CONTINUOUS
10
6.6836301181102362
20
-3.4693421259842521
11
6.6708834645669288
21
-3.484616811023622
0
LINE
8
BLACK
6
CONTINUOUS
10
6.6708834645669288
20
-3.484616811023622
11
6.6592881102362202
21
-3.5007828346456691
0
LINE
8
BLACK
6
CONTINUOUS
10
6.6592881102362202
20
-3.5007828346456691
11
6.648906141732283
21
-3.5177536220472438
0
LINE
8
BLACK
6
CONTINUOUS
10
6.648906141732283
20
-3.5177536220472438
11
6.639793149606299
21
-3.5354382283464565
0
LINE
8
BLACK
6
CONTINUOUS
10
6.639793149606299
20
-3.5354382283464565
11
6.6319979527559054
21
-3.5537420078740158
0
LINE
8
BLACK
6
CONTINUOUS
10
6.6319979527559054
20
-3.5537420078740158
11
6.6255623622047244
21
-3.5725668897637792
0
LINE
8
BLACK
6
CONTINUOUS
10
6.6255623622047244
20
-3.5725668897637792
11
6.620520787401575
21
-3.5918120472440944
0
LINE
8
BLACK
6
CONTINUOUS
10
6.620520787401575
20
-3.5918120472440944
11
6.6169002362204719
21
-3.6113743700787402
0
LINE
8
BLACK
6
CONTINUOUS
10
6.6169002362204719
20
-3.6113743700787402
11
6.6147201181102364
21
-3.631149094488189
0
LINE
8
BLACK
6
CONTINUOUS
10
6.6147201181102364
20
-3.631149094488189
11
6.613992125984252
21
-3.65103031496063
0
LINE
8
BLACK
6
CONTINUOUS
10
6.613992125984252
20
-3.65103031496063
11
6.6147201181102364
21
-3.6709115354330706
0
LINE
8
BLACK
6
CONTINUOUS
10
6.6147201181102364
20
-3.6709115354330706
11
6.6169002362204719
21
-3.6906862598425194
0
LINE
8
BLACK
6
CONTINUOUS
10
6.6169002362204719
20
-3.6906862598425194
11
6.620520787401575
21
-3.7102485826771652
0
LINE
8
BLACK
6
CONTINUOUS
10
6.620520787401575
20
-3.7102485826771652
11
6.6255623622047244
21
-3.7294937007874016
0
LINE
8
BLACK
6
CONTINUOUS
10
6.6255623622047244
20
-3.7294937007874016
11
6.6319979527559054
21
-3.7483185826771654
0
LINE
8
BLACK
6
CONTINUOUS
10
6.6319979527559054
20
-3.7483185826771654
11
6.639793149606299
21
-3.7666223622047244
0
LINE
8
BLACK
6
CONTINUOUS
10
6.639793149606299
20
-3.7666223622047244
11
6.6489061023622043
21
-3.7843070078740157
0
LINE
8
BLACK
6
CONTINUOUS
10
6.6489061023622043
20
-3.7843070078740157
11
6.6592881102362202
21
-3.8012777952755905
0
LINE
8
BLACK
6
CONTINUOUS
10
6.6592881102362202
20
-3.8012777952755905
11
6.6708834645669288
21
-3.8174438188976376
0
LINE
8
BLACK
6
CONTINUOUS
10
6.6708834645669288
20
-3.8174438188976376
11
6.6836301181102362
21
-3.8327184645669292
0
LINE
8
BLACK
6
CONTINUOUS
10
6.6836301181102362
20
-3.8327184645669292
11
6.697459763779527
21
-3.8470200000000001
0
LINE
8
BLACK
6
CONTINUOUS
10
6.697459763779527
20
-3.8470200000000001
11
6.7122983858267711
21
-3.8602717322834645
0
LINE
8
BLACK
6
CONTINUOUS
10
6.7122983858267711
20
-3.8602717322834645
11
6.7280664173228342
21
-3.8724027559055116
0
LINE
8
BLACK
6
CONTINUOUS
10
6.7280664173228342
20
-3.8724027559055116
11
6.744679488188976
21
-3.8833480314960629
0
LINE
8
BLACK
6
CONTINUOUS
10
6.744679488188976
20
-3.8833480314960629
11
6.7620485433070865
21
-3.8930489763779526
0
LINE
8
BLACK
6
CONTINUOUS
10
6.7620485433070865
20
-3.8930489763779526
11
6.7800806299212599
21
-3.901453622047244
0
LINE
8
BLACK
6
CONTINUOUS
10
6.7800806299212599
20
-3.901453622047244
11
6.79867905511811
21
-3.9085169291338584
0
LINE
8
BLACK
6
CONTINUOUS
10
6.79867905511811
20
-3.9085169291338584
11
6.8082114960629916
21
-3.9113596850393701
0
LINE
8
BLACK
6
CONTINUOUS
10
6.8082114960629916
20
-3.9113596850393701
11
6.8082114566929128
21
-3.9113597244094489
0
LINE
8
BLACK
6
CONTINUOUS
10
6.8082114566929128
20
-3.9113597244094489
11
6.8085063779527557
21
-3.9115411417322834
0
LINE
8
BLACK
6
CONTINUOUS
10
6.8085063779527557
20
-3.9115411417322834
11
6.8092738976377953
21
-3.911859094488189
0
LINE
8
BLACK
6
CONTINUOUS
10
6.8092738976377953
20
-3.911859094488189
11
6.8096748031496057
21
-3.9122599999999998
0
LINE
8
BLACK
6
CONTINUOUS
10
6.8096748031496057
20
-3.9122599999999998
11
6.8099472047244092
21
-3.9124275984251966
0
LINE
8
BLACK
6
CONTINUOUS
10
6.8099472047244092
20
-3.9124275984251966
11
6.8100705511811022
21
-3.9126557480314959
0
LINE
8
BLACK
6
CONTINUOUS
10
6.8100705511811022
20
-3.9126557480314959
11
6.8103601181102364
21
-3.9129453149606297
0
LINE
8
BLACK
6
CONTINUOUS
10
6.8103601181102364
20
-3.9129453149606297
11
6.8107958267716535
21
-3.9139972440944879
0
LINE
8
BLACK
6
CONTINUOUS
10
6.8107958267716535
20
-3.9139972440944879
11
6.8109164566929135
21
-3.9142203149606298
0
LINE
8
BLACK
6
CONTINUOUS
10
6.8109164566929135
20
-3.9142203149606298
11
6.8109146456692908
21
-3.91428405511811
0
LINE
8
BLACK
6
CONTINUOUS
10
6.8109146456692908
20
-3.91428405511811
11
6.8109479921259837
21
-3.9143645275590551
0
LINE
8
BLACK
6
CONTINUOUS
10
6.8109479921259837
20
-3.9143645275590551
11
6.8110236220472435
21
-3.9151325984251968
0
LINE
8
BLACK
6
CONTINUOUS
10
6.8110236220472435
20
-3.9151325984251968
11
6.8110236220472435
21
-5.6195529527559049
0
LINE
8
BLACK
6
CONTINUOUS
10
6.8110236220472435
20
-5.6195529527559049
11
6.9917806692913382
21
-6.0193702755905507
0
LINE
8
BLACK
6
CONTINUOUS
10
6.9917806692913382
20
-6.0193702755905507
11
6.9920008267716538
21
-6.0200205118110235
0
LINE
8
BLACK
6
CONTINUOUS
10
6.9920008267716538
20
-6.0200205118110235
11
6.9920173228346458
21
-6.0200558661417318
0
LINE
8
BLACK
6
CONTINUOUS
10
6.9920173228346458
20
-6.0200558661417318
11
6.9920179921259837
21
-6.0200711811023622
0
LINE
8
BLACK
6
CONTINUOUS
10
6.9920179921259837
20
-6.0200711811023622
11
6.992028188976378
21
-6.0201012992125982
0
LINE
8
BLACK
6
CONTINUOUS
10
6.992028188976378
20
-6.0201012992125982
11
6.9920519291338579
21
-6.0208459055118109
0
LINE
8
BLACK
6
CONTINUOUS
10
6.9920519291338579
20
-6.0208459055118109
11
6.992084566929134
21
-6.0215905118110236
0
LINE
8
BLACK
6
CONTINUOUS
10
6.992084566929134
20
-6.0215905118110236
11
6.9920763779527562
21
-6.0216129133858267
0
LINE
8
BLACK
6
CONTINUOUS
10
6.9920763779527562
20
-6.0216129133858267
11
6.9920771653543303
21
-6.0216366929133853
0
LINE
8
BLACK
6
CONTINUOUS
10
6.9920771653543303
20
-6.0216366929133853
11
6.9918148031496061
21
-6.0223318897637794
0
LINE
8
BLACK
6
CONTINUOUS
10
6.9918148031496061
20
-6.0223318897637794
11
6.9915593700787397
21
-6.0230340944881888
0
LINE
8
BLACK
6
CONTINUOUS
10
6.9915593700787397
20
-6.0230340944881888
11
6.9915402362204722
21
-6.0230595669291338
0
LINE
8
BLACK
6
CONTINUOUS
10
6.9915402362204722
20
-6.0230595669291338
11
6.9915348425196848
21
-6.0230739370078741
0
LINE
8
BLACK
6
CONTINUOUS
10
6.9915348425196848
20
-6.0230739370078741
11
6.9915081102362207
21
-6.0231023622047246
0
LINE
8
BLACK
6
CONTINUOUS
10
6.9915081102362207
20
-6.0231023622047246
11
6.9910962992125985
21
-6.0236515354330704
0
LINE
8
BLACK
6
CONTINUOUS
10
6.9910962992125985
20
-6.0236515354330704
11
6.7797306299212599
21
-6.254381181102362
0
LINE
8
BLACK
6
CONTINUOUS
10
6.7797306299212599
20
-6.254381181102362
11
6.7793785433070868
21
-6.2546969291338579
0
LINE
8
BLACK
6
CONTINUOUS
10
6.7793785433070868
20
-6.2546969291338579
11
6.7793161023622046
21
-6.2547725590551178
0
LINE
8
BLACK
6
CONTINUOUS
10
6.7793161023622046
20
-6.2547725590551178
11
6.7792624803149604
21
-6.2548009842519683
0
LINE
8
BLACK
6
CONTINUOUS
10
6.7792624803149604
20
-6.2548009842519683
11
6.7791560629921257
21
-6.2548964566929133
0
LINE
8
BLACK
6
CONTINUOUS
10
6.7791560629921257
20
-6.2548964566929133
11
6.7785494094488188
21
-6.2551794094488189
0
LINE
8
BLACK
6
CONTINUOUS
10
6.7785494094488188
20
-6.2551794094488189
11
6.7779592125984252
21
-6.2554926377952755
0
LINE
8
BLACK
6
CONTINUOUS
10
6.7779592125984252
20
-6.2554926377952755
11
6.7778569685039365
21
-6.2555023622047239
0
LINE
8
BLACK
6
CONTINUOUS
10
6.7778569685039365
20
-6.2555023622047239
11
6.7777638976377954
21
-6.2555458267716535
0
LINE
8
BLACK
6
CONTINUOUS
10
6.7777638976377954
20
-6.2555458267716535
11
6.777095826771653
21
-6.2555750787401569
0
LINE
8
BLACK
6
CONTINUOUS
10
6.777095826771653
20
-6.2555750787401569
11
6.7764299999999995
21
-6.2556386614173229
0
LINE
8
BLACK
6
CONTINUOUS
10
6.7764299999999995
20
-6.2556386614173229
11
6.7762899606299207
21
-6.2556103543307087
0
LINE
8
BLACK
6
CONTINUOUS
10
6.7762899606299207
20
-6.2556103543307087
11
6.7762292125984249
21
-6.255613031496063
0
LINE
8
BLACK
6
CONTINUOUS
10
6.7762292125984249
20
-6.255613031496063
11
6.7761368503937005
21
-6.2555794094488189
0
LINE
8
BLACK
6
CONTINUOUS
10
6.7761368503937005
20
-6.2555794094488189
11
6.775673503937008
21
-6.2554858267716531
0
LINE
8
BLACK
6
CONTINUOUS
10
6.775673503937008
20
-6.2554858267716531
11
6.3222488976377953
21
-6.1164645275590548
0
LINE
8
BLACK
6
CONTINUOUS
10
6.3222488976377953
20
-6.1164645275590548
11
4.0511811023622046
21
-6.1164645275590548
0
LINE
8
BLACK
6
CONTINUOUS
10
4.0511811023622046
20
-6.1164645275590548
11
4.0504130314960625
21
-6.1163888976377949
0
LINE
8
BLACK
6
CONTINUOUS
10
4.0504130314960625
20
-6.1163888976377949
11
4.048993818897638
21
-6.1158010236220468
0
LINE
8
BLACK
6
CONTINUOUS
10
4.048993818897638
20
-6.1158010236220468
11
4.0479075984251969
21
-6.1147148031496066
0
LINE
8
BLACK
6
CONTINUOUS
10
4.0479075984251969
20
-6.1147148031496066
11
4.0473197244094488
21
-6.1132955905511812
0
LINE
8
BLACK
6
CONTINUOUS
10
4.0473197244094488
20
-6.1132955905511812
11
4.0472440944881889
21
-6.112527519685039
0
LINE
8
BLACK
6
CONTINUOUS
10
4.0472440944881889
20
-6.112527519685039
11
4.0472440944881889
21
-3.9159999999999999
0
LINE
8
BLACK
6
CONTINUOUS
10
4.0472440944881889
20
-3.9159999999999999
11
4.0473197244094488
21
-3.9152319291338582
0
LINE
8
BLACK
6
CONTINUOUS
10
4.0473197244094488
20
-3.9152319291338582
11
4.0473530314960628
21
-3.9151514566929131
0
LINE
8
BLACK
6
CONTINUOUS
10
4.0473530314960628
20
-3.9151514566929131
11
4.0473512598425199
21
-3.915087716535433
0
LINE
8
BLACK
6
CONTINUOUS
10
4.0473512598425199
20
-3.915087716535433
11
4.0474718503937011
21
-3.914864645669291
0
LINE
8
BLACK
6
CONTINUOUS
10
4.0474718503937011
20
-3.914864645669291
11
4.0479075984251969
21
-3.9138127165354328
0
LINE
8
BLACK
6
CONTINUOUS
10
4.0479075984251969
20
-3.9138127165354328
11
4.0481971259842515
21
-3.913523149606299
0
LINE
8
BLACK
6
CONTINUOUS
10
4.0481971259842515
20
-3.913523149606299
11
4.0483205118110233
21
-3.9132949999999997
0
LINE
8
BLACK
6
CONTINUOUS
10
4.0483205118110233
20
-3.9132949999999997
11
4.048592874015748
21
-3.913127401574803
0
LINE
8
BLACK
6
CONTINUOUS
10
4.048592874015748
20
-3.913127401574803
11
4.048993818897638
21
-3.9127264960629922
0
LINE
8
BLACK
6
CONTINUOUS
10
4.048993818897638
20
-3.9127264960629922
11
4.049761299212598
21
-3.9124085433070865
0
LINE
8
BLACK
6
CONTINUOUS
10
4.049761299212598
20
-3.9124085433070865
11
4.0500562598425196
21
-3.912227125984252
0
LINE
8
BLACK
6
CONTINUOUS
10
4.0500562598425196
20
-3.912227125984252
11
4.0500562204724408
21
-3.9122270866141733
0
LINE
8
BLACK
6
CONTINUOUS
10
4.0500562204724408
20
-3.9122270866141733
11
4.0595886614173224
21
-3.9093843307086615
0
LINE
8
BLACK
6
CONTINUOUS
10
4.0595886614173224
20
-3.9093843307086615
11
4.0781871259842521
21
-3.9023210236220471
0
LINE
8
BLACK
6
CONTINUOUS
10
4.0781871259842521
20
-3.9023210236220471
11
4.0962191732283459
21
-3.8939163779527557
0
LINE
8
BLACK
6
CONTINUOUS
10
4.0962191732283459
20
-3.8939163779527557
11
4.1135882677165352
21
-3.884215433070866
0
LINE
8
BLACK
6
CONTINUOUS
10
4.1135882677165352
20
-3.884215433070866
11
4.1302012992125983
21
-3.8732701574803148
0
LINE
8
BLACK
6
CONTINUOUS
10
4.1302012992125983
20
-3.8732701574803148
11
4.1459693700787401
21
-3.8611391338582677
0
LINE
8
BLACK
6
CONTINUOUS
10
4.1459693700787401
20
-3.8611391338582677
11
4.1608079921259842
21
-3.8478873622047245
0
LINE
8
BLACK
6
CONTINUOUS
10
4.1608079921259842
20
-3.8478873622047245
11
4.1746376377952759
21
-3.8335858661417324
0
LINE
8
BLACK
6
CONTINUOUS
10
4.1746376377952759
20
-3.8335858661417324
11
4.1873842913385824
21
-3.818311181102362
0
LINE
8
BLACK
6
CONTINUOUS
10
4.1873842913385824
20
-3.818311181102362
11
4.1989796850393697
21
-3.8021451574803149
0
LINE
8
BLACK
6
CONTINUOUS
10
4.1989796850393697
20
-3.8021451574803149
11
4.2093616535433069
21
-3.7851743700787401
0
LINE
8
BLACK
6
CONTINUOUS
10
4.2093616535433069
20
-3.7851743700787401
11
4.218474645669291
21
-3.7674897244094487
0
LINE
8
BLACK
6
CONTINUOUS
10
4.218474645669291
20
-3.7674897244094487
11
4.2262698425196845
21
-3.7491859448818898
0
LINE
8
BLACK
6
CONTINUOUS
10
4.2262698425196845
20
-3.7491859448818898
11
4.2327054330708664
21
-3.730361062992126
0
LINE
8
BLACK
6
CONTINUOUS
10
4.2327054330708664
20
-3.730361062992126
11
4.2377470078740158
21
-3.7111159448818896
0
LINE
8
BLACK
6
CONTINUOUS
10
4.2377470078740158
20
-3.7111159448818896
11
4.2413675590551181
21
-3.6915535826771655
0
LINE
8
BLACK
6
CONTINUOUS
10
4.2413675590551181
20
-3.6915535826771655
11
4.2435476771653544
21
-3.6717788582677167
0
LINE
8
BLACK
6
CONTINUOUS
10
4.2435476771653544
20
-3.6717788582677167
11
4.2442756692913388
21
-3.6518976377952757
0
LINE
8
BLACK
6
CONTINUOUS
10
4.2442756692913388
20
-3.6518976377952757
11
4.2435476771653544
21
-3.6320164173228346
0
LINE
8
BLACK
6
CONTINUOUS
10
4.2435476771653544
20
-3.6320164173228346
11
4.2413675590551181
21
-3.6122416929133858
0
LINE
8
BLACK
6
CONTINUOUS
10
4.2413675590551181
20
-3.6122416929133858
11
4.2377470078740158
21
-3.5926793307086613
0
LINE
8
BLACK
6
CONTINUOUS
10
4.2377470078740158
20
-3.5926793307086613
11
4.2327054330708664
21
-3.5734342125984253
0
LINE
8
BLACK
6
CONTINUOUS
10
4.2327054330708664
20
-3.5734342125984253
11
4.2262698425196845
21
-3.5546093307086615
0
LINE
8
BLACK
6
CONTINUOUS
10
4.2262698425196845
20
-3.5546093307086615
11
4.218474645669291
21
-3.5363055511811021
0
LINE
8
BLACK
6
CONTINUOUS
10
4.218474645669291
20
-3.5363055511811021
11
4.2093616535433069
21
-3.5186209055118107
0
LINE
8
BLACK
6
CONTINUOUS
10
4.2093616535433069
20
-3.5186209055118107
11
4.1989796850393697
21
-3.501650118110236
0
LINE
8
BLACK
6
CONTINUOUS
10
4.1989796850393697
20
-3.501650118110236
11
4.1873842913385824
21
-3.4854840944881889
0
LINE
8
BLACK
6
CONTINUOUS
10
4.1873842913385824
20
-3.4854840944881889
11
4.1746376377952759
21
-3.4702094094488189
0
LINE
8
BLACK
6
CONTINUOUS
10
4.1746376377952759
20
-3.4702094094488189
11
4.1608079921259842
21
-3.4559079133858268
0
LINE
8
BLACK
6
CONTINUOUS
10
4.1608079921259842
20
-3.4559079133858268
11
4.1459693700787401
21
-3.4426561417322832
0
LINE
8
BLACK
6
CONTINUOUS
10
4.1459693700787401
20
-3.4426561417322832
11
4.1302012992125983
21
-3.4305251181102361
0
LINE
8
BLACK
6
CONTINUOUS
10
4.1302012992125983
20
-3.4305251181102361
11
4.1135882677165352
21
-3.4195798425196848
0
LINE
8
BLACK
6
CONTINUOUS
10
4.1135882677165352
20
-3.4195798425196848
11
4.0962191732283459
21
-3.4098788976377952
0
LINE
8
BLACK
6
CONTINUOUS
10
4.0962191732283459
20
-3.4098788976377952
11
4.0781871259842521
21
-3.4014742519685037
0
LINE
8
BLACK
6
CONTINUOUS
10
4.0781871259842521
20
-3.4014742519685037
11
4.0595886614173224
21
-3.3944109448818898
0
LINE
8
BLACK
6
CONTINUOUS
10
4.0595886614173224
20
-3.3944109448818898
11
4.0500562204724408
21
-3.391568188976378
0
LINE
8
BLACK
6
CONTINUOUS
10
4.0500562204724408
20
-3.391568188976378
11
4.0500562598425196
21
-3.3915681496062993
0
LINE
8
BLACK
6
CONTINUOUS
10
4.0500562598425196
20
-3.3915681496062993
11
4.049761299212598
21
-3.3913866929133856
0
LINE
8
BLACK
6
CONTINUOUS
10
4.049761299212598
20
-3.3913866929133856
11
4.048993818897638
21
-3.3910687795275591
0
LINE
8
BLACK
6
CONTINUOUS
10
4.048993818897638
20
-3.3910687795275591
11
4.048592874015748
21
-3.3906678346456691
0
LINE
8
BLACK
6
CONTINUOUS
10
4.048592874015748
20
-3.3906678346456691
11
4.0483205118110233
21
-3.3905002755905511
0
LINE
8
BLACK
6
CONTINUOUS
10
4.0483205118110233
20
-3.3905002755905511
11
4.0481971259842515
21
-3.3902720866141731
0
LINE
8
BLACK
6
CONTINUOUS
10
4.0481971259842515
20
-3.3902720866141731
11
4.0479075984251969
21
-3.389982559055118
0
LINE
8
BLACK
6
CONTINUOUS
10
4.0479075984251969
20
-3.389982559055118
11
4.0474718503937011
21
-3.3889305905511811
0
LINE
8
BLACK
6
CONTINUOUS
10
4.0474718503937011
20
-3.3889305905511811
11
4.0473512598425199
21
-3.3887075590551179
0
LINE
8
BLACK
6
CONTINUOUS
10
4.0473512598425199
20
-3.3887075590551179
11
4.0473530314960628
21
-3.388643779527559
0
LINE
8
BLACK
6
CONTINUOUS
10
4.0473530314960628
20
-3.388643779527559
11
4.0473197244094488
21
-3.3885633464566927
0
LINE
8
BLACK
6
CONTINUOUS
10
4.0473197244094488
20
-3.3885633464566927
11
4.0472440944881889
21
-3.3877952755905509
0
LINE
8
BLACK
6
CONTINUOUS
10
4.0472440944881889
20
-3.3877952755905509
11
4.0472440944881889
21
-1.1912676771653543
0
LINE
8
BLACK
6
CONTINUOUS
10
4.0472440944881889
20
-1.1912676771653543
11
4.0473197244094488
21
-1.1904996062992126
0
LINE
8
BLACK
6
CONTINUOUS
10
4.0473197244094488
20
-1.1904996062992126
11
4.0479075984251969
21
-1.1890803937007874
0
LINE
8
BLACK
6
CONTINUOUS
10
4.0479075984251969
20
-1.1890803937007874
11
4.048993818897638
21
-1.1879941732283463
0
LINE
8
BLACK
6
CONTINUOUS
10
4.048993818897638
20
-1.1879941732283463
11
4.0504130314960625
21
-1.1874062992125984
0
LINE
8
BLACK
6
CONTINUOUS
10
4.0504130314960625
20
-1.1874062992125984
11
4.0511811023622046
21
-1.1873306692913386
0
LINE
8
BLACK
6
CONTINUOUS
10
4.0511811023622046
20
-1.1873306692913386
11
6.8070866141732278
21
-1.1873306692913386
0
LINE
8
BLACK
6
CONTINUOUS
10
6.8070866141732278
20
-1.1873306692913386
11
6.80785468503937
21
-1.1874062992125984
0
LINE
8
BLACK
6
CONTINUOUS
10
4.0551181102362204
20
-1.1952046850393701
11
4.0551181102362204
21
-3.3849741732283465
0
LINE
8
BLACK
6
CONTINUOUS
10
4.0551181102362204
20
-3.3849741732283465
11
4.0716837007874016
21
-3.3905809055118108
0
LINE
8
BLACK
6
CONTINUOUS
10
4.0716837007874016
20
-3.3905809055118108
11
4.090529881889764
21
-3.3985390551181101
0
LINE
8
BLACK
6
CONTINUOUS
10
4.090529881889764
20
-3.3985390551181101
11
4.1087435826771657
21
-3.4078542913385825
0
LINE
8
BLACK
6
CONTINUOUS
10
4.1087435826771657
20
-3.4078542913385825
11
4.1262272047244091
21
-3.4184766535433071
0
LINE
8
BLACK
6
CONTINUOUS
10
4.1262272047244091
20
-3.4184766535433071
11
4.1428870866141727
21
-3.4303492519685039
0
LINE
8
BLACK
6
CONTINUOUS
10
4.1428870866141727
20
-3.4303492519685039
11
4.1586340157480315
21
-3.4434085433070867
0
LINE
8
BLACK
6
CONTINUOUS
10
4.1586340157480315
20
-3.4434085433070867
11
4.1733837007874017
21
-3.4575845275590549
0
LINE
8
BLACK
6
CONTINUOUS
10
4.1733837007874017
20
-3.4575845275590549
11
4.1870570472440942
21
-3.4728012992125983
0
LINE
8
BLACK
6
CONTINUOUS
10
4.1870570472440942
20
-3.4728012992125983
11
4.1995809055118105
21
-3.4889773622047242
0
LINE
8
BLACK
6
CONTINUOUS
10
4.1995809055118105
20
-3.4889773622047242
11
4.2108881102362208
21
-3.506026062992126
0
LINE
8
BLACK
6
CONTINUOUS
10
4.2108881102362208
20
-3.506026062992126
11
4.2209181496062991
21
-3.5238560629921261
0
LINE
8
BLACK
6
CONTINUOUS
10
4.2209181496062991
20
-3.5238560629921261
11
4.2296173228346454
21
-3.542371929133858
0
LINE
8
BLACK
6
CONTINUOUS
10
4.2296173228346454
20
-3.542371929133858
11
4.236938976377953
21
-3.5614744094488189
0
LINE
8
BLACK
6
CONTINUOUS
10
4.236938976377953
20
-3.5614744094488189
11
4.2428438976377949
21
-3.581061181102362
0
LINE
8
BLACK
6
CONTINUOUS
10
4.2428438976377949
20
-3.581061181102362
11
4.2473005118110239
21
-3.6010274015748029
0
LINE
8
BLACK
6
CONTINUOUS
10
4.2473005118110239
20
-3.6010274015748029
11
4.2502849212598424
21
-3.6212661023622048
0
LINE
8
BLACK
6
CONTINUOUS
10
4.2502849212598424
20
-3.6212661023622048
11
4.2517811417322831
21
-3.6416688582677166
0
LINE
8
BLACK
6
CONTINUOUS
10
4.2517811417322831
20
-3.6416688582677166
11
4.2517811417322831
21
-3.6621264173228347
0
LINE
8
BLACK
6
CONTINUOUS
10
4.2517811417322831
20
-3.6621264173228347
11
4.2502849212598424
21
-3.6825291732283465
0
LINE
8
BLACK
6
CONTINUOUS
10
4.2502849212598424
20
-3.6825291732283465
11
4.2473005118110239
21
-3.7027678740157479
0
LINE
8
BLACK
6
CONTINUOUS
10
4.2473005118110239
20
-3.7027678740157479
11
4.2428438976377949
21
-3.7227340944881888
0
LINE
8
BLACK
6
CONTINUOUS
10
4.2428438976377949
20
-3.7227340944881888
11
4.236938976377953
21
-3.742320866141732
0
LINE
8
BLACK
6
CONTINUOUS
10
4.236938976377953
20
-3.742320866141732
11
4.2296173228346454
21
-3.7614233464566929
0
LINE
8
BLACK
6
CONTINUOUS
10
4.2296173228346454
20
-3.7614233464566929
11
4.2209181496062991
21
-3.7799392125984252
0
LINE
8
BLACK
6
CONTINUOUS
10
4.2209181496062991
20
-3.7799392125984252
11
4.2108881102362208
21
-3.7977692125984253
0
LINE
8
BLACK
6
CONTINUOUS
10
4.2108881102362208
20
-3.7977692125984253
11
4.1995809055118105
21
-3.8148179133858267
0
LINE
8
BLACK
6
CONTINUOUS
10
4.1995809055118105
20
-3.8148179133858267
11
4.1870570472440942
21
-3.8309939763779526
0
LINE
8
BLACK
6
CONTINUOUS
10
4.1870570472440942
20
-3.8309939763779526
11
4.1733837007874017
21
-3.846210748031496
0
LINE
8
BLACK
6
CONTINUOUS
10
4.1733837007874017
20
-3.846210748031496
11
4.1586340157480315
21
-3.8603867322834646
0
LINE
8
BLACK
6
CONTINUOUS
10
4.1586340157480315
20
-3.8603867322834646
11
4.1428870866141727
21
-3.8734460236220474
0
LINE
8
BLACK
6
CONTINUOUS
10
4.1428870866141727
20
-3.8734460236220474
11
4.1262272047244091
21
-3.8853186220472442
0
LINE
8
BLACK
6
CONTINUOUS
10
4.1262272047244091
20
-3.8853186220472442
11
4.1087435826771657
21
-3.8959409842519683
0
LINE
8
BLACK
6
CONTINUOUS
10
4.1087435826771657
20
-3.8959409842519683
11
4.090529881889764
21
-3.9052562204724408
0
LINE
8
BLACK
6
CONTINUOUS
10
4.090529881889764
20
-3.9052562204724408
11
4.0716837007874016
21
-3.9132143700787401
0
LINE
8
BLACK
6
CONTINUOUS
10
4.0716837007874016
20
-3.9132143700787401
11
4.0551181102362204
21
-3.9188210629921261
0
LINE
8
BLACK
6
CONTINUOUS
10
4.0551181102362204
20
-3.9188210629921261
11
4.0551181102362204
21
-6.1085905118110233
0
LINE
8
BLACK
6
CONTINUOUS
10
4.0551181102362204
20
-6.1085905118110233
11
6.3228388582677164
21
-6.1085905118110233
0
LINE
8
BLACK
6
CONTINUOUS
10
6.3228388582677164
20
-6.1085905118110233
11
6.3231383070866141
21
-6.1086199606299214
0
LINE
8
BLACK
6
CONTINUOUS
10
6.3231383070866141
20
-6.1086199606299214
11
6.3232364173228346
21
-6.1086106299212597
0
LINE
8
BLACK
6
CONTINUOUS
10
6.3232364173228346
20
-6.1086106299212597
11
6.3234201181102359
21
-6.1086477165354331
0
LINE
8
BLACK
6
CONTINUOUS
10
6.3234201181102359
20
-6.1086477165354331
11
6.3236069291338577
21
-6.1086661417322832
0
LINE
8
BLACK
6
CONTINUOUS
10
6.3236069291338577
20
-6.1086661417322832
11
6.3236980708661417
21
-6.1087038976377954
0
LINE
8
BLACK
6
CONTINUOUS
10
6.3236980708661417
20
-6.1087038976377954
11
6.323992913385827
21
-6.1087634645669286
0
LINE
8
BLACK
6
CONTINUOUS
10
6.323992913385827
20
-6.1087634645669286
11
6.7756042125984246
21
-6.2472287795275587
0
LINE
8
BLACK
6
CONTINUOUS
10
6.7756042125984246
20
-6.2472287795275587
11
6.9835359842519686
21
-6.0202476771653544
0
LINE
8
BLACK
6
CONTINUOUS
10
6.9835359842519686
20
-6.0202476771653544
11
6.8034992125984246
21
-5.6220233858267719
0
LINE
8
BLACK
6
CONTINUOUS
10
6.8034992125984246
20
-5.6220233858267719
11
6.8032516929133857
21
-5.6212923622047244
0
LINE
8
BLACK
6
CONTINUOUS
10
6.8032516929133857
20
-5.6212923622047244
11
6.8032496456692915
21
-5.6212285433070868
0
LINE
8
BLACK
6
CONTINUOUS
10
6.8032496456692915
20
-5.6212285433070868
11
6.8032252362204719
21
-5.6211696062992127
0
LINE
8
BLACK
6
CONTINUOUS
10
6.8032252362204719
20
-5.6211696062992127
11
6.8031496062992121
21
-5.6204015354330705
0
LINE
8
BLACK
6
CONTINUOUS
10
6.8031496062992121
20
-5.6204015354330705
11
6.8031496062992121
21
-3.9179536614173229
0
LINE
8
BLACK
6
CONTINUOUS
10
6.8031496062992121
20
-3.9179536614173229
11
6.7865840157480317
21
-3.9123469685039369
0
LINE
8
BLACK
6
CONTINUOUS
10
6.7865840157480317
20
-3.9123469685039369
11
6.7677378346456694
21
-3.9043888188976377
0
LINE
8
BLACK
6
CONTINUOUS
10
6.7677378346456694
20
-3.9043888188976377
11
6.7495241732283464
21
-3.8950735826771652
0
LINE
8
BLACK
6
CONTINUOUS
10
6.7495241732283464
20
-3.8950735826771652
11
6.7320405511811021
21
-3.8844512204724411
0
LINE
8
BLACK
6
CONTINUOUS
10
6.7320405511811021
20
-3.8844512204724411
11
6.7153806692913385
21
-3.8725786220472438
0
LINE
8
BLACK
6
CONTINUOUS
10
6.7153806692913385
20
-3.8725786220472438
11
6.6996337401574806
21
-3.8595193307086615
0
LINE
8
BLACK
6
CONTINUOUS
10
6.6996337401574806
20
-3.8595193307086615
11
6.6848840551181103
21
-3.8453433464566928
0
LINE
8
BLACK
6
CONTINUOUS
10
6.6848840551181103
20
-3.8453433464566928
11
6.671210708661417
21
-3.8301265748031494
0
LINE
8
BLACK
6
CONTINUOUS
10
6.671210708661417
20
-3.8301265748031494
11
6.6586868897637794
21
-3.8139505118110235
0
LINE
8
BLACK
6
CONTINUOUS
10
6.6586868897637794
20
-3.8139505118110235
11
6.6473796456692913
21
-3.7969018110236221
0
LINE
8
BLACK
6
CONTINUOUS
10
6.6473796456692913
20
-3.7969018110236221
11
6.6373496062992121
21
-3.7790718110236221
0
LINE
8
BLACK
6
CONTINUOUS
10
6.6373496062992121
20
-3.7790718110236221
11
6.6286504724409445
21
-3.7605559842519685
0
LINE
8
BLACK
6
CONTINUOUS
10
6.6286504724409445
20
-3.7605559842519685
11
6.6213288188976378
21
-3.7414535039370076
0
LINE
8
BLACK
6
CONTINUOUS
10
6.6213288188976378
20
-3.7414535039370076
11
6.6154238582677163
21
-3.7218667322834644
0
LINE
8
BLACK
6
CONTINUOUS
10
6.6154238582677163
20
-3.7218667322834644
11
6.610967283464567
21
-3.7019005118110235
0
LINE
8
BLACK
6
CONTINUOUS
10
6.610967283464567
20
-3.7019005118110235
11
6.6079828740157476
21
-3.6816618110236221
0
LINE
8
BLACK
6
CONTINUOUS
10
6.6079828740157476
20
-3.6816618110236221
11
6.6064866535433069
21
-3.6612590551181103
0
LINE
8
BLACK
6
CONTINUOUS
10
6.6064866535433069
20
-3.6612590551181103
11
6.6064866535433069
21
-3.6408015354330709
0
LINE
8
BLACK
6
CONTINUOUS
10
6.6064866535433069
20
-3.6408015354330709
11
6.6079828740157476
21
-3.6203987795275592
0
LINE
8
BLACK
6
CONTINUOUS
10
6.6079828740157476
20
-3.6203987795275592
11
6.610967283464567
21
-3.6001600787401573
0
LINE
8
BLACK
6
CONTINUOUS
10
6.610967283464567
20
-3.6001600787401573
11
6.615423897637795
21
-3.5801938976377952
0
LINE
8
BLACK
6
CONTINUOUS
10
6.615423897637795
20
-3.5801938976377952
11
6.6213288188976378
21
-3.5606070866141732
0
LINE
8
BLACK
6
CONTINUOUS
10
6.6213288188976378
20
-3.5606070866141732
11
6.6286504724409445
21
-3.5415046062992124
0
LINE
8
BLACK
6
CONTINUOUS
10
6.6286504724409445
20
-3.5415046062992124
11
6.6373496456692909
21
-3.5229887795275592
0
LINE
8
BLACK
6
CONTINUOUS
10
6.6373496456692909
20
-3.5229887795275592
11
6.64737968503937
21
-3.5051587795275592
0
LINE
8
BLACK
6
CONTINUOUS
10
6.64737968503937
20
-3.5051587795275592
11
6.6586868897637794
21
-3.4881100787401573
0
LINE
8
BLACK
6
CONTINUOUS
10
6.6586868897637794
20
-3.4881100787401573
11
6.671210708661417
21
-3.4719340551181102
0
LINE
8
BLACK
6
CONTINUOUS
10
6.671210708661417
20
-3.4719340551181102
11
6.6848840944881891
21
-3.4567172834645667
0
LINE
8
BLACK
6
CONTINUOUS
10
6.6848840944881891
20
-3.4567172834645667
11
6.6996337401574806
21
-3.4425412598425198
0
LINE
8
BLACK
6
CONTINUOUS
10
6.6996337401574806
20
-3.4425412598425198
11
6.7153806692913385
21
-3.4294820078740158
0
LINE
8
BLACK
6
CONTINUOUS
10
6.7153806692913385
20
-3.4294820078740158
11
6.7320405905511809
21
-3.4176093700787402
0
LINE
8
BLACK
6
CONTINUOUS
10
6.7320405905511809
20
-3.4176093700787402
11
6.7495241732283464
21
-3.4069870078740156
0
LINE
8
BLACK
6
CONTINUOUS
10
6.7495241732283464
20
-3.4069870078740156
11
6.7677378346456694
21
-3.3976718110236219
0
LINE
8
BLACK
6
CONTINUOUS
10
6.7677378346456694
20
-3.3976718110236219
11
6.7865840157480317
21
-3.3897136614173227
0
LINE
8
BLACK
6
CONTINUOUS
10
6.7865840157480317
20
-3.3897136614173227
11
6.8031496062992121
21
-3.3841069291338584
0
LINE
8
BLACK
6
CONTINUOUS
10
6.8031496062992121
20
-3.3841069291338584
11
6.8031496062992121
21
-1.1952046850393701
0
LINE
8
BLACK
6
CONTINUOUS
10
6.8031496062992121
20
-1.1952046850393701
11
4.0551181102362204
21
-1.1952046850393701
0
CIRCLE
8
BLACK
10
5.3346456692913389
20
-2.3228346456692912
40
0.0068897637795276
0
CIRCLE
8
BLACK
10
5.3346456692913389
20
-2.2736220472440944
40
0.0068897637795276
0
CIRCLE
8
BLACK
10
5.3346456692913389
20
-2.2244094488188977
40
0.0068897637795276
0
CIRCLE
8
BLACK
10
5.3346456692913389
20
-2.1751968503937009
40
0.0068897637795276
0
CIRCLE
8
BLACK
10
5.3346456692913389
20
-2.1259842519685037
40
0.0068897637795276
0
CIRCLE
8
BLACK
10
5.9753937007874018
20
-4.4291338582677167
40
0.0068897637795276
0
CIRCLE
8
BLACK
10
5.8753937007874013
20
-4.4291338582677167
40
0.0068897637795276
0
CIRCLE
8
BLACK
10
5.4921259842519685
20
-4.8196850393700785
40
0.0068897637795276
0
CIRCLE
8
BLACK
10
5.392125984251968
20
-4.8196850393700785
40
0.0068897637795276
0
CIRCLE
8
BLACK
10
5.4921259842519685
20
-4.9196850393700791
40
0.0068897637795276
0
CIRCLE
8
BLACK
10
5.392125984251968
20
-4.9196850393700791
40
0.0068897637795276
0
CIRCLE
8
BLACK
10
5.4921259842519685
20
-5.0196850393700787
40
0.0068897637795276
0
CIRCLE
8
BLACK
10
5.392125984251968
20
-5.0196850393700787
40
0.0068897637795276
0
CIRCLE
8
BLACK
10
5.4921259842519685
20
-5.1196850393700783
40
0.0068897637795276
0
CIRCLE
8
BLACK
10
5.392125984251968
20
-5.1196850393700783
40
0.0068897637795276
0
CIRCLE
8
BLACK
10
5.4921259842519685
20
-5.2196850393700789
40
0.0068897637795276
0
CIRCLE
8
BLACK
10
5.392125984251968
20
-5.2196850393700789
40
0.0068897637795276
0
CIRCLE
8
BLACK
10
5.3346456692913389
20
-2.3228346456692912
40
0.0068897637795276
0
CIRCLE
8
BLACK
10
5.3346456692913389
20
-2.2736220472440944
40
0.0068897637795276
0
CIRCLE
8
BLACK
10
5.3346456692913389
20
-2.2244094488188977
40
0.0068897637795276
0
CIRCLE
8
BLACK
10
5.3346456692913389
20
-2.1751968503937009
40
0.0068897637795276
0
CIRCLE
8
BLACK
10
5.3346456692913389
20
-2.1259842519685037
40
0.0068897637795276
0
CIRCLE
8
BLACK
10
5.9753937007874018
20
-4.4291338582677167
40
0.0068897637795276
0
CIRCLE
8
BLACK
10
5.8753937007874013
20
-4.4291338582677167
40
0.0068897637795276
0
CIRCLE
8
BLACK
10
5.4921259842519685
20
-4.8196850393700785
40
0.0068897637795276
0
CIRCLE
8
BLACK
10
5.392125984251968
20
-4.8196850393700785
40
0.0068897637795276
0
CIRCLE
8
BLACK
10
5.4921259842519685
20
-4.9196850393700791
40
0.0068897637795276
0
CIRCLE
8
BLACK
10
5.392125984251968
20
-4.9196850393700791
40
0.0068897637795276
0
CIRCLE
8
BLACK
10
5.4921259842519685
20
-5.0196850393700787
40
0.0068897637795276
0
CIRCLE
8
BLACK
10
5.392125984251968
20
-5.0196850393700787
40
0.0068897637795276
0
CIRCLE
8
BLACK
10
5.4921259842519685
20
-5.1196850393700783
40
0.0068897637795276
0
CIRCLE
8
BLACK
10
5.392125984251968
20
-5.1196850393700783
40
0.0068897637795276
0
CIRCLE
8
BLACK
10
5.4921259842519685
20
-5.2196850393700789
40
0.0068897637795276
0
CIRCLE
8
BLACK
10
5.392125984251968
20
-5.2196850393700789
40
0.0068897637795276
  0
ENDSEC
  0
EOF
