  0
SECTION
  2
HEADER
  9
$ANGBASE
  50
0.0
  9
$ANGDIR
  70
1
  9
$MEASUREMENT
  70
0
  0
ENDSEC
  0
SECTION
  2
TABLES
  0
TABLE
  2
LTYPE
  70
4
  0
LTYPE
  5
40F
  2
CONTINUOUS
  70
0
  3
Solid line
  72
65
  73
0
  40
0.0
  0
LTYPE
  5
410
  2
DASHDOT
 70
0
  3
Dash Dot ____ _ ____ _
 72
65
 73
4
 40
2.0
 49
1.25
 49
-0.25
 49
0.25
 49
-0.25
  0
LTYPE
  5
411
  2
DASHED
 70
0
  3
Dashed __ __ __ __ __
 72
65
 73
2
 40
0.75
 49
0.5
 49
-0.25
  0
LTYPE
  5
43B
  2
DOTTED
 70
0
  3
Dotted .  .  .  .
 72
65
 73
2
 40
0.2
 49
0.0
 49
-0.2
  0
ENDTAB
  0
TABLE
  2
STYLE
  70
4
  0
STYLE
  2
KICAD
  70
0
  40
0
  41
1
  42
1
  50
0
  71
0
  3
isocp.shx
  0
STYLE
  2
KICADB
  70
0
  40
0
  41
1
  42
1
  50
0
  71
0
  3
isocp.shx
  0
STYLE
  2
KICADI
  70
0
  40
0
  41
1
  42
1
  50
15
  71
0
  3
isocp.shx
  0
STYLE
  2
KICADBI
  70
0
  40
0
  41
1
  42
1
  50
15
  71
0
  3
isocp.shx
  0
ENDTAB
  0
TABLE
  2
LAYER
  70
1
  0
LAYER
  2
BLACK
  70
0
  62
7
  6
CONTINUOUS
  0
ENDTAB
  0
ENDSEC
  0
SECTION
  2
ENTITIES
0
LINE
8
BLACK
6
CONTINUOUS
10
5.3543307086614176
20
-4.548818897637795
11
5.2362204724409445
21
-4.548818897637795
0
LINE
8
BLACK
6
CONTINUOUS
10
5.2362204724409445
20
-4.548818897637795
11
5.2362204724409445
21
-4.5094488188976376
0
LINE
8
BLACK
6
CONTINUOUS
10
5.2362204724409445
20
-4.5094488188976376
11
5.3543307086614176
21
-4.5094488188976376
0
LINE
8
BLACK
6
CONTINUOUS
10
5.3543307086614176
20
-4.5094488188976376
11
5.3543307086614176
21
-4.548818897637795
0
LINE
8
BLACK
6
CONTINUOUS
10
5.6692913385826769
20
-4.548818897637795
11
5.5511811023622046
21
-4.548818897637795
0
LINE
8
BLACK
6
CONTINUOUS
10
5.5511811023622046
20
-4.548818897637795
11
5.5511811023622046
21
-4.5094488188976376
0
LINE
8
BLACK
6
CONTINUOUS
10
5.5511811023622046
20
-4.5094488188976376
11
5.6692913385826769
21
-4.5094488188976376
0
LINE
8
BLACK
6
CONTINUOUS
10
5.6692913385826769
20
-4.5094488188976376
11
5.6692913385826769
21
-4.548818897637795
0
LINE
8
BLACK
6
CONTINUOUS
10
5.3543307086614176
20
-4.4488188976377954
11
5.2362204724409445
21
-4.4488188976377954
0
LINE
8
BLACK
6
CONTINUOUS
10
5.2362204724409445
20
-4.4488188976377954
11
5.2362204724409445
21
-4.409448818897638
0
LINE
8
BLACK
6
CONTINUOUS
10
5.2362204724409445
20
-4.409448818897638
11
5.3543307086614176
21
-4.409448818897638
0
LINE
8
BLACK
6
CONTINUOUS
10
5.3543307086614176
20
-4.409448818897638
11
5.3543307086614176
21
-4.4488188976377954
0
LINE
8
BLACK
6
CONTINUOUS
10
5.6692913385826769
20
-4.4488188976377954
11
5.5511811023622046
21
-4.4488188976377954
0
LINE
8
BLACK
6
CONTINUOUS
10
5.5511811023622046
20
-4.4488188976377954
11
5.5511811023622046
21
-4.409448818897638
0
LINE
8
BLACK
6
CONTINUOUS
10
5.5511811023622046
20
-4.409448818897638
11
5.6692913385826769
21
-4.409448818897638
0
LINE
8
BLACK
6
CONTINUOUS
10
5.6692913385826769
20
-4.409448818897638
11
5.6692913385826769
21
-4.4488188976377954
0
LINE
8
BLACK
6
CONTINUOUS
10
5.3543307086614176
20
-4.3488188976377948
11
5.2362204724409445
21
-4.3488188976377948
0
LINE
8
BLACK
6
CONTINUOUS
10
5.2362204724409445
20
-4.3488188976377948
11
5.2362204724409445
21
-4.3094488188976374
0
LINE
8
BLACK
6
CONTINUOUS
10
5.2362204724409445
20
-4.3094488188976374
11
5.3543307086614176
21
-4.3094488188976374
0
LINE
8
BLACK
6
CONTINUOUS
10
5.3543307086614176
20
-4.3094488188976374
11
5.3543307086614176
21
-4.3488188976377948
0
LINE
8
BLACK
6
CONTINUOUS
10
5.6692913385826769
20
-4.3488188976377948
11
5.5511811023622046
21
-4.3488188976377948
0
LINE
8
BLACK
6
CONTINUOUS
10
5.5511811023622046
20
-4.3488188976377948
11
5.5511811023622046
21
-4.3094488188976374
0
LINE
8
BLACK
6
CONTINUOUS
10
5.5511811023622046
20
-4.3094488188976374
11
5.6692913385826769
21
-4.3094488188976374
0
LINE
8
BLACK
6
CONTINUOUS
10
5.6692913385826769
20
-4.3094488188976374
11
5.6692913385826769
21
-4.3488188976377948
0
CIRCLE
8
BLACK
10
5.3346456692913389
20
-2.3228346456692912
40
0.0068897637795276
0
CIRCLE
8
BLACK
10
5.3346456692913389
20
-2.2736220472440944
40
0.0068897637795276
0
CIRCLE
8
BLACK
10
5.3346456692913389
20
-2.2244094488188977
40
0.0068897637795276
0
CIRCLE
8
BLACK
10
5.3346456692913389
20
-2.1751968503937009
40
0.0068897637795276
0
CIRCLE
8
BLACK
10
5.3346456692913389
20
-2.1259842519685037
40
0.0068897637795276
0
CIRCLE
8
BLACK
10
5.9753937007874018
20
-4.4291338582677167
40
0.0068897637795276
0
CIRCLE
8
BLACK
10
5.8753937007874013
20
-4.4291338582677167
40
0.0068897637795276
0
CIRCLE
8
BLACK
10
5.4921259842519685
20
-4.8196850393700785
40
0.0068897637795276
0
CIRCLE
8
BLACK
10
5.392125984251968
20
-4.8196850393700785
40
0.0068897637795276
0
CIRCLE
8
BLACK
10
5.4921259842519685
20
-4.9196850393700791
40
0.0068897637795276
0
CIRCLE
8
BLACK
10
5.392125984251968
20
-4.9196850393700791
40
0.0068897637795276
0
CIRCLE
8
BLACK
10
5.4921259842519685
20
-5.0196850393700787
40
0.0068897637795276
0
CIRCLE
8
BLACK
10
5.392125984251968
20
-5.0196850393700787
40
0.0068897637795276
0
CIRCLE
8
BLACK
10
5.4921259842519685
20
-5.1196850393700783
40
0.0068897637795276
0
CIRCLE
8
BLACK
10
5.392125984251968
20
-5.1196850393700783
40
0.0068897637795276
0
CIRCLE
8
BLACK
10
5.4921259842519685
20
-5.2196850393700789
40
0.0068897637795276
0
CIRCLE
8
BLACK
10
5.392125984251968
20
-5.2196850393700789
40
0.0068897637795276
  0
ENDSEC
  0
EOF
