  0
SECTION
  2
HEADER
  9
$ANGBASE
  50
0.0
  9
$ANGDIR
  70
1
  9
$MEASUREMENT
  70
0
  0
ENDSEC
  0
SECTION
  2
TABLES
  0
TABLE
  2
LTYPE
  70
4
  0
LTYPE
  5
40F
  2
CONTINUOUS
  70
0
  3
Solid line
  72
65
  73
0
  40
0.0
  0
LTYPE
  5
410
  2
DASHDOT
 70
0
  3
Dash Dot ____ _ ____ _
 72
65
 73
4
 40
2.0
 49
1.25
 49
-0.25
 49
0.25
 49
-0.25
  0
LTYPE
  5
411
  2
DASHED
 70
0
  3
Dashed __ __ __ __ __
 72
65
 73
2
 40
0.75
 49
0.5
 49
-0.25
  0
LTYPE
  5
43B
  2
DOTTED
 70
0
  3
Dotted .  .  .  .
 72
65
 73
2
 40
0.2
 49
0.0
 49
-0.2
  0
ENDTAB
  0
TABLE
  2
STYLE
  70
4
  0
STYLE
  2
KICAD
  70
0
  40
0
  41
1
  42
1
  50
0
  71
0
  3
isocp.shx
  0
STYLE
  2
KICADB
  70
0
  40
0
  41
1
  42
1
  50
0
  71
0
  3
isocp.shx
  0
STYLE
  2
KICADI
  70
0
  40
0
  41
1
  42
1
  50
15
  71
0
  3
isocp.shx
  0
STYLE
  2
KICADBI
  70
0
  40
0
  41
1
  42
1
  50
15
  71
0
  3
isocp.shx
  0
ENDTAB
  0
TABLE
  2
LAYER
  70
1
  0
LAYER
  2
BLACK
  70
0
  62
7
  6
CONTINUOUS
  0
ENDTAB
  0
ENDSEC
  0
SECTION
  2
ENTITIES
0
LINE
8
BLACK
6
CONTINUOUS
10
6.0834304724409449
20
-4.092669527559055
11
6.0844958267716533
21
-4.0937348818897634
0
LINE
8
BLACK
6
CONTINUOUS
10
6.0844958267716533
20
-4.0937348818897634
11
6.0846456692913389
21
-4.0944881889763778
0
LINE
8
BLACK
6
CONTINUOUS
10
6.0846456692913389
20
-4.0944881889763778
11
6.0846456692913389
21
-5.393700787401575
0
LINE
8
BLACK
6
CONTINUOUS
10
6.0846456692913389
20
-5.393700787401575
11
6.0844958267716533
21
-5.3944540944881885
0
LINE
8
BLACK
6
CONTINUOUS
10
6.0844958267716533
20
-5.3944540944881885
11
6.0834304724409449
21
-5.3955194488188978
0
LINE
8
BLACK
6
CONTINUOUS
10
6.0834304724409449
20
-5.3955194488188978
11
6.0826771653543306
21
-5.3956692913385824
0
LINE
8
BLACK
6
CONTINUOUS
10
6.0826771653543306
20
-5.3956692913385824
11
4.7834645669291334
21
-5.3956692913385824
0
LINE
8
BLACK
6
CONTINUOUS
10
4.7834645669291334
20
-5.3956692913385824
11
4.7827112598425199
21
-5.3955194488188978
0
LINE
8
BLACK
6
CONTINUOUS
10
4.7827112598425199
20
-5.3955194488188978
11
4.7816459055118106
21
-5.3944540944881885
0
LINE
8
BLACK
6
CONTINUOUS
10
4.7816459055118106
20
-5.3944540944881885
11
4.7814960629921259
21
-5.393700787401575
0
LINE
8
BLACK
6
CONTINUOUS
10
4.7814960629921259
20
-5.393700787401575
11
4.7814960629921259
21
-4.0944881889763778
0
LINE
8
BLACK
6
CONTINUOUS
10
4.7814960629921259
20
-4.0944881889763778
11
4.7816459055118106
21
-4.0937348818897634
0
LINE
8
BLACK
6
CONTINUOUS
10
4.7816459055118106
20
-4.0937348818897634
11
4.7827112598425199
21
-4.092669527559055
0
LINE
8
BLACK
6
CONTINUOUS
10
4.7827112598425199
20
-4.092669527559055
11
4.7834645669291334
21
-4.0925196850393704
0
LINE
8
BLACK
6
CONTINUOUS
10
4.7834645669291334
20
-4.0925196850393704
11
6.0826771653543306
21
-4.0925196850393704
0
LINE
8
BLACK
6
CONTINUOUS
10
6.0826771653543306
20
-4.0925196850393704
11
6.0834304724409449
21
-4.092669527559055
0
LINE
8
BLACK
6
CONTINUOUS
10
4.7854330708661417
20
-4.0964566929133861
11
4.7854330708661417
21
-5.3917322834645667
0
LINE
8
BLACK
6
CONTINUOUS
10
4.7854330708661417
20
-5.3917322834645667
11
6.0807086614173231
21
-5.3917322834645667
0
LINE
8
BLACK
6
CONTINUOUS
10
6.0807086614173231
20
-5.3917322834645667
11
6.0807086614173231
21
-4.0964566929133861
0
LINE
8
BLACK
6
CONTINUOUS
10
6.0807086614173231
20
-4.0964566929133861
11
4.7854330708661417
21
-4.0964566929133861
0
LINE
8
BLACK
6
CONTINUOUS
10
6.3157139370078736
20
-3.8505435433070865
11
6.316779291338583
21
-3.8516088976377953
0
LINE
8
BLACK
6
CONTINUOUS
10
6.316779291338583
20
-3.8516088976377953
11
6.3169291338582676
21
-3.8523622047244093
0
LINE
8
BLACK
6
CONTINUOUS
10
6.3169291338582676
20
-3.8523622047244093
11
6.3169291338582676
21
-5.6240157480314963
0
LINE
8
BLACK
6
CONTINUOUS
10
6.3169291338582676
20
-5.6240157480314963
11
6.316779291338583
21
-5.6247690551181098
0
LINE
8
BLACK
6
CONTINUOUS
10
6.316779291338583
20
-5.6247690551181098
11
6.3157139370078736
21
-5.6258344094488191
0
LINE
8
BLACK
6
CONTINUOUS
10
6.3157139370078736
20
-5.6258344094488191
11
6.3149606299212593
21
-5.6259842519685037
0
LINE
8
BLACK
6
CONTINUOUS
10
6.3149606299212593
20
-5.6259842519685037
11
4.5433070866141732
21
-5.6259842519685037
0
LINE
8
BLACK
6
CONTINUOUS
10
4.5433070866141732
20
-5.6259842519685037
11
4.5425537795275588
21
-5.6258344094488191
0
LINE
8
BLACK
6
CONTINUOUS
10
4.5425537795275588
20
-5.6258344094488191
11
4.5414884251968504
21
-5.6247690551181098
0
LINE
8
BLACK
6
CONTINUOUS
10
4.5414884251968504
20
-5.6247690551181098
11
4.5413385826771648
21
-5.6240157480314963
0
LINE
8
BLACK
6
CONTINUOUS
10
4.5413385826771648
20
-5.6240157480314963
11
4.5413385826771648
21
-3.8523622047244093
0
LINE
8
BLACK
6
CONTINUOUS
10
4.5413385826771648
20
-3.8523622047244093
11
4.5414884251968504
21
-3.8516088976377953
0
LINE
8
BLACK
6
CONTINUOUS
10
4.5414884251968504
20
-3.8516088976377953
11
4.5425537795275588
21
-3.8505435433070865
0
LINE
8
BLACK
6
CONTINUOUS
10
4.5425537795275588
20
-3.8505435433070865
11
4.5433070866141732
21
-3.8503937007874014
0
LINE
8
BLACK
6
CONTINUOUS
10
4.5433070866141732
20
-3.8503937007874014
11
6.3149606299212593
21
-3.8503937007874014
0
LINE
8
BLACK
6
CONTINUOUS
10
6.3149606299212593
20
-3.8503937007874014
11
6.3157139370078736
21
-3.8505435433070865
0
LINE
8
BLACK
6
CONTINUOUS
10
4.5452755905511806
20
-3.8543307086614171
11
4.5452755905511806
21
-5.622047244094488
0
LINE
8
BLACK
6
CONTINUOUS
10
4.5452755905511806
20
-5.622047244094488
11
6.3129921259842519
21
-5.622047244094488
0
LINE
8
BLACK
6
CONTINUOUS
10
6.3129921259842519
20
-5.622047244094488
11
6.3129921259842519
21
-3.8543307086614171
0
LINE
8
BLACK
6
CONTINUOUS
10
6.3129921259842519
20
-3.8543307086614171
11
4.5452755905511806
21
-3.8543307086614171
0
LINE
8
BLACK
6
CONTINUOUS
10
6.0834304724409449
20
-1.9076301574803149
11
6.0844958267716533
21
-1.9086955118110236
0
LINE
8
BLACK
6
CONTINUOUS
10
6.0844958267716533
20
-1.9086955118110236
11
6.0846456692913389
21
-1.9094488188976377
0
LINE
8
BLACK
6
CONTINUOUS
10
6.0846456692913389
20
-1.9094488188976377
11
6.0846456692913389
21
-3.2086614173228347
0
LINE
8
BLACK
6
CONTINUOUS
10
6.0846456692913389
20
-3.2086614173228347
11
6.0844958267716533
21
-3.2094147244094486
0
LINE
8
BLACK
6
CONTINUOUS
10
6.0844958267716533
20
-3.2094147244094486
11
6.0834304724409449
21
-3.2104800787401575
0
LINE
8
BLACK
6
CONTINUOUS
10
6.0834304724409449
20
-3.2104800787401575
11
6.0826771653543306
21
-3.2106299212598426
0
LINE
8
BLACK
6
CONTINUOUS
10
6.0826771653543306
20
-3.2106299212598426
11
4.7834645669291334
21
-3.2106299212598426
0
LINE
8
BLACK
6
CONTINUOUS
10
4.7834645669291334
20
-3.2106299212598426
11
4.7827112598425199
21
-3.2104800787401575
0
LINE
8
BLACK
6
CONTINUOUS
10
4.7827112598425199
20
-3.2104800787401575
11
4.7816459055118106
21
-3.2094147244094486
0
LINE
8
BLACK
6
CONTINUOUS
10
4.7816459055118106
20
-3.2094147244094486
11
4.7814960629921259
21
-3.2086614173228347
0
LINE
8
BLACK
6
CONTINUOUS
10
4.7814960629921259
20
-3.2086614173228347
11
4.7814960629921259
21
-1.9094488188976377
0
LINE
8
BLACK
6
CONTINUOUS
10
4.7814960629921259
20
-1.9094488188976377
11
4.7816459055118106
21
-1.9086955118110236
0
LINE
8
BLACK
6
CONTINUOUS
10
4.7816459055118106
20
-1.9086955118110236
11
4.7827112598425199
21
-1.9076301574803149
0
LINE
8
BLACK
6
CONTINUOUS
10
4.7827112598425199
20
-1.9076301574803149
11
4.7834645669291334
21
-1.9074803149606299
0
LINE
8
BLACK
6
CONTINUOUS
10
4.7834645669291334
20
-1.9074803149606299
11
6.0826771653543306
21
-1.9074803149606299
0
LINE
8
BLACK
6
CONTINUOUS
10
6.0826771653543306
20
-1.9074803149606299
11
6.0834304724409449
21
-1.9076301574803149
0
LINE
8
BLACK
6
CONTINUOUS
10
4.7854330708661417
20
-1.9114173228346456
11
4.7854330708661417
21
-3.2066929133858268
0
LINE
8
BLACK
6
CONTINUOUS
10
4.7854330708661417
20
-3.2066929133858268
11
6.0807086614173231
21
-3.2066929133858268
0
LINE
8
BLACK
6
CONTINUOUS
10
6.0807086614173231
20
-3.2066929133858268
11
6.0807086614173231
21
-1.9114173228346456
0
LINE
8
BLACK
6
CONTINUOUS
10
6.0807086614173231
20
-1.9114173228346456
11
4.7854330708661417
21
-1.9114173228346456
0
LINE
8
BLACK
6
CONTINUOUS
10
6.3157139370078736
20
-1.6615671653543307
11
6.316779291338583
21
-1.6626325196850393
0
LINE
8
BLACK
6
CONTINUOUS
10
6.316779291338583
20
-1.6626325196850393
11
6.3169291338582676
21
-1.6633858267716535
0
LINE
8
BLACK
6
CONTINUOUS
10
6.3169291338582676
20
-1.6633858267716535
11
6.3169291338582676
21
-3.4350393700787403
0
LINE
8
BLACK
6
CONTINUOUS
10
6.3169291338582676
20
-3.4350393700787403
11
6.316779291338583
21
-3.4357926771653542
0
LINE
8
BLACK
6
CONTINUOUS
10
6.316779291338583
20
-3.4357926771653542
11
6.3157139370078736
21
-3.4368580314960631
0
LINE
8
BLACK
6
CONTINUOUS
10
6.3157139370078736
20
-3.4368580314960631
11
6.3149606299212593
21
-3.4370078740157481
0
LINE
8
BLACK
6
CONTINUOUS
10
6.3149606299212593
20
-3.4370078740157481
11
4.5433070866141732
21
-3.4370078740157481
0
LINE
8
BLACK
6
CONTINUOUS
10
4.5433070866141732
20
-3.4370078740157481
11
4.5425537795275588
21
-3.4368580314960631
0
LINE
8
BLACK
6
CONTINUOUS
10
4.5425537795275588
20
-3.4368580314960631
11
4.5414884251968504
21
-3.4357926771653542
0
LINE
8
BLACK
6
CONTINUOUS
10
4.5414884251968504
20
-3.4357926771653542
11
4.5413385826771648
21
-3.4350393700787403
0
LINE
8
BLACK
6
CONTINUOUS
10
4.5413385826771648
20
-3.4350393700787403
11
4.5413385826771648
21
-1.6633858267716535
0
LINE
8
BLACK
6
CONTINUOUS
10
4.5413385826771648
20
-1.6633858267716535
11
4.5414884251968504
21
-1.6626325196850393
0
LINE
8
BLACK
6
CONTINUOUS
10
4.5414884251968504
20
-1.6626325196850393
11
4.5425537795275588
21
-1.6615671653543307
0
LINE
8
BLACK
6
CONTINUOUS
10
4.5425537795275588
20
-1.6615671653543307
11
4.5433070866141732
21
-1.6614173228346456
0
LINE
8
BLACK
6
CONTINUOUS
10
4.5433070866141732
20
-1.6614173228346456
11
6.3149606299212593
21
-1.6614173228346456
0
LINE
8
BLACK
6
CONTINUOUS
10
6.3149606299212593
20
-1.6614173228346456
11
6.3157139370078736
21
-1.6615671653543307
0
LINE
8
BLACK
6
CONTINUOUS
10
4.5452755905511806
20
-1.6653543307086613
11
4.5452755905511806
21
-3.4330708661417324
0
LINE
8
BLACK
6
CONTINUOUS
10
4.5452755905511806
20
-3.4330708661417324
11
6.3129921259842519
21
-3.4330708661417324
0
LINE
8
BLACK
6
CONTINUOUS
10
6.3129921259842519
20
-3.4330708661417324
11
6.3129921259842519
21
-1.6653543307086613
0
LINE
8
BLACK
6
CONTINUOUS
10
6.3129921259842519
20
-1.6653543307086613
11
4.5452755905511806
21
-1.6653543307086613
0
CIRCLE
8
BLACK
10
5.3346456692913389
20
-2.3228346456692912
40
0.0068897637795276
0
CIRCLE
8
BLACK
10
5.3346456692913389
20
-2.2736220472440944
40
0.0068897637795276
0
CIRCLE
8
BLACK
10
5.3346456692913389
20
-2.2244094488188977
40
0.0068897637795276
0
CIRCLE
8
BLACK
10
5.3346456692913389
20
-2.1751968503937009
40
0.0068897637795276
0
CIRCLE
8
BLACK
10
5.3346456692913389
20
-2.1259842519685037
40
0.0068897637795276
0
CIRCLE
8
BLACK
10
5.9753937007874018
20
-4.4291338582677167
40
0.0068897637795276
0
CIRCLE
8
BLACK
10
5.8753937007874013
20
-4.4291338582677167
40
0.0068897637795276
0
CIRCLE
8
BLACK
10
5.4921259842519685
20
-4.8196850393700785
40
0.0068897637795276
0
CIRCLE
8
BLACK
10
5.392125984251968
20
-4.8196850393700785
40
0.0068897637795276
0
CIRCLE
8
BLACK
10
5.4921259842519685
20
-4.9196850393700791
40
0.0068897637795276
0
CIRCLE
8
BLACK
10
5.392125984251968
20
-4.9196850393700791
40
0.0068897637795276
0
CIRCLE
8
BLACK
10
5.4921259842519685
20
-5.0196850393700787
40
0.0068897637795276
0
CIRCLE
8
BLACK
10
5.392125984251968
20
-5.0196850393700787
40
0.0068897637795276
0
CIRCLE
8
BLACK
10
5.4921259842519685
20
-5.1196850393700783
40
0.0068897637795276
0
CIRCLE
8
BLACK
10
5.392125984251968
20
-5.1196850393700783
40
0.0068897637795276
0
CIRCLE
8
BLACK
10
5.4921259842519685
20
-5.2196850393700789
40
0.0068897637795276
0
CIRCLE
8
BLACK
10
5.392125984251968
20
-5.2196850393700789
40
0.0068897637795276
0
CIRCLE
8
BLACK
10
5.3346456692913389
20
-2.3228346456692912
40
0.0068897637795276
0
CIRCLE
8
BLACK
10
5.3346456692913389
20
-2.2736220472440944
40
0.0068897637795276
0
CIRCLE
8
BLACK
10
5.3346456692913389
20
-2.2244094488188977
40
0.0068897637795276
0
CIRCLE
8
BLACK
10
5.3346456692913389
20
-2.1751968503937009
40
0.0068897637795276
0
CIRCLE
8
BLACK
10
5.3346456692913389
20
-2.1259842519685037
40
0.0068897637795276
0
CIRCLE
8
BLACK
10
5.9753937007874018
20
-4.4291338582677167
40
0.0068897637795276
0
CIRCLE
8
BLACK
10
5.8753937007874013
20
-4.4291338582677167
40
0.0068897637795276
0
CIRCLE
8
BLACK
10
5.4921259842519685
20
-4.8196850393700785
40
0.0068897637795276
0
CIRCLE
8
BLACK
10
5.392125984251968
20
-4.8196850393700785
40
0.0068897637795276
0
CIRCLE
8
BLACK
10
5.4921259842519685
20
-4.9196850393700791
40
0.0068897637795276
0
CIRCLE
8
BLACK
10
5.392125984251968
20
-4.9196850393700791
40
0.0068897637795276
0
CIRCLE
8
BLACK
10
5.4921259842519685
20
-5.0196850393700787
40
0.0068897637795276
0
CIRCLE
8
BLACK
10
5.392125984251968
20
-5.0196850393700787
40
0.0068897637795276
0
CIRCLE
8
BLACK
10
5.4921259842519685
20
-5.1196850393700783
40
0.0068897637795276
0
CIRCLE
8
BLACK
10
5.392125984251968
20
-5.1196850393700783
40
0.0068897637795276
0
CIRCLE
8
BLACK
10
5.4921259842519685
20
-5.2196850393700789
40
0.0068897637795276
0
CIRCLE
8
BLACK
10
5.392125984251968
20
-5.2196850393700789
40
0.0068897637795276
  0
ENDSEC
  0
EOF
