  0
SECTION
  2
HEADER
  9
$ANGBASE
  50
0.0
  9
$ANGDIR
  70
1
  9
$MEASUREMENT
  70
0
  0
ENDSEC
  0
SECTION
  2
TABLES
  0
TABLE
  2
LTYPE
  70
4
  0
LTYPE
  5
40F
  2
CONTINUOUS
  70
0
  3
Solid line
  72
65
  73
0
  40
0.0
  0
LTYPE
  5
410
  2
DASHDOT
 70
0
  3
Dash Dot ____ _ ____ _
 72
65
 73
4
 40
2.0
 49
1.25
 49
-0.25
 49
0.25
 49
-0.25
  0
LTYPE
  5
411
  2
DASHED
 70
0
  3
Dashed __ __ __ __ __
 72
65
 73
2
 40
0.75
 49
0.5
 49
-0.25
  0
LTYPE
  5
43B
  2
DOTTED
 70
0
  3
Dotted .  .  .  .
 72
65
 73
2
 40
0.2
 49
0.0
 49
-0.2
  0
ENDTAB
  0
TABLE
  2
STYLE
  70
4
  0
STYLE
  2
KICAD
  70
0
  40
0
  41
1
  42
1
  50
0
  71
0
  3
isocp.shx
  0
STYLE
  2
KICADB
  70
0
  40
0
  41
1
  42
1
  50
0
  71
0
  3
isocp.shx
  0
STYLE
  2
KICADI
  70
0
  40
0
  41
1
  42
1
  50
15
  71
0
  3
isocp.shx
  0
STYLE
  2
KICADBI
  70
0
  40
0
  41
1
  42
1
  50
15
  71
0
  3
isocp.shx
  0
ENDTAB
  0
TABLE
  2
LAYER
  70
1
  0
LAYER
  2
BLACK
  70
0
  62
7
  6
CONTINUOUS
  0
ENDTAB
  0
ENDSEC
  0
SECTION
  2
ENTITIES
0
LINE
8
BLACK
6
CONTINUOUS
10
5.5621876771653538
20
-4.7490906692913386
11
5.5627203543307084
21
-4.7496233464566924
0
LINE
8
BLACK
6
CONTINUOUS
10
5.5627203543307084
20
-4.7496233464566924
11
5.5627952755905508
21
-4.75
0
LINE
8
BLACK
6
CONTINUOUS
10
5.5627952755905508
20
-4.75
11
5.5627952755905508
21
-5.2893700787401574
0
LINE
8
BLACK
6
CONTINUOUS
10
5.5627952755905508
20
-5.2893700787401574
11
5.5627203543307084
21
-5.2897467322834641
0
LINE
8
BLACK
6
CONTINUOUS
10
5.5627203543307084
20
-5.2897467322834641
11
5.5621876771653538
21
-5.2902794094488188
0
LINE
8
BLACK
6
CONTINUOUS
10
5.5621876771653538
20
-5.2902794094488188
11
5.561811023622047
21
-5.2903543307086611
0
LINE
8
BLACK
6
CONTINUOUS
10
5.561811023622047
20
-5.2903543307086611
11
5.3220472440944881
21
-5.2903543307086611
0
LINE
8
BLACK
6
CONTINUOUS
10
5.3220472440944881
20
-5.2903543307086611
11
5.3216705905511814
21
-5.2902794094488188
0
LINE
8
BLACK
6
CONTINUOUS
10
5.3216705905511814
20
-5.2902794094488188
11
5.3211379133858268
21
-5.2897467322834641
0
LINE
8
BLACK
6
CONTINUOUS
10
5.3211379133858268
20
-5.2897467322834641
11
5.3210629921259844
21
-5.2893700787401574
0
LINE
8
BLACK
6
CONTINUOUS
10
5.3210629921259844
20
-5.2893700787401574
11
5.3210629921259844
21
-4.75
0
LINE
8
BLACK
6
CONTINUOUS
10
5.3210629921259844
20
-4.75
11
5.3211379133858268
21
-4.7496233464566924
0
LINE
8
BLACK
6
CONTINUOUS
10
5.3211379133858268
20
-4.7496233464566924
11
5.3216705905511814
21
-4.7490906692913386
0
LINE
8
BLACK
6
CONTINUOUS
10
5.3216705905511814
20
-4.7490906692913386
11
5.3220472440944881
21
-4.7490157480314963
0
LINE
8
BLACK
6
CONTINUOUS
10
5.3220472440944881
20
-4.7490157480314963
11
5.561811023622047
21
-4.7490157480314963
0
LINE
8
BLACK
6
CONTINUOUS
10
5.561811023622047
20
-4.7490157480314963
11
5.5621876771653538
21
-4.7490906692913386
0
LINE
8
BLACK
6
CONTINUOUS
10
5.3230314960629919
20
-4.7509842519685037
11
5.3230314960629919
21
-5.2883858267716537
0
LINE
8
BLACK
6
CONTINUOUS
10
5.3230314960629919
20
-5.2883858267716537
11
5.5608267716535433
21
-5.2883858267716537
0
LINE
8
BLACK
6
CONTINUOUS
10
5.5608267716535433
20
-5.2883858267716537
11
5.5608267716535433
21
-4.7509842519685037
0
LINE
8
BLACK
6
CONTINUOUS
10
5.5608267716535433
20
-4.7509842519685037
11
5.3230314960629919
21
-4.7509842519685037
0
LINE
8
BLACK
6
CONTINUOUS
10
5.6795105118110234
20
-4.2746812204724405
11
5.6800431889763781
21
-4.2752138976377951
0
LINE
8
BLACK
6
CONTINUOUS
10
5.6800431889763781
20
-4.2752138976377951
11
5.6801181102362204
21
-4.2755905511811019
0
LINE
8
BLACK
6
CONTINUOUS
10
5.6801181102362204
20
-4.2755905511811019
11
5.6801181102362204
21
-4.5826771653543306
0
LINE
8
BLACK
6
CONTINUOUS
10
5.6801181102362204
20
-4.5826771653543306
11
5.6800431889763781
21
-4.5830538188976373
0
LINE
8
BLACK
6
CONTINUOUS
10
5.6800431889763781
20
-4.5830538188976373
11
5.6795105118110234
21
-4.583586496062992
0
LINE
8
BLACK
6
CONTINUOUS
10
5.6795105118110234
20
-4.583586496062992
11
5.6791338582677167
21
-4.5836614173228343
0
LINE
8
BLACK
6
CONTINUOUS
10
5.6791338582677167
20
-4.5836614173228343
11
5.2263779527559056
21
-4.5836614173228343
0
LINE
8
BLACK
6
CONTINUOUS
10
5.2263779527559056
20
-4.5836614173228343
11
5.2260012992125979
21
-4.583586496062992
0
LINE
8
BLACK
6
CONTINUOUS
10
5.2260012992125979
20
-4.583586496062992
11
5.2254686220472442
21
-4.5830538188976373
0
LINE
8
BLACK
6
CONTINUOUS
10
5.2254686220472442
20
-4.5830538188976373
11
5.2253937007874018
21
-4.5826771653543306
0
LINE
8
BLACK
6
CONTINUOUS
10
5.2253937007874018
20
-4.5826771653543306
11
5.2253937007874018
21
-4.2755905511811019
0
LINE
8
BLACK
6
CONTINUOUS
10
5.2253937007874018
20
-4.2755905511811019
11
5.2254686220472442
21
-4.2752138976377951
0
LINE
8
BLACK
6
CONTINUOUS
10
5.2254686220472442
20
-4.2752138976377951
11
5.2260012992125979
21
-4.2746812204724405
0
LINE
8
BLACK
6
CONTINUOUS
10
5.2260012992125979
20
-4.2746812204724405
11
5.2263779527559056
21
-4.2746062992125982
0
LINE
8
BLACK
6
CONTINUOUS
10
5.2263779527559056
20
-4.2746062992125982
11
5.6791338582677167
21
-4.2746062992125982
0
LINE
8
BLACK
6
CONTINUOUS
10
5.6791338582677167
20
-4.2746062992125982
11
5.6795105118110234
21
-4.2746812204724405
0
LINE
8
BLACK
6
CONTINUOUS
10
5.2273622047244093
20
-4.2765748031496065
11
5.2273622047244093
21
-4.5816929133858268
0
LINE
8
BLACK
6
CONTINUOUS
10
5.2273622047244093
20
-4.5816929133858268
11
5.6781496062992121
21
-4.5816929133858268
0
LINE
8
BLACK
6
CONTINUOUS
10
5.6781496062992121
20
-4.5816929133858268
11
5.6781496062992121
21
-4.2765748031496065
0
LINE
8
BLACK
6
CONTINUOUS
10
5.6781496062992121
20
-4.2765748031496065
11
5.2273622047244093
21
-4.2765748031496065
0
LINE
8
BLACK
6
CONTINUOUS
10
6.0454553937007871
20
-4.3585394881889759
11
6.0459880708661418
21
-4.3590721653543305
0
LINE
8
BLACK
6
CONTINUOUS
10
6.0459880708661418
20
-4.3590721653543305
11
6.0460629921259841
21
-4.3594488188976381
0
LINE
8
BLACK
6
CONTINUOUS
10
6.0460629921259841
20
-4.3594488188976381
11
6.0460629921259841
21
-4.4988188976377952
0
LINE
8
BLACK
6
CONTINUOUS
10
6.0460629921259841
20
-4.4988188976377952
11
6.0459880708661418
21
-4.4991955511811019
0
LINE
8
BLACK
6
CONTINUOUS
10
6.0459880708661418
20
-4.4991955511811019
11
6.0454553937007871
21
-4.4997282283464566
0
LINE
8
BLACK
6
CONTINUOUS
10
6.0454553937007871
20
-4.4997282283464566
11
6.0450787401574804
21
-4.4998031496062989
0
LINE
8
BLACK
6
CONTINUOUS
10
6.0450787401574804
20
-4.4998031496062989
11
5.8053149606299215
21
-4.4998031496062989
0
LINE
8
BLACK
6
CONTINUOUS
10
5.8053149606299215
20
-4.4998031496062989
11
5.8049383070866138
21
-4.4997282283464566
0
LINE
8
BLACK
6
CONTINUOUS
10
5.8049383070866138
20
-4.4997282283464566
11
5.8044056299212601
21
-4.4991955511811019
0
LINE
8
BLACK
6
CONTINUOUS
10
5.8044056299212601
20
-4.4991955511811019
11
5.8043307086614169
21
-4.4988188976377952
0
LINE
8
BLACK
6
CONTINUOUS
10
5.8043307086614169
20
-4.4988188976377952
11
5.8043307086614169
21
-4.3594488188976381
0
LINE
8
BLACK
6
CONTINUOUS
10
5.8043307086614169
20
-4.3594488188976381
11
5.8044056299212601
21
-4.3590721653543305
0
LINE
8
BLACK
6
CONTINUOUS
10
5.8044056299212601
20
-4.3590721653543305
11
5.8049383070866138
21
-4.3585394881889759
0
LINE
8
BLACK
6
CONTINUOUS
10
5.8049383070866138
20
-4.3585394881889759
11
5.8053149606299215
21
-4.3584645669291335
0
LINE
8
BLACK
6
CONTINUOUS
10
5.8053149606299215
20
-4.3584645669291335
11
6.0450787401574804
21
-4.3584645669291335
0
LINE
8
BLACK
6
CONTINUOUS
10
6.0450787401574804
20
-4.3584645669291335
11
6.0454553937007871
21
-4.3585394881889759
0
LINE
8
BLACK
6
CONTINUOUS
10
5.8062992125984252
20
-4.3604330708661418
11
5.8062992125984252
21
-4.4978346456692915
0
LINE
8
BLACK
6
CONTINUOUS
10
5.8062992125984252
20
-4.4978346456692915
11
6.0440944881889767
21
-4.4978346456692915
0
LINE
8
BLACK
6
CONTINUOUS
10
6.0440944881889767
20
-4.4978346456692915
11
6.0440944881889767
21
-4.3604330708661418
0
LINE
8
BLACK
6
CONTINUOUS
10
6.0440944881889767
20
-4.3604330708661418
11
5.8062992125984252
21
-4.3604330708661418
0
CIRCLE
8
BLACK
10
5.3346456692913389
20
-2.3228346456692912
40
0.0068897637795276
0
CIRCLE
8
BLACK
10
5.3346456692913389
20
-2.2736220472440944
40
0.0068897637795276
0
CIRCLE
8
BLACK
10
5.3346456692913389
20
-2.2244094488188977
40
0.0068897637795276
0
CIRCLE
8
BLACK
10
5.3346456692913389
20
-2.1751968503937009
40
0.0068897637795276
0
CIRCLE
8
BLACK
10
5.3346456692913389
20
-2.1259842519685037
40
0.0068897637795276
0
CIRCLE
8
BLACK
10
5.9753937007874018
20
-4.4291338582677167
40
0.0068897637795276
0
CIRCLE
8
BLACK
10
5.8753937007874013
20
-4.4291338582677167
40
0.0068897637795276
0
CIRCLE
8
BLACK
10
5.4921259842519685
20
-4.8196850393700785
40
0.0068897637795276
0
CIRCLE
8
BLACK
10
5.392125984251968
20
-4.8196850393700785
40
0.0068897637795276
0
CIRCLE
8
BLACK
10
5.4921259842519685
20
-4.9196850393700791
40
0.0068897637795276
0
CIRCLE
8
BLACK
10
5.392125984251968
20
-4.9196850393700791
40
0.0068897637795276
0
CIRCLE
8
BLACK
10
5.4921259842519685
20
-5.0196850393700787
40
0.0068897637795276
0
CIRCLE
8
BLACK
10
5.392125984251968
20
-5.0196850393700787
40
0.0068897637795276
0
CIRCLE
8
BLACK
10
5.4921259842519685
20
-5.1196850393700783
40
0.0068897637795276
0
CIRCLE
8
BLACK
10
5.392125984251968
20
-5.1196850393700783
40
0.0068897637795276
0
CIRCLE
8
BLACK
10
5.4921259842519685
20
-5.2196850393700789
40
0.0068897637795276
0
CIRCLE
8
BLACK
10
5.392125984251968
20
-5.2196850393700789
40
0.0068897637795276
0
CIRCLE
8
BLACK
10
5.3346456692913389
20
-2.3228346456692912
40
0.0068897637795276
0
CIRCLE
8
BLACK
10
5.3346456692913389
20
-2.2736220472440944
40
0.0068897637795276
0
CIRCLE
8
BLACK
10
5.3346456692913389
20
-2.2244094488188977
40
0.0068897637795276
0
CIRCLE
8
BLACK
10
5.3346456692913389
20
-2.1751968503937009
40
0.0068897637795276
0
CIRCLE
8
BLACK
10
5.3346456692913389
20
-2.1259842519685037
40
0.0068897637795276
0
CIRCLE
8
BLACK
10
5.9753937007874018
20
-4.4291338582677167
40
0.0068897637795276
0
CIRCLE
8
BLACK
10
5.8753937007874013
20
-4.4291338582677167
40
0.0068897637795276
0
CIRCLE
8
BLACK
10
5.4921259842519685
20
-4.8196850393700785
40
0.0068897637795276
0
CIRCLE
8
BLACK
10
5.392125984251968
20
-4.8196850393700785
40
0.0068897637795276
0
CIRCLE
8
BLACK
10
5.4921259842519685
20
-4.9196850393700791
40
0.0068897637795276
0
CIRCLE
8
BLACK
10
5.392125984251968
20
-4.9196850393700791
40
0.0068897637795276
0
CIRCLE
8
BLACK
10
5.4921259842519685
20
-5.0196850393700787
40
0.0068897637795276
0
CIRCLE
8
BLACK
10
5.392125984251968
20
-5.0196850393700787
40
0.0068897637795276
0
CIRCLE
8
BLACK
10
5.4921259842519685
20
-5.1196850393700783
40
0.0068897637795276
0
CIRCLE
8
BLACK
10
5.392125984251968
20
-5.1196850393700783
40
0.0068897637795276
0
CIRCLE
8
BLACK
10
5.4921259842519685
20
-5.2196850393700789
40
0.0068897637795276
0
CIRCLE
8
BLACK
10
5.392125984251968
20
-5.2196850393700789
40
0.0068897637795276
  0
ENDSEC
  0
EOF
