  0
SECTION
  2
HEADER
  9
$ANGBASE
  50
0.0
  9
$ANGDIR
  70
1
  9
$MEASUREMENT
  70
0
  0
ENDSEC
  0
SECTION
  2
TABLES
  0
TABLE
  2
LTYPE
  70
4
  0
LTYPE
  5
40F
  2
CONTINUOUS
  70
0
  3
Solid line
  72
65
  73
0
  40
0.0
  0
LTYPE
  5
410
  2
DASHDOT
 70
0
  3
Dash Dot ____ _ ____ _
 72
65
 73
4
 40
2.0
 49
1.25
 49
-0.25
 49
0.25
 49
-0.25
  0
LTYPE
  5
411
  2
DASHED
 70
0
  3
Dashed __ __ __ __ __
 72
65
 73
2
 40
0.75
 49
0.5
 49
-0.25
  0
LTYPE
  5
43B
  2
DOTTED
 70
0
  3
Dotted .  .  .  .
 72
65
 73
2
 40
0.2
 49
0.0
 49
-0.2
  0
ENDTAB
  0
TABLE
  2
STYLE
  70
4
  0
STYLE
  2
KICAD
  70
0
  40
0
  41
1
  42
1
  50
0
  71
0
  3
isocp.shx
  0
STYLE
  2
KICADB
  70
0
  40
0
  41
1
  42
1
  50
0
  71
0
  3
isocp.shx
  0
STYLE
  2
KICADI
  70
0
  40
0
  41
1
  42
1
  50
15
  71
0
  3
isocp.shx
  0
STYLE
  2
KICADBI
  70
0
  40
0
  41
1
  42
1
  50
15
  71
0
  3
isocp.shx
  0
ENDTAB
  0
TABLE
  2
LAYER
  70
1
  0
LAYER
  2
BLACK
  70
0
  62
7
  6
CONTINUOUS
  0
ENDTAB
  0
ENDSEC
  0
SECTION
  2
ENTITIES
0
LINE
8
BLACK
6
CONTINUOUS
10
5.4018402362204725
20
-5.1876614566929131
11
5.407901062992126
21
-5.1901719291338582
0
LINE
8
BLACK
6
CONTINUOUS
10
5.407901062992126
20
-5.1901719291338582
11
5.413355669291338
21
-5.1938165748031491
0
LINE
8
BLACK
6
CONTINUOUS
10
5.413355669291338
20
-5.1938165748031491
11
5.4179944488188978
21
-5.1984553543307088
0
LINE
8
BLACK
6
CONTINUOUS
10
5.4179944488188978
20
-5.1984553543307088
11
5.4216390944881887
21
-5.2039099606299208
0
LINE
8
BLACK
6
CONTINUOUS
10
5.4216390944881887
20
-5.2039099606299208
11
5.4241495669291337
21
-5.2099707874015744
0
LINE
8
BLACK
6
CONTINUOUS
10
5.4241495669291337
20
-5.2099707874015744
11
5.4254294094488191
21
-5.2164049212598425
0
LINE
8
BLACK
6
CONTINUOUS
10
5.4254294094488191
20
-5.2164049212598425
11
5.4254294094488191
21
-5.2229651574803144
0
LINE
8
BLACK
6
CONTINUOUS
10
5.4254294094488191
20
-5.2229651574803144
11
5.4241495669291337
21
-5.2293992913385825
0
LINE
8
BLACK
6
CONTINUOUS
10
5.4241495669291337
20
-5.2293992913385825
11
5.4216390944881887
21
-5.235460118110236
0
LINE
8
BLACK
6
CONTINUOUS
10
5.4216390944881887
20
-5.235460118110236
11
5.4179944488188978
21
-5.2409147244094489
0
LINE
8
BLACK
6
CONTINUOUS
10
5.4179944488188978
20
-5.2409147244094489
11
5.413355669291338
21
-5.2455535039370078
0
LINE
8
BLACK
6
CONTINUOUS
10
5.413355669291338
20
-5.2455535039370078
11
5.407901062992126
21
-5.2491981496062987
0
LINE
8
BLACK
6
CONTINUOUS
10
5.407901062992126
20
-5.2491981496062987
11
5.4018402362204725
21
-5.2517086220472438
0
LINE
8
BLACK
6
CONTINUOUS
10
5.4018402362204725
20
-5.2517086220472438
11
5.3954061023622044
21
-5.2529884645669291
0
LINE
8
BLACK
6
CONTINUOUS
10
5.3954061023622044
20
-5.2529884645669291
11
5.3888458661417324
21
-5.2529884645669291
0
LINE
8
BLACK
6
CONTINUOUS
10
5.3888458661417324
20
-5.2529884645669291
11
5.3824117322834644
21
-5.2517086220472438
0
LINE
8
BLACK
6
CONTINUOUS
10
5.3824117322834644
20
-5.2517086220472438
11
5.3763509055118108
21
-5.2491981496062987
0
LINE
8
BLACK
6
CONTINUOUS
10
5.3763509055118108
20
-5.2491981496062987
11
5.3708962992125979
21
-5.2455535039370078
0
LINE
8
BLACK
6
CONTINUOUS
10
5.3708962992125979
20
-5.2455535039370078
11
5.3662575196850391
21
-5.2409147244094489
0
LINE
8
BLACK
6
CONTINUOUS
10
5.3662575196850391
20
-5.2409147244094489
11
5.3626128740157482
21
-5.235460118110236
0
LINE
8
BLACK
6
CONTINUOUS
10
5.3626128740157482
20
-5.235460118110236
11
5.3601024015748031
21
-5.2293992913385825
0
LINE
8
BLACK
6
CONTINUOUS
10
5.3601024015748031
20
-5.2293992913385825
11
5.3588225590551177
21
-5.2229651574803144
0
LINE
8
BLACK
6
CONTINUOUS
10
5.3588225590551177
20
-5.2229651574803144
11
5.3588225590551177
21
-5.2164049212598425
0
LINE
8
BLACK
6
CONTINUOUS
10
5.3588225590551177
20
-5.2164049212598425
11
5.3601024015748031
21
-5.2099707874015744
0
LINE
8
BLACK
6
CONTINUOUS
10
5.3601024015748031
20
-5.2099707874015744
11
5.3626128740157482
21
-5.2039099606299208
0
LINE
8
BLACK
6
CONTINUOUS
10
5.3626128740157482
20
-5.2039099606299208
11
5.3662575196850391
21
-5.1984553543307088
0
LINE
8
BLACK
6
CONTINUOUS
10
5.3662575196850391
20
-5.1984553543307088
11
5.3708962992125979
21
-5.1938165748031491
0
LINE
8
BLACK
6
CONTINUOUS
10
5.3708962992125979
20
-5.1938165748031491
11
5.3763509055118108
21
-5.1901719291338582
0
LINE
8
BLACK
6
CONTINUOUS
10
5.3763509055118108
20
-5.1901719291338582
11
5.3824117322834644
21
-5.1876614566929131
0
LINE
8
BLACK
6
CONTINUOUS
10
5.3824117322834644
20
-5.1876614566929131
11
5.3888458661417324
21
-5.1863816141732286
0
LINE
8
BLACK
6
CONTINUOUS
10
5.3888458661417324
20
-5.1863816141732286
11
5.3954061023622044
21
-5.1863816141732286
0
LINE
8
BLACK
6
CONTINUOUS
10
5.3954061023622044
20
-5.1863816141732286
11
5.4018402362204725
21
-5.1876614566929131
0
LINE
8
BLACK
6
CONTINUOUS
10
5.5018402362204721
20
-5.1876614566929131
11
5.5079010629921257
21
-5.1901719291338582
0
LINE
8
BLACK
6
CONTINUOUS
10
5.5079010629921257
20
-5.1901719291338582
11
5.5133556692913386
21
-5.1938165748031491
0
LINE
8
BLACK
6
CONTINUOUS
10
5.5133556692913386
20
-5.1938165748031491
11
5.5179944488188974
21
-5.1984553543307088
0
LINE
8
BLACK
6
CONTINUOUS
10
5.5179944488188974
20
-5.1984553543307088
11
5.5216390944881892
21
-5.2039099606299208
0
LINE
8
BLACK
6
CONTINUOUS
10
5.5216390944881892
20
-5.2039099606299208
11
5.5241495669291334
21
-5.2099707874015744
0
LINE
8
BLACK
6
CONTINUOUS
10
5.5241495669291334
20
-5.2099707874015744
11
5.5254294094488188
21
-5.2164049212598425
0
LINE
8
BLACK
6
CONTINUOUS
10
5.5254294094488188
20
-5.2164049212598425
11
5.5254294094488188
21
-5.2229651574803144
0
LINE
8
BLACK
6
CONTINUOUS
10
5.5254294094488188
20
-5.2229651574803144
11
5.5241495669291334
21
-5.2293992913385825
0
LINE
8
BLACK
6
CONTINUOUS
10
5.5241495669291334
20
-5.2293992913385825
11
5.5216390944881892
21
-5.235460118110236
0
LINE
8
BLACK
6
CONTINUOUS
10
5.5216390944881892
20
-5.235460118110236
11
5.5179944488188974
21
-5.2409147244094489
0
LINE
8
BLACK
6
CONTINUOUS
10
5.5179944488188974
20
-5.2409147244094489
11
5.5133556692913386
21
-5.2455535039370078
0
LINE
8
BLACK
6
CONTINUOUS
10
5.5133556692913386
20
-5.2455535039370078
11
5.5079010629921257
21
-5.2491981496062987
0
LINE
8
BLACK
6
CONTINUOUS
10
5.5079010629921257
20
-5.2491981496062987
11
5.5018402362204721
21
-5.2517086220472438
0
LINE
8
BLACK
6
CONTINUOUS
10
5.5018402362204721
20
-5.2517086220472438
11
5.4954061023622049
21
-5.2529884645669291
0
LINE
8
BLACK
6
CONTINUOUS
10
5.4954061023622049
20
-5.2529884645669291
11
5.4888458661417321
21
-5.2529884645669291
0
LINE
8
BLACK
6
CONTINUOUS
10
5.4888458661417321
20
-5.2529884645669291
11
5.482411732283464
21
-5.2517086220472438
0
LINE
8
BLACK
6
CONTINUOUS
10
5.482411732283464
20
-5.2517086220472438
11
5.4763509055118105
21
-5.2491981496062987
0
LINE
8
BLACK
6
CONTINUOUS
10
5.4763509055118105
20
-5.2491981496062987
11
5.4708962992125985
21
-5.2455535039370078
0
LINE
8
BLACK
6
CONTINUOUS
10
5.4708962992125985
20
-5.2455535039370078
11
5.4662575196850396
21
-5.2409147244094489
0
LINE
8
BLACK
6
CONTINUOUS
10
5.4662575196850396
20
-5.2409147244094489
11
5.4626128740157478
21
-5.235460118110236
0
LINE
8
BLACK
6
CONTINUOUS
10
5.4626128740157478
20
-5.235460118110236
11
5.4601024015748028
21
-5.2293992913385825
0
LINE
8
BLACK
6
CONTINUOUS
10
5.4601024015748028
20
-5.2293992913385825
11
5.4588225590551183
21
-5.2229651574803144
0
LINE
8
BLACK
6
CONTINUOUS
10
5.4588225590551183
20
-5.2229651574803144
11
5.4588225590551183
21
-5.2164049212598425
0
LINE
8
BLACK
6
CONTINUOUS
10
5.4588225590551183
20
-5.2164049212598425
11
5.4601024015748028
21
-5.2099707874015744
0
LINE
8
BLACK
6
CONTINUOUS
10
5.4601024015748028
20
-5.2099707874015744
11
5.4626128740157478
21
-5.2039099606299208
0
LINE
8
BLACK
6
CONTINUOUS
10
5.4626128740157478
20
-5.2039099606299208
11
5.4662575196850396
21
-5.1984553543307088
0
LINE
8
BLACK
6
CONTINUOUS
10
5.4662575196850396
20
-5.1984553543307088
11
5.4708962992125985
21
-5.1938165748031491
0
LINE
8
BLACK
6
CONTINUOUS
10
5.4708962992125985
20
-5.1938165748031491
11
5.4763509055118105
21
-5.1901719291338582
0
LINE
8
BLACK
6
CONTINUOUS
10
5.4763509055118105
20
-5.1901719291338582
11
5.482411732283464
21
-5.1876614566929131
0
LINE
8
BLACK
6
CONTINUOUS
10
5.482411732283464
20
-5.1876614566929131
11
5.4888458661417321
21
-5.1863816141732286
0
LINE
8
BLACK
6
CONTINUOUS
10
5.4888458661417321
20
-5.1863816141732286
11
5.4954061023622049
21
-5.1863816141732286
0
LINE
8
BLACK
6
CONTINUOUS
10
5.4954061023622049
20
-5.1863816141732286
11
5.5018402362204721
21
-5.1876614566929131
0
LINE
8
BLACK
6
CONTINUOUS
10
5.4018402362204725
20
-5.0876614566929135
11
5.407901062992126
21
-5.0901719291338585
0
LINE
8
BLACK
6
CONTINUOUS
10
5.407901062992126
20
-5.0901719291338585
11
5.413355669291338
21
-5.0938165748031494
0
LINE
8
BLACK
6
CONTINUOUS
10
5.413355669291338
20
-5.0938165748031494
11
5.4179944488188978
21
-5.0984553543307083
0
LINE
8
BLACK
6
CONTINUOUS
10
5.4179944488188978
20
-5.0984553543307083
11
5.4216390944881887
21
-5.1039099606299212
0
LINE
8
BLACK
6
CONTINUOUS
10
5.4216390944881887
20
-5.1039099606299212
11
5.4241495669291337
21
-5.1099707874015747
0
LINE
8
BLACK
6
CONTINUOUS
10
5.4241495669291337
20
-5.1099707874015747
11
5.4254294094488191
21
-5.1164049212598428
0
LINE
8
BLACK
6
CONTINUOUS
10
5.4254294094488191
20
-5.1164049212598428
11
5.4254294094488191
21
-5.1229651574803148
0
LINE
8
BLACK
6
CONTINUOUS
10
5.4254294094488191
20
-5.1229651574803148
11
5.4241495669291337
21
-5.1293992913385829
0
LINE
8
BLACK
6
CONTINUOUS
10
5.4241495669291337
20
-5.1293992913385829
11
5.4216390944881887
21
-5.1354601181102364
0
LINE
8
BLACK
6
CONTINUOUS
10
5.4216390944881887
20
-5.1354601181102364
11
5.4179944488188978
21
-5.1409147244094484
0
LINE
8
BLACK
6
CONTINUOUS
10
5.4179944488188978
20
-5.1409147244094484
11
5.413355669291338
21
-5.1455535039370082
0
LINE
8
BLACK
6
CONTINUOUS
10
5.413355669291338
20
-5.1455535039370082
11
5.407901062992126
21
-5.1491981496062991
0
LINE
8
BLACK
6
CONTINUOUS
10
5.407901062992126
20
-5.1491981496062991
11
5.4018402362204725
21
-5.1517086220472441
0
LINE
8
BLACK
6
CONTINUOUS
10
5.4018402362204725
20
-5.1517086220472441
11
5.3954061023622044
21
-5.1529884645669286
0
LINE
8
BLACK
6
CONTINUOUS
10
5.3954061023622044
20
-5.1529884645669286
11
5.3888458661417324
21
-5.1529884645669286
0
LINE
8
BLACK
6
CONTINUOUS
10
5.3888458661417324
20
-5.1529884645669286
11
5.3824117322834644
21
-5.1517086220472441
0
LINE
8
BLACK
6
CONTINUOUS
10
5.3824117322834644
20
-5.1517086220472441
11
5.3763509055118108
21
-5.1491981496062991
0
LINE
8
BLACK
6
CONTINUOUS
10
5.3763509055118108
20
-5.1491981496062991
11
5.3708962992125979
21
-5.1455535039370082
0
LINE
8
BLACK
6
CONTINUOUS
10
5.3708962992125979
20
-5.1455535039370082
11
5.3662575196850391
21
-5.1409147244094484
0
LINE
8
BLACK
6
CONTINUOUS
10
5.3662575196850391
20
-5.1409147244094484
11
5.3626128740157482
21
-5.1354601181102364
0
LINE
8
BLACK
6
CONTINUOUS
10
5.3626128740157482
20
-5.1354601181102364
11
5.3601024015748031
21
-5.1293992913385829
0
LINE
8
BLACK
6
CONTINUOUS
10
5.3601024015748031
20
-5.1293992913385829
11
5.3588225590551177
21
-5.1229651574803148
0
LINE
8
BLACK
6
CONTINUOUS
10
5.3588225590551177
20
-5.1229651574803148
11
5.3588225590551177
21
-5.1164049212598428
0
LINE
8
BLACK
6
CONTINUOUS
10
5.3588225590551177
20
-5.1164049212598428
11
5.3601024015748031
21
-5.1099707874015747
0
LINE
8
BLACK
6
CONTINUOUS
10
5.3601024015748031
20
-5.1099707874015747
11
5.3626128740157482
21
-5.1039099606299212
0
LINE
8
BLACK
6
CONTINUOUS
10
5.3626128740157482
20
-5.1039099606299212
11
5.3662575196850391
21
-5.0984553543307083
0
LINE
8
BLACK
6
CONTINUOUS
10
5.3662575196850391
20
-5.0984553543307083
11
5.3708962992125979
21
-5.0938165748031494
0
LINE
8
BLACK
6
CONTINUOUS
10
5.3708962992125979
20
-5.0938165748031494
11
5.3763509055118108
21
-5.0901719291338585
0
LINE
8
BLACK
6
CONTINUOUS
10
5.3763509055118108
20
-5.0901719291338585
11
5.3824117322834644
21
-5.0876614566929135
0
LINE
8
BLACK
6
CONTINUOUS
10
5.3824117322834644
20
-5.0876614566929135
11
5.3888458661417324
21
-5.0863816141732281
0
LINE
8
BLACK
6
CONTINUOUS
10
5.3888458661417324
20
-5.0863816141732281
11
5.3954061023622044
21
-5.0863816141732281
0
LINE
8
BLACK
6
CONTINUOUS
10
5.3954061023622044
20
-5.0863816141732281
11
5.4018402362204725
21
-5.0876614566929135
0
LINE
8
BLACK
6
CONTINUOUS
10
5.5018402362204721
20
-5.0876614566929135
11
5.5079010629921257
21
-5.0901719291338585
0
LINE
8
BLACK
6
CONTINUOUS
10
5.5079010629921257
20
-5.0901719291338585
11
5.5133556692913386
21
-5.0938165748031494
0
LINE
8
BLACK
6
CONTINUOUS
10
5.5133556692913386
20
-5.0938165748031494
11
5.5179944488188974
21
-5.0984553543307083
0
LINE
8
BLACK
6
CONTINUOUS
10
5.5179944488188974
20
-5.0984553543307083
11
5.5216390944881892
21
-5.1039099606299212
0
LINE
8
BLACK
6
CONTINUOUS
10
5.5216390944881892
20
-5.1039099606299212
11
5.5241495669291334
21
-5.1099707874015747
0
LINE
8
BLACK
6
CONTINUOUS
10
5.5241495669291334
20
-5.1099707874015747
11
5.5254294094488188
21
-5.1164049212598428
0
LINE
8
BLACK
6
CONTINUOUS
10
5.5254294094488188
20
-5.1164049212598428
11
5.5254294094488188
21
-5.1229651574803148
0
LINE
8
BLACK
6
CONTINUOUS
10
5.5254294094488188
20
-5.1229651574803148
11
5.5241495669291334
21
-5.1293992913385829
0
LINE
8
BLACK
6
CONTINUOUS
10
5.5241495669291334
20
-5.1293992913385829
11
5.5216390944881892
21
-5.1354601181102364
0
LINE
8
BLACK
6
CONTINUOUS
10
5.5216390944881892
20
-5.1354601181102364
11
5.5179944488188974
21
-5.1409147244094484
0
LINE
8
BLACK
6
CONTINUOUS
10
5.5179944488188974
20
-5.1409147244094484
11
5.5133556692913386
21
-5.1455535039370082
0
LINE
8
BLACK
6
CONTINUOUS
10
5.5133556692913386
20
-5.1455535039370082
11
5.5079010629921257
21
-5.1491981496062991
0
LINE
8
BLACK
6
CONTINUOUS
10
5.5079010629921257
20
-5.1491981496062991
11
5.5018402362204721
21
-5.1517086220472441
0
LINE
8
BLACK
6
CONTINUOUS
10
5.5018402362204721
20
-5.1517086220472441
11
5.4954061023622049
21
-5.1529884645669286
0
LINE
8
BLACK
6
CONTINUOUS
10
5.4954061023622049
20
-5.1529884645669286
11
5.4888458661417321
21
-5.1529884645669286
0
LINE
8
BLACK
6
CONTINUOUS
10
5.4888458661417321
20
-5.1529884645669286
11
5.482411732283464
21
-5.1517086220472441
0
LINE
8
BLACK
6
CONTINUOUS
10
5.482411732283464
20
-5.1517086220472441
11
5.4763509055118105
21
-5.1491981496062991
0
LINE
8
BLACK
6
CONTINUOUS
10
5.4763509055118105
20
-5.1491981496062991
11
5.4708962992125985
21
-5.1455535039370082
0
LINE
8
BLACK
6
CONTINUOUS
10
5.4708962992125985
20
-5.1455535039370082
11
5.4662575196850396
21
-5.1409147244094484
0
LINE
8
BLACK
6
CONTINUOUS
10
5.4662575196850396
20
-5.1409147244094484
11
5.4626128740157478
21
-5.1354601181102364
0
LINE
8
BLACK
6
CONTINUOUS
10
5.4626128740157478
20
-5.1354601181102364
11
5.4601024015748028
21
-5.1293992913385829
0
LINE
8
BLACK
6
CONTINUOUS
10
5.4601024015748028
20
-5.1293992913385829
11
5.4588225590551183
21
-5.1229651574803148
0
LINE
8
BLACK
6
CONTINUOUS
10
5.4588225590551183
20
-5.1229651574803148
11
5.4588225590551183
21
-5.1164049212598428
0
LINE
8
BLACK
6
CONTINUOUS
10
5.4588225590551183
20
-5.1164049212598428
11
5.4601024015748028
21
-5.1099707874015747
0
LINE
8
BLACK
6
CONTINUOUS
10
5.4601024015748028
20
-5.1099707874015747
11
5.4626128740157478
21
-5.1039099606299212
0
LINE
8
BLACK
6
CONTINUOUS
10
5.4626128740157478
20
-5.1039099606299212
11
5.4662575196850396
21
-5.0984553543307083
0
LINE
8
BLACK
6
CONTINUOUS
10
5.4662575196850396
20
-5.0984553543307083
11
5.4708962992125985
21
-5.0938165748031494
0
LINE
8
BLACK
6
CONTINUOUS
10
5.4708962992125985
20
-5.0938165748031494
11
5.4763509055118105
21
-5.0901719291338585
0
LINE
8
BLACK
6
CONTINUOUS
10
5.4763509055118105
20
-5.0901719291338585
11
5.482411732283464
21
-5.0876614566929135
0
LINE
8
BLACK
6
CONTINUOUS
10
5.482411732283464
20
-5.0876614566929135
11
5.4888458661417321
21
-5.0863816141732281
0
LINE
8
BLACK
6
CONTINUOUS
10
5.4888458661417321
20
-5.0863816141732281
11
5.4954061023622049
21
-5.0863816141732281
0
LINE
8
BLACK
6
CONTINUOUS
10
5.4954061023622049
20
-5.0863816141732281
11
5.5018402362204721
21
-5.0876614566929135
0
LINE
8
BLACK
6
CONTINUOUS
10
5.4018402362204725
20
-4.9876614566929129
11
5.407901062992126
21
-4.990171929133858
0
LINE
8
BLACK
6
CONTINUOUS
10
5.407901062992126
20
-4.990171929133858
11
5.413355669291338
21
-4.9938165748031498
0
LINE
8
BLACK
6
CONTINUOUS
10
5.413355669291338
20
-4.9938165748031498
11
5.4179944488188978
21
-4.9984553543307086
0
LINE
8
BLACK
6
CONTINUOUS
10
5.4179944488188978
20
-4.9984553543307086
11
5.4216390944881887
21
-5.0039099606299215
0
LINE
8
BLACK
6
CONTINUOUS
10
5.4216390944881887
20
-5.0039099606299215
11
5.4241495669291337
21
-5.0099707874015751
0
LINE
8
BLACK
6
CONTINUOUS
10
5.4241495669291337
20
-5.0099707874015751
11
5.4254294094488191
21
-5.0164049212598423
0
LINE
8
BLACK
6
CONTINUOUS
10
5.4254294094488191
20
-5.0164049212598423
11
5.4254294094488191
21
-5.0229651574803151
0
LINE
8
BLACK
6
CONTINUOUS
10
5.4254294094488191
20
-5.0229651574803151
11
5.4241495669291337
21
-5.0293992913385823
0
LINE
8
BLACK
6
CONTINUOUS
10
5.4241495669291337
20
-5.0293992913385823
11
5.4216390944881887
21
-5.0354601181102359
0
LINE
8
BLACK
6
CONTINUOUS
10
5.4216390944881887
20
-5.0354601181102359
11
5.4179944488188978
21
-5.0409147244094488
0
LINE
8
BLACK
6
CONTINUOUS
10
5.4179944488188978
20
-5.0409147244094488
11
5.413355669291338
21
-5.0455535039370076
0
LINE
8
BLACK
6
CONTINUOUS
10
5.413355669291338
20
-5.0455535039370076
11
5.407901062992126
21
-5.0491981496062994
0
LINE
8
BLACK
6
CONTINUOUS
10
5.407901062992126
20
-5.0491981496062994
11
5.4018402362204725
21
-5.0517086220472436
0
LINE
8
BLACK
6
CONTINUOUS
10
5.4018402362204725
20
-5.0517086220472436
11
5.3954061023622044
21
-5.052988464566929
0
LINE
8
BLACK
6
CONTINUOUS
10
5.3954061023622044
20
-5.052988464566929
11
5.3888458661417324
21
-5.052988464566929
0
LINE
8
BLACK
6
CONTINUOUS
10
5.3888458661417324
20
-5.052988464566929
11
5.3824117322834644
21
-5.0517086220472436
0
LINE
8
BLACK
6
CONTINUOUS
10
5.3824117322834644
20
-5.0517086220472436
11
5.3763509055118108
21
-5.0491981496062994
0
LINE
8
BLACK
6
CONTINUOUS
10
5.3763509055118108
20
-5.0491981496062994
11
5.3708962992125979
21
-5.0455535039370076
0
LINE
8
BLACK
6
CONTINUOUS
10
5.3708962992125979
20
-5.0455535039370076
11
5.3662575196850391
21
-5.0409147244094488
0
LINE
8
BLACK
6
CONTINUOUS
10
5.3662575196850391
20
-5.0409147244094488
11
5.3626128740157482
21
-5.0354601181102359
0
LINE
8
BLACK
6
CONTINUOUS
10
5.3626128740157482
20
-5.0354601181102359
11
5.3601024015748031
21
-5.0293992913385823
0
LINE
8
BLACK
6
CONTINUOUS
10
5.3601024015748031
20
-5.0293992913385823
11
5.3588225590551177
21
-5.0229651574803151
0
LINE
8
BLACK
6
CONTINUOUS
10
5.3588225590551177
20
-5.0229651574803151
11
5.3588225590551177
21
-5.0164049212598423
0
LINE
8
BLACK
6
CONTINUOUS
10
5.3588225590551177
20
-5.0164049212598423
11
5.3601024015748031
21
-5.0099707874015751
0
LINE
8
BLACK
6
CONTINUOUS
10
5.3601024015748031
20
-5.0099707874015751
11
5.3626128740157482
21
-5.0039099606299215
0
LINE
8
BLACK
6
CONTINUOUS
10
5.3626128740157482
20
-5.0039099606299215
11
5.3662575196850391
21
-4.9984553543307086
0
LINE
8
BLACK
6
CONTINUOUS
10
5.3662575196850391
20
-4.9984553543307086
11
5.3708962992125979
21
-4.9938165748031498
0
LINE
8
BLACK
6
CONTINUOUS
10
5.3708962992125979
20
-4.9938165748031498
11
5.3763509055118108
21
-4.990171929133858
0
LINE
8
BLACK
6
CONTINUOUS
10
5.3763509055118108
20
-4.990171929133858
11
5.3824117322834644
21
-4.9876614566929129
0
LINE
8
BLACK
6
CONTINUOUS
10
5.3824117322834644
20
-4.9876614566929129
11
5.3888458661417324
21
-4.9863816141732284
0
LINE
8
BLACK
6
CONTINUOUS
10
5.3888458661417324
20
-4.9863816141732284
11
5.3954061023622044
21
-4.9863816141732284
0
LINE
8
BLACK
6
CONTINUOUS
10
5.3954061023622044
20
-4.9863816141732284
11
5.4018402362204725
21
-4.9876614566929129
0
LINE
8
BLACK
6
CONTINUOUS
10
5.5018402362204721
20
-4.9876614566929129
11
5.5079010629921257
21
-4.990171929133858
0
LINE
8
BLACK
6
CONTINUOUS
10
5.5079010629921257
20
-4.990171929133858
11
5.5133556692913386
21
-4.9938165748031498
0
LINE
8
BLACK
6
CONTINUOUS
10
5.5133556692913386
20
-4.9938165748031498
11
5.5179944488188974
21
-4.9984553543307086
0
LINE
8
BLACK
6
CONTINUOUS
10
5.5179944488188974
20
-4.9984553543307086
11
5.5216390944881892
21
-5.0039099606299215
0
LINE
8
BLACK
6
CONTINUOUS
10
5.5216390944881892
20
-5.0039099606299215
11
5.5241495669291334
21
-5.0099707874015751
0
LINE
8
BLACK
6
CONTINUOUS
10
5.5241495669291334
20
-5.0099707874015751
11
5.5254294094488188
21
-5.0164049212598423
0
LINE
8
BLACK
6
CONTINUOUS
10
5.5254294094488188
20
-5.0164049212598423
11
5.5254294094488188
21
-5.0229651574803151
0
LINE
8
BLACK
6
CONTINUOUS
10
5.5254294094488188
20
-5.0229651574803151
11
5.5241495669291334
21
-5.0293992913385823
0
LINE
8
BLACK
6
CONTINUOUS
10
5.5241495669291334
20
-5.0293992913385823
11
5.5216390944881892
21
-5.0354601181102359
0
LINE
8
BLACK
6
CONTINUOUS
10
5.5216390944881892
20
-5.0354601181102359
11
5.5179944488188974
21
-5.0409147244094488
0
LINE
8
BLACK
6
CONTINUOUS
10
5.5179944488188974
20
-5.0409147244094488
11
5.5133556692913386
21
-5.0455535039370076
0
LINE
8
BLACK
6
CONTINUOUS
10
5.5133556692913386
20
-5.0455535039370076
11
5.5079010629921257
21
-5.0491981496062994
0
LINE
8
BLACK
6
CONTINUOUS
10
5.5079010629921257
20
-5.0491981496062994
11
5.5018402362204721
21
-5.0517086220472436
0
LINE
8
BLACK
6
CONTINUOUS
10
5.5018402362204721
20
-5.0517086220472436
11
5.4954061023622049
21
-5.052988464566929
0
LINE
8
BLACK
6
CONTINUOUS
10
5.4954061023622049
20
-5.052988464566929
11
5.4888458661417321
21
-5.052988464566929
0
LINE
8
BLACK
6
CONTINUOUS
10
5.4888458661417321
20
-5.052988464566929
11
5.482411732283464
21
-5.0517086220472436
0
LINE
8
BLACK
6
CONTINUOUS
10
5.482411732283464
20
-5.0517086220472436
11
5.4763509055118105
21
-5.0491981496062994
0
LINE
8
BLACK
6
CONTINUOUS
10
5.4763509055118105
20
-5.0491981496062994
11
5.4708962992125985
21
-5.0455535039370076
0
LINE
8
BLACK
6
CONTINUOUS
10
5.4708962992125985
20
-5.0455535039370076
11
5.4662575196850396
21
-5.0409147244094488
0
LINE
8
BLACK
6
CONTINUOUS
10
5.4662575196850396
20
-5.0409147244094488
11
5.4626128740157478
21
-5.0354601181102359
0
LINE
8
BLACK
6
CONTINUOUS
10
5.4626128740157478
20
-5.0354601181102359
11
5.4601024015748028
21
-5.0293992913385823
0
LINE
8
BLACK
6
CONTINUOUS
10
5.4601024015748028
20
-5.0293992913385823
11
5.4588225590551183
21
-5.0229651574803151
0
LINE
8
BLACK
6
CONTINUOUS
10
5.4588225590551183
20
-5.0229651574803151
11
5.4588225590551183
21
-5.0164049212598423
0
LINE
8
BLACK
6
CONTINUOUS
10
5.4588225590551183
20
-5.0164049212598423
11
5.4601024015748028
21
-5.0099707874015751
0
LINE
8
BLACK
6
CONTINUOUS
10
5.4601024015748028
20
-5.0099707874015751
11
5.4626128740157478
21
-5.0039099606299215
0
LINE
8
BLACK
6
CONTINUOUS
10
5.4626128740157478
20
-5.0039099606299215
11
5.4662575196850396
21
-4.9984553543307086
0
LINE
8
BLACK
6
CONTINUOUS
10
5.4662575196850396
20
-4.9984553543307086
11
5.4708962992125985
21
-4.9938165748031498
0
LINE
8
BLACK
6
CONTINUOUS
10
5.4708962992125985
20
-4.9938165748031498
11
5.4763509055118105
21
-4.990171929133858
0
LINE
8
BLACK
6
CONTINUOUS
10
5.4763509055118105
20
-4.990171929133858
11
5.482411732283464
21
-4.9876614566929129
0
LINE
8
BLACK
6
CONTINUOUS
10
5.482411732283464
20
-4.9876614566929129
11
5.4888458661417321
21
-4.9863816141732284
0
LINE
8
BLACK
6
CONTINUOUS
10
5.4888458661417321
20
-4.9863816141732284
11
5.4954061023622049
21
-4.9863816141732284
0
LINE
8
BLACK
6
CONTINUOUS
10
5.4954061023622049
20
-4.9863816141732284
11
5.5018402362204721
21
-4.9876614566929129
0
LINE
8
BLACK
6
CONTINUOUS
10
5.4018402362204725
20
-4.8876614566929133
11
5.407901062992126
21
-4.8901719291338583
0
LINE
8
BLACK
6
CONTINUOUS
10
5.407901062992126
20
-4.8901719291338583
11
5.413355669291338
21
-4.8938165748031492
0
LINE
8
BLACK
6
CONTINUOUS
10
5.413355669291338
20
-4.8938165748031492
11
5.4179944488188978
21
-4.8984553543307081
0
LINE
8
BLACK
6
CONTINUOUS
10
5.4179944488188978
20
-4.8984553543307081
11
5.4216390944881887
21
-4.903909960629921
0
LINE
8
BLACK
6
CONTINUOUS
10
5.4216390944881887
20
-4.903909960629921
11
5.4241495669291337
21
-4.9099707874015746
0
LINE
8
BLACK
6
CONTINUOUS
10
5.4241495669291337
20
-4.9099707874015746
11
5.4254294094488191
21
-4.9164049212598426
0
LINE
8
BLACK
6
CONTINUOUS
10
5.4254294094488191
20
-4.9164049212598426
11
5.4254294094488191
21
-4.9229651574803146
0
LINE
8
BLACK
6
CONTINUOUS
10
5.4254294094488191
20
-4.9229651574803146
11
5.4241495669291337
21
-4.9293992913385827
0
LINE
8
BLACK
6
CONTINUOUS
10
5.4241495669291337
20
-4.9293992913385827
11
5.4216390944881887
21
-4.9354601181102362
0
LINE
8
BLACK
6
CONTINUOUS
10
5.4216390944881887
20
-4.9354601181102362
11
5.4179944488188978
21
-4.9409147244094491
0
LINE
8
BLACK
6
CONTINUOUS
10
5.4179944488188978
20
-4.9409147244094491
11
5.413355669291338
21
-4.945553503937008
0
LINE
8
BLACK
6
CONTINUOUS
10
5.413355669291338
20
-4.945553503937008
11
5.407901062992126
21
-4.9491981496062989
0
LINE
8
BLACK
6
CONTINUOUS
10
5.407901062992126
20
-4.9491981496062989
11
5.4018402362204725
21
-4.9517086220472439
0
LINE
8
BLACK
6
CONTINUOUS
10
5.4018402362204725
20
-4.9517086220472439
11
5.3954061023622044
21
-4.9529884645669293
0
LINE
8
BLACK
6
CONTINUOUS
10
5.3954061023622044
20
-4.9529884645669293
11
5.3888458661417324
21
-4.9529884645669293
0
LINE
8
BLACK
6
CONTINUOUS
10
5.3888458661417324
20
-4.9529884645669293
11
5.3824117322834644
21
-4.9517086220472439
0
LINE
8
BLACK
6
CONTINUOUS
10
5.3824117322834644
20
-4.9517086220472439
11
5.3763509055118108
21
-4.9491981496062989
0
LINE
8
BLACK
6
CONTINUOUS
10
5.3763509055118108
20
-4.9491981496062989
11
5.3708962992125979
21
-4.945553503937008
0
LINE
8
BLACK
6
CONTINUOUS
10
5.3708962992125979
20
-4.945553503937008
11
5.3662575196850391
21
-4.9409147244094491
0
LINE
8
BLACK
6
CONTINUOUS
10
5.3662575196850391
20
-4.9409147244094491
11
5.3626128740157482
21
-4.9354601181102362
0
LINE
8
BLACK
6
CONTINUOUS
10
5.3626128740157482
20
-4.9354601181102362
11
5.3601024015748031
21
-4.9293992913385827
0
LINE
8
BLACK
6
CONTINUOUS
10
5.3601024015748031
20
-4.9293992913385827
11
5.3588225590551177
21
-4.9229651574803146
0
LINE
8
BLACK
6
CONTINUOUS
10
5.3588225590551177
20
-4.9229651574803146
11
5.3588225590551177
21
-4.9164049212598426
0
LINE
8
BLACK
6
CONTINUOUS
10
5.3588225590551177
20
-4.9164049212598426
11
5.3601024015748031
21
-4.9099707874015746
0
LINE
8
BLACK
6
CONTINUOUS
10
5.3601024015748031
20
-4.9099707874015746
11
5.3626128740157482
21
-4.903909960629921
0
LINE
8
BLACK
6
CONTINUOUS
10
5.3626128740157482
20
-4.903909960629921
11
5.3662575196850391
21
-4.8984553543307081
0
LINE
8
BLACK
6
CONTINUOUS
10
5.3662575196850391
20
-4.8984553543307081
11
5.3708962992125979
21
-4.8938165748031492
0
LINE
8
BLACK
6
CONTINUOUS
10
5.3708962992125979
20
-4.8938165748031492
11
5.3763509055118108
21
-4.8901719291338583
0
LINE
8
BLACK
6
CONTINUOUS
10
5.3763509055118108
20
-4.8901719291338583
11
5.3824117322834644
21
-4.8876614566929133
0
LINE
8
BLACK
6
CONTINUOUS
10
5.3824117322834644
20
-4.8876614566929133
11
5.3888458661417324
21
-4.8863816141732279
0
LINE
8
BLACK
6
CONTINUOUS
10
5.3888458661417324
20
-4.8863816141732279
11
5.3954061023622044
21
-4.8863816141732279
0
LINE
8
BLACK
6
CONTINUOUS
10
5.3954061023622044
20
-4.8863816141732279
11
5.4018402362204725
21
-4.8876614566929133
0
LINE
8
BLACK
6
CONTINUOUS
10
5.5018402362204721
20
-4.8876614566929133
11
5.5079010629921257
21
-4.8901719291338583
0
LINE
8
BLACK
6
CONTINUOUS
10
5.5079010629921257
20
-4.8901719291338583
11
5.5133556692913386
21
-4.8938165748031492
0
LINE
8
BLACK
6
CONTINUOUS
10
5.5133556692913386
20
-4.8938165748031492
11
5.5179944488188974
21
-4.8984553543307081
0
LINE
8
BLACK
6
CONTINUOUS
10
5.5179944488188974
20
-4.8984553543307081
11
5.5216390944881892
21
-4.903909960629921
0
LINE
8
BLACK
6
CONTINUOUS
10
5.5216390944881892
20
-4.903909960629921
11
5.5241495669291334
21
-4.9099707874015746
0
LINE
8
BLACK
6
CONTINUOUS
10
5.5241495669291334
20
-4.9099707874015746
11
5.5254294094488188
21
-4.9164049212598426
0
LINE
8
BLACK
6
CONTINUOUS
10
5.5254294094488188
20
-4.9164049212598426
11
5.5254294094488188
21
-4.9229651574803146
0
LINE
8
BLACK
6
CONTINUOUS
10
5.5254294094488188
20
-4.9229651574803146
11
5.5241495669291334
21
-4.9293992913385827
0
LINE
8
BLACK
6
CONTINUOUS
10
5.5241495669291334
20
-4.9293992913385827
11
5.5216390944881892
21
-4.9354601181102362
0
LINE
8
BLACK
6
CONTINUOUS
10
5.5216390944881892
20
-4.9354601181102362
11
5.5179944488188974
21
-4.9409147244094491
0
LINE
8
BLACK
6
CONTINUOUS
10
5.5179944488188974
20
-4.9409147244094491
11
5.5133556692913386
21
-4.945553503937008
0
LINE
8
BLACK
6
CONTINUOUS
10
5.5133556692913386
20
-4.945553503937008
11
5.5079010629921257
21
-4.9491981496062989
0
LINE
8
BLACK
6
CONTINUOUS
10
5.5079010629921257
20
-4.9491981496062989
11
5.5018402362204721
21
-4.9517086220472439
0
LINE
8
BLACK
6
CONTINUOUS
10
5.5018402362204721
20
-4.9517086220472439
11
5.4954061023622049
21
-4.9529884645669293
0
LINE
8
BLACK
6
CONTINUOUS
10
5.4954061023622049
20
-4.9529884645669293
11
5.4888458661417321
21
-4.9529884645669293
0
LINE
8
BLACK
6
CONTINUOUS
10
5.4888458661417321
20
-4.9529884645669293
11
5.482411732283464
21
-4.9517086220472439
0
LINE
8
BLACK
6
CONTINUOUS
10
5.482411732283464
20
-4.9517086220472439
11
5.4763509055118105
21
-4.9491981496062989
0
LINE
8
BLACK
6
CONTINUOUS
10
5.4763509055118105
20
-4.9491981496062989
11
5.4708962992125985
21
-4.945553503937008
0
LINE
8
BLACK
6
CONTINUOUS
10
5.4708962992125985
20
-4.945553503937008
11
5.4662575196850396
21
-4.9409147244094491
0
LINE
8
BLACK
6
CONTINUOUS
10
5.4662575196850396
20
-4.9409147244094491
11
5.4626128740157478
21
-4.9354601181102362
0
LINE
8
BLACK
6
CONTINUOUS
10
5.4626128740157478
20
-4.9354601181102362
11
5.4601024015748028
21
-4.9293992913385827
0
LINE
8
BLACK
6
CONTINUOUS
10
5.4601024015748028
20
-4.9293992913385827
11
5.4588225590551183
21
-4.9229651574803146
0
LINE
8
BLACK
6
CONTINUOUS
10
5.4588225590551183
20
-4.9229651574803146
11
5.4588225590551183
21
-4.9164049212598426
0
LINE
8
BLACK
6
CONTINUOUS
10
5.4588225590551183
20
-4.9164049212598426
11
5.4601024015748028
21
-4.9099707874015746
0
LINE
8
BLACK
6
CONTINUOUS
10
5.4601024015748028
20
-4.9099707874015746
11
5.4626128740157478
21
-4.903909960629921
0
LINE
8
BLACK
6
CONTINUOUS
10
5.4626128740157478
20
-4.903909960629921
11
5.4662575196850396
21
-4.8984553543307081
0
LINE
8
BLACK
6
CONTINUOUS
10
5.4662575196850396
20
-4.8984553543307081
11
5.4708962992125985
21
-4.8938165748031492
0
LINE
8
BLACK
6
CONTINUOUS
10
5.4708962992125985
20
-4.8938165748031492
11
5.4763509055118105
21
-4.8901719291338583
0
LINE
8
BLACK
6
CONTINUOUS
10
5.4763509055118105
20
-4.8901719291338583
11
5.482411732283464
21
-4.8876614566929133
0
LINE
8
BLACK
6
CONTINUOUS
10
5.482411732283464
20
-4.8876614566929133
11
5.4888458661417321
21
-4.8863816141732279
0
LINE
8
BLACK
6
CONTINUOUS
10
5.4888458661417321
20
-4.8863816141732279
11
5.4954061023622049
21
-4.8863816141732279
0
LINE
8
BLACK
6
CONTINUOUS
10
5.4954061023622049
20
-4.8863816141732279
11
5.5018402362204721
21
-4.8876614566929133
0
LINE
8
BLACK
6
CONTINUOUS
10
5.5255905511811019
20
-4.8531496062992128
11
5.4586614173228343
21
-4.8531496062992128
0
LINE
8
BLACK
6
CONTINUOUS
10
5.4586614173228343
20
-4.8531496062992128
11
5.4586614173228343
21
-4.7862204724409452
0
LINE
8
BLACK
6
CONTINUOUS
10
5.4586614173228343
20
-4.7862204724409452
11
5.5255905511811019
21
-4.7862204724409452
0
LINE
8
BLACK
6
CONTINUOUS
10
5.5255905511811019
20
-4.7862204724409452
11
5.5255905511811019
21
-4.8531496062992128
0
LINE
8
BLACK
6
CONTINUOUS
10
5.4018402362204725
20
-4.7876614566929137
11
5.407901062992126
21
-4.7901719291338578
0
LINE
8
BLACK
6
CONTINUOUS
10
5.407901062992126
20
-4.7901719291338578
11
5.413355669291338
21
-4.7938165748031496
0
LINE
8
BLACK
6
CONTINUOUS
10
5.413355669291338
20
-4.7938165748031496
11
5.4179944488188978
21
-4.7984553543307085
0
LINE
8
BLACK
6
CONTINUOUS
10
5.4179944488188978
20
-4.7984553543307085
11
5.4216390944881887
21
-4.8039099606299214
0
LINE
8
BLACK
6
CONTINUOUS
10
5.4216390944881887
20
-4.8039099606299214
11
5.4241495669291337
21
-4.8099707874015749
0
LINE
8
BLACK
6
CONTINUOUS
10
5.4241495669291337
20
-4.8099707874015749
11
5.4254294094488191
21
-4.8164049212598421
0
LINE
8
BLACK
6
CONTINUOUS
10
5.4254294094488191
20
-4.8164049212598421
11
5.4254294094488191
21
-4.822965157480315
0
LINE
8
BLACK
6
CONTINUOUS
10
5.4254294094488191
20
-4.822965157480315
11
5.4241495669291337
21
-4.8293992913385821
0
LINE
8
BLACK
6
CONTINUOUS
10
5.4241495669291337
20
-4.8293992913385821
11
5.4216390944881887
21
-4.8354601181102357
0
LINE
8
BLACK
6
CONTINUOUS
10
5.4216390944881887
20
-4.8354601181102357
11
5.4179944488188978
21
-4.8409147244094486
0
LINE
8
BLACK
6
CONTINUOUS
10
5.4179944488188978
20
-4.8409147244094486
11
5.413355669291338
21
-4.8455535039370075
0
LINE
8
BLACK
6
CONTINUOUS
10
5.413355669291338
20
-4.8455535039370075
11
5.407901062992126
21
-4.8491981496062992
0
LINE
8
BLACK
6
CONTINUOUS
10
5.407901062992126
20
-4.8491981496062992
11
5.4018402362204725
21
-4.8517086220472443
0
LINE
8
BLACK
6
CONTINUOUS
10
5.4018402362204725
20
-4.8517086220472443
11
5.3954061023622044
21
-4.8529884645669288
0
LINE
8
BLACK
6
CONTINUOUS
10
5.3954061023622044
20
-4.8529884645669288
11
5.3888458661417324
21
-4.8529884645669288
0
LINE
8
BLACK
6
CONTINUOUS
10
5.3888458661417324
20
-4.8529884645669288
11
5.3824117322834644
21
-4.8517086220472443
0
LINE
8
BLACK
6
CONTINUOUS
10
5.3824117322834644
20
-4.8517086220472443
11
5.3763509055118108
21
-4.8491981496062992
0
LINE
8
BLACK
6
CONTINUOUS
10
5.3763509055118108
20
-4.8491981496062992
11
5.3708962992125979
21
-4.8455535039370075
0
LINE
8
BLACK
6
CONTINUOUS
10
5.3708962992125979
20
-4.8455535039370075
11
5.3662575196850391
21
-4.8409147244094486
0
LINE
8
BLACK
6
CONTINUOUS
10
5.3662575196850391
20
-4.8409147244094486
11
5.3626128740157482
21
-4.8354601181102357
0
LINE
8
BLACK
6
CONTINUOUS
10
5.3626128740157482
20
-4.8354601181102357
11
5.3601024015748031
21
-4.8293992913385821
0
LINE
8
BLACK
6
CONTINUOUS
10
5.3601024015748031
20
-4.8293992913385821
11
5.3588225590551177
21
-4.822965157480315
0
LINE
8
BLACK
6
CONTINUOUS
10
5.3588225590551177
20
-4.822965157480315
11
5.3588225590551177
21
-4.8164049212598421
0
LINE
8
BLACK
6
CONTINUOUS
10
5.3588225590551177
20
-4.8164049212598421
11
5.3601024015748031
21
-4.8099707874015749
0
LINE
8
BLACK
6
CONTINUOUS
10
5.3601024015748031
20
-4.8099707874015749
11
5.3626128740157482
21
-4.8039099606299214
0
LINE
8
BLACK
6
CONTINUOUS
10
5.3626128740157482
20
-4.8039099606299214
11
5.3662575196850391
21
-4.7984553543307085
0
LINE
8
BLACK
6
CONTINUOUS
10
5.3662575196850391
20
-4.7984553543307085
11
5.3708962992125979
21
-4.7938165748031496
0
LINE
8
BLACK
6
CONTINUOUS
10
5.3708962992125979
20
-4.7938165748031496
11
5.3763509055118108
21
-4.7901719291338578
0
LINE
8
BLACK
6
CONTINUOUS
10
5.3763509055118108
20
-4.7901719291338578
11
5.3824117322834644
21
-4.7876614566929137
0
LINE
8
BLACK
6
CONTINUOUS
10
5.3824117322834644
20
-4.7876614566929137
11
5.3888458661417324
21
-4.7863816141732283
0
LINE
8
BLACK
6
CONTINUOUS
10
5.3888458661417324
20
-4.7863816141732283
11
5.3954061023622044
21
-4.7863816141732283
0
LINE
8
BLACK
6
CONTINUOUS
10
5.3954061023622044
20
-4.7863816141732283
11
5.4018402362204725
21
-4.7876614566929137
0
LINE
8
BLACK
6
CONTINUOUS
10
5.3543307086614176
20
-4.548818897637795
11
5.2362204724409445
21
-4.548818897637795
0
LINE
8
BLACK
6
CONTINUOUS
10
5.2362204724409445
20
-4.548818897637795
11
5.2362204724409445
21
-4.5094488188976376
0
LINE
8
BLACK
6
CONTINUOUS
10
5.2362204724409445
20
-4.5094488188976376
11
5.3543307086614176
21
-4.5094488188976376
0
LINE
8
BLACK
6
CONTINUOUS
10
5.3543307086614176
20
-4.5094488188976376
11
5.3543307086614176
21
-4.548818897637795
0
LINE
8
BLACK
6
CONTINUOUS
10
5.6692913385826769
20
-4.548818897637795
11
5.5511811023622046
21
-4.548818897637795
0
LINE
8
BLACK
6
CONTINUOUS
10
5.5511811023622046
20
-4.548818897637795
11
5.5511811023622046
21
-4.5094488188976376
0
LINE
8
BLACK
6
CONTINUOUS
10
5.5511811023622046
20
-4.5094488188976376
11
5.6692913385826769
21
-4.5094488188976376
0
LINE
8
BLACK
6
CONTINUOUS
10
5.6692913385826769
20
-4.5094488188976376
11
5.6692913385826769
21
-4.548818897637795
0
LINE
8
BLACK
6
CONTINUOUS
10
6.0088582677165352
20
-4.46259842519685
11
5.9419291338582676
21
-4.46259842519685
0
LINE
8
BLACK
6
CONTINUOUS
10
5.9419291338582676
20
-4.46259842519685
11
5.9419291338582676
21
-4.3956692913385824
0
LINE
8
BLACK
6
CONTINUOUS
10
5.9419291338582676
20
-4.3956692913385824
11
6.0088582677165352
21
-4.3956692913385824
0
LINE
8
BLACK
6
CONTINUOUS
10
6.0088582677165352
20
-4.3956692913385824
11
6.0088582677165352
21
-4.46259842519685
0
LINE
8
BLACK
6
CONTINUOUS
10
5.8851079527559058
20
-4.3971102755905509
11
5.8911687795275594
21
-4.3996207480314959
0
LINE
8
BLACK
6
CONTINUOUS
10
5.8911687795275594
20
-4.3996207480314959
11
5.8966233858267714
21
-4.4032653937007877
0
LINE
8
BLACK
6
CONTINUOUS
10
5.8966233858267714
20
-4.4032653937007877
11
5.9012621653543302
21
-4.4079041732283466
0
LINE
8
BLACK
6
CONTINUOUS
10
5.9012621653543302
20
-4.4079041732283466
11
5.904906811023622
21
-4.4133587795275586
0
LINE
8
BLACK
6
CONTINUOUS
10
5.904906811023622
20
-4.4133587795275586
11
5.9074172834645671
21
-4.4194196062992122
0
LINE
8
BLACK
6
CONTINUOUS
10
5.9074172834645671
20
-4.4194196062992122
11
5.9086971259842516
21
-4.4258537401574802
0
LINE
8
BLACK
6
CONTINUOUS
10
5.9086971259842516
20
-4.4258537401574802
11
5.9086971259842516
21
-4.4324139763779531
0
LINE
8
BLACK
6
CONTINUOUS
10
5.9086971259842516
20
-4.4324139763779531
11
5.9074172834645671
21
-4.4388481102362203
0
LINE
8
BLACK
6
CONTINUOUS
10
5.9074172834645671
20
-4.4388481102362203
11
5.904906811023622
21
-4.4449089370078738
0
LINE
8
BLACK
6
CONTINUOUS
10
5.904906811023622
20
-4.4449089370078738
11
5.9012621653543302
21
-4.4503635433070867
0
LINE
8
BLACK
6
CONTINUOUS
10
5.9012621653543302
20
-4.4503635433070867
11
5.8966233858267714
21
-4.4550023228346456
0
LINE
8
BLACK
6
CONTINUOUS
10
5.8966233858267714
20
-4.4550023228346456
11
5.8911687795275594
21
-4.4586469685039365
0
LINE
8
BLACK
6
CONTINUOUS
10
5.8911687795275594
20
-4.4586469685039365
11
5.8851079527559058
21
-4.4611574409448815
0
LINE
8
BLACK
6
CONTINUOUS
10
5.8851079527559058
20
-4.4611574409448815
11
5.8786738188976377
21
-4.4624372834645669
0
LINE
8
BLACK
6
CONTINUOUS
10
5.8786738188976377
20
-4.4624372834645669
11
5.8721135826771649
21
-4.4624372834645669
0
LINE
8
BLACK
6
CONTINUOUS
10
5.8721135826771649
20
-4.4624372834645669
11
5.8656794488188977
21
-4.4611574409448815
0
LINE
8
BLACK
6
CONTINUOUS
10
5.8656794488188977
20
-4.4611574409448815
11
5.8596186220472442
21
-4.4586469685039365
0
LINE
8
BLACK
6
CONTINUOUS
10
5.8596186220472442
20
-4.4586469685039365
11
5.8541640157480312
21
-4.4550023228346456
0
LINE
8
BLACK
6
CONTINUOUS
10
5.8541640157480312
20
-4.4550023228346456
11
5.8495252362204724
21
-4.4503635433070867
0
LINE
8
BLACK
6
CONTINUOUS
10
5.8495252362204724
20
-4.4503635433070867
11
5.8458805905511806
21
-4.4449089370078738
0
LINE
8
BLACK
6
CONTINUOUS
10
5.8458805905511806
20
-4.4449089370078738
11
5.8433701181102364
21
-4.4388481102362203
0
LINE
8
BLACK
6
CONTINUOUS
10
5.8433701181102364
20
-4.4388481102362203
11
5.8420902755905511
21
-4.4324139763779531
0
LINE
8
BLACK
6
CONTINUOUS
10
5.8420902755905511
20
-4.4324139763779531
11
5.8420902755905511
21
-4.4258537401574802
0
LINE
8
BLACK
6
CONTINUOUS
10
5.8420902755905511
20
-4.4258537401574802
11
5.8433701181102364
21
-4.4194196062992122
0
LINE
8
BLACK
6
CONTINUOUS
10
5.8433701181102364
20
-4.4194196062992122
11
5.8458805905511806
21
-4.4133587795275586
0
LINE
8
BLACK
6
CONTINUOUS
10
5.8458805905511806
20
-4.4133587795275586
11
5.8495252362204724
21
-4.4079041732283466
0
LINE
8
BLACK
6
CONTINUOUS
10
5.8495252362204724
20
-4.4079041732283466
11
5.8541640157480312
21
-4.4032653937007877
0
LINE
8
BLACK
6
CONTINUOUS
10
5.8541640157480312
20
-4.4032653937007877
11
5.8596186220472442
21
-4.3996207480314959
0
LINE
8
BLACK
6
CONTINUOUS
10
5.8596186220472442
20
-4.3996207480314959
11
5.8656794488188977
21
-4.3971102755905509
0
LINE
8
BLACK
6
CONTINUOUS
10
5.8656794488188977
20
-4.3971102755905509
11
5.8721135826771649
21
-4.3958304330708664
0
LINE
8
BLACK
6
CONTINUOUS
10
5.8721135826771649
20
-4.3958304330708664
11
5.8786738188976377
21
-4.3958304330708664
0
LINE
8
BLACK
6
CONTINUOUS
10
5.8786738188976377
20
-4.3958304330708664
11
5.8851079527559058
21
-4.3971102755905509
0
LINE
8
BLACK
6
CONTINUOUS
10
5.3543307086614176
20
-4.4488188976377954
11
5.2362204724409445
21
-4.4488188976377954
0
LINE
8
BLACK
6
CONTINUOUS
10
5.2362204724409445
20
-4.4488188976377954
11
5.2362204724409445
21
-4.409448818897638
0
LINE
8
BLACK
6
CONTINUOUS
10
5.2362204724409445
20
-4.409448818897638
11
5.3543307086614176
21
-4.409448818897638
0
LINE
8
BLACK
6
CONTINUOUS
10
5.3543307086614176
20
-4.409448818897638
11
5.3543307086614176
21
-4.4488188976377954
0
LINE
8
BLACK
6
CONTINUOUS
10
5.6692913385826769
20
-4.4488188976377954
11
5.5511811023622046
21
-4.4488188976377954
0
LINE
8
BLACK
6
CONTINUOUS
10
5.5511811023622046
20
-4.4488188976377954
11
5.5511811023622046
21
-4.409448818897638
0
LINE
8
BLACK
6
CONTINUOUS
10
5.5511811023622046
20
-4.409448818897638
11
5.6692913385826769
21
-4.409448818897638
0
LINE
8
BLACK
6
CONTINUOUS
10
5.6692913385826769
20
-4.409448818897638
11
5.6692913385826769
21
-4.4488188976377954
0
LINE
8
BLACK
6
CONTINUOUS
10
5.3543307086614176
20
-4.3488188976377948
11
5.2362204724409445
21
-4.3488188976377948
0
LINE
8
BLACK
6
CONTINUOUS
10
5.2362204724409445
20
-4.3488188976377948
11
5.2362204724409445
21
-4.3094488188976374
0
LINE
8
BLACK
6
CONTINUOUS
10
5.2362204724409445
20
-4.3094488188976374
11
5.3543307086614176
21
-4.3094488188976374
0
LINE
8
BLACK
6
CONTINUOUS
10
5.3543307086614176
20
-4.3094488188976374
11
5.3543307086614176
21
-4.3488188976377948
0
LINE
8
BLACK
6
CONTINUOUS
10
5.6692913385826769
20
-4.3488188976377948
11
5.5511811023622046
21
-4.3488188976377948
0
LINE
8
BLACK
6
CONTINUOUS
10
5.5511811023622046
20
-4.3488188976377948
11
5.5511811023622046
21
-4.3094488188976374
0
LINE
8
BLACK
6
CONTINUOUS
10
5.5511811023622046
20
-4.3094488188976374
11
5.6692913385826769
21
-4.3094488188976374
0
LINE
8
BLACK
6
CONTINUOUS
10
5.6692913385826769
20
-4.3094488188976374
11
5.6692913385826769
21
-4.3488188976377948
0
LINE
8
BLACK
6
CONTINUOUS
10
5.3553754724409446
20
-2.3076859842519686
11
5.3579299606299209
21
-2.3093928740157481
0
LINE
8
BLACK
6
CONTINUOUS
10
5.3579299606299209
20
-2.3093928740157481
11
5.3596368503937004
21
-2.3119473622047244
0
LINE
8
BLACK
6
CONTINUOUS
10
5.3596368503937004
20
-2.3119473622047244
11
5.3602362204724407
21
-2.3149606299212597
0
LINE
8
BLACK
6
CONTINUOUS
10
5.3602362204724407
20
-2.3149606299212597
11
5.3602362204724407
21
-2.3307086614173227
0
LINE
8
BLACK
6
CONTINUOUS
10
5.3602362204724407
20
-2.3307086614173227
11
5.3596368503937004
21
-2.333721929133858
0
LINE
8
BLACK
6
CONTINUOUS
10
5.3596368503937004
20
-2.333721929133858
11
5.3579299606299209
21
-2.3362764173228348
0
LINE
8
BLACK
6
CONTINUOUS
10
5.3579299606299209
20
-2.3362764173228348
11
5.3553754724409446
21
-2.3379833070866143
0
LINE
8
BLACK
6
CONTINUOUS
10
5.3553754724409446
20
-2.3379833070866143
11
5.3523622047244093
21
-2.3385826771653542
0
LINE
8
BLACK
6
CONTINUOUS
10
5.3523622047244093
20
-2.3385826771653542
11
5.3169291338582676
21
-2.3385826771653542
0
LINE
8
BLACK
6
CONTINUOUS
10
5.3169291338582676
20
-2.3385826771653542
11
5.3139158661417323
21
-2.3379833070866143
0
LINE
8
BLACK
6
CONTINUOUS
10
5.3139158661417323
20
-2.3379833070866143
11
5.311361377952756
21
-2.3362764173228348
0
LINE
8
BLACK
6
CONTINUOUS
10
5.311361377952756
20
-2.3362764173228348
11
5.3096544881889765
21
-2.333721929133858
0
LINE
8
BLACK
6
CONTINUOUS
10
5.3096544881889765
20
-2.333721929133858
11
5.3090551181102361
21
-2.3307086614173227
0
LINE
8
BLACK
6
CONTINUOUS
10
5.3090551181102361
20
-2.3307086614173227
11
5.3090551181102361
21
-2.3149606299212597
0
LINE
8
BLACK
6
CONTINUOUS
10
5.3090551181102361
20
-2.3149606299212597
11
5.3096544881889765
21
-2.3119473622047244
0
LINE
8
BLACK
6
CONTINUOUS
10
5.3096544881889765
20
-2.3119473622047244
11
5.311361377952756
21
-2.3093928740157481
0
LINE
8
BLACK
6
CONTINUOUS
10
5.311361377952756
20
-2.3093928740157481
11
5.3139158661417323
21
-2.3076859842519686
0
LINE
8
BLACK
6
CONTINUOUS
10
5.3139158661417323
20
-2.3076859842519686
11
5.3169291338582676
21
-2.3070866141732282
0
LINE
8
BLACK
6
CONTINUOUS
10
5.3169291338582676
20
-2.3070866141732282
11
5.3523622047244093
21
-2.3070866141732282
0
LINE
8
BLACK
6
CONTINUOUS
10
5.3523622047244093
20
-2.3070866141732282
11
5.3553754724409446
21
-2.3076859842519686
0
LINE
8
BLACK
6
CONTINUOUS
10
5.346543700787401
20
-2.2580087401574804
11
5.3505146850393697
21
-2.2590727559055117
0
LINE
8
BLACK
6
CONTINUOUS
10
5.3505146850393697
20
-2.2590727559055117
11
5.3540749999999999
21
-2.2611283070866142
0
LINE
8
BLACK
6
CONTINUOUS
10
5.3540749999999999
20
-2.2611283070866142
11
5.3569819291338581
21
-2.2640352362204723
0
LINE
8
BLACK
6
CONTINUOUS
10
5.3569819291338581
20
-2.2640352362204723
11
5.3590374803149601
21
-2.2675955511811021
0
LINE
8
BLACK
6
CONTINUOUS
10
5.3590374803149601
20
-2.2675955511811021
11
5.3601014960629918
21
-2.2715665354330707
0
LINE
8
BLACK
6
CONTINUOUS
10
5.3601014960629918
20
-2.2715665354330707
11
5.3601014960629918
21
-2.2756775590551181
0
LINE
8
BLACK
6
CONTINUOUS
10
5.3601014960629918
20
-2.2756775590551181
11
5.3590374803149601
21
-2.2796485433070868
0
LINE
8
BLACK
6
CONTINUOUS
10
5.3590374803149601
20
-2.2796485433070868
11
5.3569819291338581
21
-2.2832088582677166
0
LINE
8
BLACK
6
CONTINUOUS
10
5.3569819291338581
20
-2.2832088582677166
11
5.3540749999999999
21
-2.2861157874015747
0
LINE
8
BLACK
6
CONTINUOUS
10
5.3540749999999999
20
-2.2861157874015747
11
5.3505146850393697
21
-2.2881713385826772
0
LINE
8
BLACK
6
CONTINUOUS
10
5.3505146850393697
20
-2.2881713385826772
11
5.346543700787401
21
-2.2892353543307085
0
LINE
8
BLACK
6
CONTINUOUS
10
5.346543700787401
20
-2.2892353543307085
11
5.3444881889763778
21
-2.2893700787401574
0
LINE
8
BLACK
6
CONTINUOUS
10
5.3444881889763778
20
-2.2893700787401574
11
5.3248031496062991
21
-2.2893700787401574
0
LINE
8
BLACK
6
CONTINUOUS
10
5.3248031496062991
20
-2.2893700787401574
11
5.3227476377952758
21
-2.2892353543307085
0
LINE
8
BLACK
6
CONTINUOUS
10
5.3227476377952758
20
-2.2892353543307085
11
5.3187766535433072
21
-2.2881713385826772
0
LINE
8
BLACK
6
CONTINUOUS
10
5.3187766535433072
20
-2.2881713385826772
11
5.3152163385826769
21
-2.2861157874015747
0
LINE
8
BLACK
6
CONTINUOUS
10
5.3152163385826769
20
-2.2861157874015747
11
5.3123094094488188
21
-2.2832088582677166
0
LINE
8
BLACK
6
CONTINUOUS
10
5.3123094094488188
20
-2.2832088582677166
11
5.3102538582677168
21
-2.2796485433070868
0
LINE
8
BLACK
6
CONTINUOUS
10
5.3102538582677168
20
-2.2796485433070868
11
5.3091898425196851
21
-2.2756775590551181
0
LINE
8
BLACK
6
CONTINUOUS
10
5.3091898425196851
20
-2.2756775590551181
11
5.3091898425196851
21
-2.2715665354330707
0
LINE
8
BLACK
6
CONTINUOUS
10
5.3091898425196851
20
-2.2715665354330707
11
5.3102538582677168
21
-2.2675955511811021
0
LINE
8
BLACK
6
CONTINUOUS
10
5.3102538582677168
20
-2.2675955511811021
11
5.3123094094488188
21
-2.2640352362204723
0
LINE
8
BLACK
6
CONTINUOUS
10
5.3123094094488188
20
-2.2640352362204723
11
5.3152163385826769
21
-2.2611283070866142
0
LINE
8
BLACK
6
CONTINUOUS
10
5.3152163385826769
20
-2.2611283070866142
11
5.3187766535433072
21
-2.2590727559055117
0
LINE
8
BLACK
6
CONTINUOUS
10
5.3187766535433072
20
-2.2590727559055117
11
5.3227476377952758
21
-2.2580087401574804
0
LINE
8
BLACK
6
CONTINUOUS
10
5.3227476377952758
20
-2.2580087401574804
11
5.3248031496062991
21
-2.2578740157480315
0
LINE
8
BLACK
6
CONTINUOUS
10
5.3248031496062991
20
-2.2578740157480315
11
5.3444881889763778
21
-2.2578740157480315
0
LINE
8
BLACK
6
CONTINUOUS
10
5.3444881889763778
20
-2.2578740157480315
11
5.346543700787401
21
-2.2580087401574804
0
LINE
8
BLACK
6
CONTINUOUS
10
5.346543700787401
20
-2.2087961417322832
11
5.3505146850393697
21
-2.2098601574803149
0
LINE
8
BLACK
6
CONTINUOUS
10
5.3505146850393697
20
-2.2098601574803149
11
5.3540749999999999
21
-2.2119157086614174
0
LINE
8
BLACK
6
CONTINUOUS
10
5.3540749999999999
20
-2.2119157086614174
11
5.3569819291338581
21
-2.2148226377952756
0
LINE
8
BLACK
6
CONTINUOUS
10
5.3569819291338581
20
-2.2148226377952756
11
5.3590374803149601
21
-2.2183829527559054
0
LINE
8
BLACK
6
CONTINUOUS
10
5.3590374803149601
20
-2.2183829527559054
11
5.3601014960629918
21
-2.222353937007874
0
LINE
8
BLACK
6
CONTINUOUS
10
5.3601014960629918
20
-2.222353937007874
11
5.3601014960629918
21
-2.2264649606299214
0
LINE
8
BLACK
6
CONTINUOUS
10
5.3601014960629918
20
-2.2264649606299214
11
5.3590374803149601
21
-2.2304359448818896
0
LINE
8
BLACK
6
CONTINUOUS
10
5.3590374803149601
20
-2.2304359448818896
11
5.3569819291338581
21
-2.2339962598425198
0
LINE
8
BLACK
6
CONTINUOUS
10
5.3569819291338581
20
-2.2339962598425198
11
5.3540749999999999
21
-2.236903188976378
0
LINE
8
BLACK
6
CONTINUOUS
10
5.3540749999999999
20
-2.236903188976378
11
5.3505146850393697
21
-2.2389587401574804
0
LINE
8
BLACK
6
CONTINUOUS
10
5.3505146850393697
20
-2.2389587401574804
11
5.346543700787401
21
-2.2400227559055117
0
LINE
8
BLACK
6
CONTINUOUS
10
5.346543700787401
20
-2.2400227559055117
11
5.3444881889763778
21
-2.2401574803149606
0
LINE
8
BLACK
6
CONTINUOUS
10
5.3444881889763778
20
-2.2401574803149606
11
5.3248031496062991
21
-2.2401574803149606
0
LINE
8
BLACK
6
CONTINUOUS
10
5.3248031496062991
20
-2.2401574803149606
11
5.3227476377952758
21
-2.2400227559055117
0
LINE
8
BLACK
6
CONTINUOUS
10
5.3227476377952758
20
-2.2400227559055117
11
5.3187766535433072
21
-2.2389587401574804
0
LINE
8
BLACK
6
CONTINUOUS
10
5.3187766535433072
20
-2.2389587401574804
11
5.3152163385826769
21
-2.236903188976378
0
LINE
8
BLACK
6
CONTINUOUS
10
5.3152163385826769
20
-2.236903188976378
11
5.3123094094488188
21
-2.2339962598425198
0
LINE
8
BLACK
6
CONTINUOUS
10
5.3123094094488188
20
-2.2339962598425198
11
5.3102538582677168
21
-2.2304359448818896
0
LINE
8
BLACK
6
CONTINUOUS
10
5.3102538582677168
20
-2.2304359448818896
11
5.3091898425196851
21
-2.2264649606299214
0
LINE
8
BLACK
6
CONTINUOUS
10
5.3091898425196851
20
-2.2264649606299214
11
5.3091898425196851
21
-2.222353937007874
0
LINE
8
BLACK
6
CONTINUOUS
10
5.3091898425196851
20
-2.222353937007874
11
5.3102538582677168
21
-2.2183829527559054
0
LINE
8
BLACK
6
CONTINUOUS
10
5.3102538582677168
20
-2.2183829527559054
11
5.3123094094488188
21
-2.2148226377952756
0
LINE
8
BLACK
6
CONTINUOUS
10
5.3123094094488188
20
-2.2148226377952756
11
5.3152163385826769
21
-2.2119157086614174
0
LINE
8
BLACK
6
CONTINUOUS
10
5.3152163385826769
20
-2.2119157086614174
11
5.3187766535433072
21
-2.2098601574803149
0
LINE
8
BLACK
6
CONTINUOUS
10
5.3187766535433072
20
-2.2098601574803149
11
5.3227476377952758
21
-2.2087961417322832
0
LINE
8
BLACK
6
CONTINUOUS
10
5.3227476377952758
20
-2.2087961417322832
11
5.3248031496062991
21
-2.2086614173228347
0
LINE
8
BLACK
6
CONTINUOUS
10
5.3248031496062991
20
-2.2086614173228347
11
5.3444881889763778
21
-2.2086614173228347
0
LINE
8
BLACK
6
CONTINUOUS
10
5.3444881889763778
20
-2.2086614173228347
11
5.346543700787401
21
-2.2087961417322832
0
LINE
8
BLACK
6
CONTINUOUS
10
5.346543700787401
20
-2.1595835433070865
11
5.3505146850393697
21
-2.1606475590551182
0
LINE
8
BLACK
6
CONTINUOUS
10
5.3505146850393697
20
-2.1606475590551182
11
5.3540749999999999
21
-2.1627031102362206
0
LINE
8
BLACK
6
CONTINUOUS
10
5.3540749999999999
20
-2.1627031102362206
11
5.3569819291338581
21
-2.1656100393700788
0
LINE
8
BLACK
6
CONTINUOUS
10
5.3569819291338581
20
-2.1656100393700788
11
5.3590374803149601
21
-2.1691703543307086
0
LINE
8
BLACK
6
CONTINUOUS
10
5.3590374803149601
20
-2.1691703543307086
11
5.3601014960629918
21
-2.1731413385826772
0
LINE
8
BLACK
6
CONTINUOUS
10
5.3601014960629918
20
-2.1731413385826772
11
5.3601014960629918
21
-2.1772523622047242
0
LINE
8
BLACK
6
CONTINUOUS
10
5.3601014960629918
20
-2.1772523622047242
11
5.3590374803149601
21
-2.1812233464566928
0
LINE
8
BLACK
6
CONTINUOUS
10
5.3590374803149601
20
-2.1812233464566928
11
5.3569819291338581
21
-2.1847836614173226
0
LINE
8
BLACK
6
CONTINUOUS
10
5.3569819291338581
20
-2.1847836614173226
11
5.3540749999999999
21
-2.1876905905511812
0
LINE
8
BLACK
6
CONTINUOUS
10
5.3540749999999999
20
-2.1876905905511812
11
5.3505146850393697
21
-2.1897461417322832
0
LINE
8
BLACK
6
CONTINUOUS
10
5.3505146850393697
20
-2.1897461417322832
11
5.346543700787401
21
-2.1908101574803149
0
LINE
8
BLACK
6
CONTINUOUS
10
5.346543700787401
20
-2.1908101574803149
11
5.3444881889763778
21
-2.1909448818897639
0
LINE
8
BLACK
6
CONTINUOUS
10
5.3444881889763778
20
-2.1909448818897639
11
5.3248031496062991
21
-2.1909448818897639
0
LINE
8
BLACK
6
CONTINUOUS
10
5.3248031496062991
20
-2.1909448818897639
11
5.3227476377952758
21
-2.1908101574803149
0
LINE
8
BLACK
6
CONTINUOUS
10
5.3227476377952758
20
-2.1908101574803149
11
5.3187766535433072
21
-2.1897461417322832
0
LINE
8
BLACK
6
CONTINUOUS
10
5.3187766535433072
20
-2.1897461417322832
11
5.3152163385826769
21
-2.1876905905511812
0
LINE
8
BLACK
6
CONTINUOUS
10
5.3152163385826769
20
-2.1876905905511812
11
5.3123094094488188
21
-2.1847836614173226
0
LINE
8
BLACK
6
CONTINUOUS
10
5.3123094094488188
20
-2.1847836614173226
11
5.3102538582677168
21
-2.1812233464566928
0
LINE
8
BLACK
6
CONTINUOUS
10
5.3102538582677168
20
-2.1812233464566928
11
5.3091898425196851
21
-2.1772523622047242
0
LINE
8
BLACK
6
CONTINUOUS
10
5.3091898425196851
20
-2.1772523622047242
11
5.3091898425196851
21
-2.1731413385826772
0
LINE
8
BLACK
6
CONTINUOUS
10
5.3091898425196851
20
-2.1731413385826772
11
5.3102538582677168
21
-2.1691703543307086
0
LINE
8
BLACK
6
CONTINUOUS
10
5.3102538582677168
20
-2.1691703543307086
11
5.3123094094488188
21
-2.1656100393700788
0
LINE
8
BLACK
6
CONTINUOUS
10
5.3123094094488188
20
-2.1656100393700788
11
5.3152163385826769
21
-2.1627031102362206
0
LINE
8
BLACK
6
CONTINUOUS
10
5.3152163385826769
20
-2.1627031102362206
11
5.3187766535433072
21
-2.1606475590551182
0
LINE
8
BLACK
6
CONTINUOUS
10
5.3187766535433072
20
-2.1606475590551182
11
5.3227476377952758
21
-2.1595835433070865
0
LINE
8
BLACK
6
CONTINUOUS
10
5.3227476377952758
20
-2.1595835433070865
11
5.3248031496062991
21
-2.159448818897638
0
LINE
8
BLACK
6
CONTINUOUS
10
5.3248031496062991
20
-2.159448818897638
11
5.3444881889763778
21
-2.159448818897638
0
LINE
8
BLACK
6
CONTINUOUS
10
5.3444881889763778
20
-2.159448818897638
11
5.346543700787401
21
-2.1595835433070865
0
LINE
8
BLACK
6
CONTINUOUS
10
5.346543700787401
20
-2.1103709448818897
11
5.3505146850393697
21
-2.1114349606299214
0
LINE
8
BLACK
6
CONTINUOUS
10
5.3505146850393697
20
-2.1114349606299214
11
5.3540749999999999
21
-2.1134905118110234
0
LINE
8
BLACK
6
CONTINUOUS
10
5.3540749999999999
20
-2.1134905118110234
11
5.3569819291338581
21
-2.116397440944882
0
LINE
8
BLACK
6
CONTINUOUS
10
5.3569819291338581
20
-2.116397440944882
11
5.3590374803149601
21
-2.1199577559055118
0
LINE
8
BLACK
6
CONTINUOUS
10
5.3590374803149601
20
-2.1199577559055118
11
5.3601014960629918
21
-2.1239287401574805
0
LINE
8
BLACK
6
CONTINUOUS
10
5.3601014960629918
20
-2.1239287401574805
11
5.3601014960629918
21
-2.1280397637795274
0
LINE
8
BLACK
6
CONTINUOUS
10
5.3601014960629918
20
-2.1280397637795274
11
5.3590374803149601
21
-2.132010748031496
0
LINE
8
BLACK
6
CONTINUOUS
10
5.3590374803149601
20
-2.132010748031496
11
5.3569819291338581
21
-2.1355710629921258
0
LINE
8
BLACK
6
CONTINUOUS
10
5.3569819291338581
20
-2.1355710629921258
11
5.3540749999999999
21
-2.138477992125984
0
LINE
8
BLACK
6
CONTINUOUS
10
5.3540749999999999
20
-2.138477992125984
11
5.3505146850393697
21
-2.1405335433070865
0
LINE
8
BLACK
6
CONTINUOUS
10
5.3505146850393697
20
-2.1405335433070865
11
5.346543700787401
21
-2.1415975590551182
0
LINE
8
BLACK
6
CONTINUOUS
10
5.346543700787401
20
-2.1415975590551182
11
5.3444881889763778
21
-2.1417322834645667
0
LINE
8
BLACK
6
CONTINUOUS
10
5.3444881889763778
20
-2.1417322834645667
11
5.3248031496062991
21
-2.1417322834645667
0
LINE
8
BLACK
6
CONTINUOUS
10
5.3248031496062991
20
-2.1417322834645667
11
5.3227476377952758
21
-2.1415975590551182
0
LINE
8
BLACK
6
CONTINUOUS
10
5.3227476377952758
20
-2.1415975590551182
11
5.3187766535433072
21
-2.1405335433070865
0
LINE
8
BLACK
6
CONTINUOUS
10
5.3187766535433072
20
-2.1405335433070865
11
5.3152163385826769
21
-2.138477992125984
0
LINE
8
BLACK
6
CONTINUOUS
10
5.3152163385826769
20
-2.138477992125984
11
5.3123094094488188
21
-2.1355710629921258
0
LINE
8
BLACK
6
CONTINUOUS
10
5.3123094094488188
20
-2.1355710629921258
11
5.3102538582677168
21
-2.132010748031496
0
LINE
8
BLACK
6
CONTINUOUS
10
5.3102538582677168
20
-2.132010748031496
11
5.3091898425196851
21
-2.1280397637795274
0
LINE
8
BLACK
6
CONTINUOUS
10
5.3091898425196851
20
-2.1280397637795274
11
5.3091898425196851
21
-2.1239287401574805
0
LINE
8
BLACK
6
CONTINUOUS
10
5.3091898425196851
20
-2.1239287401574805
11
5.3102538582677168
21
-2.1199577559055118
0
LINE
8
BLACK
6
CONTINUOUS
10
5.3102538582677168
20
-2.1199577559055118
11
5.3123094094488188
21
-2.116397440944882
0
LINE
8
BLACK
6
CONTINUOUS
10
5.3123094094488188
20
-2.116397440944882
11
5.3152163385826769
21
-2.1134905118110234
0
LINE
8
BLACK
6
CONTINUOUS
10
5.3152163385826769
20
-2.1134905118110234
11
5.3187766535433072
21
-2.1114349606299214
0
LINE
8
BLACK
6
CONTINUOUS
10
5.3187766535433072
20
-2.1114349606299214
11
5.3227476377952758
21
-2.1103709448818897
0
LINE
8
BLACK
6
CONTINUOUS
10
5.3227476377952758
20
-2.1103709448818897
11
5.3248031496062991
21
-2.1102362204724407
0
LINE
8
BLACK
6
CONTINUOUS
10
5.3248031496062991
20
-2.1102362204724407
11
5.3444881889763778
21
-2.1102362204724407
0
LINE
8
BLACK
6
CONTINUOUS
10
5.3444881889763778
20
-2.1102362204724407
11
5.346543700787401
21
-2.1103709448818897
0
CIRCLE
8
BLACK
10
5.3346456692913389
20
-2.3228346456692912
40
0.0068897637795276
0
CIRCLE
8
BLACK
10
5.3346456692913389
20
-2.2736220472440944
40
0.0068897637795276
0
CIRCLE
8
BLACK
10
5.3346456692913389
20
-2.2244094488188977
40
0.0068897637795276
0
CIRCLE
8
BLACK
10
5.3346456692913389
20
-2.1751968503937009
40
0.0068897637795276
0
CIRCLE
8
BLACK
10
5.3346456692913389
20
-2.1259842519685037
40
0.0068897637795276
0
CIRCLE
8
BLACK
10
5.9753937007874018
20
-4.4291338582677167
40
0.0068897637795276
0
CIRCLE
8
BLACK
10
5.8753937007874013
20
-4.4291338582677167
40
0.0068897637795276
0
CIRCLE
8
BLACK
10
5.4921259842519685
20
-4.8196850393700785
40
0.0068897637795276
0
CIRCLE
8
BLACK
10
5.392125984251968
20
-4.8196850393700785
40
0.0068897637795276
0
CIRCLE
8
BLACK
10
5.4921259842519685
20
-4.9196850393700791
40
0.0068897637795276
0
CIRCLE
8
BLACK
10
5.392125984251968
20
-4.9196850393700791
40
0.0068897637795276
0
CIRCLE
8
BLACK
10
5.4921259842519685
20
-5.0196850393700787
40
0.0068897637795276
0
CIRCLE
8
BLACK
10
5.392125984251968
20
-5.0196850393700787
40
0.0068897637795276
0
CIRCLE
8
BLACK
10
5.4921259842519685
20
-5.1196850393700783
40
0.0068897637795276
0
CIRCLE
8
BLACK
10
5.392125984251968
20
-5.1196850393700783
40
0.0068897637795276
0
CIRCLE
8
BLACK
10
5.4921259842519685
20
-5.2196850393700789
40
0.0068897637795276
0
CIRCLE
8
BLACK
10
5.392125984251968
20
-5.2196850393700789
40
0.0068897637795276
0
CIRCLE
8
WHITE
10
5.3346456692913389
20
-2.3228346456692912
40
0.0068897637795276
0
CIRCLE
8
WHITE
10
5.3346456692913389
20
-2.2736220472440944
40
0.0068897637795276
0
CIRCLE
8
WHITE
10
5.3346456692913389
20
-2.2244094488188977
40
0.0068897637795276
0
CIRCLE
8
WHITE
10
5.3346456692913389
20
-2.1751968503937009
40
0.0068897637795276
0
CIRCLE
8
WHITE
10
5.3346456692913389
20
-2.1259842519685037
40
0.0068897637795276
0
CIRCLE
8
WHITE
10
5.9753937007874018
20
-4.4291338582677167
40
0.0068897637795276
0
CIRCLE
8
WHITE
10
5.8753937007874013
20
-4.4291338582677167
40
0.0068897637795276
0
CIRCLE
8
WHITE
10
5.4921259842519685
20
-4.8196850393700785
40
0.0068897637795276
0
CIRCLE
8
WHITE
10
5.392125984251968
20
-4.8196850393700785
40
0.0068897637795276
0
CIRCLE
8
WHITE
10
5.4921259842519685
20
-4.9196850393700791
40
0.0068897637795276
0
CIRCLE
8
WHITE
10
5.392125984251968
20
-4.9196850393700791
40
0.0068897637795276
0
CIRCLE
8
WHITE
10
5.4921259842519685
20
-5.0196850393700787
40
0.0068897637795276
0
CIRCLE
8
WHITE
10
5.392125984251968
20
-5.0196850393700787
40
0.0068897637795276
0
CIRCLE
8
WHITE
10
5.4921259842519685
20
-5.1196850393700783
40
0.0068897637795276
0
CIRCLE
8
WHITE
10
5.392125984251968
20
-5.1196850393700783
40
0.0068897637795276
0
CIRCLE
8
WHITE
10
5.4921259842519685
20
-5.2196850393700789
40
0.0068897637795276
0
CIRCLE
8
WHITE
10
5.392125984251968
20
-5.2196850393700789
40
0.0068897637795276
  0
ENDSEC
  0
EOF
