%TF.GenerationSoftware,KiCad,Pcbnew,9.0.6+1*%
%TF.CreationDate,2026-02-07T00:07:08+00:00*%
%TF.ProjectId,LED7SEG02,4c454437-5345-4473-9032-2e6b69636164,rev?*%
%TF.SameCoordinates,Original*%
%TF.FileFunction,Legend,Bot*%
%TF.FilePolarity,Positive*%
%FSLAX46Y46*%
G04 Gerber Fmt 4.6, Leading zero omitted, Abs format (unit mm)*
G04 Created by KiCad (PCBNEW 9.0.6+1) date 2026-02-07 00:07:08*
%MOMM*%
%LPD*%
G01*
G04 APERTURE LIST*
%ADD10C,0.100000*%
%ADD11C,0.300000*%
%ADD12C,0.150000*%
%ADD13C,0.120000*%
G04 APERTURE END LIST*
D10*
X134172306Y-121420038D02*
X134267544Y-121372419D01*
X134267544Y-121372419D02*
X134410401Y-121372419D01*
X134410401Y-121372419D02*
X134553258Y-121420038D01*
X134553258Y-121420038D02*
X134648496Y-121515276D01*
X134648496Y-121515276D02*
X134696115Y-121610514D01*
X134696115Y-121610514D02*
X134743734Y-121800990D01*
X134743734Y-121800990D02*
X134743734Y-121943847D01*
X134743734Y-121943847D02*
X134696115Y-122134323D01*
X134696115Y-122134323D02*
X134648496Y-122229561D01*
X134648496Y-122229561D02*
X134553258Y-122324800D01*
X134553258Y-122324800D02*
X134410401Y-122372419D01*
X134410401Y-122372419D02*
X134315163Y-122372419D01*
X134315163Y-122372419D02*
X134172306Y-122324800D01*
X134172306Y-122324800D02*
X134124687Y-122277180D01*
X134124687Y-122277180D02*
X134124687Y-121943847D01*
X134124687Y-121943847D02*
X134315163Y-121943847D01*
X133696115Y-122372419D02*
X133696115Y-121372419D01*
X133696115Y-121372419D02*
X133124687Y-122372419D01*
X133124687Y-122372419D02*
X133124687Y-121372419D01*
X132648496Y-122372419D02*
X132648496Y-121372419D01*
X132648496Y-121372419D02*
X132410401Y-121372419D01*
X132410401Y-121372419D02*
X132267544Y-121420038D01*
X132267544Y-121420038D02*
X132172306Y-121515276D01*
X132172306Y-121515276D02*
X132124687Y-121610514D01*
X132124687Y-121610514D02*
X132077068Y-121800990D01*
X132077068Y-121800990D02*
X132077068Y-121943847D01*
X132077068Y-121943847D02*
X132124687Y-122134323D01*
X132124687Y-122134323D02*
X132172306Y-122229561D01*
X132172306Y-122229561D02*
X132267544Y-122324800D01*
X132267544Y-122324800D02*
X132410401Y-122372419D01*
X132410401Y-122372419D02*
X132648496Y-122372419D01*
D11*
X153731203Y-137800828D02*
X154445489Y-137800828D01*
X154445489Y-137800828D02*
X154445489Y-136300828D01*
X153231203Y-137015114D02*
X152731203Y-137015114D01*
X152516917Y-137800828D02*
X153231203Y-137800828D01*
X153231203Y-137800828D02*
X153231203Y-136300828D01*
X153231203Y-136300828D02*
X152516917Y-136300828D01*
X151874060Y-137800828D02*
X151874060Y-136300828D01*
X151874060Y-136300828D02*
X151516917Y-136300828D01*
X151516917Y-136300828D02*
X151302631Y-136372257D01*
X151302631Y-136372257D02*
X151159774Y-136515114D01*
X151159774Y-136515114D02*
X151088345Y-136657971D01*
X151088345Y-136657971D02*
X151016917Y-136943685D01*
X151016917Y-136943685D02*
X151016917Y-137157971D01*
X151016917Y-137157971D02*
X151088345Y-137443685D01*
X151088345Y-137443685D02*
X151159774Y-137586542D01*
X151159774Y-137586542D02*
X151302631Y-137729400D01*
X151302631Y-137729400D02*
X151516917Y-137800828D01*
X151516917Y-137800828D02*
X151874060Y-137800828D01*
X150516917Y-136300828D02*
X149516917Y-136300828D01*
X149516917Y-136300828D02*
X150159774Y-137800828D01*
X149016917Y-137729400D02*
X148802632Y-137800828D01*
X148802632Y-137800828D02*
X148445489Y-137800828D01*
X148445489Y-137800828D02*
X148302632Y-137729400D01*
X148302632Y-137729400D02*
X148231203Y-137657971D01*
X148231203Y-137657971D02*
X148159774Y-137515114D01*
X148159774Y-137515114D02*
X148159774Y-137372257D01*
X148159774Y-137372257D02*
X148231203Y-137229400D01*
X148231203Y-137229400D02*
X148302632Y-137157971D01*
X148302632Y-137157971D02*
X148445489Y-137086542D01*
X148445489Y-137086542D02*
X148731203Y-137015114D01*
X148731203Y-137015114D02*
X148874060Y-136943685D01*
X148874060Y-136943685D02*
X148945489Y-136872257D01*
X148945489Y-136872257D02*
X149016917Y-136729400D01*
X149016917Y-136729400D02*
X149016917Y-136586542D01*
X149016917Y-136586542D02*
X148945489Y-136443685D01*
X148945489Y-136443685D02*
X148874060Y-136372257D01*
X148874060Y-136372257D02*
X148731203Y-136300828D01*
X148731203Y-136300828D02*
X148374060Y-136300828D01*
X148374060Y-136300828D02*
X148159774Y-136372257D01*
X147516918Y-137015114D02*
X147016918Y-137015114D01*
X146802632Y-137800828D02*
X147516918Y-137800828D01*
X147516918Y-137800828D02*
X147516918Y-136300828D01*
X147516918Y-136300828D02*
X146802632Y-136300828D01*
X145374060Y-136372257D02*
X145516918Y-136300828D01*
X145516918Y-136300828D02*
X145731203Y-136300828D01*
X145731203Y-136300828D02*
X145945489Y-136372257D01*
X145945489Y-136372257D02*
X146088346Y-136515114D01*
X146088346Y-136515114D02*
X146159775Y-136657971D01*
X146159775Y-136657971D02*
X146231203Y-136943685D01*
X146231203Y-136943685D02*
X146231203Y-137157971D01*
X146231203Y-137157971D02*
X146159775Y-137443685D01*
X146159775Y-137443685D02*
X146088346Y-137586542D01*
X146088346Y-137586542D02*
X145945489Y-137729400D01*
X145945489Y-137729400D02*
X145731203Y-137800828D01*
X145731203Y-137800828D02*
X145588346Y-137800828D01*
X145588346Y-137800828D02*
X145374060Y-137729400D01*
X145374060Y-137729400D02*
X145302632Y-137657971D01*
X145302632Y-137657971D02*
X145302632Y-137157971D01*
X145302632Y-137157971D02*
X145588346Y-137157971D01*
X144374060Y-136300828D02*
X144231203Y-136300828D01*
X144231203Y-136300828D02*
X144088346Y-136372257D01*
X144088346Y-136372257D02*
X144016918Y-136443685D01*
X144016918Y-136443685D02*
X143945489Y-136586542D01*
X143945489Y-136586542D02*
X143874060Y-136872257D01*
X143874060Y-136872257D02*
X143874060Y-137229400D01*
X143874060Y-137229400D02*
X143945489Y-137515114D01*
X143945489Y-137515114D02*
X144016918Y-137657971D01*
X144016918Y-137657971D02*
X144088346Y-137729400D01*
X144088346Y-137729400D02*
X144231203Y-137800828D01*
X144231203Y-137800828D02*
X144374060Y-137800828D01*
X144374060Y-137800828D02*
X144516918Y-137729400D01*
X144516918Y-137729400D02*
X144588346Y-137657971D01*
X144588346Y-137657971D02*
X144659775Y-137515114D01*
X144659775Y-137515114D02*
X144731203Y-137229400D01*
X144731203Y-137229400D02*
X144731203Y-136872257D01*
X144731203Y-136872257D02*
X144659775Y-136586542D01*
X144659775Y-136586542D02*
X144588346Y-136443685D01*
X144588346Y-136443685D02*
X144516918Y-136372257D01*
X144516918Y-136372257D02*
X144374060Y-136300828D01*
X143302632Y-136443685D02*
X143231204Y-136372257D01*
X143231204Y-136372257D02*
X143088347Y-136300828D01*
X143088347Y-136300828D02*
X142731204Y-136300828D01*
X142731204Y-136300828D02*
X142588347Y-136372257D01*
X142588347Y-136372257D02*
X142516918Y-136443685D01*
X142516918Y-136443685D02*
X142445489Y-136586542D01*
X142445489Y-136586542D02*
X142445489Y-136729400D01*
X142445489Y-136729400D02*
X142516918Y-136943685D01*
X142516918Y-136943685D02*
X143374061Y-137800828D01*
X143374061Y-137800828D02*
X142445489Y-137800828D01*
D10*
X143672306Y-131920038D02*
X143767544Y-131872419D01*
X143767544Y-131872419D02*
X143910401Y-131872419D01*
X143910401Y-131872419D02*
X144053258Y-131920038D01*
X144053258Y-131920038D02*
X144148496Y-132015276D01*
X144148496Y-132015276D02*
X144196115Y-132110514D01*
X144196115Y-132110514D02*
X144243734Y-132300990D01*
X144243734Y-132300990D02*
X144243734Y-132443847D01*
X144243734Y-132443847D02*
X144196115Y-132634323D01*
X144196115Y-132634323D02*
X144148496Y-132729561D01*
X144148496Y-132729561D02*
X144053258Y-132824800D01*
X144053258Y-132824800D02*
X143910401Y-132872419D01*
X143910401Y-132872419D02*
X143815163Y-132872419D01*
X143815163Y-132872419D02*
X143672306Y-132824800D01*
X143672306Y-132824800D02*
X143624687Y-132777180D01*
X143624687Y-132777180D02*
X143624687Y-132443847D01*
X143624687Y-132443847D02*
X143815163Y-132443847D01*
X143196115Y-132872419D02*
X143196115Y-131872419D01*
X143196115Y-131872419D02*
X142624687Y-132872419D01*
X142624687Y-132872419D02*
X142624687Y-131872419D01*
X142148496Y-132872419D02*
X142148496Y-131872419D01*
X142148496Y-131872419D02*
X141910401Y-131872419D01*
X141910401Y-131872419D02*
X141767544Y-131920038D01*
X141767544Y-131920038D02*
X141672306Y-132015276D01*
X141672306Y-132015276D02*
X141624687Y-132110514D01*
X141624687Y-132110514D02*
X141577068Y-132300990D01*
X141577068Y-132300990D02*
X141577068Y-132443847D01*
X141577068Y-132443847D02*
X141624687Y-132634323D01*
X141624687Y-132634323D02*
X141672306Y-132729561D01*
X141672306Y-132729561D02*
X141767544Y-132824800D01*
X141767544Y-132824800D02*
X141910401Y-132872419D01*
X141910401Y-132872419D02*
X142148496Y-132872419D01*
X143672306Y-121420038D02*
X143767544Y-121372419D01*
X143767544Y-121372419D02*
X143910401Y-121372419D01*
X143910401Y-121372419D02*
X144053258Y-121420038D01*
X144053258Y-121420038D02*
X144148496Y-121515276D01*
X144148496Y-121515276D02*
X144196115Y-121610514D01*
X144196115Y-121610514D02*
X144243734Y-121800990D01*
X144243734Y-121800990D02*
X144243734Y-121943847D01*
X144243734Y-121943847D02*
X144196115Y-122134323D01*
X144196115Y-122134323D02*
X144148496Y-122229561D01*
X144148496Y-122229561D02*
X144053258Y-122324800D01*
X144053258Y-122324800D02*
X143910401Y-122372419D01*
X143910401Y-122372419D02*
X143815163Y-122372419D01*
X143815163Y-122372419D02*
X143672306Y-122324800D01*
X143672306Y-122324800D02*
X143624687Y-122277180D01*
X143624687Y-122277180D02*
X143624687Y-121943847D01*
X143624687Y-121943847D02*
X143815163Y-121943847D01*
X143196115Y-122372419D02*
X143196115Y-121372419D01*
X143196115Y-121372419D02*
X142624687Y-122372419D01*
X142624687Y-122372419D02*
X142624687Y-121372419D01*
X142148496Y-122372419D02*
X142148496Y-121372419D01*
X142148496Y-121372419D02*
X141910401Y-121372419D01*
X141910401Y-121372419D02*
X141767544Y-121420038D01*
X141767544Y-121420038D02*
X141672306Y-121515276D01*
X141672306Y-121515276D02*
X141624687Y-121610514D01*
X141624687Y-121610514D02*
X141577068Y-121800990D01*
X141577068Y-121800990D02*
X141577068Y-121943847D01*
X141577068Y-121943847D02*
X141624687Y-122134323D01*
X141624687Y-122134323D02*
X141672306Y-122229561D01*
X141672306Y-122229561D02*
X141767544Y-122324800D01*
X141767544Y-122324800D02*
X141910401Y-122372419D01*
X141910401Y-122372419D02*
X142148496Y-122372419D01*
X134172306Y-131920038D02*
X134267544Y-131872419D01*
X134267544Y-131872419D02*
X134410401Y-131872419D01*
X134410401Y-131872419D02*
X134553258Y-131920038D01*
X134553258Y-131920038D02*
X134648496Y-132015276D01*
X134648496Y-132015276D02*
X134696115Y-132110514D01*
X134696115Y-132110514D02*
X134743734Y-132300990D01*
X134743734Y-132300990D02*
X134743734Y-132443847D01*
X134743734Y-132443847D02*
X134696115Y-132634323D01*
X134696115Y-132634323D02*
X134648496Y-132729561D01*
X134648496Y-132729561D02*
X134553258Y-132824800D01*
X134553258Y-132824800D02*
X134410401Y-132872419D01*
X134410401Y-132872419D02*
X134315163Y-132872419D01*
X134315163Y-132872419D02*
X134172306Y-132824800D01*
X134172306Y-132824800D02*
X134124687Y-132777180D01*
X134124687Y-132777180D02*
X134124687Y-132443847D01*
X134124687Y-132443847D02*
X134315163Y-132443847D01*
X133696115Y-132872419D02*
X133696115Y-131872419D01*
X133696115Y-131872419D02*
X133124687Y-132872419D01*
X133124687Y-132872419D02*
X133124687Y-131872419D01*
X132648496Y-132872419D02*
X132648496Y-131872419D01*
X132648496Y-131872419D02*
X132410401Y-131872419D01*
X132410401Y-131872419D02*
X132267544Y-131920038D01*
X132267544Y-131920038D02*
X132172306Y-132015276D01*
X132172306Y-132015276D02*
X132124687Y-132110514D01*
X132124687Y-132110514D02*
X132077068Y-132300990D01*
X132077068Y-132300990D02*
X132077068Y-132443847D01*
X132077068Y-132443847D02*
X132124687Y-132634323D01*
X132124687Y-132634323D02*
X132172306Y-132729561D01*
X132172306Y-132729561D02*
X132267544Y-132824800D01*
X132267544Y-132824800D02*
X132410401Y-132872419D01*
X132410401Y-132872419D02*
X132648496Y-132872419D01*
X134743734Y-125086704D02*
X134267544Y-125086704D01*
X134838972Y-125372419D02*
X134505639Y-124372419D01*
X134505639Y-124372419D02*
X134172306Y-125372419D01*
X134362782Y-129848609D02*
X134219925Y-129896228D01*
X134219925Y-129896228D02*
X134172306Y-129943847D01*
X134172306Y-129943847D02*
X134124687Y-130039085D01*
X134124687Y-130039085D02*
X134124687Y-130181942D01*
X134124687Y-130181942D02*
X134172306Y-130277180D01*
X134172306Y-130277180D02*
X134219925Y-130324800D01*
X134219925Y-130324800D02*
X134315163Y-130372419D01*
X134315163Y-130372419D02*
X134696115Y-130372419D01*
X134696115Y-130372419D02*
X134696115Y-129372419D01*
X134696115Y-129372419D02*
X134362782Y-129372419D01*
X134362782Y-129372419D02*
X134267544Y-129420038D01*
X134267544Y-129420038D02*
X134219925Y-129467657D01*
X134219925Y-129467657D02*
X134172306Y-129562895D01*
X134172306Y-129562895D02*
X134172306Y-129658133D01*
X134172306Y-129658133D02*
X134219925Y-129753371D01*
X134219925Y-129753371D02*
X134267544Y-129800990D01*
X134267544Y-129800990D02*
X134362782Y-129848609D01*
X134362782Y-129848609D02*
X134696115Y-129848609D01*
X134696115Y-127491466D02*
X133934211Y-127491466D01*
X134315163Y-127872419D02*
X134315163Y-127110514D01*
X132934211Y-127872419D02*
X133505639Y-127872419D01*
X133219925Y-127872419D02*
X133219925Y-126872419D01*
X133219925Y-126872419D02*
X133315163Y-127015276D01*
X133315163Y-127015276D02*
X133410401Y-127110514D01*
X133410401Y-127110514D02*
X133505639Y-127158133D01*
X132553258Y-126967657D02*
X132505639Y-126920038D01*
X132505639Y-126920038D02*
X132410401Y-126872419D01*
X132410401Y-126872419D02*
X132172306Y-126872419D01*
X132172306Y-126872419D02*
X132077068Y-126920038D01*
X132077068Y-126920038D02*
X132029449Y-126967657D01*
X132029449Y-126967657D02*
X131981830Y-127062895D01*
X131981830Y-127062895D02*
X131981830Y-127158133D01*
X131981830Y-127158133D02*
X132029449Y-127300990D01*
X132029449Y-127300990D02*
X132600877Y-127872419D01*
X132600877Y-127872419D02*
X131981830Y-127872419D01*
X131696115Y-126872419D02*
X131362782Y-127872419D01*
X131362782Y-127872419D02*
X131029449Y-126872419D01*
D11*
X131088346Y-137800828D02*
X131588346Y-137086542D01*
X131945489Y-137800828D02*
X131945489Y-136300828D01*
X131945489Y-136300828D02*
X131374060Y-136300828D01*
X131374060Y-136300828D02*
X131231203Y-136372257D01*
X131231203Y-136372257D02*
X131159774Y-136443685D01*
X131159774Y-136443685D02*
X131088346Y-136586542D01*
X131088346Y-136586542D02*
X131088346Y-136800828D01*
X131088346Y-136800828D02*
X131159774Y-136943685D01*
X131159774Y-136943685D02*
X131231203Y-137015114D01*
X131231203Y-137015114D02*
X131374060Y-137086542D01*
X131374060Y-137086542D02*
X131945489Y-137086542D01*
X130445489Y-137229400D02*
X129302632Y-137229400D01*
X127731203Y-137800828D02*
X128231203Y-137086542D01*
X128588346Y-137800828D02*
X128588346Y-136300828D01*
X128588346Y-136300828D02*
X128016917Y-136300828D01*
X128016917Y-136300828D02*
X127874060Y-136372257D01*
X127874060Y-136372257D02*
X127802631Y-136443685D01*
X127802631Y-136443685D02*
X127731203Y-136586542D01*
X127731203Y-136586542D02*
X127731203Y-136800828D01*
X127731203Y-136800828D02*
X127802631Y-136943685D01*
X127802631Y-136943685D02*
X127874060Y-137015114D01*
X127874060Y-137015114D02*
X128016917Y-137086542D01*
X128016917Y-137086542D02*
X128588346Y-137086542D01*
X126016917Y-136443685D02*
X125945489Y-136372257D01*
X125945489Y-136372257D02*
X125802632Y-136300828D01*
X125802632Y-136300828D02*
X125445489Y-136300828D01*
X125445489Y-136300828D02*
X125302632Y-136372257D01*
X125302632Y-136372257D02*
X125231203Y-136443685D01*
X125231203Y-136443685D02*
X125159774Y-136586542D01*
X125159774Y-136586542D02*
X125159774Y-136729400D01*
X125159774Y-136729400D02*
X125231203Y-136943685D01*
X125231203Y-136943685D02*
X126088346Y-137800828D01*
X126088346Y-137800828D02*
X125159774Y-137800828D01*
X124231203Y-136300828D02*
X124088346Y-136300828D01*
X124088346Y-136300828D02*
X123945489Y-136372257D01*
X123945489Y-136372257D02*
X123874061Y-136443685D01*
X123874061Y-136443685D02*
X123802632Y-136586542D01*
X123802632Y-136586542D02*
X123731203Y-136872257D01*
X123731203Y-136872257D02*
X123731203Y-137229400D01*
X123731203Y-137229400D02*
X123802632Y-137515114D01*
X123802632Y-137515114D02*
X123874061Y-137657971D01*
X123874061Y-137657971D02*
X123945489Y-137729400D01*
X123945489Y-137729400D02*
X124088346Y-137800828D01*
X124088346Y-137800828D02*
X124231203Y-137800828D01*
X124231203Y-137800828D02*
X124374061Y-137729400D01*
X124374061Y-137729400D02*
X124445489Y-137657971D01*
X124445489Y-137657971D02*
X124516918Y-137515114D01*
X124516918Y-137515114D02*
X124588346Y-137229400D01*
X124588346Y-137229400D02*
X124588346Y-136872257D01*
X124588346Y-136872257D02*
X124516918Y-136586542D01*
X124516918Y-136586542D02*
X124445489Y-136443685D01*
X124445489Y-136443685D02*
X124374061Y-136372257D01*
X124374061Y-136372257D02*
X124231203Y-136300828D01*
X123159775Y-136443685D02*
X123088347Y-136372257D01*
X123088347Y-136372257D02*
X122945490Y-136300828D01*
X122945490Y-136300828D02*
X122588347Y-136300828D01*
X122588347Y-136300828D02*
X122445490Y-136372257D01*
X122445490Y-136372257D02*
X122374061Y-136443685D01*
X122374061Y-136443685D02*
X122302632Y-136586542D01*
X122302632Y-136586542D02*
X122302632Y-136729400D01*
X122302632Y-136729400D02*
X122374061Y-136943685D01*
X122374061Y-136943685D02*
X123231204Y-137800828D01*
X123231204Y-137800828D02*
X122302632Y-137800828D01*
X120945490Y-136300828D02*
X121659776Y-136300828D01*
X121659776Y-136300828D02*
X121731204Y-137015114D01*
X121731204Y-137015114D02*
X121659776Y-136943685D01*
X121659776Y-136943685D02*
X121516919Y-136872257D01*
X121516919Y-136872257D02*
X121159776Y-136872257D01*
X121159776Y-136872257D02*
X121016919Y-136943685D01*
X121016919Y-136943685D02*
X120945490Y-137015114D01*
X120945490Y-137015114D02*
X120874061Y-137157971D01*
X120874061Y-137157971D02*
X120874061Y-137515114D01*
X120874061Y-137515114D02*
X120945490Y-137657971D01*
X120945490Y-137657971D02*
X121016919Y-137729400D01*
X121016919Y-137729400D02*
X121159776Y-137800828D01*
X121159776Y-137800828D02*
X121516919Y-137800828D01*
X121516919Y-137800828D02*
X121659776Y-137729400D01*
X121659776Y-137729400D02*
X121731204Y-137657971D01*
D10*
X145196115Y-127491466D02*
X144434211Y-127491466D01*
X144815163Y-127872419D02*
X144815163Y-127110514D01*
X143434211Y-127872419D02*
X144005639Y-127872419D01*
X143719925Y-127872419D02*
X143719925Y-126872419D01*
X143719925Y-126872419D02*
X143815163Y-127015276D01*
X143815163Y-127015276D02*
X143910401Y-127110514D01*
X143910401Y-127110514D02*
X144005639Y-127158133D01*
X143053258Y-126967657D02*
X143005639Y-126920038D01*
X143005639Y-126920038D02*
X142910401Y-126872419D01*
X142910401Y-126872419D02*
X142672306Y-126872419D01*
X142672306Y-126872419D02*
X142577068Y-126920038D01*
X142577068Y-126920038D02*
X142529449Y-126967657D01*
X142529449Y-126967657D02*
X142481830Y-127062895D01*
X142481830Y-127062895D02*
X142481830Y-127158133D01*
X142481830Y-127158133D02*
X142529449Y-127300990D01*
X142529449Y-127300990D02*
X143100877Y-127872419D01*
X143100877Y-127872419D02*
X142481830Y-127872419D01*
X142196115Y-126872419D02*
X141862782Y-127872419D01*
X141862782Y-127872419D02*
X141529449Y-126872419D01*
X154338972Y-109372419D02*
X153767544Y-109372419D01*
X154053258Y-110372419D02*
X154053258Y-109372419D01*
X153053258Y-110324800D02*
X153148496Y-110372419D01*
X153148496Y-110372419D02*
X153338972Y-110372419D01*
X153338972Y-110372419D02*
X153434210Y-110324800D01*
X153434210Y-110324800D02*
X153481829Y-110229561D01*
X153481829Y-110229561D02*
X153481829Y-109848609D01*
X153481829Y-109848609D02*
X153434210Y-109753371D01*
X153434210Y-109753371D02*
X153338972Y-109705752D01*
X153338972Y-109705752D02*
X153148496Y-109705752D01*
X153148496Y-109705752D02*
X153053258Y-109753371D01*
X153053258Y-109753371D02*
X153005639Y-109848609D01*
X153005639Y-109848609D02*
X153005639Y-109943847D01*
X153005639Y-109943847D02*
X153481829Y-110039085D01*
X152577067Y-110372419D02*
X152577067Y-109705752D01*
X152577067Y-109896228D02*
X152529448Y-109800990D01*
X152529448Y-109800990D02*
X152481829Y-109753371D01*
X152481829Y-109753371D02*
X152386591Y-109705752D01*
X152386591Y-109705752D02*
X152291353Y-109705752D01*
X151958019Y-110372419D02*
X151958019Y-109705752D01*
X151958019Y-109800990D02*
X151910400Y-109753371D01*
X151910400Y-109753371D02*
X151815162Y-109705752D01*
X151815162Y-109705752D02*
X151672305Y-109705752D01*
X151672305Y-109705752D02*
X151577067Y-109753371D01*
X151577067Y-109753371D02*
X151529448Y-109848609D01*
X151529448Y-109848609D02*
X151529448Y-110372419D01*
X151529448Y-109848609D02*
X151481829Y-109753371D01*
X151481829Y-109753371D02*
X151386591Y-109705752D01*
X151386591Y-109705752D02*
X151243734Y-109705752D01*
X151243734Y-109705752D02*
X151148495Y-109753371D01*
X151148495Y-109753371D02*
X151100876Y-109848609D01*
X151100876Y-109848609D02*
X151100876Y-110372419D01*
X150624686Y-110372419D02*
X150624686Y-109705752D01*
X150624686Y-109372419D02*
X150672305Y-109420038D01*
X150672305Y-109420038D02*
X150624686Y-109467657D01*
X150624686Y-109467657D02*
X150577067Y-109420038D01*
X150577067Y-109420038D02*
X150624686Y-109372419D01*
X150624686Y-109372419D02*
X150624686Y-109467657D01*
X150148496Y-109705752D02*
X150148496Y-110372419D01*
X150148496Y-109800990D02*
X150100877Y-109753371D01*
X150100877Y-109753371D02*
X150005639Y-109705752D01*
X150005639Y-109705752D02*
X149862782Y-109705752D01*
X149862782Y-109705752D02*
X149767544Y-109753371D01*
X149767544Y-109753371D02*
X149719925Y-109848609D01*
X149719925Y-109848609D02*
X149719925Y-110372419D01*
X148815163Y-110372419D02*
X148815163Y-109848609D01*
X148815163Y-109848609D02*
X148862782Y-109753371D01*
X148862782Y-109753371D02*
X148958020Y-109705752D01*
X148958020Y-109705752D02*
X149148496Y-109705752D01*
X149148496Y-109705752D02*
X149243734Y-109753371D01*
X148815163Y-110324800D02*
X148910401Y-110372419D01*
X148910401Y-110372419D02*
X149148496Y-110372419D01*
X149148496Y-110372419D02*
X149243734Y-110324800D01*
X149243734Y-110324800D02*
X149291353Y-110229561D01*
X149291353Y-110229561D02*
X149291353Y-110134323D01*
X149291353Y-110134323D02*
X149243734Y-110039085D01*
X149243734Y-110039085D02*
X149148496Y-109991466D01*
X149148496Y-109991466D02*
X148910401Y-109991466D01*
X148910401Y-109991466D02*
X148815163Y-109943847D01*
X148481829Y-109705752D02*
X148100877Y-109705752D01*
X148338972Y-109372419D02*
X148338972Y-110229561D01*
X148338972Y-110229561D02*
X148291353Y-110324800D01*
X148291353Y-110324800D02*
X148196115Y-110372419D01*
X148196115Y-110372419D02*
X148100877Y-110372419D01*
X147624686Y-110372419D02*
X147719924Y-110324800D01*
X147719924Y-110324800D02*
X147767543Y-110277180D01*
X147767543Y-110277180D02*
X147815162Y-110181942D01*
X147815162Y-110181942D02*
X147815162Y-109896228D01*
X147815162Y-109896228D02*
X147767543Y-109800990D01*
X147767543Y-109800990D02*
X147719924Y-109753371D01*
X147719924Y-109753371D02*
X147624686Y-109705752D01*
X147624686Y-109705752D02*
X147481829Y-109705752D01*
X147481829Y-109705752D02*
X147386591Y-109753371D01*
X147386591Y-109753371D02*
X147338972Y-109800990D01*
X147338972Y-109800990D02*
X147291353Y-109896228D01*
X147291353Y-109896228D02*
X147291353Y-110181942D01*
X147291353Y-110181942D02*
X147338972Y-110277180D01*
X147338972Y-110277180D02*
X147386591Y-110324800D01*
X147386591Y-110324800D02*
X147481829Y-110372419D01*
X147481829Y-110372419D02*
X147624686Y-110372419D01*
X146862781Y-110372419D02*
X146862781Y-109705752D01*
X146862781Y-109896228D02*
X146815162Y-109800990D01*
X146815162Y-109800990D02*
X146767543Y-109753371D01*
X146767543Y-109753371D02*
X146672305Y-109705752D01*
X146672305Y-109705752D02*
X146577067Y-109705752D01*
X141862782Y-129848609D02*
X141719925Y-129896228D01*
X141719925Y-129896228D02*
X141672306Y-129943847D01*
X141672306Y-129943847D02*
X141624687Y-130039085D01*
X141624687Y-130039085D02*
X141624687Y-130181942D01*
X141624687Y-130181942D02*
X141672306Y-130277180D01*
X141672306Y-130277180D02*
X141719925Y-130324800D01*
X141719925Y-130324800D02*
X141815163Y-130372419D01*
X141815163Y-130372419D02*
X142196115Y-130372419D01*
X142196115Y-130372419D02*
X142196115Y-129372419D01*
X142196115Y-129372419D02*
X141862782Y-129372419D01*
X141862782Y-129372419D02*
X141767544Y-129420038D01*
X141767544Y-129420038D02*
X141719925Y-129467657D01*
X141719925Y-129467657D02*
X141672306Y-129562895D01*
X141672306Y-129562895D02*
X141672306Y-129658133D01*
X141672306Y-129658133D02*
X141719925Y-129753371D01*
X141719925Y-129753371D02*
X141767544Y-129800990D01*
X141767544Y-129800990D02*
X141862782Y-129848609D01*
X141862782Y-129848609D02*
X142196115Y-129848609D01*
X142243734Y-125086704D02*
X141767544Y-125086704D01*
X142338972Y-125372419D02*
X142005639Y-124372419D01*
X142005639Y-124372419D02*
X141672306Y-125372419D01*
D12*
X150833333Y-114954819D02*
X150833333Y-115669104D01*
X150833333Y-115669104D02*
X150880952Y-115811961D01*
X150880952Y-115811961D02*
X150976190Y-115907200D01*
X150976190Y-115907200D02*
X151119047Y-115954819D01*
X151119047Y-115954819D02*
X151214285Y-115954819D01*
X150404761Y-115050057D02*
X150357142Y-115002438D01*
X150357142Y-115002438D02*
X150261904Y-114954819D01*
X150261904Y-114954819D02*
X150023809Y-114954819D01*
X150023809Y-114954819D02*
X149928571Y-115002438D01*
X149928571Y-115002438D02*
X149880952Y-115050057D01*
X149880952Y-115050057D02*
X149833333Y-115145295D01*
X149833333Y-115145295D02*
X149833333Y-115240533D01*
X149833333Y-115240533D02*
X149880952Y-115383390D01*
X149880952Y-115383390D02*
X150452380Y-115954819D01*
X150452380Y-115954819D02*
X149833333Y-115954819D01*
X139833332Y-117907200D02*
X139690475Y-117954819D01*
X139690475Y-117954819D02*
X139452380Y-117954819D01*
X139452380Y-117954819D02*
X139357142Y-117907200D01*
X139357142Y-117907200D02*
X139309523Y-117859580D01*
X139309523Y-117859580D02*
X139261904Y-117764342D01*
X139261904Y-117764342D02*
X139261904Y-117669104D01*
X139261904Y-117669104D02*
X139309523Y-117573866D01*
X139309523Y-117573866D02*
X139357142Y-117526247D01*
X139357142Y-117526247D02*
X139452380Y-117478628D01*
X139452380Y-117478628D02*
X139642856Y-117431009D01*
X139642856Y-117431009D02*
X139738094Y-117383390D01*
X139738094Y-117383390D02*
X139785713Y-117335771D01*
X139785713Y-117335771D02*
X139833332Y-117240533D01*
X139833332Y-117240533D02*
X139833332Y-117145295D01*
X139833332Y-117145295D02*
X139785713Y-117050057D01*
X139785713Y-117050057D02*
X139738094Y-117002438D01*
X139738094Y-117002438D02*
X139642856Y-116954819D01*
X139642856Y-116954819D02*
X139404761Y-116954819D01*
X139404761Y-116954819D02*
X139261904Y-117002438D01*
X138928570Y-116954819D02*
X138690475Y-117954819D01*
X138690475Y-117954819D02*
X138499999Y-117240533D01*
X138499999Y-117240533D02*
X138309523Y-117954819D01*
X138309523Y-117954819D02*
X138071428Y-116954819D01*
X137166666Y-117954819D02*
X137738094Y-117954819D01*
X137452380Y-117954819D02*
X137452380Y-116954819D01*
X137452380Y-116954819D02*
X137547618Y-117097676D01*
X137547618Y-117097676D02*
X137642856Y-117192914D01*
X137642856Y-117192914D02*
X137738094Y-117240533D01*
X138563333Y-134954819D02*
X138563333Y-135669104D01*
X138563333Y-135669104D02*
X138610952Y-135811961D01*
X138610952Y-135811961D02*
X138706190Y-135907200D01*
X138706190Y-135907200D02*
X138849047Y-135954819D01*
X138849047Y-135954819D02*
X138944285Y-135954819D01*
X137563333Y-135954819D02*
X138134761Y-135954819D01*
X137849047Y-135954819D02*
X137849047Y-134954819D01*
X137849047Y-134954819D02*
X137944285Y-135097676D01*
X137944285Y-135097676D02*
X138039523Y-135192914D01*
X138039523Y-135192914D02*
X138134761Y-135240533D01*
D13*
%TO.C,J2*%
X147855000Y-113880000D02*
X147855000Y-111120000D01*
X150505000Y-111120000D02*
X147855000Y-111120000D01*
X150505000Y-113880000D02*
X147855000Y-113880000D01*
X150505000Y-113880000D02*
X150505000Y-111120000D01*
X151775000Y-113880000D02*
X153155000Y-113880000D01*
X153155000Y-113880000D02*
X153155000Y-112500000D01*
%TO.C,SW1*%
X134830000Y-108730000D02*
X134830000Y-109260000D01*
X134830000Y-110660000D02*
X134830000Y-111800000D01*
X134830000Y-113200000D02*
X134830000Y-114340000D01*
X134830000Y-116270000D02*
X134830000Y-115740000D01*
X142170000Y-108730000D02*
X134830000Y-108730000D01*
X142170000Y-109260000D02*
X142170000Y-108730000D01*
X142170000Y-110660000D02*
X142170000Y-111800000D01*
X142170000Y-113200000D02*
X142170000Y-114340000D01*
X142170000Y-115740000D02*
X142170000Y-116270000D01*
X142170000Y-116270000D02*
X134830000Y-116270000D01*
X144370000Y-108480000D02*
X143000000Y-108480000D01*
X144370000Y-109850000D02*
X144370000Y-108480000D01*
%TO.C,J1*%
X135580000Y-121040000D02*
X135580000Y-133960000D01*
X138230000Y-121040000D02*
X135580000Y-121040000D01*
X138230000Y-123690000D02*
X138230000Y-121040000D01*
X140880000Y-121040000D02*
X139500000Y-121040000D01*
X140880000Y-122420000D02*
X140880000Y-121040000D01*
X140880000Y-123690000D02*
X138230000Y-123690000D01*
X140880000Y-123690000D02*
X140880000Y-133960000D01*
X140880000Y-133960000D02*
X135580000Y-133960000D01*
%TD*%
M02*
