%TF.GenerationSoftware,KiCad,Pcbnew,9.0.6+1*%
%TF.CreationDate,2026-02-07T00:07:08+00:00*%
%TF.ProjectId,LED7SEG02,4c454437-5345-4473-9032-2e6b69636164,rev?*%
%TF.SameCoordinates,Original*%
%TF.FileFunction,Legend,Top*%
%TF.FilePolarity,Positive*%
%FSLAX46Y46*%
G04 Gerber Fmt 4.6, Leading zero omitted, Abs format (unit mm)*
G04 Created by KiCad (PCBNEW 9.0.6+1) date 2026-02-07 00:07:08*
%MOMM*%
%LPD*%
G01*
G04 APERTURE LIST*
%ADD10C,0.150000*%
%ADD11C,0.120000*%
G04 APERTURE END LIST*
D10*
X105285714Y-130954819D02*
X105285714Y-129954819D01*
X105285714Y-129954819D02*
X105523809Y-129954819D01*
X105523809Y-129954819D02*
X105666666Y-130002438D01*
X105666666Y-130002438D02*
X105761904Y-130097676D01*
X105761904Y-130097676D02*
X105809523Y-130192914D01*
X105809523Y-130192914D02*
X105857142Y-130383390D01*
X105857142Y-130383390D02*
X105857142Y-130526247D01*
X105857142Y-130526247D02*
X105809523Y-130716723D01*
X105809523Y-130716723D02*
X105761904Y-130811961D01*
X105761904Y-130811961D02*
X105666666Y-130907200D01*
X105666666Y-130907200D02*
X105523809Y-130954819D01*
X105523809Y-130954819D02*
X105285714Y-130954819D01*
X106809523Y-130954819D02*
X106238095Y-130954819D01*
X106523809Y-130954819D02*
X106523809Y-129954819D01*
X106523809Y-129954819D02*
X106428571Y-130097676D01*
X106428571Y-130097676D02*
X106333333Y-130192914D01*
X106333333Y-130192914D02*
X106238095Y-130240533D01*
X107380952Y-130383390D02*
X107285714Y-130335771D01*
X107285714Y-130335771D02*
X107238095Y-130288152D01*
X107238095Y-130288152D02*
X107190476Y-130192914D01*
X107190476Y-130192914D02*
X107190476Y-130145295D01*
X107190476Y-130145295D02*
X107238095Y-130050057D01*
X107238095Y-130050057D02*
X107285714Y-130002438D01*
X107285714Y-130002438D02*
X107380952Y-129954819D01*
X107380952Y-129954819D02*
X107571428Y-129954819D01*
X107571428Y-129954819D02*
X107666666Y-130002438D01*
X107666666Y-130002438D02*
X107714285Y-130050057D01*
X107714285Y-130050057D02*
X107761904Y-130145295D01*
X107761904Y-130145295D02*
X107761904Y-130192914D01*
X107761904Y-130192914D02*
X107714285Y-130288152D01*
X107714285Y-130288152D02*
X107666666Y-130335771D01*
X107666666Y-130335771D02*
X107571428Y-130383390D01*
X107571428Y-130383390D02*
X107380952Y-130383390D01*
X107380952Y-130383390D02*
X107285714Y-130431009D01*
X107285714Y-130431009D02*
X107238095Y-130478628D01*
X107238095Y-130478628D02*
X107190476Y-130573866D01*
X107190476Y-130573866D02*
X107190476Y-130764342D01*
X107190476Y-130764342D02*
X107238095Y-130859580D01*
X107238095Y-130859580D02*
X107285714Y-130907200D01*
X107285714Y-130907200D02*
X107380952Y-130954819D01*
X107380952Y-130954819D02*
X107571428Y-130954819D01*
X107571428Y-130954819D02*
X107666666Y-130907200D01*
X107666666Y-130907200D02*
X107714285Y-130859580D01*
X107714285Y-130859580D02*
X107761904Y-130764342D01*
X107761904Y-130764342D02*
X107761904Y-130573866D01*
X107761904Y-130573866D02*
X107714285Y-130478628D01*
X107714285Y-130478628D02*
X107666666Y-130431009D01*
X107666666Y-130431009D02*
X107571428Y-130383390D01*
X140859580Y-42029166D02*
X140907200Y-42076785D01*
X140907200Y-42076785D02*
X140954819Y-42219642D01*
X140954819Y-42219642D02*
X140954819Y-42314880D01*
X140954819Y-42314880D02*
X140907200Y-42457737D01*
X140907200Y-42457737D02*
X140811961Y-42552975D01*
X140811961Y-42552975D02*
X140716723Y-42600594D01*
X140716723Y-42600594D02*
X140526247Y-42648213D01*
X140526247Y-42648213D02*
X140383390Y-42648213D01*
X140383390Y-42648213D02*
X140192914Y-42600594D01*
X140192914Y-42600594D02*
X140097676Y-42552975D01*
X140097676Y-42552975D02*
X140002438Y-42457737D01*
X140002438Y-42457737D02*
X139954819Y-42314880D01*
X139954819Y-42314880D02*
X139954819Y-42219642D01*
X139954819Y-42219642D02*
X140002438Y-42076785D01*
X140002438Y-42076785D02*
X140050057Y-42029166D01*
X139954819Y-41695832D02*
X139954819Y-41076785D01*
X139954819Y-41076785D02*
X140335771Y-41410118D01*
X140335771Y-41410118D02*
X140335771Y-41267261D01*
X140335771Y-41267261D02*
X140383390Y-41172023D01*
X140383390Y-41172023D02*
X140431009Y-41124404D01*
X140431009Y-41124404D02*
X140526247Y-41076785D01*
X140526247Y-41076785D02*
X140764342Y-41076785D01*
X140764342Y-41076785D02*
X140859580Y-41124404D01*
X140859580Y-41124404D02*
X140907200Y-41172023D01*
X140907200Y-41172023D02*
X140954819Y-41267261D01*
X140954819Y-41267261D02*
X140954819Y-41552975D01*
X140954819Y-41552975D02*
X140907200Y-41648213D01*
X140907200Y-41648213D02*
X140859580Y-41695832D01*
X129238095Y-75554819D02*
X129238095Y-76364342D01*
X129238095Y-76364342D02*
X129285714Y-76459580D01*
X129285714Y-76459580D02*
X129333333Y-76507200D01*
X129333333Y-76507200D02*
X129428571Y-76554819D01*
X129428571Y-76554819D02*
X129619047Y-76554819D01*
X129619047Y-76554819D02*
X129714285Y-76507200D01*
X129714285Y-76507200D02*
X129761904Y-76459580D01*
X129761904Y-76459580D02*
X129809523Y-76364342D01*
X129809523Y-76364342D02*
X129809523Y-75554819D01*
X130428571Y-75983390D02*
X130333333Y-75935771D01*
X130333333Y-75935771D02*
X130285714Y-75888152D01*
X130285714Y-75888152D02*
X130238095Y-75792914D01*
X130238095Y-75792914D02*
X130238095Y-75745295D01*
X130238095Y-75745295D02*
X130285714Y-75650057D01*
X130285714Y-75650057D02*
X130333333Y-75602438D01*
X130333333Y-75602438D02*
X130428571Y-75554819D01*
X130428571Y-75554819D02*
X130619047Y-75554819D01*
X130619047Y-75554819D02*
X130714285Y-75602438D01*
X130714285Y-75602438D02*
X130761904Y-75650057D01*
X130761904Y-75650057D02*
X130809523Y-75745295D01*
X130809523Y-75745295D02*
X130809523Y-75792914D01*
X130809523Y-75792914D02*
X130761904Y-75888152D01*
X130761904Y-75888152D02*
X130714285Y-75935771D01*
X130714285Y-75935771D02*
X130619047Y-75983390D01*
X130619047Y-75983390D02*
X130428571Y-75983390D01*
X130428571Y-75983390D02*
X130333333Y-76031009D01*
X130333333Y-76031009D02*
X130285714Y-76078628D01*
X130285714Y-76078628D02*
X130238095Y-76173866D01*
X130238095Y-76173866D02*
X130238095Y-76364342D01*
X130238095Y-76364342D02*
X130285714Y-76459580D01*
X130285714Y-76459580D02*
X130333333Y-76507200D01*
X130333333Y-76507200D02*
X130428571Y-76554819D01*
X130428571Y-76554819D02*
X130619047Y-76554819D01*
X130619047Y-76554819D02*
X130714285Y-76507200D01*
X130714285Y-76507200D02*
X130761904Y-76459580D01*
X130761904Y-76459580D02*
X130809523Y-76364342D01*
X130809523Y-76364342D02*
X130809523Y-76173866D01*
X130809523Y-76173866D02*
X130761904Y-76078628D01*
X130761904Y-76078628D02*
X130714285Y-76031009D01*
X130714285Y-76031009D02*
X130619047Y-75983390D01*
X133954819Y-126214285D02*
X132954819Y-126214285D01*
X132954819Y-126214285D02*
X132954819Y-125976190D01*
X132954819Y-125976190D02*
X133002438Y-125833333D01*
X133002438Y-125833333D02*
X133097676Y-125738095D01*
X133097676Y-125738095D02*
X133192914Y-125690476D01*
X133192914Y-125690476D02*
X133383390Y-125642857D01*
X133383390Y-125642857D02*
X133526247Y-125642857D01*
X133526247Y-125642857D02*
X133716723Y-125690476D01*
X133716723Y-125690476D02*
X133811961Y-125738095D01*
X133811961Y-125738095D02*
X133907200Y-125833333D01*
X133907200Y-125833333D02*
X133954819Y-125976190D01*
X133954819Y-125976190D02*
X133954819Y-126214285D01*
X132954819Y-125309523D02*
X132954819Y-124690476D01*
X132954819Y-124690476D02*
X133335771Y-125023809D01*
X133335771Y-125023809D02*
X133335771Y-124880952D01*
X133335771Y-124880952D02*
X133383390Y-124785714D01*
X133383390Y-124785714D02*
X133431009Y-124738095D01*
X133431009Y-124738095D02*
X133526247Y-124690476D01*
X133526247Y-124690476D02*
X133764342Y-124690476D01*
X133764342Y-124690476D02*
X133859580Y-124738095D01*
X133859580Y-124738095D02*
X133907200Y-124785714D01*
X133907200Y-124785714D02*
X133954819Y-124880952D01*
X133954819Y-124880952D02*
X133954819Y-125166666D01*
X133954819Y-125166666D02*
X133907200Y-125261904D01*
X133907200Y-125261904D02*
X133859580Y-125309523D01*
X133954819Y-123738095D02*
X133954819Y-124309523D01*
X133954819Y-124023809D02*
X132954819Y-124023809D01*
X132954819Y-124023809D02*
X133097676Y-124119047D01*
X133097676Y-124119047D02*
X133192914Y-124214285D01*
X133192914Y-124214285D02*
X133240533Y-124309523D01*
X148859580Y-143780357D02*
X148907200Y-143827976D01*
X148907200Y-143827976D02*
X148954819Y-143970833D01*
X148954819Y-143970833D02*
X148954819Y-144066071D01*
X148954819Y-144066071D02*
X148907200Y-144208928D01*
X148907200Y-144208928D02*
X148811961Y-144304166D01*
X148811961Y-144304166D02*
X148716723Y-144351785D01*
X148716723Y-144351785D02*
X148526247Y-144399404D01*
X148526247Y-144399404D02*
X148383390Y-144399404D01*
X148383390Y-144399404D02*
X148192914Y-144351785D01*
X148192914Y-144351785D02*
X148097676Y-144304166D01*
X148097676Y-144304166D02*
X148002438Y-144208928D01*
X148002438Y-144208928D02*
X147954819Y-144066071D01*
X147954819Y-144066071D02*
X147954819Y-143970833D01*
X147954819Y-143970833D02*
X148002438Y-143827976D01*
X148002438Y-143827976D02*
X148050057Y-143780357D01*
X148050057Y-143399404D02*
X148002438Y-143351785D01*
X148002438Y-143351785D02*
X147954819Y-143256547D01*
X147954819Y-143256547D02*
X147954819Y-143018452D01*
X147954819Y-143018452D02*
X148002438Y-142923214D01*
X148002438Y-142923214D02*
X148050057Y-142875595D01*
X148050057Y-142875595D02*
X148145295Y-142827976D01*
X148145295Y-142827976D02*
X148240533Y-142827976D01*
X148240533Y-142827976D02*
X148383390Y-142875595D01*
X148383390Y-142875595D02*
X148954819Y-143447023D01*
X148954819Y-143447023D02*
X148954819Y-142827976D01*
X148954819Y-141875595D02*
X148954819Y-142447023D01*
X148954819Y-142161309D02*
X147954819Y-142161309D01*
X147954819Y-142161309D02*
X148097676Y-142256547D01*
X148097676Y-142256547D02*
X148192914Y-142351785D01*
X148192914Y-142351785D02*
X148240533Y-142447023D01*
X112285714Y-81454819D02*
X112285714Y-80454819D01*
X112285714Y-80454819D02*
X112523809Y-80454819D01*
X112523809Y-80454819D02*
X112666666Y-80502438D01*
X112666666Y-80502438D02*
X112761904Y-80597676D01*
X112761904Y-80597676D02*
X112809523Y-80692914D01*
X112809523Y-80692914D02*
X112857142Y-80883390D01*
X112857142Y-80883390D02*
X112857142Y-81026247D01*
X112857142Y-81026247D02*
X112809523Y-81216723D01*
X112809523Y-81216723D02*
X112761904Y-81311961D01*
X112761904Y-81311961D02*
X112666666Y-81407200D01*
X112666666Y-81407200D02*
X112523809Y-81454819D01*
X112523809Y-81454819D02*
X112285714Y-81454819D01*
X113238095Y-80550057D02*
X113285714Y-80502438D01*
X113285714Y-80502438D02*
X113380952Y-80454819D01*
X113380952Y-80454819D02*
X113619047Y-80454819D01*
X113619047Y-80454819D02*
X113714285Y-80502438D01*
X113714285Y-80502438D02*
X113761904Y-80550057D01*
X113761904Y-80550057D02*
X113809523Y-80645295D01*
X113809523Y-80645295D02*
X113809523Y-80740533D01*
X113809523Y-80740533D02*
X113761904Y-80883390D01*
X113761904Y-80883390D02*
X113190476Y-81454819D01*
X113190476Y-81454819D02*
X113809523Y-81454819D01*
X114380952Y-80883390D02*
X114285714Y-80835771D01*
X114285714Y-80835771D02*
X114238095Y-80788152D01*
X114238095Y-80788152D02*
X114190476Y-80692914D01*
X114190476Y-80692914D02*
X114190476Y-80645295D01*
X114190476Y-80645295D02*
X114238095Y-80550057D01*
X114238095Y-80550057D02*
X114285714Y-80502438D01*
X114285714Y-80502438D02*
X114380952Y-80454819D01*
X114380952Y-80454819D02*
X114571428Y-80454819D01*
X114571428Y-80454819D02*
X114666666Y-80502438D01*
X114666666Y-80502438D02*
X114714285Y-80550057D01*
X114714285Y-80550057D02*
X114761904Y-80645295D01*
X114761904Y-80645295D02*
X114761904Y-80692914D01*
X114761904Y-80692914D02*
X114714285Y-80788152D01*
X114714285Y-80788152D02*
X114666666Y-80835771D01*
X114666666Y-80835771D02*
X114571428Y-80883390D01*
X114571428Y-80883390D02*
X114380952Y-80883390D01*
X114380952Y-80883390D02*
X114285714Y-80931009D01*
X114285714Y-80931009D02*
X114238095Y-80978628D01*
X114238095Y-80978628D02*
X114190476Y-81073866D01*
X114190476Y-81073866D02*
X114190476Y-81264342D01*
X114190476Y-81264342D02*
X114238095Y-81359580D01*
X114238095Y-81359580D02*
X114285714Y-81407200D01*
X114285714Y-81407200D02*
X114380952Y-81454819D01*
X114380952Y-81454819D02*
X114571428Y-81454819D01*
X114571428Y-81454819D02*
X114666666Y-81407200D01*
X114666666Y-81407200D02*
X114714285Y-81359580D01*
X114714285Y-81359580D02*
X114761904Y-81264342D01*
X114761904Y-81264342D02*
X114761904Y-81073866D01*
X114761904Y-81073866D02*
X114714285Y-80978628D01*
X114714285Y-80978628D02*
X114666666Y-80931009D01*
X114666666Y-80931009D02*
X114571428Y-80883390D01*
X114954819Y-34738094D02*
X113954819Y-34738094D01*
X113954819Y-34738094D02*
X113954819Y-34499999D01*
X113954819Y-34499999D02*
X114002438Y-34357142D01*
X114002438Y-34357142D02*
X114097676Y-34261904D01*
X114097676Y-34261904D02*
X114192914Y-34214285D01*
X114192914Y-34214285D02*
X114383390Y-34166666D01*
X114383390Y-34166666D02*
X114526247Y-34166666D01*
X114526247Y-34166666D02*
X114716723Y-34214285D01*
X114716723Y-34214285D02*
X114811961Y-34261904D01*
X114811961Y-34261904D02*
X114907200Y-34357142D01*
X114907200Y-34357142D02*
X114954819Y-34499999D01*
X114954819Y-34499999D02*
X114954819Y-34738094D01*
X114954819Y-33214285D02*
X114954819Y-33785713D01*
X114954819Y-33499999D02*
X113954819Y-33499999D01*
X113954819Y-33499999D02*
X114097676Y-33595237D01*
X114097676Y-33595237D02*
X114192914Y-33690475D01*
X114192914Y-33690475D02*
X114240533Y-33785713D01*
X159857142Y-136359580D02*
X159809523Y-136407200D01*
X159809523Y-136407200D02*
X159666666Y-136454819D01*
X159666666Y-136454819D02*
X159571428Y-136454819D01*
X159571428Y-136454819D02*
X159428571Y-136407200D01*
X159428571Y-136407200D02*
X159333333Y-136311961D01*
X159333333Y-136311961D02*
X159285714Y-136216723D01*
X159285714Y-136216723D02*
X159238095Y-136026247D01*
X159238095Y-136026247D02*
X159238095Y-135883390D01*
X159238095Y-135883390D02*
X159285714Y-135692914D01*
X159285714Y-135692914D02*
X159333333Y-135597676D01*
X159333333Y-135597676D02*
X159428571Y-135502438D01*
X159428571Y-135502438D02*
X159571428Y-135454819D01*
X159571428Y-135454819D02*
X159666666Y-135454819D01*
X159666666Y-135454819D02*
X159809523Y-135502438D01*
X159809523Y-135502438D02*
X159857142Y-135550057D01*
X160809523Y-136454819D02*
X160238095Y-136454819D01*
X160523809Y-136454819D02*
X160523809Y-135454819D01*
X160523809Y-135454819D02*
X160428571Y-135597676D01*
X160428571Y-135597676D02*
X160333333Y-135692914D01*
X160333333Y-135692914D02*
X160238095Y-135740533D01*
X161285714Y-136454819D02*
X161476190Y-136454819D01*
X161476190Y-136454819D02*
X161571428Y-136407200D01*
X161571428Y-136407200D02*
X161619047Y-136359580D01*
X161619047Y-136359580D02*
X161714285Y-136216723D01*
X161714285Y-136216723D02*
X161761904Y-136026247D01*
X161761904Y-136026247D02*
X161761904Y-135645295D01*
X161761904Y-135645295D02*
X161714285Y-135550057D01*
X161714285Y-135550057D02*
X161666666Y-135502438D01*
X161666666Y-135502438D02*
X161571428Y-135454819D01*
X161571428Y-135454819D02*
X161380952Y-135454819D01*
X161380952Y-135454819D02*
X161285714Y-135502438D01*
X161285714Y-135502438D02*
X161238095Y-135550057D01*
X161238095Y-135550057D02*
X161190476Y-135645295D01*
X161190476Y-135645295D02*
X161190476Y-135883390D01*
X161190476Y-135883390D02*
X161238095Y-135978628D01*
X161238095Y-135978628D02*
X161285714Y-136026247D01*
X161285714Y-136026247D02*
X161380952Y-136073866D01*
X161380952Y-136073866D02*
X161571428Y-136073866D01*
X161571428Y-136073866D02*
X161666666Y-136026247D01*
X161666666Y-136026247D02*
X161714285Y-135978628D01*
X161714285Y-135978628D02*
X161761904Y-135883390D01*
X103857142Y-80859580D02*
X103809523Y-80907200D01*
X103809523Y-80907200D02*
X103666666Y-80954819D01*
X103666666Y-80954819D02*
X103571428Y-80954819D01*
X103571428Y-80954819D02*
X103428571Y-80907200D01*
X103428571Y-80907200D02*
X103333333Y-80811961D01*
X103333333Y-80811961D02*
X103285714Y-80716723D01*
X103285714Y-80716723D02*
X103238095Y-80526247D01*
X103238095Y-80526247D02*
X103238095Y-80383390D01*
X103238095Y-80383390D02*
X103285714Y-80192914D01*
X103285714Y-80192914D02*
X103333333Y-80097676D01*
X103333333Y-80097676D02*
X103428571Y-80002438D01*
X103428571Y-80002438D02*
X103571428Y-79954819D01*
X103571428Y-79954819D02*
X103666666Y-79954819D01*
X103666666Y-79954819D02*
X103809523Y-80002438D01*
X103809523Y-80002438D02*
X103857142Y-80050057D01*
X104190476Y-79954819D02*
X104809523Y-79954819D01*
X104809523Y-79954819D02*
X104476190Y-80335771D01*
X104476190Y-80335771D02*
X104619047Y-80335771D01*
X104619047Y-80335771D02*
X104714285Y-80383390D01*
X104714285Y-80383390D02*
X104761904Y-80431009D01*
X104761904Y-80431009D02*
X104809523Y-80526247D01*
X104809523Y-80526247D02*
X104809523Y-80764342D01*
X104809523Y-80764342D02*
X104761904Y-80859580D01*
X104761904Y-80859580D02*
X104714285Y-80907200D01*
X104714285Y-80907200D02*
X104619047Y-80954819D01*
X104619047Y-80954819D02*
X104333333Y-80954819D01*
X104333333Y-80954819D02*
X104238095Y-80907200D01*
X104238095Y-80907200D02*
X104190476Y-80859580D01*
X105714285Y-79954819D02*
X105238095Y-79954819D01*
X105238095Y-79954819D02*
X105190476Y-80431009D01*
X105190476Y-80431009D02*
X105238095Y-80383390D01*
X105238095Y-80383390D02*
X105333333Y-80335771D01*
X105333333Y-80335771D02*
X105571428Y-80335771D01*
X105571428Y-80335771D02*
X105666666Y-80383390D01*
X105666666Y-80383390D02*
X105714285Y-80431009D01*
X105714285Y-80431009D02*
X105761904Y-80526247D01*
X105761904Y-80526247D02*
X105761904Y-80764342D01*
X105761904Y-80764342D02*
X105714285Y-80859580D01*
X105714285Y-80859580D02*
X105666666Y-80907200D01*
X105666666Y-80907200D02*
X105571428Y-80954819D01*
X105571428Y-80954819D02*
X105333333Y-80954819D01*
X105333333Y-80954819D02*
X105238095Y-80907200D01*
X105238095Y-80907200D02*
X105190476Y-80859580D01*
X112285714Y-54954819D02*
X112285714Y-53954819D01*
X112285714Y-53954819D02*
X112523809Y-53954819D01*
X112523809Y-53954819D02*
X112666666Y-54002438D01*
X112666666Y-54002438D02*
X112761904Y-54097676D01*
X112761904Y-54097676D02*
X112809523Y-54192914D01*
X112809523Y-54192914D02*
X112857142Y-54383390D01*
X112857142Y-54383390D02*
X112857142Y-54526247D01*
X112857142Y-54526247D02*
X112809523Y-54716723D01*
X112809523Y-54716723D02*
X112761904Y-54811961D01*
X112761904Y-54811961D02*
X112666666Y-54907200D01*
X112666666Y-54907200D02*
X112523809Y-54954819D01*
X112523809Y-54954819D02*
X112285714Y-54954819D01*
X113238095Y-54050057D02*
X113285714Y-54002438D01*
X113285714Y-54002438D02*
X113380952Y-53954819D01*
X113380952Y-53954819D02*
X113619047Y-53954819D01*
X113619047Y-53954819D02*
X113714285Y-54002438D01*
X113714285Y-54002438D02*
X113761904Y-54050057D01*
X113761904Y-54050057D02*
X113809523Y-54145295D01*
X113809523Y-54145295D02*
X113809523Y-54240533D01*
X113809523Y-54240533D02*
X113761904Y-54383390D01*
X113761904Y-54383390D02*
X113190476Y-54954819D01*
X113190476Y-54954819D02*
X113809523Y-54954819D01*
X114666666Y-53954819D02*
X114476190Y-53954819D01*
X114476190Y-53954819D02*
X114380952Y-54002438D01*
X114380952Y-54002438D02*
X114333333Y-54050057D01*
X114333333Y-54050057D02*
X114238095Y-54192914D01*
X114238095Y-54192914D02*
X114190476Y-54383390D01*
X114190476Y-54383390D02*
X114190476Y-54764342D01*
X114190476Y-54764342D02*
X114238095Y-54859580D01*
X114238095Y-54859580D02*
X114285714Y-54907200D01*
X114285714Y-54907200D02*
X114380952Y-54954819D01*
X114380952Y-54954819D02*
X114571428Y-54954819D01*
X114571428Y-54954819D02*
X114666666Y-54907200D01*
X114666666Y-54907200D02*
X114714285Y-54859580D01*
X114714285Y-54859580D02*
X114761904Y-54764342D01*
X114761904Y-54764342D02*
X114761904Y-54526247D01*
X114761904Y-54526247D02*
X114714285Y-54431009D01*
X114714285Y-54431009D02*
X114666666Y-54383390D01*
X114666666Y-54383390D02*
X114571428Y-54335771D01*
X114571428Y-54335771D02*
X114380952Y-54335771D01*
X114380952Y-54335771D02*
X114285714Y-54383390D01*
X114285714Y-54383390D02*
X114238095Y-54431009D01*
X114238095Y-54431009D02*
X114190476Y-54526247D01*
X168261905Y-41954819D02*
X168261905Y-40954819D01*
X168261905Y-40954819D02*
X168500000Y-40954819D01*
X168500000Y-40954819D02*
X168642857Y-41002438D01*
X168642857Y-41002438D02*
X168738095Y-41097676D01*
X168738095Y-41097676D02*
X168785714Y-41192914D01*
X168785714Y-41192914D02*
X168833333Y-41383390D01*
X168833333Y-41383390D02*
X168833333Y-41526247D01*
X168833333Y-41526247D02*
X168785714Y-41716723D01*
X168785714Y-41716723D02*
X168738095Y-41811961D01*
X168738095Y-41811961D02*
X168642857Y-41907200D01*
X168642857Y-41907200D02*
X168500000Y-41954819D01*
X168500000Y-41954819D02*
X168261905Y-41954819D01*
X169738095Y-40954819D02*
X169261905Y-40954819D01*
X169261905Y-40954819D02*
X169214286Y-41431009D01*
X169214286Y-41431009D02*
X169261905Y-41383390D01*
X169261905Y-41383390D02*
X169357143Y-41335771D01*
X169357143Y-41335771D02*
X169595238Y-41335771D01*
X169595238Y-41335771D02*
X169690476Y-41383390D01*
X169690476Y-41383390D02*
X169738095Y-41431009D01*
X169738095Y-41431009D02*
X169785714Y-41526247D01*
X169785714Y-41526247D02*
X169785714Y-41764342D01*
X169785714Y-41764342D02*
X169738095Y-41859580D01*
X169738095Y-41859580D02*
X169690476Y-41907200D01*
X169690476Y-41907200D02*
X169595238Y-41954819D01*
X169595238Y-41954819D02*
X169357143Y-41954819D01*
X169357143Y-41954819D02*
X169261905Y-41907200D01*
X169261905Y-41907200D02*
X169214286Y-41859580D01*
X103994642Y-67859580D02*
X103947023Y-67907200D01*
X103947023Y-67907200D02*
X103804166Y-67954819D01*
X103804166Y-67954819D02*
X103708928Y-67954819D01*
X103708928Y-67954819D02*
X103566071Y-67907200D01*
X103566071Y-67907200D02*
X103470833Y-67811961D01*
X103470833Y-67811961D02*
X103423214Y-67716723D01*
X103423214Y-67716723D02*
X103375595Y-67526247D01*
X103375595Y-67526247D02*
X103375595Y-67383390D01*
X103375595Y-67383390D02*
X103423214Y-67192914D01*
X103423214Y-67192914D02*
X103470833Y-67097676D01*
X103470833Y-67097676D02*
X103566071Y-67002438D01*
X103566071Y-67002438D02*
X103708928Y-66954819D01*
X103708928Y-66954819D02*
X103804166Y-66954819D01*
X103804166Y-66954819D02*
X103947023Y-67002438D01*
X103947023Y-67002438D02*
X103994642Y-67050057D01*
X104327976Y-66954819D02*
X104947023Y-66954819D01*
X104947023Y-66954819D02*
X104613690Y-67335771D01*
X104613690Y-67335771D02*
X104756547Y-67335771D01*
X104756547Y-67335771D02*
X104851785Y-67383390D01*
X104851785Y-67383390D02*
X104899404Y-67431009D01*
X104899404Y-67431009D02*
X104947023Y-67526247D01*
X104947023Y-67526247D02*
X104947023Y-67764342D01*
X104947023Y-67764342D02*
X104899404Y-67859580D01*
X104899404Y-67859580D02*
X104851785Y-67907200D01*
X104851785Y-67907200D02*
X104756547Y-67954819D01*
X104756547Y-67954819D02*
X104470833Y-67954819D01*
X104470833Y-67954819D02*
X104375595Y-67907200D01*
X104375595Y-67907200D02*
X104327976Y-67859580D01*
X105804166Y-67288152D02*
X105804166Y-67954819D01*
X105566071Y-66907200D02*
X105327976Y-67621485D01*
X105327976Y-67621485D02*
X105947023Y-67621485D01*
X135359580Y-68142857D02*
X135407200Y-68190476D01*
X135407200Y-68190476D02*
X135454819Y-68333333D01*
X135454819Y-68333333D02*
X135454819Y-68428571D01*
X135454819Y-68428571D02*
X135407200Y-68571428D01*
X135407200Y-68571428D02*
X135311961Y-68666666D01*
X135311961Y-68666666D02*
X135216723Y-68714285D01*
X135216723Y-68714285D02*
X135026247Y-68761904D01*
X135026247Y-68761904D02*
X134883390Y-68761904D01*
X134883390Y-68761904D02*
X134692914Y-68714285D01*
X134692914Y-68714285D02*
X134597676Y-68666666D01*
X134597676Y-68666666D02*
X134502438Y-68571428D01*
X134502438Y-68571428D02*
X134454819Y-68428571D01*
X134454819Y-68428571D02*
X134454819Y-68333333D01*
X134454819Y-68333333D02*
X134502438Y-68190476D01*
X134502438Y-68190476D02*
X134550057Y-68142857D01*
X135454819Y-67190476D02*
X135454819Y-67761904D01*
X135454819Y-67476190D02*
X134454819Y-67476190D01*
X134454819Y-67476190D02*
X134597676Y-67571428D01*
X134597676Y-67571428D02*
X134692914Y-67666666D01*
X134692914Y-67666666D02*
X134740533Y-67761904D01*
X134454819Y-66857142D02*
X134454819Y-66238095D01*
X134454819Y-66238095D02*
X134835771Y-66571428D01*
X134835771Y-66571428D02*
X134835771Y-66428571D01*
X134835771Y-66428571D02*
X134883390Y-66333333D01*
X134883390Y-66333333D02*
X134931009Y-66285714D01*
X134931009Y-66285714D02*
X135026247Y-66238095D01*
X135026247Y-66238095D02*
X135264342Y-66238095D01*
X135264342Y-66238095D02*
X135359580Y-66285714D01*
X135359580Y-66285714D02*
X135407200Y-66333333D01*
X135407200Y-66333333D02*
X135454819Y-66428571D01*
X135454819Y-66428571D02*
X135454819Y-66714285D01*
X135454819Y-66714285D02*
X135407200Y-66809523D01*
X135407200Y-66809523D02*
X135359580Y-66857142D01*
X140289580Y-56642857D02*
X140337200Y-56690476D01*
X140337200Y-56690476D02*
X140384819Y-56833333D01*
X140384819Y-56833333D02*
X140384819Y-56928571D01*
X140384819Y-56928571D02*
X140337200Y-57071428D01*
X140337200Y-57071428D02*
X140241961Y-57166666D01*
X140241961Y-57166666D02*
X140146723Y-57214285D01*
X140146723Y-57214285D02*
X139956247Y-57261904D01*
X139956247Y-57261904D02*
X139813390Y-57261904D01*
X139813390Y-57261904D02*
X139622914Y-57214285D01*
X139622914Y-57214285D02*
X139527676Y-57166666D01*
X139527676Y-57166666D02*
X139432438Y-57071428D01*
X139432438Y-57071428D02*
X139384819Y-56928571D01*
X139384819Y-56928571D02*
X139384819Y-56833333D01*
X139384819Y-56833333D02*
X139432438Y-56690476D01*
X139432438Y-56690476D02*
X139480057Y-56642857D01*
X139384819Y-56309523D02*
X139384819Y-55690476D01*
X139384819Y-55690476D02*
X139765771Y-56023809D01*
X139765771Y-56023809D02*
X139765771Y-55880952D01*
X139765771Y-55880952D02*
X139813390Y-55785714D01*
X139813390Y-55785714D02*
X139861009Y-55738095D01*
X139861009Y-55738095D02*
X139956247Y-55690476D01*
X139956247Y-55690476D02*
X140194342Y-55690476D01*
X140194342Y-55690476D02*
X140289580Y-55738095D01*
X140289580Y-55738095D02*
X140337200Y-55785714D01*
X140337200Y-55785714D02*
X140384819Y-55880952D01*
X140384819Y-55880952D02*
X140384819Y-56166666D01*
X140384819Y-56166666D02*
X140337200Y-56261904D01*
X140337200Y-56261904D02*
X140289580Y-56309523D01*
X139384819Y-55357142D02*
X139384819Y-54690476D01*
X139384819Y-54690476D02*
X140384819Y-55119047D01*
X127359580Y-42029166D02*
X127407200Y-42076785D01*
X127407200Y-42076785D02*
X127454819Y-42219642D01*
X127454819Y-42219642D02*
X127454819Y-42314880D01*
X127454819Y-42314880D02*
X127407200Y-42457737D01*
X127407200Y-42457737D02*
X127311961Y-42552975D01*
X127311961Y-42552975D02*
X127216723Y-42600594D01*
X127216723Y-42600594D02*
X127026247Y-42648213D01*
X127026247Y-42648213D02*
X126883390Y-42648213D01*
X126883390Y-42648213D02*
X126692914Y-42600594D01*
X126692914Y-42600594D02*
X126597676Y-42552975D01*
X126597676Y-42552975D02*
X126502438Y-42457737D01*
X126502438Y-42457737D02*
X126454819Y-42314880D01*
X126454819Y-42314880D02*
X126454819Y-42219642D01*
X126454819Y-42219642D02*
X126502438Y-42076785D01*
X126502438Y-42076785D02*
X126550057Y-42029166D01*
X126550057Y-41648213D02*
X126502438Y-41600594D01*
X126502438Y-41600594D02*
X126454819Y-41505356D01*
X126454819Y-41505356D02*
X126454819Y-41267261D01*
X126454819Y-41267261D02*
X126502438Y-41172023D01*
X126502438Y-41172023D02*
X126550057Y-41124404D01*
X126550057Y-41124404D02*
X126645295Y-41076785D01*
X126645295Y-41076785D02*
X126740533Y-41076785D01*
X126740533Y-41076785D02*
X126883390Y-41124404D01*
X126883390Y-41124404D02*
X127454819Y-41695832D01*
X127454819Y-41695832D02*
X127454819Y-41076785D01*
X127004819Y-72166666D02*
X127004819Y-72642856D01*
X127004819Y-72642856D02*
X126004819Y-72642856D01*
X127004819Y-71309523D02*
X127004819Y-71880951D01*
X127004819Y-71595237D02*
X126004819Y-71595237D01*
X126004819Y-71595237D02*
X126147676Y-71690475D01*
X126147676Y-71690475D02*
X126242914Y-71785713D01*
X126242914Y-71785713D02*
X126290533Y-71880951D01*
X153859580Y-42029166D02*
X153907200Y-42076785D01*
X153907200Y-42076785D02*
X153954819Y-42219642D01*
X153954819Y-42219642D02*
X153954819Y-42314880D01*
X153954819Y-42314880D02*
X153907200Y-42457737D01*
X153907200Y-42457737D02*
X153811961Y-42552975D01*
X153811961Y-42552975D02*
X153716723Y-42600594D01*
X153716723Y-42600594D02*
X153526247Y-42648213D01*
X153526247Y-42648213D02*
X153383390Y-42648213D01*
X153383390Y-42648213D02*
X153192914Y-42600594D01*
X153192914Y-42600594D02*
X153097676Y-42552975D01*
X153097676Y-42552975D02*
X153002438Y-42457737D01*
X153002438Y-42457737D02*
X152954819Y-42314880D01*
X152954819Y-42314880D02*
X152954819Y-42219642D01*
X152954819Y-42219642D02*
X153002438Y-42076785D01*
X153002438Y-42076785D02*
X153050057Y-42029166D01*
X153288152Y-41172023D02*
X153954819Y-41172023D01*
X152907200Y-41410118D02*
X153621485Y-41648213D01*
X153621485Y-41648213D02*
X153621485Y-41029166D01*
X127954819Y-90214285D02*
X126954819Y-90214285D01*
X126954819Y-90214285D02*
X126954819Y-89976190D01*
X126954819Y-89976190D02*
X127002438Y-89833333D01*
X127002438Y-89833333D02*
X127097676Y-89738095D01*
X127097676Y-89738095D02*
X127192914Y-89690476D01*
X127192914Y-89690476D02*
X127383390Y-89642857D01*
X127383390Y-89642857D02*
X127526247Y-89642857D01*
X127526247Y-89642857D02*
X127716723Y-89690476D01*
X127716723Y-89690476D02*
X127811961Y-89738095D01*
X127811961Y-89738095D02*
X127907200Y-89833333D01*
X127907200Y-89833333D02*
X127954819Y-89976190D01*
X127954819Y-89976190D02*
X127954819Y-90214285D01*
X127050057Y-89261904D02*
X127002438Y-89214285D01*
X127002438Y-89214285D02*
X126954819Y-89119047D01*
X126954819Y-89119047D02*
X126954819Y-88880952D01*
X126954819Y-88880952D02*
X127002438Y-88785714D01*
X127002438Y-88785714D02*
X127050057Y-88738095D01*
X127050057Y-88738095D02*
X127145295Y-88690476D01*
X127145295Y-88690476D02*
X127240533Y-88690476D01*
X127240533Y-88690476D02*
X127383390Y-88738095D01*
X127383390Y-88738095D02*
X127954819Y-89309523D01*
X127954819Y-89309523D02*
X127954819Y-88690476D01*
X127050057Y-88309523D02*
X127002438Y-88261904D01*
X127002438Y-88261904D02*
X126954819Y-88166666D01*
X126954819Y-88166666D02*
X126954819Y-87928571D01*
X126954819Y-87928571D02*
X127002438Y-87833333D01*
X127002438Y-87833333D02*
X127050057Y-87785714D01*
X127050057Y-87785714D02*
X127145295Y-87738095D01*
X127145295Y-87738095D02*
X127240533Y-87738095D01*
X127240533Y-87738095D02*
X127383390Y-87785714D01*
X127383390Y-87785714D02*
X127954819Y-88357142D01*
X127954819Y-88357142D02*
X127954819Y-87738095D01*
X161454819Y-153214285D02*
X160454819Y-153214285D01*
X160454819Y-153214285D02*
X160454819Y-152976190D01*
X160454819Y-152976190D02*
X160502438Y-152833333D01*
X160502438Y-152833333D02*
X160597676Y-152738095D01*
X160597676Y-152738095D02*
X160692914Y-152690476D01*
X160692914Y-152690476D02*
X160883390Y-152642857D01*
X160883390Y-152642857D02*
X161026247Y-152642857D01*
X161026247Y-152642857D02*
X161216723Y-152690476D01*
X161216723Y-152690476D02*
X161311961Y-152738095D01*
X161311961Y-152738095D02*
X161407200Y-152833333D01*
X161407200Y-152833333D02*
X161454819Y-152976190D01*
X161454819Y-152976190D02*
X161454819Y-153214285D01*
X161454819Y-151690476D02*
X161454819Y-152261904D01*
X161454819Y-151976190D02*
X160454819Y-151976190D01*
X160454819Y-151976190D02*
X160597676Y-152071428D01*
X160597676Y-152071428D02*
X160692914Y-152166666D01*
X160692914Y-152166666D02*
X160740533Y-152261904D01*
X160454819Y-151357142D02*
X160454819Y-150738095D01*
X160454819Y-150738095D02*
X160835771Y-151071428D01*
X160835771Y-151071428D02*
X160835771Y-150928571D01*
X160835771Y-150928571D02*
X160883390Y-150833333D01*
X160883390Y-150833333D02*
X160931009Y-150785714D01*
X160931009Y-150785714D02*
X161026247Y-150738095D01*
X161026247Y-150738095D02*
X161264342Y-150738095D01*
X161264342Y-150738095D02*
X161359580Y-150785714D01*
X161359580Y-150785714D02*
X161407200Y-150833333D01*
X161407200Y-150833333D02*
X161454819Y-150928571D01*
X161454819Y-150928571D02*
X161454819Y-151214285D01*
X161454819Y-151214285D02*
X161407200Y-151309523D01*
X161407200Y-151309523D02*
X161359580Y-151357142D01*
X139359580Y-68142857D02*
X139407200Y-68190476D01*
X139407200Y-68190476D02*
X139454819Y-68333333D01*
X139454819Y-68333333D02*
X139454819Y-68428571D01*
X139454819Y-68428571D02*
X139407200Y-68571428D01*
X139407200Y-68571428D02*
X139311961Y-68666666D01*
X139311961Y-68666666D02*
X139216723Y-68714285D01*
X139216723Y-68714285D02*
X139026247Y-68761904D01*
X139026247Y-68761904D02*
X138883390Y-68761904D01*
X138883390Y-68761904D02*
X138692914Y-68714285D01*
X138692914Y-68714285D02*
X138597676Y-68666666D01*
X138597676Y-68666666D02*
X138502438Y-68571428D01*
X138502438Y-68571428D02*
X138454819Y-68428571D01*
X138454819Y-68428571D02*
X138454819Y-68333333D01*
X138454819Y-68333333D02*
X138502438Y-68190476D01*
X138502438Y-68190476D02*
X138550057Y-68142857D01*
X139454819Y-67190476D02*
X139454819Y-67761904D01*
X139454819Y-67476190D02*
X138454819Y-67476190D01*
X138454819Y-67476190D02*
X138597676Y-67571428D01*
X138597676Y-67571428D02*
X138692914Y-67666666D01*
X138692914Y-67666666D02*
X138740533Y-67761904D01*
X139454819Y-66238095D02*
X139454819Y-66809523D01*
X139454819Y-66523809D02*
X138454819Y-66523809D01*
X138454819Y-66523809D02*
X138597676Y-66619047D01*
X138597676Y-66619047D02*
X138692914Y-66714285D01*
X138692914Y-66714285D02*
X138740533Y-66809523D01*
X121357142Y-57859580D02*
X121309523Y-57907200D01*
X121309523Y-57907200D02*
X121166666Y-57954819D01*
X121166666Y-57954819D02*
X121071428Y-57954819D01*
X121071428Y-57954819D02*
X120928571Y-57907200D01*
X120928571Y-57907200D02*
X120833333Y-57811961D01*
X120833333Y-57811961D02*
X120785714Y-57716723D01*
X120785714Y-57716723D02*
X120738095Y-57526247D01*
X120738095Y-57526247D02*
X120738095Y-57383390D01*
X120738095Y-57383390D02*
X120785714Y-57192914D01*
X120785714Y-57192914D02*
X120833333Y-57097676D01*
X120833333Y-57097676D02*
X120928571Y-57002438D01*
X120928571Y-57002438D02*
X121071428Y-56954819D01*
X121071428Y-56954819D02*
X121166666Y-56954819D01*
X121166666Y-56954819D02*
X121309523Y-57002438D01*
X121309523Y-57002438D02*
X121357142Y-57050057D01*
X122214285Y-57288152D02*
X122214285Y-57954819D01*
X121976190Y-56907200D02*
X121738095Y-57621485D01*
X121738095Y-57621485D02*
X122357142Y-57621485D01*
X122928571Y-56954819D02*
X123023809Y-56954819D01*
X123023809Y-56954819D02*
X123119047Y-57002438D01*
X123119047Y-57002438D02*
X123166666Y-57050057D01*
X123166666Y-57050057D02*
X123214285Y-57145295D01*
X123214285Y-57145295D02*
X123261904Y-57335771D01*
X123261904Y-57335771D02*
X123261904Y-57573866D01*
X123261904Y-57573866D02*
X123214285Y-57764342D01*
X123214285Y-57764342D02*
X123166666Y-57859580D01*
X123166666Y-57859580D02*
X123119047Y-57907200D01*
X123119047Y-57907200D02*
X123023809Y-57954819D01*
X123023809Y-57954819D02*
X122928571Y-57954819D01*
X122928571Y-57954819D02*
X122833333Y-57907200D01*
X122833333Y-57907200D02*
X122785714Y-57859580D01*
X122785714Y-57859580D02*
X122738095Y-57764342D01*
X122738095Y-57764342D02*
X122690476Y-57573866D01*
X122690476Y-57573866D02*
X122690476Y-57335771D01*
X122690476Y-57335771D02*
X122738095Y-57145295D01*
X122738095Y-57145295D02*
X122785714Y-57050057D01*
X122785714Y-57050057D02*
X122833333Y-57002438D01*
X122833333Y-57002438D02*
X122928571Y-56954819D01*
X154454819Y-34738094D02*
X153454819Y-34738094D01*
X153454819Y-34738094D02*
X153454819Y-34499999D01*
X153454819Y-34499999D02*
X153502438Y-34357142D01*
X153502438Y-34357142D02*
X153597676Y-34261904D01*
X153597676Y-34261904D02*
X153692914Y-34214285D01*
X153692914Y-34214285D02*
X153883390Y-34166666D01*
X153883390Y-34166666D02*
X154026247Y-34166666D01*
X154026247Y-34166666D02*
X154216723Y-34214285D01*
X154216723Y-34214285D02*
X154311961Y-34261904D01*
X154311961Y-34261904D02*
X154407200Y-34357142D01*
X154407200Y-34357142D02*
X154454819Y-34499999D01*
X154454819Y-34499999D02*
X154454819Y-34738094D01*
X153788152Y-33309523D02*
X154454819Y-33309523D01*
X153407200Y-33547618D02*
X154121485Y-33785713D01*
X154121485Y-33785713D02*
X154121485Y-33166666D01*
X172741876Y-149465966D02*
X173436534Y-148746626D01*
X173436534Y-148746626D02*
X173607805Y-148912021D01*
X173607805Y-148912021D02*
X173677489Y-149045512D01*
X173677489Y-149045512D02*
X173679840Y-149180179D01*
X173679840Y-149180179D02*
X173647936Y-149281766D01*
X173647936Y-149281766D02*
X173549875Y-149451863D01*
X173549875Y-149451863D02*
X173450638Y-149554625D01*
X173450638Y-149554625D02*
X173284067Y-149658563D01*
X173284067Y-149658563D02*
X173183655Y-149693993D01*
X173183655Y-149693993D02*
X173048989Y-149696344D01*
X173048989Y-149696344D02*
X172913147Y-149631361D01*
X172913147Y-149631361D02*
X172741876Y-149465966D01*
X174055462Y-149476714D02*
X174122795Y-149475539D01*
X174122795Y-149475539D02*
X174224382Y-149507443D01*
X174224382Y-149507443D02*
X174395654Y-149672838D01*
X174395654Y-149672838D02*
X174431083Y-149773250D01*
X174431083Y-149773250D02*
X174432259Y-149840583D01*
X174432259Y-149840583D02*
X174400355Y-149942171D01*
X174400355Y-149942171D02*
X174334197Y-150010679D01*
X174334197Y-150010679D02*
X174200706Y-150080363D01*
X174200706Y-150080363D02*
X173392707Y-150094467D01*
X173392707Y-150094467D02*
X173838012Y-150524493D01*
X174180555Y-150855283D02*
X174317572Y-150987599D01*
X174317572Y-150987599D02*
X174419160Y-151019502D01*
X174419160Y-151019502D02*
X174486493Y-151018327D01*
X174486493Y-151018327D02*
X174654239Y-150981722D01*
X174654239Y-150981722D02*
X174820809Y-150877784D01*
X174820809Y-150877784D02*
X175085440Y-150603750D01*
X175085440Y-150603750D02*
X175117344Y-150502162D01*
X175117344Y-150502162D02*
X175116169Y-150434829D01*
X175116169Y-150434829D02*
X175080739Y-150334417D01*
X175080739Y-150334417D02*
X174943722Y-150202101D01*
X174943722Y-150202101D02*
X174842135Y-150170197D01*
X174842135Y-150170197D02*
X174774801Y-150171373D01*
X174774801Y-150171373D02*
X174674389Y-150206802D01*
X174674389Y-150206802D02*
X174508994Y-150378074D01*
X174508994Y-150378074D02*
X174477091Y-150479661D01*
X174477091Y-150479661D02*
X174478266Y-150546994D01*
X174478266Y-150546994D02*
X174513696Y-150647407D01*
X174513696Y-150647407D02*
X174650713Y-150779723D01*
X174650713Y-150779723D02*
X174752300Y-150811626D01*
X174752300Y-150811626D02*
X174819633Y-150810451D01*
X174819633Y-150810451D02*
X174920046Y-150775021D01*
X112857142Y-119859580D02*
X112809523Y-119907200D01*
X112809523Y-119907200D02*
X112666666Y-119954819D01*
X112666666Y-119954819D02*
X112571428Y-119954819D01*
X112571428Y-119954819D02*
X112428571Y-119907200D01*
X112428571Y-119907200D02*
X112333333Y-119811961D01*
X112333333Y-119811961D02*
X112285714Y-119716723D01*
X112285714Y-119716723D02*
X112238095Y-119526247D01*
X112238095Y-119526247D02*
X112238095Y-119383390D01*
X112238095Y-119383390D02*
X112285714Y-119192914D01*
X112285714Y-119192914D02*
X112333333Y-119097676D01*
X112333333Y-119097676D02*
X112428571Y-119002438D01*
X112428571Y-119002438D02*
X112571428Y-118954819D01*
X112571428Y-118954819D02*
X112666666Y-118954819D01*
X112666666Y-118954819D02*
X112809523Y-119002438D01*
X112809523Y-119002438D02*
X112857142Y-119050057D01*
X113238095Y-119050057D02*
X113285714Y-119002438D01*
X113285714Y-119002438D02*
X113380952Y-118954819D01*
X113380952Y-118954819D02*
X113619047Y-118954819D01*
X113619047Y-118954819D02*
X113714285Y-119002438D01*
X113714285Y-119002438D02*
X113761904Y-119050057D01*
X113761904Y-119050057D02*
X113809523Y-119145295D01*
X113809523Y-119145295D02*
X113809523Y-119240533D01*
X113809523Y-119240533D02*
X113761904Y-119383390D01*
X113761904Y-119383390D02*
X113190476Y-119954819D01*
X113190476Y-119954819D02*
X113809523Y-119954819D01*
X114666666Y-118954819D02*
X114476190Y-118954819D01*
X114476190Y-118954819D02*
X114380952Y-119002438D01*
X114380952Y-119002438D02*
X114333333Y-119050057D01*
X114333333Y-119050057D02*
X114238095Y-119192914D01*
X114238095Y-119192914D02*
X114190476Y-119383390D01*
X114190476Y-119383390D02*
X114190476Y-119764342D01*
X114190476Y-119764342D02*
X114238095Y-119859580D01*
X114238095Y-119859580D02*
X114285714Y-119907200D01*
X114285714Y-119907200D02*
X114380952Y-119954819D01*
X114380952Y-119954819D02*
X114571428Y-119954819D01*
X114571428Y-119954819D02*
X114666666Y-119907200D01*
X114666666Y-119907200D02*
X114714285Y-119859580D01*
X114714285Y-119859580D02*
X114761904Y-119764342D01*
X114761904Y-119764342D02*
X114761904Y-119526247D01*
X114761904Y-119526247D02*
X114714285Y-119431009D01*
X114714285Y-119431009D02*
X114666666Y-119383390D01*
X114666666Y-119383390D02*
X114571428Y-119335771D01*
X114571428Y-119335771D02*
X114380952Y-119335771D01*
X114380952Y-119335771D02*
X114285714Y-119383390D01*
X114285714Y-119383390D02*
X114238095Y-119431009D01*
X114238095Y-119431009D02*
X114190476Y-119526247D01*
X105857142Y-41359580D02*
X105809523Y-41407200D01*
X105809523Y-41407200D02*
X105666666Y-41454819D01*
X105666666Y-41454819D02*
X105571428Y-41454819D01*
X105571428Y-41454819D02*
X105428571Y-41407200D01*
X105428571Y-41407200D02*
X105333333Y-41311961D01*
X105333333Y-41311961D02*
X105285714Y-41216723D01*
X105285714Y-41216723D02*
X105238095Y-41026247D01*
X105238095Y-41026247D02*
X105238095Y-40883390D01*
X105238095Y-40883390D02*
X105285714Y-40692914D01*
X105285714Y-40692914D02*
X105333333Y-40597676D01*
X105333333Y-40597676D02*
X105428571Y-40502438D01*
X105428571Y-40502438D02*
X105571428Y-40454819D01*
X105571428Y-40454819D02*
X105666666Y-40454819D01*
X105666666Y-40454819D02*
X105809523Y-40502438D01*
X105809523Y-40502438D02*
X105857142Y-40550057D01*
X106190476Y-40454819D02*
X106809523Y-40454819D01*
X106809523Y-40454819D02*
X106476190Y-40835771D01*
X106476190Y-40835771D02*
X106619047Y-40835771D01*
X106619047Y-40835771D02*
X106714285Y-40883390D01*
X106714285Y-40883390D02*
X106761904Y-40931009D01*
X106761904Y-40931009D02*
X106809523Y-41026247D01*
X106809523Y-41026247D02*
X106809523Y-41264342D01*
X106809523Y-41264342D02*
X106761904Y-41359580D01*
X106761904Y-41359580D02*
X106714285Y-41407200D01*
X106714285Y-41407200D02*
X106619047Y-41454819D01*
X106619047Y-41454819D02*
X106333333Y-41454819D01*
X106333333Y-41454819D02*
X106238095Y-41407200D01*
X106238095Y-41407200D02*
X106190476Y-41359580D01*
X107190476Y-40550057D02*
X107238095Y-40502438D01*
X107238095Y-40502438D02*
X107333333Y-40454819D01*
X107333333Y-40454819D02*
X107571428Y-40454819D01*
X107571428Y-40454819D02*
X107666666Y-40502438D01*
X107666666Y-40502438D02*
X107714285Y-40550057D01*
X107714285Y-40550057D02*
X107761904Y-40645295D01*
X107761904Y-40645295D02*
X107761904Y-40740533D01*
X107761904Y-40740533D02*
X107714285Y-40883390D01*
X107714285Y-40883390D02*
X107142857Y-41454819D01*
X107142857Y-41454819D02*
X107761904Y-41454819D01*
X127954819Y-35238094D02*
X126954819Y-35238094D01*
X126954819Y-35238094D02*
X126954819Y-34999999D01*
X126954819Y-34999999D02*
X127002438Y-34857142D01*
X127002438Y-34857142D02*
X127097676Y-34761904D01*
X127097676Y-34761904D02*
X127192914Y-34714285D01*
X127192914Y-34714285D02*
X127383390Y-34666666D01*
X127383390Y-34666666D02*
X127526247Y-34666666D01*
X127526247Y-34666666D02*
X127716723Y-34714285D01*
X127716723Y-34714285D02*
X127811961Y-34761904D01*
X127811961Y-34761904D02*
X127907200Y-34857142D01*
X127907200Y-34857142D02*
X127954819Y-34999999D01*
X127954819Y-34999999D02*
X127954819Y-35238094D01*
X127050057Y-34285713D02*
X127002438Y-34238094D01*
X127002438Y-34238094D02*
X126954819Y-34142856D01*
X126954819Y-34142856D02*
X126954819Y-33904761D01*
X126954819Y-33904761D02*
X127002438Y-33809523D01*
X127002438Y-33809523D02*
X127050057Y-33761904D01*
X127050057Y-33761904D02*
X127145295Y-33714285D01*
X127145295Y-33714285D02*
X127240533Y-33714285D01*
X127240533Y-33714285D02*
X127383390Y-33761904D01*
X127383390Y-33761904D02*
X127954819Y-34333332D01*
X127954819Y-34333332D02*
X127954819Y-33714285D01*
X168719642Y-144859580D02*
X168672023Y-144907200D01*
X168672023Y-144907200D02*
X168529166Y-144954819D01*
X168529166Y-144954819D02*
X168433928Y-144954819D01*
X168433928Y-144954819D02*
X168291071Y-144907200D01*
X168291071Y-144907200D02*
X168195833Y-144811961D01*
X168195833Y-144811961D02*
X168148214Y-144716723D01*
X168148214Y-144716723D02*
X168100595Y-144526247D01*
X168100595Y-144526247D02*
X168100595Y-144383390D01*
X168100595Y-144383390D02*
X168148214Y-144192914D01*
X168148214Y-144192914D02*
X168195833Y-144097676D01*
X168195833Y-144097676D02*
X168291071Y-144002438D01*
X168291071Y-144002438D02*
X168433928Y-143954819D01*
X168433928Y-143954819D02*
X168529166Y-143954819D01*
X168529166Y-143954819D02*
X168672023Y-144002438D01*
X168672023Y-144002438D02*
X168719642Y-144050057D01*
X169052976Y-143954819D02*
X169672023Y-143954819D01*
X169672023Y-143954819D02*
X169338690Y-144335771D01*
X169338690Y-144335771D02*
X169481547Y-144335771D01*
X169481547Y-144335771D02*
X169576785Y-144383390D01*
X169576785Y-144383390D02*
X169624404Y-144431009D01*
X169624404Y-144431009D02*
X169672023Y-144526247D01*
X169672023Y-144526247D02*
X169672023Y-144764342D01*
X169672023Y-144764342D02*
X169624404Y-144859580D01*
X169624404Y-144859580D02*
X169576785Y-144907200D01*
X169576785Y-144907200D02*
X169481547Y-144954819D01*
X169481547Y-144954819D02*
X169195833Y-144954819D01*
X169195833Y-144954819D02*
X169100595Y-144907200D01*
X169100595Y-144907200D02*
X169052976Y-144859580D01*
X170529166Y-143954819D02*
X170338690Y-143954819D01*
X170338690Y-143954819D02*
X170243452Y-144002438D01*
X170243452Y-144002438D02*
X170195833Y-144050057D01*
X170195833Y-144050057D02*
X170100595Y-144192914D01*
X170100595Y-144192914D02*
X170052976Y-144383390D01*
X170052976Y-144383390D02*
X170052976Y-144764342D01*
X170052976Y-144764342D02*
X170100595Y-144859580D01*
X170100595Y-144859580D02*
X170148214Y-144907200D01*
X170148214Y-144907200D02*
X170243452Y-144954819D01*
X170243452Y-144954819D02*
X170433928Y-144954819D01*
X170433928Y-144954819D02*
X170529166Y-144907200D01*
X170529166Y-144907200D02*
X170576785Y-144859580D01*
X170576785Y-144859580D02*
X170624404Y-144764342D01*
X170624404Y-144764342D02*
X170624404Y-144526247D01*
X170624404Y-144526247D02*
X170576785Y-144431009D01*
X170576785Y-144431009D02*
X170529166Y-144383390D01*
X170529166Y-144383390D02*
X170433928Y-144335771D01*
X170433928Y-144335771D02*
X170243452Y-144335771D01*
X170243452Y-144335771D02*
X170148214Y-144383390D01*
X170148214Y-144383390D02*
X170100595Y-144431009D01*
X170100595Y-144431009D02*
X170052976Y-144526247D01*
X168261905Y-81454819D02*
X168261905Y-80454819D01*
X168261905Y-80454819D02*
X168500000Y-80454819D01*
X168500000Y-80454819D02*
X168642857Y-80502438D01*
X168642857Y-80502438D02*
X168738095Y-80597676D01*
X168738095Y-80597676D02*
X168785714Y-80692914D01*
X168785714Y-80692914D02*
X168833333Y-80883390D01*
X168833333Y-80883390D02*
X168833333Y-81026247D01*
X168833333Y-81026247D02*
X168785714Y-81216723D01*
X168785714Y-81216723D02*
X168738095Y-81311961D01*
X168738095Y-81311961D02*
X168642857Y-81407200D01*
X168642857Y-81407200D02*
X168500000Y-81454819D01*
X168500000Y-81454819D02*
X168261905Y-81454819D01*
X169404762Y-80883390D02*
X169309524Y-80835771D01*
X169309524Y-80835771D02*
X169261905Y-80788152D01*
X169261905Y-80788152D02*
X169214286Y-80692914D01*
X169214286Y-80692914D02*
X169214286Y-80645295D01*
X169214286Y-80645295D02*
X169261905Y-80550057D01*
X169261905Y-80550057D02*
X169309524Y-80502438D01*
X169309524Y-80502438D02*
X169404762Y-80454819D01*
X169404762Y-80454819D02*
X169595238Y-80454819D01*
X169595238Y-80454819D02*
X169690476Y-80502438D01*
X169690476Y-80502438D02*
X169738095Y-80550057D01*
X169738095Y-80550057D02*
X169785714Y-80645295D01*
X169785714Y-80645295D02*
X169785714Y-80692914D01*
X169785714Y-80692914D02*
X169738095Y-80788152D01*
X169738095Y-80788152D02*
X169690476Y-80835771D01*
X169690476Y-80835771D02*
X169595238Y-80883390D01*
X169595238Y-80883390D02*
X169404762Y-80883390D01*
X169404762Y-80883390D02*
X169309524Y-80931009D01*
X169309524Y-80931009D02*
X169261905Y-80978628D01*
X169261905Y-80978628D02*
X169214286Y-81073866D01*
X169214286Y-81073866D02*
X169214286Y-81264342D01*
X169214286Y-81264342D02*
X169261905Y-81359580D01*
X169261905Y-81359580D02*
X169309524Y-81407200D01*
X169309524Y-81407200D02*
X169404762Y-81454819D01*
X169404762Y-81454819D02*
X169595238Y-81454819D01*
X169595238Y-81454819D02*
X169690476Y-81407200D01*
X169690476Y-81407200D02*
X169738095Y-81359580D01*
X169738095Y-81359580D02*
X169785714Y-81264342D01*
X169785714Y-81264342D02*
X169785714Y-81073866D01*
X169785714Y-81073866D02*
X169738095Y-80978628D01*
X169738095Y-80978628D02*
X169690476Y-80931009D01*
X169690476Y-80931009D02*
X169595238Y-80883390D01*
X160970833Y-67859580D02*
X160923214Y-67907200D01*
X160923214Y-67907200D02*
X160780357Y-67954819D01*
X160780357Y-67954819D02*
X160685119Y-67954819D01*
X160685119Y-67954819D02*
X160542262Y-67907200D01*
X160542262Y-67907200D02*
X160447024Y-67811961D01*
X160447024Y-67811961D02*
X160399405Y-67716723D01*
X160399405Y-67716723D02*
X160351786Y-67526247D01*
X160351786Y-67526247D02*
X160351786Y-67383390D01*
X160351786Y-67383390D02*
X160399405Y-67192914D01*
X160399405Y-67192914D02*
X160447024Y-67097676D01*
X160447024Y-67097676D02*
X160542262Y-67002438D01*
X160542262Y-67002438D02*
X160685119Y-66954819D01*
X160685119Y-66954819D02*
X160780357Y-66954819D01*
X160780357Y-66954819D02*
X160923214Y-67002438D01*
X160923214Y-67002438D02*
X160970833Y-67050057D01*
X161304167Y-66954819D02*
X161970833Y-66954819D01*
X161970833Y-66954819D02*
X161542262Y-67954819D01*
X103994642Y-54359580D02*
X103947023Y-54407200D01*
X103947023Y-54407200D02*
X103804166Y-54454819D01*
X103804166Y-54454819D02*
X103708928Y-54454819D01*
X103708928Y-54454819D02*
X103566071Y-54407200D01*
X103566071Y-54407200D02*
X103470833Y-54311961D01*
X103470833Y-54311961D02*
X103423214Y-54216723D01*
X103423214Y-54216723D02*
X103375595Y-54026247D01*
X103375595Y-54026247D02*
X103375595Y-53883390D01*
X103375595Y-53883390D02*
X103423214Y-53692914D01*
X103423214Y-53692914D02*
X103470833Y-53597676D01*
X103470833Y-53597676D02*
X103566071Y-53502438D01*
X103566071Y-53502438D02*
X103708928Y-53454819D01*
X103708928Y-53454819D02*
X103804166Y-53454819D01*
X103804166Y-53454819D02*
X103947023Y-53502438D01*
X103947023Y-53502438D02*
X103994642Y-53550057D01*
X104327976Y-53454819D02*
X104947023Y-53454819D01*
X104947023Y-53454819D02*
X104613690Y-53835771D01*
X104613690Y-53835771D02*
X104756547Y-53835771D01*
X104756547Y-53835771D02*
X104851785Y-53883390D01*
X104851785Y-53883390D02*
X104899404Y-53931009D01*
X104899404Y-53931009D02*
X104947023Y-54026247D01*
X104947023Y-54026247D02*
X104947023Y-54264342D01*
X104947023Y-54264342D02*
X104899404Y-54359580D01*
X104899404Y-54359580D02*
X104851785Y-54407200D01*
X104851785Y-54407200D02*
X104756547Y-54454819D01*
X104756547Y-54454819D02*
X104470833Y-54454819D01*
X104470833Y-54454819D02*
X104375595Y-54407200D01*
X104375595Y-54407200D02*
X104327976Y-54359580D01*
X105280357Y-53454819D02*
X105899404Y-53454819D01*
X105899404Y-53454819D02*
X105566071Y-53835771D01*
X105566071Y-53835771D02*
X105708928Y-53835771D01*
X105708928Y-53835771D02*
X105804166Y-53883390D01*
X105804166Y-53883390D02*
X105851785Y-53931009D01*
X105851785Y-53931009D02*
X105899404Y-54026247D01*
X105899404Y-54026247D02*
X105899404Y-54264342D01*
X105899404Y-54264342D02*
X105851785Y-54359580D01*
X105851785Y-54359580D02*
X105804166Y-54407200D01*
X105804166Y-54407200D02*
X105708928Y-54454819D01*
X105708928Y-54454819D02*
X105423214Y-54454819D01*
X105423214Y-54454819D02*
X105327976Y-54407200D01*
X105327976Y-54407200D02*
X105280357Y-54359580D01*
X141454819Y-90214285D02*
X140454819Y-90214285D01*
X140454819Y-90214285D02*
X140454819Y-89976190D01*
X140454819Y-89976190D02*
X140502438Y-89833333D01*
X140502438Y-89833333D02*
X140597676Y-89738095D01*
X140597676Y-89738095D02*
X140692914Y-89690476D01*
X140692914Y-89690476D02*
X140883390Y-89642857D01*
X140883390Y-89642857D02*
X141026247Y-89642857D01*
X141026247Y-89642857D02*
X141216723Y-89690476D01*
X141216723Y-89690476D02*
X141311961Y-89738095D01*
X141311961Y-89738095D02*
X141407200Y-89833333D01*
X141407200Y-89833333D02*
X141454819Y-89976190D01*
X141454819Y-89976190D02*
X141454819Y-90214285D01*
X140550057Y-89261904D02*
X140502438Y-89214285D01*
X140502438Y-89214285D02*
X140454819Y-89119047D01*
X140454819Y-89119047D02*
X140454819Y-88880952D01*
X140454819Y-88880952D02*
X140502438Y-88785714D01*
X140502438Y-88785714D02*
X140550057Y-88738095D01*
X140550057Y-88738095D02*
X140645295Y-88690476D01*
X140645295Y-88690476D02*
X140740533Y-88690476D01*
X140740533Y-88690476D02*
X140883390Y-88738095D01*
X140883390Y-88738095D02*
X141454819Y-89309523D01*
X141454819Y-89309523D02*
X141454819Y-88690476D01*
X140454819Y-88357142D02*
X140454819Y-87738095D01*
X140454819Y-87738095D02*
X140835771Y-88071428D01*
X140835771Y-88071428D02*
X140835771Y-87928571D01*
X140835771Y-87928571D02*
X140883390Y-87833333D01*
X140883390Y-87833333D02*
X140931009Y-87785714D01*
X140931009Y-87785714D02*
X141026247Y-87738095D01*
X141026247Y-87738095D02*
X141264342Y-87738095D01*
X141264342Y-87738095D02*
X141359580Y-87785714D01*
X141359580Y-87785714D02*
X141407200Y-87833333D01*
X141407200Y-87833333D02*
X141454819Y-87928571D01*
X141454819Y-87928571D02*
X141454819Y-88214285D01*
X141454819Y-88214285D02*
X141407200Y-88309523D01*
X141407200Y-88309523D02*
X141359580Y-88357142D01*
X127333333Y-52954819D02*
X127000000Y-52478628D01*
X126761905Y-52954819D02*
X126761905Y-51954819D01*
X126761905Y-51954819D02*
X127142857Y-51954819D01*
X127142857Y-51954819D02*
X127238095Y-52002438D01*
X127238095Y-52002438D02*
X127285714Y-52050057D01*
X127285714Y-52050057D02*
X127333333Y-52145295D01*
X127333333Y-52145295D02*
X127333333Y-52288152D01*
X127333333Y-52288152D02*
X127285714Y-52383390D01*
X127285714Y-52383390D02*
X127238095Y-52431009D01*
X127238095Y-52431009D02*
X127142857Y-52478628D01*
X127142857Y-52478628D02*
X126761905Y-52478628D01*
X128238095Y-51954819D02*
X127761905Y-51954819D01*
X127761905Y-51954819D02*
X127714286Y-52431009D01*
X127714286Y-52431009D02*
X127761905Y-52383390D01*
X127761905Y-52383390D02*
X127857143Y-52335771D01*
X127857143Y-52335771D02*
X128095238Y-52335771D01*
X128095238Y-52335771D02*
X128190476Y-52383390D01*
X128190476Y-52383390D02*
X128238095Y-52431009D01*
X128238095Y-52431009D02*
X128285714Y-52526247D01*
X128285714Y-52526247D02*
X128285714Y-52764342D01*
X128285714Y-52764342D02*
X128238095Y-52859580D01*
X128238095Y-52859580D02*
X128190476Y-52907200D01*
X128190476Y-52907200D02*
X128095238Y-52954819D01*
X128095238Y-52954819D02*
X127857143Y-52954819D01*
X127857143Y-52954819D02*
X127761905Y-52907200D01*
X127761905Y-52907200D02*
X127714286Y-52859580D01*
X105285714Y-117954819D02*
X105285714Y-116954819D01*
X105285714Y-116954819D02*
X105523809Y-116954819D01*
X105523809Y-116954819D02*
X105666666Y-117002438D01*
X105666666Y-117002438D02*
X105761904Y-117097676D01*
X105761904Y-117097676D02*
X105809523Y-117192914D01*
X105809523Y-117192914D02*
X105857142Y-117383390D01*
X105857142Y-117383390D02*
X105857142Y-117526247D01*
X105857142Y-117526247D02*
X105809523Y-117716723D01*
X105809523Y-117716723D02*
X105761904Y-117811961D01*
X105761904Y-117811961D02*
X105666666Y-117907200D01*
X105666666Y-117907200D02*
X105523809Y-117954819D01*
X105523809Y-117954819D02*
X105285714Y-117954819D01*
X106809523Y-117954819D02*
X106238095Y-117954819D01*
X106523809Y-117954819D02*
X106523809Y-116954819D01*
X106523809Y-116954819D02*
X106428571Y-117097676D01*
X106428571Y-117097676D02*
X106333333Y-117192914D01*
X106333333Y-117192914D02*
X106238095Y-117240533D01*
X107285714Y-117954819D02*
X107476190Y-117954819D01*
X107476190Y-117954819D02*
X107571428Y-117907200D01*
X107571428Y-117907200D02*
X107619047Y-117859580D01*
X107619047Y-117859580D02*
X107714285Y-117716723D01*
X107714285Y-117716723D02*
X107761904Y-117526247D01*
X107761904Y-117526247D02*
X107761904Y-117145295D01*
X107761904Y-117145295D02*
X107714285Y-117050057D01*
X107714285Y-117050057D02*
X107666666Y-117002438D01*
X107666666Y-117002438D02*
X107571428Y-116954819D01*
X107571428Y-116954819D02*
X107380952Y-116954819D01*
X107380952Y-116954819D02*
X107285714Y-117002438D01*
X107285714Y-117002438D02*
X107238095Y-117050057D01*
X107238095Y-117050057D02*
X107190476Y-117145295D01*
X107190476Y-117145295D02*
X107190476Y-117383390D01*
X107190476Y-117383390D02*
X107238095Y-117478628D01*
X107238095Y-117478628D02*
X107285714Y-117526247D01*
X107285714Y-117526247D02*
X107380952Y-117573866D01*
X107380952Y-117573866D02*
X107571428Y-117573866D01*
X107571428Y-117573866D02*
X107666666Y-117526247D01*
X107666666Y-117526247D02*
X107714285Y-117478628D01*
X107714285Y-117478628D02*
X107761904Y-117383390D01*
X126857142Y-106159580D02*
X126809523Y-106207200D01*
X126809523Y-106207200D02*
X126666666Y-106254819D01*
X126666666Y-106254819D02*
X126571428Y-106254819D01*
X126571428Y-106254819D02*
X126428571Y-106207200D01*
X126428571Y-106207200D02*
X126333333Y-106111961D01*
X126333333Y-106111961D02*
X126285714Y-106016723D01*
X126285714Y-106016723D02*
X126238095Y-105826247D01*
X126238095Y-105826247D02*
X126238095Y-105683390D01*
X126238095Y-105683390D02*
X126285714Y-105492914D01*
X126285714Y-105492914D02*
X126333333Y-105397676D01*
X126333333Y-105397676D02*
X126428571Y-105302438D01*
X126428571Y-105302438D02*
X126571428Y-105254819D01*
X126571428Y-105254819D02*
X126666666Y-105254819D01*
X126666666Y-105254819D02*
X126809523Y-105302438D01*
X126809523Y-105302438D02*
X126857142Y-105350057D01*
X127714285Y-105588152D02*
X127714285Y-106254819D01*
X127476190Y-105207200D02*
X127238095Y-105921485D01*
X127238095Y-105921485D02*
X127857142Y-105921485D01*
X128666666Y-105588152D02*
X128666666Y-106254819D01*
X128428571Y-105207200D02*
X128190476Y-105921485D01*
X128190476Y-105921485D02*
X128809523Y-105921485D01*
X114904819Y-46214285D02*
X113904819Y-46214285D01*
X113904819Y-46214285D02*
X113904819Y-45976190D01*
X113904819Y-45976190D02*
X113952438Y-45833333D01*
X113952438Y-45833333D02*
X114047676Y-45738095D01*
X114047676Y-45738095D02*
X114142914Y-45690476D01*
X114142914Y-45690476D02*
X114333390Y-45642857D01*
X114333390Y-45642857D02*
X114476247Y-45642857D01*
X114476247Y-45642857D02*
X114666723Y-45690476D01*
X114666723Y-45690476D02*
X114761961Y-45738095D01*
X114761961Y-45738095D02*
X114857200Y-45833333D01*
X114857200Y-45833333D02*
X114904819Y-45976190D01*
X114904819Y-45976190D02*
X114904819Y-46214285D01*
X114000057Y-45261904D02*
X113952438Y-45214285D01*
X113952438Y-45214285D02*
X113904819Y-45119047D01*
X113904819Y-45119047D02*
X113904819Y-44880952D01*
X113904819Y-44880952D02*
X113952438Y-44785714D01*
X113952438Y-44785714D02*
X114000057Y-44738095D01*
X114000057Y-44738095D02*
X114095295Y-44690476D01*
X114095295Y-44690476D02*
X114190533Y-44690476D01*
X114190533Y-44690476D02*
X114333390Y-44738095D01*
X114333390Y-44738095D02*
X114904819Y-45309523D01*
X114904819Y-45309523D02*
X114904819Y-44690476D01*
X113904819Y-43785714D02*
X113904819Y-44261904D01*
X113904819Y-44261904D02*
X114381009Y-44309523D01*
X114381009Y-44309523D02*
X114333390Y-44261904D01*
X114333390Y-44261904D02*
X114285771Y-44166666D01*
X114285771Y-44166666D02*
X114285771Y-43928571D01*
X114285771Y-43928571D02*
X114333390Y-43833333D01*
X114333390Y-43833333D02*
X114381009Y-43785714D01*
X114381009Y-43785714D02*
X114476247Y-43738095D01*
X114476247Y-43738095D02*
X114714342Y-43738095D01*
X114714342Y-43738095D02*
X114809580Y-43785714D01*
X114809580Y-43785714D02*
X114857200Y-43833333D01*
X114857200Y-43833333D02*
X114904819Y-43928571D01*
X114904819Y-43928571D02*
X114904819Y-44166666D01*
X114904819Y-44166666D02*
X114857200Y-44261904D01*
X114857200Y-44261904D02*
X114809580Y-44309523D01*
X141454819Y-34738094D02*
X140454819Y-34738094D01*
X140454819Y-34738094D02*
X140454819Y-34499999D01*
X140454819Y-34499999D02*
X140502438Y-34357142D01*
X140502438Y-34357142D02*
X140597676Y-34261904D01*
X140597676Y-34261904D02*
X140692914Y-34214285D01*
X140692914Y-34214285D02*
X140883390Y-34166666D01*
X140883390Y-34166666D02*
X141026247Y-34166666D01*
X141026247Y-34166666D02*
X141216723Y-34214285D01*
X141216723Y-34214285D02*
X141311961Y-34261904D01*
X141311961Y-34261904D02*
X141407200Y-34357142D01*
X141407200Y-34357142D02*
X141454819Y-34499999D01*
X141454819Y-34499999D02*
X141454819Y-34738094D01*
X140454819Y-33833332D02*
X140454819Y-33214285D01*
X140454819Y-33214285D02*
X140835771Y-33547618D01*
X140835771Y-33547618D02*
X140835771Y-33404761D01*
X140835771Y-33404761D02*
X140883390Y-33309523D01*
X140883390Y-33309523D02*
X140931009Y-33261904D01*
X140931009Y-33261904D02*
X141026247Y-33214285D01*
X141026247Y-33214285D02*
X141264342Y-33214285D01*
X141264342Y-33214285D02*
X141359580Y-33261904D01*
X141359580Y-33261904D02*
X141407200Y-33309523D01*
X141407200Y-33309523D02*
X141454819Y-33404761D01*
X141454819Y-33404761D02*
X141454819Y-33690475D01*
X141454819Y-33690475D02*
X141407200Y-33785713D01*
X141407200Y-33785713D02*
X141359580Y-33833332D01*
X121357142Y-55359580D02*
X121309523Y-55407200D01*
X121309523Y-55407200D02*
X121166666Y-55454819D01*
X121166666Y-55454819D02*
X121071428Y-55454819D01*
X121071428Y-55454819D02*
X120928571Y-55407200D01*
X120928571Y-55407200D02*
X120833333Y-55311961D01*
X120833333Y-55311961D02*
X120785714Y-55216723D01*
X120785714Y-55216723D02*
X120738095Y-55026247D01*
X120738095Y-55026247D02*
X120738095Y-54883390D01*
X120738095Y-54883390D02*
X120785714Y-54692914D01*
X120785714Y-54692914D02*
X120833333Y-54597676D01*
X120833333Y-54597676D02*
X120928571Y-54502438D01*
X120928571Y-54502438D02*
X121071428Y-54454819D01*
X121071428Y-54454819D02*
X121166666Y-54454819D01*
X121166666Y-54454819D02*
X121309523Y-54502438D01*
X121309523Y-54502438D02*
X121357142Y-54550057D01*
X122214285Y-54788152D02*
X122214285Y-55454819D01*
X121976190Y-54407200D02*
X121738095Y-55121485D01*
X121738095Y-55121485D02*
X122357142Y-55121485D01*
X123261904Y-55454819D02*
X122690476Y-55454819D01*
X122976190Y-55454819D02*
X122976190Y-54454819D01*
X122976190Y-54454819D02*
X122880952Y-54597676D01*
X122880952Y-54597676D02*
X122785714Y-54692914D01*
X122785714Y-54692914D02*
X122690476Y-54740533D01*
X165857142Y-107359580D02*
X165809523Y-107407200D01*
X165809523Y-107407200D02*
X165666666Y-107454819D01*
X165666666Y-107454819D02*
X165571428Y-107454819D01*
X165571428Y-107454819D02*
X165428571Y-107407200D01*
X165428571Y-107407200D02*
X165333333Y-107311961D01*
X165333333Y-107311961D02*
X165285714Y-107216723D01*
X165285714Y-107216723D02*
X165238095Y-107026247D01*
X165238095Y-107026247D02*
X165238095Y-106883390D01*
X165238095Y-106883390D02*
X165285714Y-106692914D01*
X165285714Y-106692914D02*
X165333333Y-106597676D01*
X165333333Y-106597676D02*
X165428571Y-106502438D01*
X165428571Y-106502438D02*
X165571428Y-106454819D01*
X165571428Y-106454819D02*
X165666666Y-106454819D01*
X165666666Y-106454819D02*
X165809523Y-106502438D01*
X165809523Y-106502438D02*
X165857142Y-106550057D01*
X166809523Y-107454819D02*
X166238095Y-107454819D01*
X166523809Y-107454819D02*
X166523809Y-106454819D01*
X166523809Y-106454819D02*
X166428571Y-106597676D01*
X166428571Y-106597676D02*
X166333333Y-106692914D01*
X166333333Y-106692914D02*
X166238095Y-106740533D01*
X167666666Y-106454819D02*
X167476190Y-106454819D01*
X167476190Y-106454819D02*
X167380952Y-106502438D01*
X167380952Y-106502438D02*
X167333333Y-106550057D01*
X167333333Y-106550057D02*
X167238095Y-106692914D01*
X167238095Y-106692914D02*
X167190476Y-106883390D01*
X167190476Y-106883390D02*
X167190476Y-107264342D01*
X167190476Y-107264342D02*
X167238095Y-107359580D01*
X167238095Y-107359580D02*
X167285714Y-107407200D01*
X167285714Y-107407200D02*
X167380952Y-107454819D01*
X167380952Y-107454819D02*
X167571428Y-107454819D01*
X167571428Y-107454819D02*
X167666666Y-107407200D01*
X167666666Y-107407200D02*
X167714285Y-107359580D01*
X167714285Y-107359580D02*
X167761904Y-107264342D01*
X167761904Y-107264342D02*
X167761904Y-107026247D01*
X167761904Y-107026247D02*
X167714285Y-106931009D01*
X167714285Y-106931009D02*
X167666666Y-106883390D01*
X167666666Y-106883390D02*
X167571428Y-106835771D01*
X167571428Y-106835771D02*
X167380952Y-106835771D01*
X167380952Y-106835771D02*
X167285714Y-106883390D01*
X167285714Y-106883390D02*
X167238095Y-106931009D01*
X167238095Y-106931009D02*
X167190476Y-107026247D01*
X112285714Y-68454819D02*
X112285714Y-67454819D01*
X112285714Y-67454819D02*
X112523809Y-67454819D01*
X112523809Y-67454819D02*
X112666666Y-67502438D01*
X112666666Y-67502438D02*
X112761904Y-67597676D01*
X112761904Y-67597676D02*
X112809523Y-67692914D01*
X112809523Y-67692914D02*
X112857142Y-67883390D01*
X112857142Y-67883390D02*
X112857142Y-68026247D01*
X112857142Y-68026247D02*
X112809523Y-68216723D01*
X112809523Y-68216723D02*
X112761904Y-68311961D01*
X112761904Y-68311961D02*
X112666666Y-68407200D01*
X112666666Y-68407200D02*
X112523809Y-68454819D01*
X112523809Y-68454819D02*
X112285714Y-68454819D01*
X113238095Y-67550057D02*
X113285714Y-67502438D01*
X113285714Y-67502438D02*
X113380952Y-67454819D01*
X113380952Y-67454819D02*
X113619047Y-67454819D01*
X113619047Y-67454819D02*
X113714285Y-67502438D01*
X113714285Y-67502438D02*
X113761904Y-67550057D01*
X113761904Y-67550057D02*
X113809523Y-67645295D01*
X113809523Y-67645295D02*
X113809523Y-67740533D01*
X113809523Y-67740533D02*
X113761904Y-67883390D01*
X113761904Y-67883390D02*
X113190476Y-68454819D01*
X113190476Y-68454819D02*
X113809523Y-68454819D01*
X114142857Y-67454819D02*
X114809523Y-67454819D01*
X114809523Y-67454819D02*
X114380952Y-68454819D01*
X113333333Y-40359580D02*
X113285714Y-40407200D01*
X113285714Y-40407200D02*
X113142857Y-40454819D01*
X113142857Y-40454819D02*
X113047619Y-40454819D01*
X113047619Y-40454819D02*
X112904762Y-40407200D01*
X112904762Y-40407200D02*
X112809524Y-40311961D01*
X112809524Y-40311961D02*
X112761905Y-40216723D01*
X112761905Y-40216723D02*
X112714286Y-40026247D01*
X112714286Y-40026247D02*
X112714286Y-39883390D01*
X112714286Y-39883390D02*
X112761905Y-39692914D01*
X112761905Y-39692914D02*
X112809524Y-39597676D01*
X112809524Y-39597676D02*
X112904762Y-39502438D01*
X112904762Y-39502438D02*
X113047619Y-39454819D01*
X113047619Y-39454819D02*
X113142857Y-39454819D01*
X113142857Y-39454819D02*
X113285714Y-39502438D01*
X113285714Y-39502438D02*
X113333333Y-39550057D01*
X114285714Y-40454819D02*
X113714286Y-40454819D01*
X114000000Y-40454819D02*
X114000000Y-39454819D01*
X114000000Y-39454819D02*
X113904762Y-39597676D01*
X113904762Y-39597676D02*
X113809524Y-39692914D01*
X113809524Y-39692914D02*
X113714286Y-39740533D01*
X105285714Y-104954819D02*
X105285714Y-103954819D01*
X105285714Y-103954819D02*
X105523809Y-103954819D01*
X105523809Y-103954819D02*
X105666666Y-104002438D01*
X105666666Y-104002438D02*
X105761904Y-104097676D01*
X105761904Y-104097676D02*
X105809523Y-104192914D01*
X105809523Y-104192914D02*
X105857142Y-104383390D01*
X105857142Y-104383390D02*
X105857142Y-104526247D01*
X105857142Y-104526247D02*
X105809523Y-104716723D01*
X105809523Y-104716723D02*
X105761904Y-104811961D01*
X105761904Y-104811961D02*
X105666666Y-104907200D01*
X105666666Y-104907200D02*
X105523809Y-104954819D01*
X105523809Y-104954819D02*
X105285714Y-104954819D01*
X106238095Y-104050057D02*
X106285714Y-104002438D01*
X106285714Y-104002438D02*
X106380952Y-103954819D01*
X106380952Y-103954819D02*
X106619047Y-103954819D01*
X106619047Y-103954819D02*
X106714285Y-104002438D01*
X106714285Y-104002438D02*
X106761904Y-104050057D01*
X106761904Y-104050057D02*
X106809523Y-104145295D01*
X106809523Y-104145295D02*
X106809523Y-104240533D01*
X106809523Y-104240533D02*
X106761904Y-104383390D01*
X106761904Y-104383390D02*
X106190476Y-104954819D01*
X106190476Y-104954819D02*
X106809523Y-104954819D01*
X107428571Y-103954819D02*
X107523809Y-103954819D01*
X107523809Y-103954819D02*
X107619047Y-104002438D01*
X107619047Y-104002438D02*
X107666666Y-104050057D01*
X107666666Y-104050057D02*
X107714285Y-104145295D01*
X107714285Y-104145295D02*
X107761904Y-104335771D01*
X107761904Y-104335771D02*
X107761904Y-104573866D01*
X107761904Y-104573866D02*
X107714285Y-104764342D01*
X107714285Y-104764342D02*
X107666666Y-104859580D01*
X107666666Y-104859580D02*
X107619047Y-104907200D01*
X107619047Y-104907200D02*
X107523809Y-104954819D01*
X107523809Y-104954819D02*
X107428571Y-104954819D01*
X107428571Y-104954819D02*
X107333333Y-104907200D01*
X107333333Y-104907200D02*
X107285714Y-104859580D01*
X107285714Y-104859580D02*
X107238095Y-104764342D01*
X107238095Y-104764342D02*
X107190476Y-104573866D01*
X107190476Y-104573866D02*
X107190476Y-104335771D01*
X107190476Y-104335771D02*
X107238095Y-104145295D01*
X107238095Y-104145295D02*
X107285714Y-104050057D01*
X107285714Y-104050057D02*
X107333333Y-104002438D01*
X107333333Y-104002438D02*
X107428571Y-103954819D01*
X112857142Y-132859580D02*
X112809523Y-132907200D01*
X112809523Y-132907200D02*
X112666666Y-132954819D01*
X112666666Y-132954819D02*
X112571428Y-132954819D01*
X112571428Y-132954819D02*
X112428571Y-132907200D01*
X112428571Y-132907200D02*
X112333333Y-132811961D01*
X112333333Y-132811961D02*
X112285714Y-132716723D01*
X112285714Y-132716723D02*
X112238095Y-132526247D01*
X112238095Y-132526247D02*
X112238095Y-132383390D01*
X112238095Y-132383390D02*
X112285714Y-132192914D01*
X112285714Y-132192914D02*
X112333333Y-132097676D01*
X112333333Y-132097676D02*
X112428571Y-132002438D01*
X112428571Y-132002438D02*
X112571428Y-131954819D01*
X112571428Y-131954819D02*
X112666666Y-131954819D01*
X112666666Y-131954819D02*
X112809523Y-132002438D01*
X112809523Y-132002438D02*
X112857142Y-132050057D01*
X113238095Y-132050057D02*
X113285714Y-132002438D01*
X113285714Y-132002438D02*
X113380952Y-131954819D01*
X113380952Y-131954819D02*
X113619047Y-131954819D01*
X113619047Y-131954819D02*
X113714285Y-132002438D01*
X113714285Y-132002438D02*
X113761904Y-132050057D01*
X113761904Y-132050057D02*
X113809523Y-132145295D01*
X113809523Y-132145295D02*
X113809523Y-132240533D01*
X113809523Y-132240533D02*
X113761904Y-132383390D01*
X113761904Y-132383390D02*
X113190476Y-132954819D01*
X113190476Y-132954819D02*
X113809523Y-132954819D01*
X114714285Y-131954819D02*
X114238095Y-131954819D01*
X114238095Y-131954819D02*
X114190476Y-132431009D01*
X114190476Y-132431009D02*
X114238095Y-132383390D01*
X114238095Y-132383390D02*
X114333333Y-132335771D01*
X114333333Y-132335771D02*
X114571428Y-132335771D01*
X114571428Y-132335771D02*
X114666666Y-132383390D01*
X114666666Y-132383390D02*
X114714285Y-132431009D01*
X114714285Y-132431009D02*
X114761904Y-132526247D01*
X114761904Y-132526247D02*
X114761904Y-132764342D01*
X114761904Y-132764342D02*
X114714285Y-132859580D01*
X114714285Y-132859580D02*
X114666666Y-132907200D01*
X114666666Y-132907200D02*
X114571428Y-132954819D01*
X114571428Y-132954819D02*
X114333333Y-132954819D01*
X114333333Y-132954819D02*
X114238095Y-132907200D01*
X114238095Y-132907200D02*
X114190476Y-132859580D01*
X159719642Y-110359580D02*
X159672023Y-110407200D01*
X159672023Y-110407200D02*
X159529166Y-110454819D01*
X159529166Y-110454819D02*
X159433928Y-110454819D01*
X159433928Y-110454819D02*
X159291071Y-110407200D01*
X159291071Y-110407200D02*
X159195833Y-110311961D01*
X159195833Y-110311961D02*
X159148214Y-110216723D01*
X159148214Y-110216723D02*
X159100595Y-110026247D01*
X159100595Y-110026247D02*
X159100595Y-109883390D01*
X159100595Y-109883390D02*
X159148214Y-109692914D01*
X159148214Y-109692914D02*
X159195833Y-109597676D01*
X159195833Y-109597676D02*
X159291071Y-109502438D01*
X159291071Y-109502438D02*
X159433928Y-109454819D01*
X159433928Y-109454819D02*
X159529166Y-109454819D01*
X159529166Y-109454819D02*
X159672023Y-109502438D01*
X159672023Y-109502438D02*
X159719642Y-109550057D01*
X160672023Y-110454819D02*
X160100595Y-110454819D01*
X160386309Y-110454819D02*
X160386309Y-109454819D01*
X160386309Y-109454819D02*
X160291071Y-109597676D01*
X160291071Y-109597676D02*
X160195833Y-109692914D01*
X160195833Y-109692914D02*
X160100595Y-109740533D01*
X161005357Y-109454819D02*
X161672023Y-109454819D01*
X161672023Y-109454819D02*
X161243452Y-110454819D01*
X170261905Y-101454819D02*
X170261905Y-100454819D01*
X170261905Y-100454819D02*
X170500000Y-100454819D01*
X170500000Y-100454819D02*
X170642857Y-100502438D01*
X170642857Y-100502438D02*
X170738095Y-100597676D01*
X170738095Y-100597676D02*
X170785714Y-100692914D01*
X170785714Y-100692914D02*
X170833333Y-100883390D01*
X170833333Y-100883390D02*
X170833333Y-101026247D01*
X170833333Y-101026247D02*
X170785714Y-101216723D01*
X170785714Y-101216723D02*
X170738095Y-101311961D01*
X170738095Y-101311961D02*
X170642857Y-101407200D01*
X170642857Y-101407200D02*
X170500000Y-101454819D01*
X170500000Y-101454819D02*
X170261905Y-101454819D01*
X171309524Y-101454819D02*
X171500000Y-101454819D01*
X171500000Y-101454819D02*
X171595238Y-101407200D01*
X171595238Y-101407200D02*
X171642857Y-101359580D01*
X171642857Y-101359580D02*
X171738095Y-101216723D01*
X171738095Y-101216723D02*
X171785714Y-101026247D01*
X171785714Y-101026247D02*
X171785714Y-100645295D01*
X171785714Y-100645295D02*
X171738095Y-100550057D01*
X171738095Y-100550057D02*
X171690476Y-100502438D01*
X171690476Y-100502438D02*
X171595238Y-100454819D01*
X171595238Y-100454819D02*
X171404762Y-100454819D01*
X171404762Y-100454819D02*
X171309524Y-100502438D01*
X171309524Y-100502438D02*
X171261905Y-100550057D01*
X171261905Y-100550057D02*
X171214286Y-100645295D01*
X171214286Y-100645295D02*
X171214286Y-100883390D01*
X171214286Y-100883390D02*
X171261905Y-100978628D01*
X171261905Y-100978628D02*
X171309524Y-101026247D01*
X171309524Y-101026247D02*
X171404762Y-101073866D01*
X171404762Y-101073866D02*
X171595238Y-101073866D01*
X171595238Y-101073866D02*
X171690476Y-101026247D01*
X171690476Y-101026247D02*
X171738095Y-100978628D01*
X171738095Y-100978628D02*
X171785714Y-100883390D01*
X142454819Y-68736904D02*
X143264342Y-68736904D01*
X143264342Y-68736904D02*
X143359580Y-68689285D01*
X143359580Y-68689285D02*
X143407200Y-68641666D01*
X143407200Y-68641666D02*
X143454819Y-68546428D01*
X143454819Y-68546428D02*
X143454819Y-68355952D01*
X143454819Y-68355952D02*
X143407200Y-68260714D01*
X143407200Y-68260714D02*
X143359580Y-68213095D01*
X143359580Y-68213095D02*
X143264342Y-68165476D01*
X143264342Y-68165476D02*
X142454819Y-68165476D01*
X142550057Y-67736904D02*
X142502438Y-67689285D01*
X142502438Y-67689285D02*
X142454819Y-67594047D01*
X142454819Y-67594047D02*
X142454819Y-67355952D01*
X142454819Y-67355952D02*
X142502438Y-67260714D01*
X142502438Y-67260714D02*
X142550057Y-67213095D01*
X142550057Y-67213095D02*
X142645295Y-67165476D01*
X142645295Y-67165476D02*
X142740533Y-67165476D01*
X142740533Y-67165476D02*
X142883390Y-67213095D01*
X142883390Y-67213095D02*
X143454819Y-67784523D01*
X143454819Y-67784523D02*
X143454819Y-67165476D01*
X112357142Y-106859580D02*
X112309523Y-106907200D01*
X112309523Y-106907200D02*
X112166666Y-106954819D01*
X112166666Y-106954819D02*
X112071428Y-106954819D01*
X112071428Y-106954819D02*
X111928571Y-106907200D01*
X111928571Y-106907200D02*
X111833333Y-106811961D01*
X111833333Y-106811961D02*
X111785714Y-106716723D01*
X111785714Y-106716723D02*
X111738095Y-106526247D01*
X111738095Y-106526247D02*
X111738095Y-106383390D01*
X111738095Y-106383390D02*
X111785714Y-106192914D01*
X111785714Y-106192914D02*
X111833333Y-106097676D01*
X111833333Y-106097676D02*
X111928571Y-106002438D01*
X111928571Y-106002438D02*
X112071428Y-105954819D01*
X112071428Y-105954819D02*
X112166666Y-105954819D01*
X112166666Y-105954819D02*
X112309523Y-106002438D01*
X112309523Y-106002438D02*
X112357142Y-106050057D01*
X112738095Y-106050057D02*
X112785714Y-106002438D01*
X112785714Y-106002438D02*
X112880952Y-105954819D01*
X112880952Y-105954819D02*
X113119047Y-105954819D01*
X113119047Y-105954819D02*
X113214285Y-106002438D01*
X113214285Y-106002438D02*
X113261904Y-106050057D01*
X113261904Y-106050057D02*
X113309523Y-106145295D01*
X113309523Y-106145295D02*
X113309523Y-106240533D01*
X113309523Y-106240533D02*
X113261904Y-106383390D01*
X113261904Y-106383390D02*
X112690476Y-106954819D01*
X112690476Y-106954819D02*
X113309523Y-106954819D01*
X113642857Y-105954819D02*
X114309523Y-105954819D01*
X114309523Y-105954819D02*
X113880952Y-106954819D01*
X168285714Y-136954819D02*
X168285714Y-135954819D01*
X168285714Y-135954819D02*
X168523809Y-135954819D01*
X168523809Y-135954819D02*
X168666666Y-136002438D01*
X168666666Y-136002438D02*
X168761904Y-136097676D01*
X168761904Y-136097676D02*
X168809523Y-136192914D01*
X168809523Y-136192914D02*
X168857142Y-136383390D01*
X168857142Y-136383390D02*
X168857142Y-136526247D01*
X168857142Y-136526247D02*
X168809523Y-136716723D01*
X168809523Y-136716723D02*
X168761904Y-136811961D01*
X168761904Y-136811961D02*
X168666666Y-136907200D01*
X168666666Y-136907200D02*
X168523809Y-136954819D01*
X168523809Y-136954819D02*
X168285714Y-136954819D01*
X169809523Y-136954819D02*
X169238095Y-136954819D01*
X169523809Y-136954819D02*
X169523809Y-135954819D01*
X169523809Y-135954819D02*
X169428571Y-136097676D01*
X169428571Y-136097676D02*
X169333333Y-136192914D01*
X169333333Y-136192914D02*
X169238095Y-136240533D01*
X170190476Y-136050057D02*
X170238095Y-136002438D01*
X170238095Y-136002438D02*
X170333333Y-135954819D01*
X170333333Y-135954819D02*
X170571428Y-135954819D01*
X170571428Y-135954819D02*
X170666666Y-136002438D01*
X170666666Y-136002438D02*
X170714285Y-136050057D01*
X170714285Y-136050057D02*
X170761904Y-136145295D01*
X170761904Y-136145295D02*
X170761904Y-136240533D01*
X170761904Y-136240533D02*
X170714285Y-136383390D01*
X170714285Y-136383390D02*
X170142857Y-136954819D01*
X170142857Y-136954819D02*
X170761904Y-136954819D01*
X122359580Y-143780357D02*
X122407200Y-143827976D01*
X122407200Y-143827976D02*
X122454819Y-143970833D01*
X122454819Y-143970833D02*
X122454819Y-144066071D01*
X122454819Y-144066071D02*
X122407200Y-144208928D01*
X122407200Y-144208928D02*
X122311961Y-144304166D01*
X122311961Y-144304166D02*
X122216723Y-144351785D01*
X122216723Y-144351785D02*
X122026247Y-144399404D01*
X122026247Y-144399404D02*
X121883390Y-144399404D01*
X121883390Y-144399404D02*
X121692914Y-144351785D01*
X121692914Y-144351785D02*
X121597676Y-144304166D01*
X121597676Y-144304166D02*
X121502438Y-144208928D01*
X121502438Y-144208928D02*
X121454819Y-144066071D01*
X121454819Y-144066071D02*
X121454819Y-143970833D01*
X121454819Y-143970833D02*
X121502438Y-143827976D01*
X121502438Y-143827976D02*
X121550057Y-143780357D01*
X121550057Y-143399404D02*
X121502438Y-143351785D01*
X121502438Y-143351785D02*
X121454819Y-143256547D01*
X121454819Y-143256547D02*
X121454819Y-143018452D01*
X121454819Y-143018452D02*
X121502438Y-142923214D01*
X121502438Y-142923214D02*
X121550057Y-142875595D01*
X121550057Y-142875595D02*
X121645295Y-142827976D01*
X121645295Y-142827976D02*
X121740533Y-142827976D01*
X121740533Y-142827976D02*
X121883390Y-142875595D01*
X121883390Y-142875595D02*
X122454819Y-143447023D01*
X122454819Y-143447023D02*
X122454819Y-142827976D01*
X121454819Y-142494642D02*
X121454819Y-141875595D01*
X121454819Y-141875595D02*
X121835771Y-142208928D01*
X121835771Y-142208928D02*
X121835771Y-142066071D01*
X121835771Y-142066071D02*
X121883390Y-141970833D01*
X121883390Y-141970833D02*
X121931009Y-141923214D01*
X121931009Y-141923214D02*
X122026247Y-141875595D01*
X122026247Y-141875595D02*
X122264342Y-141875595D01*
X122264342Y-141875595D02*
X122359580Y-141923214D01*
X122359580Y-141923214D02*
X122407200Y-141970833D01*
X122407200Y-141970833D02*
X122454819Y-142066071D01*
X122454819Y-142066071D02*
X122454819Y-142351785D01*
X122454819Y-142351785D02*
X122407200Y-142447023D01*
X122407200Y-142447023D02*
X122359580Y-142494642D01*
X134857142Y-81384819D02*
X134523809Y-80908628D01*
X134285714Y-81384819D02*
X134285714Y-80384819D01*
X134285714Y-80384819D02*
X134666666Y-80384819D01*
X134666666Y-80384819D02*
X134761904Y-80432438D01*
X134761904Y-80432438D02*
X134809523Y-80480057D01*
X134809523Y-80480057D02*
X134857142Y-80575295D01*
X134857142Y-80575295D02*
X134857142Y-80718152D01*
X134857142Y-80718152D02*
X134809523Y-80813390D01*
X134809523Y-80813390D02*
X134761904Y-80861009D01*
X134761904Y-80861009D02*
X134666666Y-80908628D01*
X134666666Y-80908628D02*
X134285714Y-80908628D01*
X135238095Y-80480057D02*
X135285714Y-80432438D01*
X135285714Y-80432438D02*
X135380952Y-80384819D01*
X135380952Y-80384819D02*
X135619047Y-80384819D01*
X135619047Y-80384819D02*
X135714285Y-80432438D01*
X135714285Y-80432438D02*
X135761904Y-80480057D01*
X135761904Y-80480057D02*
X135809523Y-80575295D01*
X135809523Y-80575295D02*
X135809523Y-80670533D01*
X135809523Y-80670533D02*
X135761904Y-80813390D01*
X135761904Y-80813390D02*
X135190476Y-81384819D01*
X135190476Y-81384819D02*
X135809523Y-81384819D01*
X136142857Y-80384819D02*
X136761904Y-80384819D01*
X136761904Y-80384819D02*
X136428571Y-80765771D01*
X136428571Y-80765771D02*
X136571428Y-80765771D01*
X136571428Y-80765771D02*
X136666666Y-80813390D01*
X136666666Y-80813390D02*
X136714285Y-80861009D01*
X136714285Y-80861009D02*
X136761904Y-80956247D01*
X136761904Y-80956247D02*
X136761904Y-81194342D01*
X136761904Y-81194342D02*
X136714285Y-81289580D01*
X136714285Y-81289580D02*
X136666666Y-81337200D01*
X136666666Y-81337200D02*
X136571428Y-81384819D01*
X136571428Y-81384819D02*
X136285714Y-81384819D01*
X136285714Y-81384819D02*
X136190476Y-81337200D01*
X136190476Y-81337200D02*
X136142857Y-81289580D01*
X144454819Y-76776785D02*
X143454819Y-76776785D01*
X143454819Y-76776785D02*
X143454819Y-76538690D01*
X143454819Y-76538690D02*
X143502438Y-76395833D01*
X143502438Y-76395833D02*
X143597676Y-76300595D01*
X143597676Y-76300595D02*
X143692914Y-76252976D01*
X143692914Y-76252976D02*
X143883390Y-76205357D01*
X143883390Y-76205357D02*
X144026247Y-76205357D01*
X144026247Y-76205357D02*
X144216723Y-76252976D01*
X144216723Y-76252976D02*
X144311961Y-76300595D01*
X144311961Y-76300595D02*
X144407200Y-76395833D01*
X144407200Y-76395833D02*
X144454819Y-76538690D01*
X144454819Y-76538690D02*
X144454819Y-76776785D01*
X143454819Y-75872023D02*
X143454819Y-75252976D01*
X143454819Y-75252976D02*
X143835771Y-75586309D01*
X143835771Y-75586309D02*
X143835771Y-75443452D01*
X143835771Y-75443452D02*
X143883390Y-75348214D01*
X143883390Y-75348214D02*
X143931009Y-75300595D01*
X143931009Y-75300595D02*
X144026247Y-75252976D01*
X144026247Y-75252976D02*
X144264342Y-75252976D01*
X144264342Y-75252976D02*
X144359580Y-75300595D01*
X144359580Y-75300595D02*
X144407200Y-75348214D01*
X144407200Y-75348214D02*
X144454819Y-75443452D01*
X144454819Y-75443452D02*
X144454819Y-75729166D01*
X144454819Y-75729166D02*
X144407200Y-75824404D01*
X144407200Y-75824404D02*
X144359580Y-75872023D01*
X143454819Y-74633928D02*
X143454819Y-74538690D01*
X143454819Y-74538690D02*
X143502438Y-74443452D01*
X143502438Y-74443452D02*
X143550057Y-74395833D01*
X143550057Y-74395833D02*
X143645295Y-74348214D01*
X143645295Y-74348214D02*
X143835771Y-74300595D01*
X143835771Y-74300595D02*
X144073866Y-74300595D01*
X144073866Y-74300595D02*
X144264342Y-74348214D01*
X144264342Y-74348214D02*
X144359580Y-74395833D01*
X144359580Y-74395833D02*
X144407200Y-74443452D01*
X144407200Y-74443452D02*
X144454819Y-74538690D01*
X144454819Y-74538690D02*
X144454819Y-74633928D01*
X144454819Y-74633928D02*
X144407200Y-74729166D01*
X144407200Y-74729166D02*
X144359580Y-74776785D01*
X144359580Y-74776785D02*
X144264342Y-74824404D01*
X144264342Y-74824404D02*
X144073866Y-74872023D01*
X144073866Y-74872023D02*
X143835771Y-74872023D01*
X143835771Y-74872023D02*
X143645295Y-74824404D01*
X143645295Y-74824404D02*
X143550057Y-74776785D01*
X143550057Y-74776785D02*
X143502438Y-74729166D01*
X143502438Y-74729166D02*
X143454819Y-74633928D01*
X137359580Y-68142857D02*
X137407200Y-68190476D01*
X137407200Y-68190476D02*
X137454819Y-68333333D01*
X137454819Y-68333333D02*
X137454819Y-68428571D01*
X137454819Y-68428571D02*
X137407200Y-68571428D01*
X137407200Y-68571428D02*
X137311961Y-68666666D01*
X137311961Y-68666666D02*
X137216723Y-68714285D01*
X137216723Y-68714285D02*
X137026247Y-68761904D01*
X137026247Y-68761904D02*
X136883390Y-68761904D01*
X136883390Y-68761904D02*
X136692914Y-68714285D01*
X136692914Y-68714285D02*
X136597676Y-68666666D01*
X136597676Y-68666666D02*
X136502438Y-68571428D01*
X136502438Y-68571428D02*
X136454819Y-68428571D01*
X136454819Y-68428571D02*
X136454819Y-68333333D01*
X136454819Y-68333333D02*
X136502438Y-68190476D01*
X136502438Y-68190476D02*
X136550057Y-68142857D01*
X137454819Y-67190476D02*
X137454819Y-67761904D01*
X137454819Y-67476190D02*
X136454819Y-67476190D01*
X136454819Y-67476190D02*
X136597676Y-67571428D01*
X136597676Y-67571428D02*
X136692914Y-67666666D01*
X136692914Y-67666666D02*
X136740533Y-67761904D01*
X136550057Y-66809523D02*
X136502438Y-66761904D01*
X136502438Y-66761904D02*
X136454819Y-66666666D01*
X136454819Y-66666666D02*
X136454819Y-66428571D01*
X136454819Y-66428571D02*
X136502438Y-66333333D01*
X136502438Y-66333333D02*
X136550057Y-66285714D01*
X136550057Y-66285714D02*
X136645295Y-66238095D01*
X136645295Y-66238095D02*
X136740533Y-66238095D01*
X136740533Y-66238095D02*
X136883390Y-66285714D01*
X136883390Y-66285714D02*
X137454819Y-66857142D01*
X137454819Y-66857142D02*
X137454819Y-66238095D01*
X144857142Y-63789580D02*
X144809523Y-63837200D01*
X144809523Y-63837200D02*
X144666666Y-63884819D01*
X144666666Y-63884819D02*
X144571428Y-63884819D01*
X144571428Y-63884819D02*
X144428571Y-63837200D01*
X144428571Y-63837200D02*
X144333333Y-63741961D01*
X144333333Y-63741961D02*
X144285714Y-63646723D01*
X144285714Y-63646723D02*
X144238095Y-63456247D01*
X144238095Y-63456247D02*
X144238095Y-63313390D01*
X144238095Y-63313390D02*
X144285714Y-63122914D01*
X144285714Y-63122914D02*
X144333333Y-63027676D01*
X144333333Y-63027676D02*
X144428571Y-62932438D01*
X144428571Y-62932438D02*
X144571428Y-62884819D01*
X144571428Y-62884819D02*
X144666666Y-62884819D01*
X144666666Y-62884819D02*
X144809523Y-62932438D01*
X144809523Y-62932438D02*
X144857142Y-62980057D01*
X145714285Y-63218152D02*
X145714285Y-63884819D01*
X145476190Y-62837200D02*
X145238095Y-63551485D01*
X145238095Y-63551485D02*
X145857142Y-63551485D01*
X146142857Y-62884819D02*
X146761904Y-62884819D01*
X146761904Y-62884819D02*
X146428571Y-63265771D01*
X146428571Y-63265771D02*
X146571428Y-63265771D01*
X146571428Y-63265771D02*
X146666666Y-63313390D01*
X146666666Y-63313390D02*
X146714285Y-63361009D01*
X146714285Y-63361009D02*
X146761904Y-63456247D01*
X146761904Y-63456247D02*
X146761904Y-63694342D01*
X146761904Y-63694342D02*
X146714285Y-63789580D01*
X146714285Y-63789580D02*
X146666666Y-63837200D01*
X146666666Y-63837200D02*
X146571428Y-63884819D01*
X146571428Y-63884819D02*
X146285714Y-63884819D01*
X146285714Y-63884819D02*
X146190476Y-63837200D01*
X146190476Y-63837200D02*
X146142857Y-63789580D01*
X104785714Y-143954819D02*
X104785714Y-142954819D01*
X104785714Y-142954819D02*
X105023809Y-142954819D01*
X105023809Y-142954819D02*
X105166666Y-143002438D01*
X105166666Y-143002438D02*
X105261904Y-143097676D01*
X105261904Y-143097676D02*
X105309523Y-143192914D01*
X105309523Y-143192914D02*
X105357142Y-143383390D01*
X105357142Y-143383390D02*
X105357142Y-143526247D01*
X105357142Y-143526247D02*
X105309523Y-143716723D01*
X105309523Y-143716723D02*
X105261904Y-143811961D01*
X105261904Y-143811961D02*
X105166666Y-143907200D01*
X105166666Y-143907200D02*
X105023809Y-143954819D01*
X105023809Y-143954819D02*
X104785714Y-143954819D01*
X106309523Y-143954819D02*
X105738095Y-143954819D01*
X106023809Y-143954819D02*
X106023809Y-142954819D01*
X106023809Y-142954819D02*
X105928571Y-143097676D01*
X105928571Y-143097676D02*
X105833333Y-143192914D01*
X105833333Y-143192914D02*
X105738095Y-143240533D01*
X106642857Y-142954819D02*
X107309523Y-142954819D01*
X107309523Y-142954819D02*
X106880952Y-143954819D01*
X135859580Y-76642857D02*
X135907200Y-76690476D01*
X135907200Y-76690476D02*
X135954819Y-76833333D01*
X135954819Y-76833333D02*
X135954819Y-76928571D01*
X135954819Y-76928571D02*
X135907200Y-77071428D01*
X135907200Y-77071428D02*
X135811961Y-77166666D01*
X135811961Y-77166666D02*
X135716723Y-77214285D01*
X135716723Y-77214285D02*
X135526247Y-77261904D01*
X135526247Y-77261904D02*
X135383390Y-77261904D01*
X135383390Y-77261904D02*
X135192914Y-77214285D01*
X135192914Y-77214285D02*
X135097676Y-77166666D01*
X135097676Y-77166666D02*
X135002438Y-77071428D01*
X135002438Y-77071428D02*
X134954819Y-76928571D01*
X134954819Y-76928571D02*
X134954819Y-76833333D01*
X134954819Y-76833333D02*
X135002438Y-76690476D01*
X135002438Y-76690476D02*
X135050057Y-76642857D01*
X135954819Y-75690476D02*
X135954819Y-76261904D01*
X135954819Y-75976190D02*
X134954819Y-75976190D01*
X134954819Y-75976190D02*
X135097676Y-76071428D01*
X135097676Y-76071428D02*
X135192914Y-76166666D01*
X135192914Y-76166666D02*
X135240533Y-76261904D01*
X134954819Y-75071428D02*
X134954819Y-74976190D01*
X134954819Y-74976190D02*
X135002438Y-74880952D01*
X135002438Y-74880952D02*
X135050057Y-74833333D01*
X135050057Y-74833333D02*
X135145295Y-74785714D01*
X135145295Y-74785714D02*
X135335771Y-74738095D01*
X135335771Y-74738095D02*
X135573866Y-74738095D01*
X135573866Y-74738095D02*
X135764342Y-74785714D01*
X135764342Y-74785714D02*
X135859580Y-74833333D01*
X135859580Y-74833333D02*
X135907200Y-74880952D01*
X135907200Y-74880952D02*
X135954819Y-74976190D01*
X135954819Y-74976190D02*
X135954819Y-75071428D01*
X135954819Y-75071428D02*
X135907200Y-75166666D01*
X135907200Y-75166666D02*
X135859580Y-75214285D01*
X135859580Y-75214285D02*
X135764342Y-75261904D01*
X135764342Y-75261904D02*
X135573866Y-75309523D01*
X135573866Y-75309523D02*
X135335771Y-75309523D01*
X135335771Y-75309523D02*
X135145295Y-75261904D01*
X135145295Y-75261904D02*
X135050057Y-75214285D01*
X135050057Y-75214285D02*
X135002438Y-75166666D01*
X135002438Y-75166666D02*
X134954819Y-75071428D01*
X168261905Y-68454819D02*
X168261905Y-67454819D01*
X168261905Y-67454819D02*
X168500000Y-67454819D01*
X168500000Y-67454819D02*
X168642857Y-67502438D01*
X168642857Y-67502438D02*
X168738095Y-67597676D01*
X168738095Y-67597676D02*
X168785714Y-67692914D01*
X168785714Y-67692914D02*
X168833333Y-67883390D01*
X168833333Y-67883390D02*
X168833333Y-68026247D01*
X168833333Y-68026247D02*
X168785714Y-68216723D01*
X168785714Y-68216723D02*
X168738095Y-68311961D01*
X168738095Y-68311961D02*
X168642857Y-68407200D01*
X168642857Y-68407200D02*
X168500000Y-68454819D01*
X168500000Y-68454819D02*
X168261905Y-68454819D01*
X169166667Y-67454819D02*
X169833333Y-67454819D01*
X169833333Y-67454819D02*
X169404762Y-68454819D01*
X159994642Y-123359580D02*
X159947023Y-123407200D01*
X159947023Y-123407200D02*
X159804166Y-123454819D01*
X159804166Y-123454819D02*
X159708928Y-123454819D01*
X159708928Y-123454819D02*
X159566071Y-123407200D01*
X159566071Y-123407200D02*
X159470833Y-123311961D01*
X159470833Y-123311961D02*
X159423214Y-123216723D01*
X159423214Y-123216723D02*
X159375595Y-123026247D01*
X159375595Y-123026247D02*
X159375595Y-122883390D01*
X159375595Y-122883390D02*
X159423214Y-122692914D01*
X159423214Y-122692914D02*
X159470833Y-122597676D01*
X159470833Y-122597676D02*
X159566071Y-122502438D01*
X159566071Y-122502438D02*
X159708928Y-122454819D01*
X159708928Y-122454819D02*
X159804166Y-122454819D01*
X159804166Y-122454819D02*
X159947023Y-122502438D01*
X159947023Y-122502438D02*
X159994642Y-122550057D01*
X160947023Y-123454819D02*
X160375595Y-123454819D01*
X160661309Y-123454819D02*
X160661309Y-122454819D01*
X160661309Y-122454819D02*
X160566071Y-122597676D01*
X160566071Y-122597676D02*
X160470833Y-122692914D01*
X160470833Y-122692914D02*
X160375595Y-122740533D01*
X161518452Y-122883390D02*
X161423214Y-122835771D01*
X161423214Y-122835771D02*
X161375595Y-122788152D01*
X161375595Y-122788152D02*
X161327976Y-122692914D01*
X161327976Y-122692914D02*
X161327976Y-122645295D01*
X161327976Y-122645295D02*
X161375595Y-122550057D01*
X161375595Y-122550057D02*
X161423214Y-122502438D01*
X161423214Y-122502438D02*
X161518452Y-122454819D01*
X161518452Y-122454819D02*
X161708928Y-122454819D01*
X161708928Y-122454819D02*
X161804166Y-122502438D01*
X161804166Y-122502438D02*
X161851785Y-122550057D01*
X161851785Y-122550057D02*
X161899404Y-122645295D01*
X161899404Y-122645295D02*
X161899404Y-122692914D01*
X161899404Y-122692914D02*
X161851785Y-122788152D01*
X161851785Y-122788152D02*
X161804166Y-122835771D01*
X161804166Y-122835771D02*
X161708928Y-122883390D01*
X161708928Y-122883390D02*
X161518452Y-122883390D01*
X161518452Y-122883390D02*
X161423214Y-122931009D01*
X161423214Y-122931009D02*
X161375595Y-122978628D01*
X161375595Y-122978628D02*
X161327976Y-123073866D01*
X161327976Y-123073866D02*
X161327976Y-123264342D01*
X161327976Y-123264342D02*
X161375595Y-123359580D01*
X161375595Y-123359580D02*
X161423214Y-123407200D01*
X161423214Y-123407200D02*
X161518452Y-123454819D01*
X161518452Y-123454819D02*
X161708928Y-123454819D01*
X161708928Y-123454819D02*
X161804166Y-123407200D01*
X161804166Y-123407200D02*
X161851785Y-123359580D01*
X161851785Y-123359580D02*
X161899404Y-123264342D01*
X161899404Y-123264342D02*
X161899404Y-123073866D01*
X161899404Y-123073866D02*
X161851785Y-122978628D01*
X161851785Y-122978628D02*
X161804166Y-122931009D01*
X161804166Y-122931009D02*
X161708928Y-122883390D01*
X113357142Y-144359580D02*
X113309523Y-144407200D01*
X113309523Y-144407200D02*
X113166666Y-144454819D01*
X113166666Y-144454819D02*
X113071428Y-144454819D01*
X113071428Y-144454819D02*
X112928571Y-144407200D01*
X112928571Y-144407200D02*
X112833333Y-144311961D01*
X112833333Y-144311961D02*
X112785714Y-144216723D01*
X112785714Y-144216723D02*
X112738095Y-144026247D01*
X112738095Y-144026247D02*
X112738095Y-143883390D01*
X112738095Y-143883390D02*
X112785714Y-143692914D01*
X112785714Y-143692914D02*
X112833333Y-143597676D01*
X112833333Y-143597676D02*
X112928571Y-143502438D01*
X112928571Y-143502438D02*
X113071428Y-143454819D01*
X113071428Y-143454819D02*
X113166666Y-143454819D01*
X113166666Y-143454819D02*
X113309523Y-143502438D01*
X113309523Y-143502438D02*
X113357142Y-143550057D01*
X113738095Y-143550057D02*
X113785714Y-143502438D01*
X113785714Y-143502438D02*
X113880952Y-143454819D01*
X113880952Y-143454819D02*
X114119047Y-143454819D01*
X114119047Y-143454819D02*
X114214285Y-143502438D01*
X114214285Y-143502438D02*
X114261904Y-143550057D01*
X114261904Y-143550057D02*
X114309523Y-143645295D01*
X114309523Y-143645295D02*
X114309523Y-143740533D01*
X114309523Y-143740533D02*
X114261904Y-143883390D01*
X114261904Y-143883390D02*
X113690476Y-144454819D01*
X113690476Y-144454819D02*
X114309523Y-144454819D01*
X115166666Y-143788152D02*
X115166666Y-144454819D01*
X114928571Y-143407200D02*
X114690476Y-144121485D01*
X114690476Y-144121485D02*
X115309523Y-144121485D01*
X131694819Y-56833333D02*
X132409104Y-56833333D01*
X132409104Y-56833333D02*
X132551961Y-56880952D01*
X132551961Y-56880952D02*
X132647200Y-56976190D01*
X132647200Y-56976190D02*
X132694819Y-57119047D01*
X132694819Y-57119047D02*
X132694819Y-57214285D01*
X132028152Y-55928571D02*
X132694819Y-55928571D01*
X131647200Y-56166666D02*
X132361485Y-56404761D01*
X132361485Y-56404761D02*
X132361485Y-55785714D01*
X122601009Y-78333333D02*
X122601009Y-78666666D01*
X123124819Y-78666666D02*
X122124819Y-78666666D01*
X122124819Y-78666666D02*
X122124819Y-78190476D01*
X122220057Y-77857142D02*
X122172438Y-77809523D01*
X122172438Y-77809523D02*
X122124819Y-77714285D01*
X122124819Y-77714285D02*
X122124819Y-77476190D01*
X122124819Y-77476190D02*
X122172438Y-77380952D01*
X122172438Y-77380952D02*
X122220057Y-77333333D01*
X122220057Y-77333333D02*
X122315295Y-77285714D01*
X122315295Y-77285714D02*
X122410533Y-77285714D01*
X122410533Y-77285714D02*
X122553390Y-77333333D01*
X122553390Y-77333333D02*
X123124819Y-77904761D01*
X123124819Y-77904761D02*
X123124819Y-77285714D01*
X123429580Y-73642857D02*
X123477200Y-73690476D01*
X123477200Y-73690476D02*
X123524819Y-73833333D01*
X123524819Y-73833333D02*
X123524819Y-73928571D01*
X123524819Y-73928571D02*
X123477200Y-74071428D01*
X123477200Y-74071428D02*
X123381961Y-74166666D01*
X123381961Y-74166666D02*
X123286723Y-74214285D01*
X123286723Y-74214285D02*
X123096247Y-74261904D01*
X123096247Y-74261904D02*
X122953390Y-74261904D01*
X122953390Y-74261904D02*
X122762914Y-74214285D01*
X122762914Y-74214285D02*
X122667676Y-74166666D01*
X122667676Y-74166666D02*
X122572438Y-74071428D01*
X122572438Y-74071428D02*
X122524819Y-73928571D01*
X122524819Y-73928571D02*
X122524819Y-73833333D01*
X122524819Y-73833333D02*
X122572438Y-73690476D01*
X122572438Y-73690476D02*
X122620057Y-73642857D01*
X123524819Y-72690476D02*
X123524819Y-73261904D01*
X123524819Y-72976190D02*
X122524819Y-72976190D01*
X122524819Y-72976190D02*
X122667676Y-73071428D01*
X122667676Y-73071428D02*
X122762914Y-73166666D01*
X122762914Y-73166666D02*
X122810533Y-73261904D01*
X122524819Y-71785714D02*
X122524819Y-72261904D01*
X122524819Y-72261904D02*
X123001009Y-72309523D01*
X123001009Y-72309523D02*
X122953390Y-72261904D01*
X122953390Y-72261904D02*
X122905771Y-72166666D01*
X122905771Y-72166666D02*
X122905771Y-71928571D01*
X122905771Y-71928571D02*
X122953390Y-71833333D01*
X122953390Y-71833333D02*
X123001009Y-71785714D01*
X123001009Y-71785714D02*
X123096247Y-71738095D01*
X123096247Y-71738095D02*
X123334342Y-71738095D01*
X123334342Y-71738095D02*
X123429580Y-71785714D01*
X123429580Y-71785714D02*
X123477200Y-71833333D01*
X123477200Y-71833333D02*
X123524819Y-71928571D01*
X123524819Y-71928571D02*
X123524819Y-72166666D01*
X123524819Y-72166666D02*
X123477200Y-72261904D01*
X123477200Y-72261904D02*
X123429580Y-72309523D01*
X153859580Y-145917857D02*
X153907200Y-145965476D01*
X153907200Y-145965476D02*
X153954819Y-146108333D01*
X153954819Y-146108333D02*
X153954819Y-146203571D01*
X153954819Y-146203571D02*
X153907200Y-146346428D01*
X153907200Y-146346428D02*
X153811961Y-146441666D01*
X153811961Y-146441666D02*
X153716723Y-146489285D01*
X153716723Y-146489285D02*
X153526247Y-146536904D01*
X153526247Y-146536904D02*
X153383390Y-146536904D01*
X153383390Y-146536904D02*
X153192914Y-146489285D01*
X153192914Y-146489285D02*
X153097676Y-146441666D01*
X153097676Y-146441666D02*
X153002438Y-146346428D01*
X153002438Y-146346428D02*
X152954819Y-146203571D01*
X152954819Y-146203571D02*
X152954819Y-146108333D01*
X152954819Y-146108333D02*
X153002438Y-145965476D01*
X153002438Y-145965476D02*
X153050057Y-145917857D01*
X153050057Y-145536904D02*
X153002438Y-145489285D01*
X153002438Y-145489285D02*
X152954819Y-145394047D01*
X152954819Y-145394047D02*
X152954819Y-145155952D01*
X152954819Y-145155952D02*
X153002438Y-145060714D01*
X153002438Y-145060714D02*
X153050057Y-145013095D01*
X153050057Y-145013095D02*
X153145295Y-144965476D01*
X153145295Y-144965476D02*
X153240533Y-144965476D01*
X153240533Y-144965476D02*
X153383390Y-145013095D01*
X153383390Y-145013095D02*
X153954819Y-145584523D01*
X153954819Y-145584523D02*
X153954819Y-144965476D01*
X152954819Y-144346428D02*
X152954819Y-144251190D01*
X152954819Y-144251190D02*
X153002438Y-144155952D01*
X153002438Y-144155952D02*
X153050057Y-144108333D01*
X153050057Y-144108333D02*
X153145295Y-144060714D01*
X153145295Y-144060714D02*
X153335771Y-144013095D01*
X153335771Y-144013095D02*
X153573866Y-144013095D01*
X153573866Y-144013095D02*
X153764342Y-144060714D01*
X153764342Y-144060714D02*
X153859580Y-144108333D01*
X153859580Y-144108333D02*
X153907200Y-144155952D01*
X153907200Y-144155952D02*
X153954819Y-144251190D01*
X153954819Y-144251190D02*
X153954819Y-144346428D01*
X153954819Y-144346428D02*
X153907200Y-144441666D01*
X153907200Y-144441666D02*
X153859580Y-144489285D01*
X153859580Y-144489285D02*
X153764342Y-144536904D01*
X153764342Y-144536904D02*
X153573866Y-144584523D01*
X153573866Y-144584523D02*
X153335771Y-144584523D01*
X153335771Y-144584523D02*
X153145295Y-144536904D01*
X153145295Y-144536904D02*
X153050057Y-144489285D01*
X153050057Y-144489285D02*
X153002438Y-144441666D01*
X153002438Y-144441666D02*
X152954819Y-144346428D01*
X121357142Y-52859580D02*
X121309523Y-52907200D01*
X121309523Y-52907200D02*
X121166666Y-52954819D01*
X121166666Y-52954819D02*
X121071428Y-52954819D01*
X121071428Y-52954819D02*
X120928571Y-52907200D01*
X120928571Y-52907200D02*
X120833333Y-52811961D01*
X120833333Y-52811961D02*
X120785714Y-52716723D01*
X120785714Y-52716723D02*
X120738095Y-52526247D01*
X120738095Y-52526247D02*
X120738095Y-52383390D01*
X120738095Y-52383390D02*
X120785714Y-52192914D01*
X120785714Y-52192914D02*
X120833333Y-52097676D01*
X120833333Y-52097676D02*
X120928571Y-52002438D01*
X120928571Y-52002438D02*
X121071428Y-51954819D01*
X121071428Y-51954819D02*
X121166666Y-51954819D01*
X121166666Y-51954819D02*
X121309523Y-52002438D01*
X121309523Y-52002438D02*
X121357142Y-52050057D01*
X122214285Y-52288152D02*
X122214285Y-52954819D01*
X121976190Y-51907200D02*
X121738095Y-52621485D01*
X121738095Y-52621485D02*
X122357142Y-52621485D01*
X122690476Y-52050057D02*
X122738095Y-52002438D01*
X122738095Y-52002438D02*
X122833333Y-51954819D01*
X122833333Y-51954819D02*
X123071428Y-51954819D01*
X123071428Y-51954819D02*
X123166666Y-52002438D01*
X123166666Y-52002438D02*
X123214285Y-52050057D01*
X123214285Y-52050057D02*
X123261904Y-52145295D01*
X123261904Y-52145295D02*
X123261904Y-52240533D01*
X123261904Y-52240533D02*
X123214285Y-52383390D01*
X123214285Y-52383390D02*
X122642857Y-52954819D01*
X122642857Y-52954819D02*
X123261904Y-52954819D01*
X135359580Y-143505357D02*
X135407200Y-143552976D01*
X135407200Y-143552976D02*
X135454819Y-143695833D01*
X135454819Y-143695833D02*
X135454819Y-143791071D01*
X135454819Y-143791071D02*
X135407200Y-143933928D01*
X135407200Y-143933928D02*
X135311961Y-144029166D01*
X135311961Y-144029166D02*
X135216723Y-144076785D01*
X135216723Y-144076785D02*
X135026247Y-144124404D01*
X135026247Y-144124404D02*
X134883390Y-144124404D01*
X134883390Y-144124404D02*
X134692914Y-144076785D01*
X134692914Y-144076785D02*
X134597676Y-144029166D01*
X134597676Y-144029166D02*
X134502438Y-143933928D01*
X134502438Y-143933928D02*
X134454819Y-143791071D01*
X134454819Y-143791071D02*
X134454819Y-143695833D01*
X134454819Y-143695833D02*
X134502438Y-143552976D01*
X134502438Y-143552976D02*
X134550057Y-143505357D01*
X134550057Y-143124404D02*
X134502438Y-143076785D01*
X134502438Y-143076785D02*
X134454819Y-142981547D01*
X134454819Y-142981547D02*
X134454819Y-142743452D01*
X134454819Y-142743452D02*
X134502438Y-142648214D01*
X134502438Y-142648214D02*
X134550057Y-142600595D01*
X134550057Y-142600595D02*
X134645295Y-142552976D01*
X134645295Y-142552976D02*
X134740533Y-142552976D01*
X134740533Y-142552976D02*
X134883390Y-142600595D01*
X134883390Y-142600595D02*
X135454819Y-143172023D01*
X135454819Y-143172023D02*
X135454819Y-142552976D01*
X134550057Y-142172023D02*
X134502438Y-142124404D01*
X134502438Y-142124404D02*
X134454819Y-142029166D01*
X134454819Y-142029166D02*
X134454819Y-141791071D01*
X134454819Y-141791071D02*
X134502438Y-141695833D01*
X134502438Y-141695833D02*
X134550057Y-141648214D01*
X134550057Y-141648214D02*
X134645295Y-141600595D01*
X134645295Y-141600595D02*
X134740533Y-141600595D01*
X134740533Y-141600595D02*
X134883390Y-141648214D01*
X134883390Y-141648214D02*
X135454819Y-142219642D01*
X135454819Y-142219642D02*
X135454819Y-141600595D01*
X127333333Y-57954819D02*
X127000000Y-57478628D01*
X126761905Y-57954819D02*
X126761905Y-56954819D01*
X126761905Y-56954819D02*
X127142857Y-56954819D01*
X127142857Y-56954819D02*
X127238095Y-57002438D01*
X127238095Y-57002438D02*
X127285714Y-57050057D01*
X127285714Y-57050057D02*
X127333333Y-57145295D01*
X127333333Y-57145295D02*
X127333333Y-57288152D01*
X127333333Y-57288152D02*
X127285714Y-57383390D01*
X127285714Y-57383390D02*
X127238095Y-57431009D01*
X127238095Y-57431009D02*
X127142857Y-57478628D01*
X127142857Y-57478628D02*
X126761905Y-57478628D01*
X127666667Y-56954819D02*
X128285714Y-56954819D01*
X128285714Y-56954819D02*
X127952381Y-57335771D01*
X127952381Y-57335771D02*
X128095238Y-57335771D01*
X128095238Y-57335771D02*
X128190476Y-57383390D01*
X128190476Y-57383390D02*
X128238095Y-57431009D01*
X128238095Y-57431009D02*
X128285714Y-57526247D01*
X128285714Y-57526247D02*
X128285714Y-57764342D01*
X128285714Y-57764342D02*
X128238095Y-57859580D01*
X128238095Y-57859580D02*
X128190476Y-57907200D01*
X128190476Y-57907200D02*
X128095238Y-57954819D01*
X128095238Y-57954819D02*
X127809524Y-57954819D01*
X127809524Y-57954819D02*
X127714286Y-57907200D01*
X127714286Y-57907200D02*
X127666667Y-57859580D01*
X121357142Y-60359580D02*
X121309523Y-60407200D01*
X121309523Y-60407200D02*
X121166666Y-60454819D01*
X121166666Y-60454819D02*
X121071428Y-60454819D01*
X121071428Y-60454819D02*
X120928571Y-60407200D01*
X120928571Y-60407200D02*
X120833333Y-60311961D01*
X120833333Y-60311961D02*
X120785714Y-60216723D01*
X120785714Y-60216723D02*
X120738095Y-60026247D01*
X120738095Y-60026247D02*
X120738095Y-59883390D01*
X120738095Y-59883390D02*
X120785714Y-59692914D01*
X120785714Y-59692914D02*
X120833333Y-59597676D01*
X120833333Y-59597676D02*
X120928571Y-59502438D01*
X120928571Y-59502438D02*
X121071428Y-59454819D01*
X121071428Y-59454819D02*
X121166666Y-59454819D01*
X121166666Y-59454819D02*
X121309523Y-59502438D01*
X121309523Y-59502438D02*
X121357142Y-59550057D01*
X121690476Y-59454819D02*
X122309523Y-59454819D01*
X122309523Y-59454819D02*
X121976190Y-59835771D01*
X121976190Y-59835771D02*
X122119047Y-59835771D01*
X122119047Y-59835771D02*
X122214285Y-59883390D01*
X122214285Y-59883390D02*
X122261904Y-59931009D01*
X122261904Y-59931009D02*
X122309523Y-60026247D01*
X122309523Y-60026247D02*
X122309523Y-60264342D01*
X122309523Y-60264342D02*
X122261904Y-60359580D01*
X122261904Y-60359580D02*
X122214285Y-60407200D01*
X122214285Y-60407200D02*
X122119047Y-60454819D01*
X122119047Y-60454819D02*
X121833333Y-60454819D01*
X121833333Y-60454819D02*
X121738095Y-60407200D01*
X121738095Y-60407200D02*
X121690476Y-60359580D01*
X122785714Y-60454819D02*
X122976190Y-60454819D01*
X122976190Y-60454819D02*
X123071428Y-60407200D01*
X123071428Y-60407200D02*
X123119047Y-60359580D01*
X123119047Y-60359580D02*
X123214285Y-60216723D01*
X123214285Y-60216723D02*
X123261904Y-60026247D01*
X123261904Y-60026247D02*
X123261904Y-59645295D01*
X123261904Y-59645295D02*
X123214285Y-59550057D01*
X123214285Y-59550057D02*
X123166666Y-59502438D01*
X123166666Y-59502438D02*
X123071428Y-59454819D01*
X123071428Y-59454819D02*
X122880952Y-59454819D01*
X122880952Y-59454819D02*
X122785714Y-59502438D01*
X122785714Y-59502438D02*
X122738095Y-59550057D01*
X122738095Y-59550057D02*
X122690476Y-59645295D01*
X122690476Y-59645295D02*
X122690476Y-59883390D01*
X122690476Y-59883390D02*
X122738095Y-59978628D01*
X122738095Y-59978628D02*
X122785714Y-60026247D01*
X122785714Y-60026247D02*
X122880952Y-60073866D01*
X122880952Y-60073866D02*
X123071428Y-60073866D01*
X123071428Y-60073866D02*
X123166666Y-60026247D01*
X123166666Y-60026247D02*
X123214285Y-59978628D01*
X123214285Y-59978628D02*
X123261904Y-59883390D01*
X114954819Y-90214285D02*
X113954819Y-90214285D01*
X113954819Y-90214285D02*
X113954819Y-89976190D01*
X113954819Y-89976190D02*
X114002438Y-89833333D01*
X114002438Y-89833333D02*
X114097676Y-89738095D01*
X114097676Y-89738095D02*
X114192914Y-89690476D01*
X114192914Y-89690476D02*
X114383390Y-89642857D01*
X114383390Y-89642857D02*
X114526247Y-89642857D01*
X114526247Y-89642857D02*
X114716723Y-89690476D01*
X114716723Y-89690476D02*
X114811961Y-89738095D01*
X114811961Y-89738095D02*
X114907200Y-89833333D01*
X114907200Y-89833333D02*
X114954819Y-89976190D01*
X114954819Y-89976190D02*
X114954819Y-90214285D01*
X114050057Y-89261904D02*
X114002438Y-89214285D01*
X114002438Y-89214285D02*
X113954819Y-89119047D01*
X113954819Y-89119047D02*
X113954819Y-88880952D01*
X113954819Y-88880952D02*
X114002438Y-88785714D01*
X114002438Y-88785714D02*
X114050057Y-88738095D01*
X114050057Y-88738095D02*
X114145295Y-88690476D01*
X114145295Y-88690476D02*
X114240533Y-88690476D01*
X114240533Y-88690476D02*
X114383390Y-88738095D01*
X114383390Y-88738095D02*
X114954819Y-89309523D01*
X114954819Y-89309523D02*
X114954819Y-88690476D01*
X114954819Y-87738095D02*
X114954819Y-88309523D01*
X114954819Y-88023809D02*
X113954819Y-88023809D01*
X113954819Y-88023809D02*
X114097676Y-88119047D01*
X114097676Y-88119047D02*
X114192914Y-88214285D01*
X114192914Y-88214285D02*
X114240533Y-88309523D01*
X168285714Y-110954819D02*
X168285714Y-109954819D01*
X168285714Y-109954819D02*
X168523809Y-109954819D01*
X168523809Y-109954819D02*
X168666666Y-110002438D01*
X168666666Y-110002438D02*
X168761904Y-110097676D01*
X168761904Y-110097676D02*
X168809523Y-110192914D01*
X168809523Y-110192914D02*
X168857142Y-110383390D01*
X168857142Y-110383390D02*
X168857142Y-110526247D01*
X168857142Y-110526247D02*
X168809523Y-110716723D01*
X168809523Y-110716723D02*
X168761904Y-110811961D01*
X168761904Y-110811961D02*
X168666666Y-110907200D01*
X168666666Y-110907200D02*
X168523809Y-110954819D01*
X168523809Y-110954819D02*
X168285714Y-110954819D01*
X169809523Y-110954819D02*
X169238095Y-110954819D01*
X169523809Y-110954819D02*
X169523809Y-109954819D01*
X169523809Y-109954819D02*
X169428571Y-110097676D01*
X169428571Y-110097676D02*
X169333333Y-110192914D01*
X169333333Y-110192914D02*
X169238095Y-110240533D01*
X170428571Y-109954819D02*
X170523809Y-109954819D01*
X170523809Y-109954819D02*
X170619047Y-110002438D01*
X170619047Y-110002438D02*
X170666666Y-110050057D01*
X170666666Y-110050057D02*
X170714285Y-110145295D01*
X170714285Y-110145295D02*
X170761904Y-110335771D01*
X170761904Y-110335771D02*
X170761904Y-110573866D01*
X170761904Y-110573866D02*
X170714285Y-110764342D01*
X170714285Y-110764342D02*
X170666666Y-110859580D01*
X170666666Y-110859580D02*
X170619047Y-110907200D01*
X170619047Y-110907200D02*
X170523809Y-110954819D01*
X170523809Y-110954819D02*
X170428571Y-110954819D01*
X170428571Y-110954819D02*
X170333333Y-110907200D01*
X170333333Y-110907200D02*
X170285714Y-110859580D01*
X170285714Y-110859580D02*
X170238095Y-110764342D01*
X170238095Y-110764342D02*
X170190476Y-110573866D01*
X170190476Y-110573866D02*
X170190476Y-110335771D01*
X170190476Y-110335771D02*
X170238095Y-110145295D01*
X170238095Y-110145295D02*
X170285714Y-110050057D01*
X170285714Y-110050057D02*
X170333333Y-110002438D01*
X170333333Y-110002438D02*
X170428571Y-109954819D01*
X148454819Y-153214285D02*
X147454819Y-153214285D01*
X147454819Y-153214285D02*
X147454819Y-152976190D01*
X147454819Y-152976190D02*
X147502438Y-152833333D01*
X147502438Y-152833333D02*
X147597676Y-152738095D01*
X147597676Y-152738095D02*
X147692914Y-152690476D01*
X147692914Y-152690476D02*
X147883390Y-152642857D01*
X147883390Y-152642857D02*
X148026247Y-152642857D01*
X148026247Y-152642857D02*
X148216723Y-152690476D01*
X148216723Y-152690476D02*
X148311961Y-152738095D01*
X148311961Y-152738095D02*
X148407200Y-152833333D01*
X148407200Y-152833333D02*
X148454819Y-152976190D01*
X148454819Y-152976190D02*
X148454819Y-153214285D01*
X148454819Y-151690476D02*
X148454819Y-152261904D01*
X148454819Y-151976190D02*
X147454819Y-151976190D01*
X147454819Y-151976190D02*
X147597676Y-152071428D01*
X147597676Y-152071428D02*
X147692914Y-152166666D01*
X147692914Y-152166666D02*
X147740533Y-152261904D01*
X147788152Y-150833333D02*
X148454819Y-150833333D01*
X147407200Y-151071428D02*
X148121485Y-151309523D01*
X148121485Y-151309523D02*
X148121485Y-150690476D01*
X154454819Y-90214285D02*
X153454819Y-90214285D01*
X153454819Y-90214285D02*
X153454819Y-89976190D01*
X153454819Y-89976190D02*
X153502438Y-89833333D01*
X153502438Y-89833333D02*
X153597676Y-89738095D01*
X153597676Y-89738095D02*
X153692914Y-89690476D01*
X153692914Y-89690476D02*
X153883390Y-89642857D01*
X153883390Y-89642857D02*
X154026247Y-89642857D01*
X154026247Y-89642857D02*
X154216723Y-89690476D01*
X154216723Y-89690476D02*
X154311961Y-89738095D01*
X154311961Y-89738095D02*
X154407200Y-89833333D01*
X154407200Y-89833333D02*
X154454819Y-89976190D01*
X154454819Y-89976190D02*
X154454819Y-90214285D01*
X153550057Y-89261904D02*
X153502438Y-89214285D01*
X153502438Y-89214285D02*
X153454819Y-89119047D01*
X153454819Y-89119047D02*
X153454819Y-88880952D01*
X153454819Y-88880952D02*
X153502438Y-88785714D01*
X153502438Y-88785714D02*
X153550057Y-88738095D01*
X153550057Y-88738095D02*
X153645295Y-88690476D01*
X153645295Y-88690476D02*
X153740533Y-88690476D01*
X153740533Y-88690476D02*
X153883390Y-88738095D01*
X153883390Y-88738095D02*
X154454819Y-89309523D01*
X154454819Y-89309523D02*
X154454819Y-88690476D01*
X153788152Y-87833333D02*
X154454819Y-87833333D01*
X153407200Y-88071428D02*
X154121485Y-88309523D01*
X154121485Y-88309523D02*
X154121485Y-87690476D01*
X146745833Y-79024819D02*
X146412500Y-78548628D01*
X146174405Y-79024819D02*
X146174405Y-78024819D01*
X146174405Y-78024819D02*
X146555357Y-78024819D01*
X146555357Y-78024819D02*
X146650595Y-78072438D01*
X146650595Y-78072438D02*
X146698214Y-78120057D01*
X146698214Y-78120057D02*
X146745833Y-78215295D01*
X146745833Y-78215295D02*
X146745833Y-78358152D01*
X146745833Y-78358152D02*
X146698214Y-78453390D01*
X146698214Y-78453390D02*
X146650595Y-78501009D01*
X146650595Y-78501009D02*
X146555357Y-78548628D01*
X146555357Y-78548628D02*
X146174405Y-78548628D01*
X147698214Y-79024819D02*
X147126786Y-79024819D01*
X147412500Y-79024819D02*
X147412500Y-78024819D01*
X147412500Y-78024819D02*
X147317262Y-78167676D01*
X147317262Y-78167676D02*
X147222024Y-78262914D01*
X147222024Y-78262914D02*
X147126786Y-78310533D01*
X160833333Y-54359580D02*
X160785714Y-54407200D01*
X160785714Y-54407200D02*
X160642857Y-54454819D01*
X160642857Y-54454819D02*
X160547619Y-54454819D01*
X160547619Y-54454819D02*
X160404762Y-54407200D01*
X160404762Y-54407200D02*
X160309524Y-54311961D01*
X160309524Y-54311961D02*
X160261905Y-54216723D01*
X160261905Y-54216723D02*
X160214286Y-54026247D01*
X160214286Y-54026247D02*
X160214286Y-53883390D01*
X160214286Y-53883390D02*
X160261905Y-53692914D01*
X160261905Y-53692914D02*
X160309524Y-53597676D01*
X160309524Y-53597676D02*
X160404762Y-53502438D01*
X160404762Y-53502438D02*
X160547619Y-53454819D01*
X160547619Y-53454819D02*
X160642857Y-53454819D01*
X160642857Y-53454819D02*
X160785714Y-53502438D01*
X160785714Y-53502438D02*
X160833333Y-53550057D01*
X161690476Y-53454819D02*
X161500000Y-53454819D01*
X161500000Y-53454819D02*
X161404762Y-53502438D01*
X161404762Y-53502438D02*
X161357143Y-53550057D01*
X161357143Y-53550057D02*
X161261905Y-53692914D01*
X161261905Y-53692914D02*
X161214286Y-53883390D01*
X161214286Y-53883390D02*
X161214286Y-54264342D01*
X161214286Y-54264342D02*
X161261905Y-54359580D01*
X161261905Y-54359580D02*
X161309524Y-54407200D01*
X161309524Y-54407200D02*
X161404762Y-54454819D01*
X161404762Y-54454819D02*
X161595238Y-54454819D01*
X161595238Y-54454819D02*
X161690476Y-54407200D01*
X161690476Y-54407200D02*
X161738095Y-54359580D01*
X161738095Y-54359580D02*
X161785714Y-54264342D01*
X161785714Y-54264342D02*
X161785714Y-54026247D01*
X161785714Y-54026247D02*
X161738095Y-53931009D01*
X161738095Y-53931009D02*
X161690476Y-53883390D01*
X161690476Y-53883390D02*
X161595238Y-53835771D01*
X161595238Y-53835771D02*
X161404762Y-53835771D01*
X161404762Y-53835771D02*
X161309524Y-53883390D01*
X161309524Y-53883390D02*
X161261905Y-53931009D01*
X161261905Y-53931009D02*
X161214286Y-54026247D01*
X127359580Y-98642857D02*
X127407200Y-98690476D01*
X127407200Y-98690476D02*
X127454819Y-98833333D01*
X127454819Y-98833333D02*
X127454819Y-98928571D01*
X127454819Y-98928571D02*
X127407200Y-99071428D01*
X127407200Y-99071428D02*
X127311961Y-99166666D01*
X127311961Y-99166666D02*
X127216723Y-99214285D01*
X127216723Y-99214285D02*
X127026247Y-99261904D01*
X127026247Y-99261904D02*
X126883390Y-99261904D01*
X126883390Y-99261904D02*
X126692914Y-99214285D01*
X126692914Y-99214285D02*
X126597676Y-99166666D01*
X126597676Y-99166666D02*
X126502438Y-99071428D01*
X126502438Y-99071428D02*
X126454819Y-98928571D01*
X126454819Y-98928571D02*
X126454819Y-98833333D01*
X126454819Y-98833333D02*
X126502438Y-98690476D01*
X126502438Y-98690476D02*
X126550057Y-98642857D01*
X126550057Y-98261904D02*
X126502438Y-98214285D01*
X126502438Y-98214285D02*
X126454819Y-98119047D01*
X126454819Y-98119047D02*
X126454819Y-97880952D01*
X126454819Y-97880952D02*
X126502438Y-97785714D01*
X126502438Y-97785714D02*
X126550057Y-97738095D01*
X126550057Y-97738095D02*
X126645295Y-97690476D01*
X126645295Y-97690476D02*
X126740533Y-97690476D01*
X126740533Y-97690476D02*
X126883390Y-97738095D01*
X126883390Y-97738095D02*
X127454819Y-98309523D01*
X127454819Y-98309523D02*
X127454819Y-97690476D01*
X127454819Y-97214285D02*
X127454819Y-97023809D01*
X127454819Y-97023809D02*
X127407200Y-96928571D01*
X127407200Y-96928571D02*
X127359580Y-96880952D01*
X127359580Y-96880952D02*
X127216723Y-96785714D01*
X127216723Y-96785714D02*
X127026247Y-96738095D01*
X127026247Y-96738095D02*
X126645295Y-96738095D01*
X126645295Y-96738095D02*
X126550057Y-96785714D01*
X126550057Y-96785714D02*
X126502438Y-96833333D01*
X126502438Y-96833333D02*
X126454819Y-96928571D01*
X126454819Y-96928571D02*
X126454819Y-97119047D01*
X126454819Y-97119047D02*
X126502438Y-97214285D01*
X126502438Y-97214285D02*
X126550057Y-97261904D01*
X126550057Y-97261904D02*
X126645295Y-97309523D01*
X126645295Y-97309523D02*
X126883390Y-97309523D01*
X126883390Y-97309523D02*
X126978628Y-97261904D01*
X126978628Y-97261904D02*
X127026247Y-97214285D01*
X127026247Y-97214285D02*
X127073866Y-97119047D01*
X127073866Y-97119047D02*
X127073866Y-96928571D01*
X127073866Y-96928571D02*
X127026247Y-96833333D01*
X127026247Y-96833333D02*
X126978628Y-96785714D01*
X126978628Y-96785714D02*
X126883390Y-96738095D01*
X123859580Y-93142857D02*
X123907200Y-93190476D01*
X123907200Y-93190476D02*
X123954819Y-93333333D01*
X123954819Y-93333333D02*
X123954819Y-93428571D01*
X123954819Y-93428571D02*
X123907200Y-93571428D01*
X123907200Y-93571428D02*
X123811961Y-93666666D01*
X123811961Y-93666666D02*
X123716723Y-93714285D01*
X123716723Y-93714285D02*
X123526247Y-93761904D01*
X123526247Y-93761904D02*
X123383390Y-93761904D01*
X123383390Y-93761904D02*
X123192914Y-93714285D01*
X123192914Y-93714285D02*
X123097676Y-93666666D01*
X123097676Y-93666666D02*
X123002438Y-93571428D01*
X123002438Y-93571428D02*
X122954819Y-93428571D01*
X122954819Y-93428571D02*
X122954819Y-93333333D01*
X122954819Y-93333333D02*
X123002438Y-93190476D01*
X123002438Y-93190476D02*
X123050057Y-93142857D01*
X123050057Y-92761904D02*
X123002438Y-92714285D01*
X123002438Y-92714285D02*
X122954819Y-92619047D01*
X122954819Y-92619047D02*
X122954819Y-92380952D01*
X122954819Y-92380952D02*
X123002438Y-92285714D01*
X123002438Y-92285714D02*
X123050057Y-92238095D01*
X123050057Y-92238095D02*
X123145295Y-92190476D01*
X123145295Y-92190476D02*
X123240533Y-92190476D01*
X123240533Y-92190476D02*
X123383390Y-92238095D01*
X123383390Y-92238095D02*
X123954819Y-92809523D01*
X123954819Y-92809523D02*
X123954819Y-92190476D01*
X123383390Y-91619047D02*
X123335771Y-91714285D01*
X123335771Y-91714285D02*
X123288152Y-91761904D01*
X123288152Y-91761904D02*
X123192914Y-91809523D01*
X123192914Y-91809523D02*
X123145295Y-91809523D01*
X123145295Y-91809523D02*
X123050057Y-91761904D01*
X123050057Y-91761904D02*
X123002438Y-91714285D01*
X123002438Y-91714285D02*
X122954819Y-91619047D01*
X122954819Y-91619047D02*
X122954819Y-91428571D01*
X122954819Y-91428571D02*
X123002438Y-91333333D01*
X123002438Y-91333333D02*
X123050057Y-91285714D01*
X123050057Y-91285714D02*
X123145295Y-91238095D01*
X123145295Y-91238095D02*
X123192914Y-91238095D01*
X123192914Y-91238095D02*
X123288152Y-91285714D01*
X123288152Y-91285714D02*
X123335771Y-91333333D01*
X123335771Y-91333333D02*
X123383390Y-91428571D01*
X123383390Y-91428571D02*
X123383390Y-91619047D01*
X123383390Y-91619047D02*
X123431009Y-91714285D01*
X123431009Y-91714285D02*
X123478628Y-91761904D01*
X123478628Y-91761904D02*
X123573866Y-91809523D01*
X123573866Y-91809523D02*
X123764342Y-91809523D01*
X123764342Y-91809523D02*
X123859580Y-91761904D01*
X123859580Y-91761904D02*
X123907200Y-91714285D01*
X123907200Y-91714285D02*
X123954819Y-91619047D01*
X123954819Y-91619047D02*
X123954819Y-91428571D01*
X123954819Y-91428571D02*
X123907200Y-91333333D01*
X123907200Y-91333333D02*
X123859580Y-91285714D01*
X123859580Y-91285714D02*
X123764342Y-91238095D01*
X123764342Y-91238095D02*
X123573866Y-91238095D01*
X123573866Y-91238095D02*
X123478628Y-91285714D01*
X123478628Y-91285714D02*
X123431009Y-91333333D01*
X123431009Y-91333333D02*
X123383390Y-91428571D01*
X166333333Y-50859580D02*
X166285714Y-50907200D01*
X166285714Y-50907200D02*
X166142857Y-50954819D01*
X166142857Y-50954819D02*
X166047619Y-50954819D01*
X166047619Y-50954819D02*
X165904762Y-50907200D01*
X165904762Y-50907200D02*
X165809524Y-50811961D01*
X165809524Y-50811961D02*
X165761905Y-50716723D01*
X165761905Y-50716723D02*
X165714286Y-50526247D01*
X165714286Y-50526247D02*
X165714286Y-50383390D01*
X165714286Y-50383390D02*
X165761905Y-50192914D01*
X165761905Y-50192914D02*
X165809524Y-50097676D01*
X165809524Y-50097676D02*
X165904762Y-50002438D01*
X165904762Y-50002438D02*
X166047619Y-49954819D01*
X166047619Y-49954819D02*
X166142857Y-49954819D01*
X166142857Y-49954819D02*
X166285714Y-50002438D01*
X166285714Y-50002438D02*
X166333333Y-50050057D01*
X167238095Y-49954819D02*
X166761905Y-49954819D01*
X166761905Y-49954819D02*
X166714286Y-50431009D01*
X166714286Y-50431009D02*
X166761905Y-50383390D01*
X166761905Y-50383390D02*
X166857143Y-50335771D01*
X166857143Y-50335771D02*
X167095238Y-50335771D01*
X167095238Y-50335771D02*
X167190476Y-50383390D01*
X167190476Y-50383390D02*
X167238095Y-50431009D01*
X167238095Y-50431009D02*
X167285714Y-50526247D01*
X167285714Y-50526247D02*
X167285714Y-50764342D01*
X167285714Y-50764342D02*
X167238095Y-50859580D01*
X167238095Y-50859580D02*
X167190476Y-50907200D01*
X167190476Y-50907200D02*
X167095238Y-50954819D01*
X167095238Y-50954819D02*
X166857143Y-50954819D01*
X166857143Y-50954819D02*
X166761905Y-50907200D01*
X166761905Y-50907200D02*
X166714286Y-50859580D01*
X121954819Y-153714285D02*
X120954819Y-153714285D01*
X120954819Y-153714285D02*
X120954819Y-153476190D01*
X120954819Y-153476190D02*
X121002438Y-153333333D01*
X121002438Y-153333333D02*
X121097676Y-153238095D01*
X121097676Y-153238095D02*
X121192914Y-153190476D01*
X121192914Y-153190476D02*
X121383390Y-153142857D01*
X121383390Y-153142857D02*
X121526247Y-153142857D01*
X121526247Y-153142857D02*
X121716723Y-153190476D01*
X121716723Y-153190476D02*
X121811961Y-153238095D01*
X121811961Y-153238095D02*
X121907200Y-153333333D01*
X121907200Y-153333333D02*
X121954819Y-153476190D01*
X121954819Y-153476190D02*
X121954819Y-153714285D01*
X121954819Y-152190476D02*
X121954819Y-152761904D01*
X121954819Y-152476190D02*
X120954819Y-152476190D01*
X120954819Y-152476190D02*
X121097676Y-152571428D01*
X121097676Y-152571428D02*
X121192914Y-152666666D01*
X121192914Y-152666666D02*
X121240533Y-152761904D01*
X120954819Y-151333333D02*
X120954819Y-151523809D01*
X120954819Y-151523809D02*
X121002438Y-151619047D01*
X121002438Y-151619047D02*
X121050057Y-151666666D01*
X121050057Y-151666666D02*
X121192914Y-151761904D01*
X121192914Y-151761904D02*
X121383390Y-151809523D01*
X121383390Y-151809523D02*
X121764342Y-151809523D01*
X121764342Y-151809523D02*
X121859580Y-151761904D01*
X121859580Y-151761904D02*
X121907200Y-151714285D01*
X121907200Y-151714285D02*
X121954819Y-151619047D01*
X121954819Y-151619047D02*
X121954819Y-151428571D01*
X121954819Y-151428571D02*
X121907200Y-151333333D01*
X121907200Y-151333333D02*
X121859580Y-151285714D01*
X121859580Y-151285714D02*
X121764342Y-151238095D01*
X121764342Y-151238095D02*
X121526247Y-151238095D01*
X121526247Y-151238095D02*
X121431009Y-151285714D01*
X121431009Y-151285714D02*
X121383390Y-151333333D01*
X121383390Y-151333333D02*
X121335771Y-151428571D01*
X121335771Y-151428571D02*
X121335771Y-151619047D01*
X121335771Y-151619047D02*
X121383390Y-151714285D01*
X121383390Y-151714285D02*
X121431009Y-151761904D01*
X121431009Y-151761904D02*
X121526247Y-151809523D01*
X140859580Y-98642857D02*
X140907200Y-98690476D01*
X140907200Y-98690476D02*
X140954819Y-98833333D01*
X140954819Y-98833333D02*
X140954819Y-98928571D01*
X140954819Y-98928571D02*
X140907200Y-99071428D01*
X140907200Y-99071428D02*
X140811961Y-99166666D01*
X140811961Y-99166666D02*
X140716723Y-99214285D01*
X140716723Y-99214285D02*
X140526247Y-99261904D01*
X140526247Y-99261904D02*
X140383390Y-99261904D01*
X140383390Y-99261904D02*
X140192914Y-99214285D01*
X140192914Y-99214285D02*
X140097676Y-99166666D01*
X140097676Y-99166666D02*
X140002438Y-99071428D01*
X140002438Y-99071428D02*
X139954819Y-98928571D01*
X139954819Y-98928571D02*
X139954819Y-98833333D01*
X139954819Y-98833333D02*
X140002438Y-98690476D01*
X140002438Y-98690476D02*
X140050057Y-98642857D01*
X139954819Y-98309523D02*
X139954819Y-97690476D01*
X139954819Y-97690476D02*
X140335771Y-98023809D01*
X140335771Y-98023809D02*
X140335771Y-97880952D01*
X140335771Y-97880952D02*
X140383390Y-97785714D01*
X140383390Y-97785714D02*
X140431009Y-97738095D01*
X140431009Y-97738095D02*
X140526247Y-97690476D01*
X140526247Y-97690476D02*
X140764342Y-97690476D01*
X140764342Y-97690476D02*
X140859580Y-97738095D01*
X140859580Y-97738095D02*
X140907200Y-97785714D01*
X140907200Y-97785714D02*
X140954819Y-97880952D01*
X140954819Y-97880952D02*
X140954819Y-98166666D01*
X140954819Y-98166666D02*
X140907200Y-98261904D01*
X140907200Y-98261904D02*
X140859580Y-98309523D01*
X139954819Y-97071428D02*
X139954819Y-96976190D01*
X139954819Y-96976190D02*
X140002438Y-96880952D01*
X140002438Y-96880952D02*
X140050057Y-96833333D01*
X140050057Y-96833333D02*
X140145295Y-96785714D01*
X140145295Y-96785714D02*
X140335771Y-96738095D01*
X140335771Y-96738095D02*
X140573866Y-96738095D01*
X140573866Y-96738095D02*
X140764342Y-96785714D01*
X140764342Y-96785714D02*
X140859580Y-96833333D01*
X140859580Y-96833333D02*
X140907200Y-96880952D01*
X140907200Y-96880952D02*
X140954819Y-96976190D01*
X140954819Y-96976190D02*
X140954819Y-97071428D01*
X140954819Y-97071428D02*
X140907200Y-97166666D01*
X140907200Y-97166666D02*
X140859580Y-97214285D01*
X140859580Y-97214285D02*
X140764342Y-97261904D01*
X140764342Y-97261904D02*
X140573866Y-97309523D01*
X140573866Y-97309523D02*
X140335771Y-97309523D01*
X140335771Y-97309523D02*
X140145295Y-97261904D01*
X140145295Y-97261904D02*
X140050057Y-97214285D01*
X140050057Y-97214285D02*
X140002438Y-97166666D01*
X140002438Y-97166666D02*
X139954819Y-97071428D01*
X160970833Y-80859580D02*
X160923214Y-80907200D01*
X160923214Y-80907200D02*
X160780357Y-80954819D01*
X160780357Y-80954819D02*
X160685119Y-80954819D01*
X160685119Y-80954819D02*
X160542262Y-80907200D01*
X160542262Y-80907200D02*
X160447024Y-80811961D01*
X160447024Y-80811961D02*
X160399405Y-80716723D01*
X160399405Y-80716723D02*
X160351786Y-80526247D01*
X160351786Y-80526247D02*
X160351786Y-80383390D01*
X160351786Y-80383390D02*
X160399405Y-80192914D01*
X160399405Y-80192914D02*
X160447024Y-80097676D01*
X160447024Y-80097676D02*
X160542262Y-80002438D01*
X160542262Y-80002438D02*
X160685119Y-79954819D01*
X160685119Y-79954819D02*
X160780357Y-79954819D01*
X160780357Y-79954819D02*
X160923214Y-80002438D01*
X160923214Y-80002438D02*
X160970833Y-80050057D01*
X161542262Y-80383390D02*
X161447024Y-80335771D01*
X161447024Y-80335771D02*
X161399405Y-80288152D01*
X161399405Y-80288152D02*
X161351786Y-80192914D01*
X161351786Y-80192914D02*
X161351786Y-80145295D01*
X161351786Y-80145295D02*
X161399405Y-80050057D01*
X161399405Y-80050057D02*
X161447024Y-80002438D01*
X161447024Y-80002438D02*
X161542262Y-79954819D01*
X161542262Y-79954819D02*
X161732738Y-79954819D01*
X161732738Y-79954819D02*
X161827976Y-80002438D01*
X161827976Y-80002438D02*
X161875595Y-80050057D01*
X161875595Y-80050057D02*
X161923214Y-80145295D01*
X161923214Y-80145295D02*
X161923214Y-80192914D01*
X161923214Y-80192914D02*
X161875595Y-80288152D01*
X161875595Y-80288152D02*
X161827976Y-80335771D01*
X161827976Y-80335771D02*
X161732738Y-80383390D01*
X161732738Y-80383390D02*
X161542262Y-80383390D01*
X161542262Y-80383390D02*
X161447024Y-80431009D01*
X161447024Y-80431009D02*
X161399405Y-80478628D01*
X161399405Y-80478628D02*
X161351786Y-80573866D01*
X161351786Y-80573866D02*
X161351786Y-80764342D01*
X161351786Y-80764342D02*
X161399405Y-80859580D01*
X161399405Y-80859580D02*
X161447024Y-80907200D01*
X161447024Y-80907200D02*
X161542262Y-80954819D01*
X161542262Y-80954819D02*
X161732738Y-80954819D01*
X161732738Y-80954819D02*
X161827976Y-80907200D01*
X161827976Y-80907200D02*
X161875595Y-80859580D01*
X161875595Y-80859580D02*
X161923214Y-80764342D01*
X161923214Y-80764342D02*
X161923214Y-80573866D01*
X161923214Y-80573866D02*
X161875595Y-80478628D01*
X161875595Y-80478628D02*
X161827976Y-80431009D01*
X161827976Y-80431009D02*
X161732738Y-80383390D01*
X168285714Y-123954819D02*
X168285714Y-122954819D01*
X168285714Y-122954819D02*
X168523809Y-122954819D01*
X168523809Y-122954819D02*
X168666666Y-123002438D01*
X168666666Y-123002438D02*
X168761904Y-123097676D01*
X168761904Y-123097676D02*
X168809523Y-123192914D01*
X168809523Y-123192914D02*
X168857142Y-123383390D01*
X168857142Y-123383390D02*
X168857142Y-123526247D01*
X168857142Y-123526247D02*
X168809523Y-123716723D01*
X168809523Y-123716723D02*
X168761904Y-123811961D01*
X168761904Y-123811961D02*
X168666666Y-123907200D01*
X168666666Y-123907200D02*
X168523809Y-123954819D01*
X168523809Y-123954819D02*
X168285714Y-123954819D01*
X169809523Y-123954819D02*
X169238095Y-123954819D01*
X169523809Y-123954819D02*
X169523809Y-122954819D01*
X169523809Y-122954819D02*
X169428571Y-123097676D01*
X169428571Y-123097676D02*
X169333333Y-123192914D01*
X169333333Y-123192914D02*
X169238095Y-123240533D01*
X170761904Y-123954819D02*
X170190476Y-123954819D01*
X170476190Y-123954819D02*
X170476190Y-122954819D01*
X170476190Y-122954819D02*
X170380952Y-123097676D01*
X170380952Y-123097676D02*
X170285714Y-123192914D01*
X170285714Y-123192914D02*
X170190476Y-123240533D01*
X134954819Y-153214285D02*
X133954819Y-153214285D01*
X133954819Y-153214285D02*
X133954819Y-152976190D01*
X133954819Y-152976190D02*
X134002438Y-152833333D01*
X134002438Y-152833333D02*
X134097676Y-152738095D01*
X134097676Y-152738095D02*
X134192914Y-152690476D01*
X134192914Y-152690476D02*
X134383390Y-152642857D01*
X134383390Y-152642857D02*
X134526247Y-152642857D01*
X134526247Y-152642857D02*
X134716723Y-152690476D01*
X134716723Y-152690476D02*
X134811961Y-152738095D01*
X134811961Y-152738095D02*
X134907200Y-152833333D01*
X134907200Y-152833333D02*
X134954819Y-152976190D01*
X134954819Y-152976190D02*
X134954819Y-153214285D01*
X134954819Y-151690476D02*
X134954819Y-152261904D01*
X134954819Y-151976190D02*
X133954819Y-151976190D01*
X133954819Y-151976190D02*
X134097676Y-152071428D01*
X134097676Y-152071428D02*
X134192914Y-152166666D01*
X134192914Y-152166666D02*
X134240533Y-152261904D01*
X133954819Y-150785714D02*
X133954819Y-151261904D01*
X133954819Y-151261904D02*
X134431009Y-151309523D01*
X134431009Y-151309523D02*
X134383390Y-151261904D01*
X134383390Y-151261904D02*
X134335771Y-151166666D01*
X134335771Y-151166666D02*
X134335771Y-150928571D01*
X134335771Y-150928571D02*
X134383390Y-150833333D01*
X134383390Y-150833333D02*
X134431009Y-150785714D01*
X134431009Y-150785714D02*
X134526247Y-150738095D01*
X134526247Y-150738095D02*
X134764342Y-150738095D01*
X134764342Y-150738095D02*
X134859580Y-150785714D01*
X134859580Y-150785714D02*
X134907200Y-150833333D01*
X134907200Y-150833333D02*
X134954819Y-150928571D01*
X134954819Y-150928571D02*
X134954819Y-151166666D01*
X134954819Y-151166666D02*
X134907200Y-151261904D01*
X134907200Y-151261904D02*
X134859580Y-151309523D01*
X153859580Y-98642857D02*
X153907200Y-98690476D01*
X153907200Y-98690476D02*
X153954819Y-98833333D01*
X153954819Y-98833333D02*
X153954819Y-98928571D01*
X153954819Y-98928571D02*
X153907200Y-99071428D01*
X153907200Y-99071428D02*
X153811961Y-99166666D01*
X153811961Y-99166666D02*
X153716723Y-99214285D01*
X153716723Y-99214285D02*
X153526247Y-99261904D01*
X153526247Y-99261904D02*
X153383390Y-99261904D01*
X153383390Y-99261904D02*
X153192914Y-99214285D01*
X153192914Y-99214285D02*
X153097676Y-99166666D01*
X153097676Y-99166666D02*
X153002438Y-99071428D01*
X153002438Y-99071428D02*
X152954819Y-98928571D01*
X152954819Y-98928571D02*
X152954819Y-98833333D01*
X152954819Y-98833333D02*
X153002438Y-98690476D01*
X153002438Y-98690476D02*
X153050057Y-98642857D01*
X152954819Y-98309523D02*
X152954819Y-97690476D01*
X152954819Y-97690476D02*
X153335771Y-98023809D01*
X153335771Y-98023809D02*
X153335771Y-97880952D01*
X153335771Y-97880952D02*
X153383390Y-97785714D01*
X153383390Y-97785714D02*
X153431009Y-97738095D01*
X153431009Y-97738095D02*
X153526247Y-97690476D01*
X153526247Y-97690476D02*
X153764342Y-97690476D01*
X153764342Y-97690476D02*
X153859580Y-97738095D01*
X153859580Y-97738095D02*
X153907200Y-97785714D01*
X153907200Y-97785714D02*
X153954819Y-97880952D01*
X153954819Y-97880952D02*
X153954819Y-98166666D01*
X153954819Y-98166666D02*
X153907200Y-98261904D01*
X153907200Y-98261904D02*
X153859580Y-98309523D01*
X153954819Y-96738095D02*
X153954819Y-97309523D01*
X153954819Y-97023809D02*
X152954819Y-97023809D01*
X152954819Y-97023809D02*
X153097676Y-97119047D01*
X153097676Y-97119047D02*
X153192914Y-97214285D01*
X153192914Y-97214285D02*
X153240533Y-97309523D01*
X152789580Y-68642857D02*
X152837200Y-68690476D01*
X152837200Y-68690476D02*
X152884819Y-68833333D01*
X152884819Y-68833333D02*
X152884819Y-68928571D01*
X152884819Y-68928571D02*
X152837200Y-69071428D01*
X152837200Y-69071428D02*
X152741961Y-69166666D01*
X152741961Y-69166666D02*
X152646723Y-69214285D01*
X152646723Y-69214285D02*
X152456247Y-69261904D01*
X152456247Y-69261904D02*
X152313390Y-69261904D01*
X152313390Y-69261904D02*
X152122914Y-69214285D01*
X152122914Y-69214285D02*
X152027676Y-69166666D01*
X152027676Y-69166666D02*
X151932438Y-69071428D01*
X151932438Y-69071428D02*
X151884819Y-68928571D01*
X151884819Y-68928571D02*
X151884819Y-68833333D01*
X151884819Y-68833333D02*
X151932438Y-68690476D01*
X151932438Y-68690476D02*
X151980057Y-68642857D01*
X151884819Y-68309523D02*
X151884819Y-67690476D01*
X151884819Y-67690476D02*
X152265771Y-68023809D01*
X152265771Y-68023809D02*
X152265771Y-67880952D01*
X152265771Y-67880952D02*
X152313390Y-67785714D01*
X152313390Y-67785714D02*
X152361009Y-67738095D01*
X152361009Y-67738095D02*
X152456247Y-67690476D01*
X152456247Y-67690476D02*
X152694342Y-67690476D01*
X152694342Y-67690476D02*
X152789580Y-67738095D01*
X152789580Y-67738095D02*
X152837200Y-67785714D01*
X152837200Y-67785714D02*
X152884819Y-67880952D01*
X152884819Y-67880952D02*
X152884819Y-68166666D01*
X152884819Y-68166666D02*
X152837200Y-68261904D01*
X152837200Y-68261904D02*
X152789580Y-68309523D01*
X152313390Y-67119047D02*
X152265771Y-67214285D01*
X152265771Y-67214285D02*
X152218152Y-67261904D01*
X152218152Y-67261904D02*
X152122914Y-67309523D01*
X152122914Y-67309523D02*
X152075295Y-67309523D01*
X152075295Y-67309523D02*
X151980057Y-67261904D01*
X151980057Y-67261904D02*
X151932438Y-67214285D01*
X151932438Y-67214285D02*
X151884819Y-67119047D01*
X151884819Y-67119047D02*
X151884819Y-66928571D01*
X151884819Y-66928571D02*
X151932438Y-66833333D01*
X151932438Y-66833333D02*
X151980057Y-66785714D01*
X151980057Y-66785714D02*
X152075295Y-66738095D01*
X152075295Y-66738095D02*
X152122914Y-66738095D01*
X152122914Y-66738095D02*
X152218152Y-66785714D01*
X152218152Y-66785714D02*
X152265771Y-66833333D01*
X152265771Y-66833333D02*
X152313390Y-66928571D01*
X152313390Y-66928571D02*
X152313390Y-67119047D01*
X152313390Y-67119047D02*
X152361009Y-67214285D01*
X152361009Y-67214285D02*
X152408628Y-67261904D01*
X152408628Y-67261904D02*
X152503866Y-67309523D01*
X152503866Y-67309523D02*
X152694342Y-67309523D01*
X152694342Y-67309523D02*
X152789580Y-67261904D01*
X152789580Y-67261904D02*
X152837200Y-67214285D01*
X152837200Y-67214285D02*
X152884819Y-67119047D01*
X152884819Y-67119047D02*
X152884819Y-66928571D01*
X152884819Y-66928571D02*
X152837200Y-66833333D01*
X152837200Y-66833333D02*
X152789580Y-66785714D01*
X152789580Y-66785714D02*
X152694342Y-66738095D01*
X152694342Y-66738095D02*
X152503866Y-66738095D01*
X152503866Y-66738095D02*
X152408628Y-66785714D01*
X152408628Y-66785714D02*
X152361009Y-66833333D01*
X152361009Y-66833333D02*
X152313390Y-66928571D01*
X138884819Y-76642857D02*
X138408628Y-76976190D01*
X138884819Y-77214285D02*
X137884819Y-77214285D01*
X137884819Y-77214285D02*
X137884819Y-76833333D01*
X137884819Y-76833333D02*
X137932438Y-76738095D01*
X137932438Y-76738095D02*
X137980057Y-76690476D01*
X137980057Y-76690476D02*
X138075295Y-76642857D01*
X138075295Y-76642857D02*
X138218152Y-76642857D01*
X138218152Y-76642857D02*
X138313390Y-76690476D01*
X138313390Y-76690476D02*
X138361009Y-76738095D01*
X138361009Y-76738095D02*
X138408628Y-76833333D01*
X138408628Y-76833333D02*
X138408628Y-77214285D01*
X137980057Y-76261904D02*
X137932438Y-76214285D01*
X137932438Y-76214285D02*
X137884819Y-76119047D01*
X137884819Y-76119047D02*
X137884819Y-75880952D01*
X137884819Y-75880952D02*
X137932438Y-75785714D01*
X137932438Y-75785714D02*
X137980057Y-75738095D01*
X137980057Y-75738095D02*
X138075295Y-75690476D01*
X138075295Y-75690476D02*
X138170533Y-75690476D01*
X138170533Y-75690476D02*
X138313390Y-75738095D01*
X138313390Y-75738095D02*
X138884819Y-76309523D01*
X138884819Y-76309523D02*
X138884819Y-75690476D01*
X138218152Y-74833333D02*
X138884819Y-74833333D01*
X137837200Y-75071428D02*
X138551485Y-75309523D01*
X138551485Y-75309523D02*
X138551485Y-74690476D01*
X141479819Y-57124404D02*
X142289342Y-57124404D01*
X142289342Y-57124404D02*
X142384580Y-57076785D01*
X142384580Y-57076785D02*
X142432200Y-57029166D01*
X142432200Y-57029166D02*
X142479819Y-56933928D01*
X142479819Y-56933928D02*
X142479819Y-56743452D01*
X142479819Y-56743452D02*
X142432200Y-56648214D01*
X142432200Y-56648214D02*
X142384580Y-56600595D01*
X142384580Y-56600595D02*
X142289342Y-56552976D01*
X142289342Y-56552976D02*
X141479819Y-56552976D01*
X142479819Y-55552976D02*
X142479819Y-56124404D01*
X142479819Y-55838690D02*
X141479819Y-55838690D01*
X141479819Y-55838690D02*
X141622676Y-55933928D01*
X141622676Y-55933928D02*
X141717914Y-56029166D01*
X141717914Y-56029166D02*
X141765533Y-56124404D01*
X127333333Y-60454819D02*
X127000000Y-59978628D01*
X126761905Y-60454819D02*
X126761905Y-59454819D01*
X126761905Y-59454819D02*
X127142857Y-59454819D01*
X127142857Y-59454819D02*
X127238095Y-59502438D01*
X127238095Y-59502438D02*
X127285714Y-59550057D01*
X127285714Y-59550057D02*
X127333333Y-59645295D01*
X127333333Y-59645295D02*
X127333333Y-59788152D01*
X127333333Y-59788152D02*
X127285714Y-59883390D01*
X127285714Y-59883390D02*
X127238095Y-59931009D01*
X127238095Y-59931009D02*
X127142857Y-59978628D01*
X127142857Y-59978628D02*
X126761905Y-59978628D01*
X127714286Y-59550057D02*
X127761905Y-59502438D01*
X127761905Y-59502438D02*
X127857143Y-59454819D01*
X127857143Y-59454819D02*
X128095238Y-59454819D01*
X128095238Y-59454819D02*
X128190476Y-59502438D01*
X128190476Y-59502438D02*
X128238095Y-59550057D01*
X128238095Y-59550057D02*
X128285714Y-59645295D01*
X128285714Y-59645295D02*
X128285714Y-59740533D01*
X128285714Y-59740533D02*
X128238095Y-59883390D01*
X128238095Y-59883390D02*
X127666667Y-60454819D01*
X127666667Y-60454819D02*
X128285714Y-60454819D01*
X168261905Y-54954819D02*
X168261905Y-53954819D01*
X168261905Y-53954819D02*
X168500000Y-53954819D01*
X168500000Y-53954819D02*
X168642857Y-54002438D01*
X168642857Y-54002438D02*
X168738095Y-54097676D01*
X168738095Y-54097676D02*
X168785714Y-54192914D01*
X168785714Y-54192914D02*
X168833333Y-54383390D01*
X168833333Y-54383390D02*
X168833333Y-54526247D01*
X168833333Y-54526247D02*
X168785714Y-54716723D01*
X168785714Y-54716723D02*
X168738095Y-54811961D01*
X168738095Y-54811961D02*
X168642857Y-54907200D01*
X168642857Y-54907200D02*
X168500000Y-54954819D01*
X168500000Y-54954819D02*
X168261905Y-54954819D01*
X169690476Y-53954819D02*
X169500000Y-53954819D01*
X169500000Y-53954819D02*
X169404762Y-54002438D01*
X169404762Y-54002438D02*
X169357143Y-54050057D01*
X169357143Y-54050057D02*
X169261905Y-54192914D01*
X169261905Y-54192914D02*
X169214286Y-54383390D01*
X169214286Y-54383390D02*
X169214286Y-54764342D01*
X169214286Y-54764342D02*
X169261905Y-54859580D01*
X169261905Y-54859580D02*
X169309524Y-54907200D01*
X169309524Y-54907200D02*
X169404762Y-54954819D01*
X169404762Y-54954819D02*
X169595238Y-54954819D01*
X169595238Y-54954819D02*
X169690476Y-54907200D01*
X169690476Y-54907200D02*
X169738095Y-54859580D01*
X169738095Y-54859580D02*
X169785714Y-54764342D01*
X169785714Y-54764342D02*
X169785714Y-54526247D01*
X169785714Y-54526247D02*
X169738095Y-54431009D01*
X169738095Y-54431009D02*
X169690476Y-54383390D01*
X169690476Y-54383390D02*
X169595238Y-54335771D01*
X169595238Y-54335771D02*
X169404762Y-54335771D01*
X169404762Y-54335771D02*
X169309524Y-54383390D01*
X169309524Y-54383390D02*
X169261905Y-54431009D01*
X169261905Y-54431009D02*
X169214286Y-54526247D01*
X127333333Y-55454819D02*
X127000000Y-54978628D01*
X126761905Y-55454819D02*
X126761905Y-54454819D01*
X126761905Y-54454819D02*
X127142857Y-54454819D01*
X127142857Y-54454819D02*
X127238095Y-54502438D01*
X127238095Y-54502438D02*
X127285714Y-54550057D01*
X127285714Y-54550057D02*
X127333333Y-54645295D01*
X127333333Y-54645295D02*
X127333333Y-54788152D01*
X127333333Y-54788152D02*
X127285714Y-54883390D01*
X127285714Y-54883390D02*
X127238095Y-54931009D01*
X127238095Y-54931009D02*
X127142857Y-54978628D01*
X127142857Y-54978628D02*
X126761905Y-54978628D01*
X128190476Y-54788152D02*
X128190476Y-55454819D01*
X127952381Y-54407200D02*
X127714286Y-55121485D01*
X127714286Y-55121485D02*
X128333333Y-55121485D01*
D11*
%TO.C,D18*%
X107500000Y-124300000D02*
X112500000Y-124300000D01*
X112500000Y-129700000D02*
X107500000Y-129700000D01*
X113240000Y-129830000D02*
X112760000Y-129830000D01*
X113000000Y-129500000D01*
X113240000Y-129830000D01*
G36*
X113240000Y-129830000D02*
G01*
X112760000Y-129830000D01*
X113000000Y-129500000D01*
X113240000Y-129830000D01*
G37*
%TO.C,C3*%
X139990000Y-38853733D02*
X139990000Y-39146267D01*
X141010000Y-38853733D02*
X141010000Y-39146267D01*
%TO.C,U8*%
X130000000Y-76940000D02*
X129200000Y-76940000D01*
X130000000Y-76940000D02*
X130800000Y-76940000D01*
X130000000Y-80060000D02*
X129200000Y-80060000D01*
X130000000Y-80060000D02*
X130800000Y-80060000D01*
X128700000Y-76990000D02*
X128460000Y-76660000D01*
X128940000Y-76660000D01*
X128700000Y-76990000D01*
G36*
X128700000Y-76990000D02*
G01*
X128460000Y-76660000D01*
X128940000Y-76660000D01*
X128700000Y-76990000D01*
G37*
%TO.C,D31*%
X129390000Y-122600000D02*
X129390000Y-128410000D01*
X129390000Y-128410000D02*
X132610000Y-128410000D01*
X132610000Y-128410000D02*
X132610000Y-122600000D01*
%TO.C,C21*%
X147990000Y-146646267D02*
X147990000Y-146353733D01*
X149010000Y-146646267D02*
X149010000Y-146353733D01*
%TO.C,D28*%
X107500000Y-81800000D02*
X112500000Y-81800000D01*
X112500000Y-87200000D02*
X107500000Y-87200000D01*
X107000000Y-82000000D02*
X106760000Y-81670000D01*
X107240000Y-81670000D01*
X107000000Y-82000000D01*
G36*
X107000000Y-82000000D02*
G01*
X106760000Y-81670000D01*
X107240000Y-81670000D01*
X107000000Y-82000000D01*
G37*
%TO.C,D1*%
X115300000Y-39500000D02*
X115300000Y-34500000D01*
X120700000Y-34500000D02*
X120700000Y-39500000D01*
X115500000Y-40000000D02*
X115170000Y-40240000D01*
X115170000Y-39760000D01*
X115500000Y-40000000D01*
G36*
X115500000Y-40000000D02*
G01*
X115170000Y-40240000D01*
X115170000Y-39760000D01*
X115500000Y-40000000D01*
G37*
%TO.C,C19*%
X164146267Y-135490000D02*
X163853733Y-135490000D01*
X164146267Y-136510000D02*
X163853733Y-136510000D01*
%TO.C,C35*%
X108146267Y-79990000D02*
X107853733Y-79990000D01*
X108146267Y-81010000D02*
X107853733Y-81010000D01*
%TO.C,D26*%
X107500000Y-55300000D02*
X112500000Y-55300000D01*
X112500000Y-60700000D02*
X107500000Y-60700000D01*
X107000000Y-55500000D02*
X106760000Y-55170000D01*
X107240000Y-55170000D01*
X107000000Y-55500000D01*
G36*
X107000000Y-55500000D02*
G01*
X106760000Y-55170000D01*
X107240000Y-55170000D01*
X107000000Y-55500000D01*
G37*
%TO.C,D5*%
X163500000Y-42300000D02*
X168500000Y-42300000D01*
X168500000Y-47700000D02*
X163500000Y-47700000D01*
X163000000Y-42500000D02*
X162760000Y-42170000D01*
X163240000Y-42170000D01*
X163000000Y-42500000D01*
G36*
X163000000Y-42500000D02*
G01*
X162760000Y-42170000D01*
X163240000Y-42170000D01*
X163000000Y-42500000D01*
G37*
%TO.C,C34*%
X108146267Y-66990000D02*
X107853733Y-66990000D01*
X108146267Y-68010000D02*
X107853733Y-68010000D01*
%TO.C,C13*%
X134490000Y-71146267D02*
X134490000Y-70853733D01*
X135510000Y-71146267D02*
X135510000Y-70853733D01*
%TO.C,C37*%
X137990000Y-55853733D02*
X137990000Y-56146267D01*
X139010000Y-55853733D02*
X139010000Y-56146267D01*
%TO.C,C2*%
X126490000Y-38853733D02*
X126490000Y-39146267D01*
X127510000Y-38853733D02*
X127510000Y-39146267D01*
%TO.C,L1*%
X127390000Y-69390000D02*
X127640000Y-69390000D01*
X127390000Y-74610000D02*
X127390000Y-69390000D01*
X127640000Y-74610000D02*
X127390000Y-74610000D01*
X132360000Y-69390000D02*
X132610000Y-69390000D01*
X132610000Y-69390000D02*
X132610000Y-74610000D01*
X132610000Y-74610000D02*
X132360000Y-74610000D01*
%TO.C,C4*%
X152990000Y-38853733D02*
X152990000Y-39146267D01*
X154010000Y-38853733D02*
X154010000Y-39146267D01*
%TO.C,D22*%
X128300000Y-95000000D02*
X128300000Y-90000000D01*
X133700000Y-90000000D02*
X133700000Y-95000000D01*
X128500000Y-95500000D02*
X128170000Y-95740000D01*
X128170000Y-95260000D01*
X128500000Y-95500000D01*
G36*
X128500000Y-95500000D02*
G01*
X128170000Y-95740000D01*
X128170000Y-95260000D01*
X128500000Y-95500000D01*
G37*
%TO.C,D13*%
X154800000Y-151000000D02*
X154800000Y-146000000D01*
X160200000Y-146000000D02*
X160200000Y-151000000D01*
X160330000Y-145740000D02*
X160000000Y-145500000D01*
X160330000Y-145260000D01*
X160330000Y-145740000D01*
G36*
X160330000Y-145740000D02*
G01*
X160000000Y-145500000D01*
X160330000Y-145260000D01*
X160330000Y-145740000D01*
G37*
%TO.C,C11*%
X138490000Y-70853733D02*
X138490000Y-71146267D01*
X139510000Y-70853733D02*
X139510000Y-71146267D01*
%TO.C,C40*%
X125333767Y-56990000D02*
X125041233Y-56990000D01*
X125333767Y-58010000D02*
X125041233Y-58010000D01*
%TO.C,D4*%
X154800000Y-39500000D02*
X154800000Y-34500000D01*
X160200000Y-34500000D02*
X160200000Y-39500000D01*
X155000000Y-40000000D02*
X154670000Y-40240000D01*
X154670000Y-39760000D01*
X155000000Y-40000000D01*
G36*
X155000000Y-40000000D02*
G01*
X154670000Y-40240000D01*
X154670000Y-39760000D01*
X155000000Y-40000000D01*
G37*
%TO.C,D29*%
X171422772Y-156178863D02*
X167826073Y-152705572D01*
X171577228Y-148821137D02*
X175173927Y-152294428D01*
X171480505Y-148547011D02*
X171078627Y-148617675D01*
X171135222Y-148213575D01*
X171480505Y-148547011D01*
G36*
X171480505Y-148547011D02*
G01*
X171078627Y-148617675D01*
X171135222Y-148213575D01*
X171480505Y-148547011D01*
G37*
%TO.C,C26*%
X111853733Y-117490000D02*
X112146267Y-117490000D01*
X111853733Y-118510000D02*
X112146267Y-118510000D01*
%TO.C,C32*%
X110146267Y-40490000D02*
X109853733Y-40490000D01*
X110146267Y-41510000D02*
X109853733Y-41510000D01*
%TO.C,D2*%
X128300000Y-39500000D02*
X128300000Y-34500000D01*
X133700000Y-34500000D02*
X133700000Y-39500000D01*
X128500000Y-40000000D02*
X128170000Y-40240000D01*
X128170000Y-39760000D01*
X128500000Y-40000000D01*
G36*
X128500000Y-40000000D02*
G01*
X128170000Y-40240000D01*
X128170000Y-39760000D01*
X128500000Y-40000000D01*
G37*
%TO.C,C36*%
X165353733Y-143490000D02*
X165646267Y-143490000D01*
X165353733Y-144510000D02*
X165646267Y-144510000D01*
%TO.C,D8*%
X163500000Y-81800000D02*
X168500000Y-81800000D01*
X168500000Y-87200000D02*
X163500000Y-87200000D01*
X163000000Y-82000000D02*
X162760000Y-81670000D01*
X163240000Y-81670000D01*
X163000000Y-82000000D01*
G36*
X163000000Y-82000000D02*
G01*
X162760000Y-81670000D01*
X163240000Y-81670000D01*
X163000000Y-82000000D01*
G37*
%TO.C,C7*%
X164146267Y-66990000D02*
X163853733Y-66990000D01*
X164146267Y-68010000D02*
X163853733Y-68010000D01*
%TO.C,C33*%
X108146267Y-53490000D02*
X107853733Y-53490000D01*
X108146267Y-54510000D02*
X107853733Y-54510000D01*
%TO.C,D23*%
X141800000Y-95000000D02*
X141800000Y-90000000D01*
X147200000Y-90000000D02*
X147200000Y-95000000D01*
X142000000Y-95500000D02*
X141670000Y-95740000D01*
X141670000Y-95260000D01*
X142000000Y-95500000D01*
G36*
X142000000Y-95500000D02*
G01*
X141670000Y-95740000D01*
X141670000Y-95260000D01*
X142000000Y-95500000D01*
G37*
%TO.C,R5*%
X130167224Y-51957500D02*
X129657776Y-51957500D01*
X130167224Y-53002500D02*
X129657776Y-53002500D01*
%TO.C,D19*%
X107500000Y-111300000D02*
X112500000Y-111300000D01*
X112500000Y-116700000D02*
X107500000Y-116700000D01*
X113240000Y-116830000D02*
X112760000Y-116830000D01*
X113000000Y-116500000D01*
X113240000Y-116830000D01*
G36*
X113240000Y-116830000D02*
G01*
X112760000Y-116830000D01*
X113000000Y-116500000D01*
X113240000Y-116830000D01*
G37*
%TO.C,C44*%
X123100000Y-109540000D02*
X124350000Y-109540000D01*
X123725000Y-108915000D02*
X123725000Y-110165000D01*
X124590000Y-107804437D02*
X124590000Y-110790000D01*
X124590000Y-107804437D02*
X125654437Y-106740000D01*
X124590000Y-116195563D02*
X124590000Y-113210000D01*
X124590000Y-116195563D02*
X125654437Y-117260000D01*
X125654437Y-106740000D02*
X135110000Y-106740000D01*
X125654437Y-117260000D02*
X135110000Y-117260000D01*
X135110000Y-106740000D02*
X135110000Y-110790000D01*
X135110000Y-117260000D02*
X135110000Y-113210000D01*
%TO.C,D25*%
X107500000Y-42300000D02*
X112500000Y-42300000D01*
X112500000Y-47700000D02*
X107500000Y-47700000D01*
X107000000Y-42500000D02*
X106760000Y-42170000D01*
X107240000Y-42170000D01*
X107000000Y-42500000D01*
G36*
X107000000Y-42500000D02*
G01*
X106760000Y-42170000D01*
X107240000Y-42170000D01*
X107000000Y-42500000D01*
G37*
%TO.C,D3*%
X141800000Y-39500000D02*
X141800000Y-34500000D01*
X147200000Y-34500000D02*
X147200000Y-39500000D01*
X142000000Y-40000000D02*
X141670000Y-40240000D01*
X141670000Y-39760000D01*
X142000000Y-40000000D01*
G36*
X142000000Y-40000000D02*
G01*
X141670000Y-40240000D01*
X141670000Y-39760000D01*
X142000000Y-40000000D01*
G37*
%TO.C,C41*%
X125333767Y-54480000D02*
X125041233Y-54480000D01*
X125333767Y-55500000D02*
X125041233Y-55500000D01*
%TO.C,C16*%
X166146267Y-104490000D02*
X165853733Y-104490000D01*
X166146267Y-105510000D02*
X165853733Y-105510000D01*
%TO.C,D27*%
X107500000Y-68800000D02*
X112500000Y-68800000D01*
X112500000Y-74200000D02*
X107500000Y-74200000D01*
X107000000Y-69000000D02*
X106760000Y-68670000D01*
X107240000Y-68670000D01*
X107000000Y-69000000D01*
G36*
X107000000Y-69000000D02*
G01*
X106760000Y-68670000D01*
X107240000Y-68670000D01*
X107000000Y-69000000D01*
G37*
%TO.C,C1*%
X113353733Y-37990000D02*
X113646267Y-37990000D01*
X113353733Y-39010000D02*
X113646267Y-39010000D01*
%TO.C,D20*%
X107500000Y-98300000D02*
X112500000Y-98300000D01*
X112500000Y-103700000D02*
X107500000Y-103700000D01*
X113240000Y-103830000D02*
X112760000Y-103830000D01*
X113000000Y-103500000D01*
X113240000Y-103830000D01*
G36*
X113240000Y-103830000D02*
G01*
X112760000Y-103830000D01*
X113000000Y-103500000D01*
X113240000Y-103830000D01*
G37*
%TO.C,C25*%
X111853733Y-130490000D02*
X112146267Y-130490000D01*
X111853733Y-131510000D02*
X112146267Y-131510000D01*
%TO.C,C17*%
X164008767Y-109490000D02*
X163716233Y-109490000D01*
X164008767Y-110510000D02*
X163716233Y-110510000D01*
%TO.C,D9*%
X163500000Y-98300000D02*
X168500000Y-98300000D01*
X168500000Y-103700000D02*
X163500000Y-103700000D01*
X163000000Y-98500000D02*
X162760000Y-98170000D01*
X163240000Y-98170000D01*
X163000000Y-98500000D01*
G36*
X163000000Y-98500000D02*
G01*
X162760000Y-98170000D01*
X163240000Y-98170000D01*
X163000000Y-98500000D01*
G37*
%TO.C,U2*%
X144075000Y-67975000D02*
X144075000Y-66025000D01*
X144075000Y-67975000D02*
X144075000Y-69925000D01*
X149195000Y-67975000D02*
X149195000Y-66025000D01*
X149195000Y-67975000D02*
X149195000Y-69925000D01*
X149430000Y-65515000D02*
X149100000Y-65275000D01*
X149430000Y-65035000D01*
X149430000Y-65515000D01*
G36*
X149430000Y-65515000D02*
G01*
X149100000Y-65275000D01*
X149430000Y-65035000D01*
X149430000Y-65515000D01*
G37*
%TO.C,C27*%
X111853733Y-104490000D02*
X112146267Y-104490000D01*
X111853733Y-105510000D02*
X112146267Y-105510000D01*
%TO.C,D12*%
X163500000Y-137300000D02*
X168500000Y-137300000D01*
X168500000Y-142700000D02*
X163500000Y-142700000D01*
X163000000Y-137500000D02*
X162760000Y-137170000D01*
X163240000Y-137170000D01*
X163000000Y-137500000D01*
G36*
X163000000Y-137500000D02*
G01*
X162760000Y-137170000D01*
X163240000Y-137170000D01*
X163000000Y-137500000D01*
G37*
%TO.C,C23*%
X121490000Y-146646267D02*
X121490000Y-146353733D01*
X122510000Y-146646267D02*
X122510000Y-146353733D01*
%TO.C,R23*%
X135754724Y-78977500D02*
X135245276Y-78977500D01*
X135754724Y-80022500D02*
X135245276Y-80022500D01*
%TO.C,D30*%
X145390000Y-75562500D02*
X145390000Y-74912500D01*
X145390000Y-75562500D02*
X145390000Y-76212500D01*
X148510000Y-75562500D02*
X148510000Y-74912500D01*
X148510000Y-75562500D02*
X148510000Y-76212500D01*
X145440000Y-76725000D02*
X145110000Y-76965000D01*
X145110000Y-76485000D01*
X145440000Y-76725000D01*
G36*
X145440000Y-76725000D02*
G01*
X145110000Y-76965000D01*
X145110000Y-76485000D01*
X145440000Y-76725000D01*
G37*
%TO.C,C12*%
X136490000Y-70853733D02*
X136490000Y-71146267D01*
X137510000Y-70853733D02*
X137510000Y-71146267D01*
%TO.C,C43*%
X145646267Y-61490000D02*
X145353733Y-61490000D01*
X145646267Y-62510000D02*
X145353733Y-62510000D01*
%TO.C,D17*%
X107500000Y-137300000D02*
X112500000Y-137300000D01*
X112500000Y-142700000D02*
X107500000Y-142700000D01*
X113240000Y-142830000D02*
X112760000Y-142830000D01*
X113000000Y-142500000D01*
X113240000Y-142830000D01*
G36*
X113240000Y-142830000D02*
G01*
X112760000Y-142830000D01*
X113000000Y-142500000D01*
X113240000Y-142830000D01*
G37*
%TO.C,C10*%
X133490000Y-76146267D02*
X133490000Y-75853733D01*
X134510000Y-76146267D02*
X134510000Y-75853733D01*
%TO.C,D7*%
X163500000Y-68800000D02*
X168500000Y-68800000D01*
X168500000Y-74200000D02*
X163500000Y-74200000D01*
X163000000Y-69000000D02*
X162760000Y-68670000D01*
X163240000Y-68670000D01*
X163000000Y-69000000D01*
G36*
X163000000Y-69000000D02*
G01*
X162760000Y-68670000D01*
X163240000Y-68670000D01*
X163000000Y-69000000D01*
G37*
%TO.C,C18*%
X164146267Y-122490000D02*
X163853733Y-122490000D01*
X164146267Y-123510000D02*
X163853733Y-123510000D01*
%TO.C,C24*%
X110853733Y-143490000D02*
X111146267Y-143490000D01*
X110853733Y-144510000D02*
X111146267Y-144510000D01*
%TO.C,J4*%
X133340000Y-52390000D02*
X133340000Y-60610000D01*
X133340000Y-60610000D02*
X136760000Y-60610000D01*
X133850000Y-52900000D02*
X133850000Y-56500000D01*
X133850000Y-60100000D02*
X133850000Y-56500000D01*
X134700000Y-52700000D02*
X134700000Y-52900000D01*
X134700000Y-52900000D02*
X133850000Y-52900000D01*
X134700000Y-60100000D02*
X133850000Y-60100000D01*
X134700000Y-60300000D02*
X134700000Y-60100000D01*
X135500000Y-52700000D02*
X134700000Y-52700000D01*
X135500000Y-52900000D02*
X135500000Y-52700000D01*
X135500000Y-60100000D02*
X135500000Y-60300000D01*
X135500000Y-60300000D02*
X134700000Y-60300000D01*
X136250000Y-52900000D02*
X135500000Y-52900000D01*
X136250000Y-56500000D02*
X136250000Y-52900000D01*
X136250000Y-56500000D02*
X136250000Y-60100000D01*
X136250000Y-60100000D02*
X135500000Y-60100000D01*
X136760000Y-52390000D02*
X133340000Y-52390000D01*
X136760000Y-60610000D02*
X136760000Y-52390000D01*
X137050000Y-60900000D02*
X136050000Y-60900000D01*
X137050000Y-60900000D02*
X137050000Y-59900000D01*
%TO.C,F2*%
X123590000Y-78602064D02*
X123590000Y-77397936D01*
X125410000Y-78602064D02*
X125410000Y-77397936D01*
%TO.C,C15*%
X123990000Y-73146267D02*
X123990000Y-72853733D01*
X125010000Y-73146267D02*
X125010000Y-72853733D01*
%TO.C,C20*%
X152990000Y-148783767D02*
X152990000Y-148491233D01*
X154010000Y-148783767D02*
X154010000Y-148491233D01*
%TO.C,C42*%
X125333767Y-51970000D02*
X125041233Y-51970000D01*
X125333767Y-52990000D02*
X125041233Y-52990000D01*
%TO.C,C22*%
X134490000Y-146508767D02*
X134490000Y-146216233D01*
X135510000Y-146508767D02*
X135510000Y-146216233D01*
%TO.C,R3*%
X130167224Y-56977500D02*
X129657776Y-56977500D01*
X130167224Y-58022500D02*
X129657776Y-58022500D01*
%TO.C,C39*%
X125333767Y-59500000D02*
X125041233Y-59500000D01*
X125333767Y-60520000D02*
X125041233Y-60520000D01*
%TO.C,D21*%
X115300000Y-95000000D02*
X115300000Y-90000000D01*
X120700000Y-90000000D02*
X120700000Y-95000000D01*
X115500000Y-95500000D02*
X115170000Y-95740000D01*
X115170000Y-95260000D01*
X115500000Y-95500000D01*
G36*
X115500000Y-95500000D02*
G01*
X115170000Y-95740000D01*
X115170000Y-95260000D01*
X115500000Y-95500000D01*
G37*
%TO.C,D10*%
X163500000Y-111300000D02*
X168500000Y-111300000D01*
X168500000Y-116700000D02*
X163500000Y-116700000D01*
X163000000Y-111500000D02*
X162760000Y-111170000D01*
X163240000Y-111170000D01*
X163000000Y-111500000D01*
G36*
X163000000Y-111500000D02*
G01*
X162760000Y-111170000D01*
X163240000Y-111170000D01*
X163000000Y-111500000D01*
G37*
%TO.C,D14*%
X141800000Y-151000000D02*
X141800000Y-146000000D01*
X147200000Y-146000000D02*
X147200000Y-151000000D01*
X147330000Y-145740000D02*
X147000000Y-145500000D01*
X147330000Y-145260000D01*
X147330000Y-145740000D01*
G36*
X147330000Y-145740000D02*
G01*
X147000000Y-145500000D01*
X147330000Y-145260000D01*
X147330000Y-145740000D01*
G37*
%TO.C,D24*%
X154800000Y-95000000D02*
X154800000Y-90000000D01*
X160200000Y-90000000D02*
X160200000Y-95000000D01*
X155000000Y-95500000D02*
X154670000Y-95740000D01*
X154670000Y-95260000D01*
X155000000Y-95500000D01*
G36*
X155000000Y-95500000D02*
G01*
X154670000Y-95740000D01*
X154670000Y-95260000D01*
X155000000Y-95500000D01*
G37*
%TO.C,R1*%
X146657776Y-79477500D02*
X147167224Y-79477500D01*
X146657776Y-80522500D02*
X147167224Y-80522500D01*
%TO.C,C6*%
X164008767Y-53490000D02*
X163716233Y-53490000D01*
X164008767Y-54510000D02*
X163716233Y-54510000D01*
%TO.C,C29*%
X126490000Y-94353733D02*
X126490000Y-94646267D01*
X127510000Y-94353733D02*
X127510000Y-94646267D01*
%TO.C,C28*%
X121490000Y-92353733D02*
X121490000Y-92646267D01*
X122510000Y-92353733D02*
X122510000Y-92646267D01*
%TO.C,C5*%
X166146267Y-48490000D02*
X165853733Y-48490000D01*
X166146267Y-49510000D02*
X165853733Y-49510000D01*
%TO.C,D16*%
X115300000Y-151000000D02*
X115300000Y-146000000D01*
X120700000Y-146000000D02*
X120700000Y-151000000D01*
X120830000Y-145740000D02*
X120500000Y-145500000D01*
X120830000Y-145260000D01*
X120830000Y-145740000D01*
G36*
X120830000Y-145740000D02*
G01*
X120500000Y-145500000D01*
X120830000Y-145260000D01*
X120830000Y-145740000D01*
G37*
%TO.C,C30*%
X139990000Y-94353733D02*
X139990000Y-94646267D01*
X141010000Y-94353733D02*
X141010000Y-94646267D01*
%TO.C,C8*%
X164146267Y-79990000D02*
X163853733Y-79990000D01*
X164146267Y-81010000D02*
X163853733Y-81010000D01*
%TO.C,D11*%
X163500000Y-124300000D02*
X168500000Y-124300000D01*
X168500000Y-129700000D02*
X163500000Y-129700000D01*
X163000000Y-124500000D02*
X162760000Y-124170000D01*
X163240000Y-124170000D01*
X163000000Y-124500000D01*
G36*
X163000000Y-124500000D02*
G01*
X162760000Y-124170000D01*
X163240000Y-124170000D01*
X163000000Y-124500000D01*
G37*
%TO.C,D15*%
X128300000Y-151000000D02*
X128300000Y-146000000D01*
X133700000Y-146000000D02*
X133700000Y-151000000D01*
X133830000Y-145740000D02*
X133500000Y-145500000D01*
X133830000Y-145260000D01*
X133830000Y-145740000D01*
G36*
X133830000Y-145740000D02*
G01*
X133500000Y-145500000D01*
X133830000Y-145260000D01*
X133830000Y-145740000D01*
G37*
%TO.C,C31*%
X152990000Y-94353733D02*
X152990000Y-94646267D01*
X154010000Y-94353733D02*
X154010000Y-94646267D01*
%TO.C,C38*%
X150490000Y-67853733D02*
X150490000Y-68146267D01*
X151510000Y-67853733D02*
X151510000Y-68146267D01*
%TO.C,R24*%
X136477500Y-75745276D02*
X136477500Y-76254724D01*
X137522500Y-75745276D02*
X137522500Y-76254724D01*
%TO.C,U1*%
X142840000Y-56362500D02*
X142840000Y-54162500D01*
X142840000Y-56362500D02*
X142840000Y-58562500D01*
X149610000Y-56362500D02*
X149610000Y-54162500D01*
X149610000Y-56362500D02*
X149610000Y-58562500D01*
X143540000Y-60552500D02*
X143060000Y-60552500D01*
X143300000Y-60222500D01*
X143540000Y-60552500D01*
G36*
X143540000Y-60552500D02*
G01*
X143060000Y-60552500D01*
X143300000Y-60222500D01*
X143540000Y-60552500D01*
G37*
%TO.C,R2*%
X130167224Y-59487500D02*
X129657776Y-59487500D01*
X130167224Y-60532500D02*
X129657776Y-60532500D01*
%TO.C,D6*%
X163500000Y-55300000D02*
X168500000Y-55300000D01*
X168500000Y-60700000D02*
X163500000Y-60700000D01*
X163000000Y-55500000D02*
X162760000Y-55170000D01*
X163240000Y-55170000D01*
X163000000Y-55500000D01*
G36*
X163000000Y-55500000D02*
G01*
X162760000Y-55170000D01*
X163240000Y-55170000D01*
X163000000Y-55500000D01*
G37*
%TO.C,R4*%
X130167224Y-54467500D02*
X129657776Y-54467500D01*
X130167224Y-55512500D02*
X129657776Y-55512500D01*
%TD*%
M02*
