%TF.GenerationSoftware,KiCad,Pcbnew,9.0.6+1*%
%TF.CreationDate,2026-02-07T00:07:08+00:00*%
%TF.ProjectId,LED7SEG02,4c454437-5345-4473-9032-2e6b69636164,rev?*%
%TF.SameCoordinates,Original*%
%TF.FileFunction,Paste,Top*%
%TF.FilePolarity,Positive*%
%FSLAX46Y46*%
G04 Gerber Fmt 4.6, Leading zero omitted, Abs format (unit mm)*
G04 Created by KiCad (PCBNEW 9.0.6+1) date 2026-02-07 00:07:08*
%MOMM*%
%LPD*%
G01*
G04 APERTURE LIST*
G04 Aperture macros list*
%AMRoundRect*
0 Rectangle with rounded corners*
0 $1 Rounding radius*
0 $2 $3 $4 $5 $6 $7 $8 $9 X,Y pos of 4 corners*
0 Add a 4 corners polygon primitive as box body*
4,1,4,$2,$3,$4,$5,$6,$7,$8,$9,$2,$3,0*
0 Add four circle primitives for the rounded corners*
1,1,$1+$1,$2,$3*
1,1,$1+$1,$4,$5*
1,1,$1+$1,$6,$7*
1,1,$1+$1,$8,$9*
0 Add four rect primitives between the rounded corners*
20,1,$1+$1,$2,$3,$4,$5,0*
20,1,$1+$1,$4,$5,$6,$7,0*
20,1,$1+$1,$6,$7,$8,$9,0*
20,1,$1+$1,$8,$9,$2,$3,0*%
%AMRotRect*
0 Rectangle, with rotation*
0 The origin of the aperture is its center*
0 $1 length*
0 $2 width*
0 $3 Rotation angle, in degrees counterclockwise*
0 Add horizontal line*
21,1,$1,$2,0,0,$3*%
G04 Aperture macros list end*
%ADD10R,2.000000X1.100000*%
%ADD11RoundRect,0.237500X-0.237500X0.300000X-0.237500X-0.300000X0.237500X-0.300000X0.237500X0.300000X0*%
%ADD12RoundRect,0.150000X-0.512500X-0.150000X0.512500X-0.150000X0.512500X0.150000X-0.512500X0.150000X0*%
%ADD13RoundRect,0.250000X1.100000X-0.500000X1.100000X0.500000X-1.100000X0.500000X-1.100000X-0.500000X0*%
%ADD14RoundRect,0.237500X0.237500X-0.300000X0.237500X0.300000X-0.237500X0.300000X-0.237500X-0.300000X0*%
%ADD15R,1.100000X2.000000*%
%ADD16RoundRect,0.237500X0.300000X0.237500X-0.300000X0.237500X-0.300000X-0.237500X0.300000X-0.237500X0*%
%ADD17RoundRect,0.249999X1.850001X-0.450001X1.850001X0.450001X-1.850001X0.450001X-1.850001X-0.450001X0*%
%ADD18RotRect,1.100000X2.000000X46.000000*%
%ADD19RoundRect,0.237500X-0.300000X-0.237500X0.300000X-0.237500X0.300000X0.237500X-0.300000X0.237500X0*%
%ADD20RoundRect,0.237500X0.250000X0.237500X-0.250000X0.237500X-0.250000X-0.237500X0.250000X-0.237500X0*%
%ADD21RoundRect,0.250000X-1.950000X-0.700000X1.950000X-0.700000X1.950000X0.700000X-1.950000X0.700000X0*%
%ADD22RoundRect,0.150000X-0.150000X0.825000X-0.150000X-0.825000X0.150000X-0.825000X0.150000X0.825000X0*%
%ADD23RoundRect,0.150000X0.150000X-0.587500X0.150000X0.587500X-0.150000X0.587500X-0.150000X-0.587500X0*%
%ADD24RoundRect,0.250001X0.624999X-0.462499X0.624999X0.462499X-0.624999X0.462499X-0.624999X-0.462499X0*%
%ADD25RoundRect,0.237500X-0.250000X-0.237500X0.250000X-0.237500X0.250000X0.237500X-0.250000X0.237500X0*%
%ADD26RoundRect,0.237500X-0.237500X0.250000X-0.237500X-0.250000X0.237500X-0.250000X0.237500X0.250000X0*%
%ADD27RoundRect,0.100000X0.100000X-0.637500X0.100000X0.637500X-0.100000X0.637500X-0.100000X-0.637500X0*%
G04 APERTURE END LIST*
D10*
%TO.C,D18*%
X112400000Y-128700000D03*
X112400000Y-127000000D03*
X112400000Y-125300000D03*
X107600000Y-125300000D03*
X107600000Y-127000000D03*
X107600000Y-128700000D03*
%TD*%
D11*
%TO.C,C3*%
X140500000Y-38137500D03*
X140500000Y-39862500D03*
%TD*%
D12*
%TO.C,U8*%
X128862500Y-77550000D03*
X128862500Y-78500000D03*
X128862500Y-79450000D03*
X131137500Y-79450000D03*
X131137500Y-78500000D03*
X131137500Y-77550000D03*
%TD*%
D13*
%TO.C,D31*%
X131000000Y-127400000D03*
X131000000Y-122600000D03*
%TD*%
D14*
%TO.C,C21*%
X148500000Y-147362500D03*
X148500000Y-145637500D03*
%TD*%
D10*
%TO.C,D28*%
X107600000Y-82800000D03*
X107600000Y-84500000D03*
X107600000Y-86200000D03*
X112400000Y-86200000D03*
X112400000Y-84500000D03*
X112400000Y-82800000D03*
%TD*%
D15*
%TO.C,D1*%
X116300000Y-39400000D03*
X118000000Y-39400000D03*
X119700000Y-39400000D03*
X119700000Y-34600000D03*
X118000000Y-34600000D03*
X116300000Y-34600000D03*
%TD*%
D16*
%TO.C,C19*%
X164862500Y-136000000D03*
X163137500Y-136000000D03*
%TD*%
%TO.C,C35*%
X108862500Y-80500000D03*
X107137500Y-80500000D03*
%TD*%
D10*
%TO.C,D26*%
X107600000Y-56300000D03*
X107600000Y-58000000D03*
X107600000Y-59700000D03*
X112400000Y-59700000D03*
X112400000Y-58000000D03*
X112400000Y-56300000D03*
%TD*%
%TO.C,D5*%
X163600000Y-43300000D03*
X163600000Y-45000000D03*
X163600000Y-46700000D03*
X168400000Y-46700000D03*
X168400000Y-45000000D03*
X168400000Y-43300000D03*
%TD*%
D16*
%TO.C,C34*%
X108862500Y-67500000D03*
X107137500Y-67500000D03*
%TD*%
D14*
%TO.C,C13*%
X135000000Y-71862500D03*
X135000000Y-70137500D03*
%TD*%
D11*
%TO.C,C2*%
X127000000Y-38137500D03*
X127000000Y-39862500D03*
%TD*%
D17*
%TO.C,L1*%
X130000000Y-73850000D03*
X130000000Y-70150000D03*
%TD*%
D11*
%TO.C,C4*%
X153500000Y-38137500D03*
X153500000Y-39862500D03*
%TD*%
D15*
%TO.C,D22*%
X129300000Y-94900000D03*
X131000000Y-94900000D03*
X132700000Y-94900000D03*
X132700000Y-90100000D03*
X131000000Y-90100000D03*
X129300000Y-90100000D03*
%TD*%
%TO.C,D13*%
X159200000Y-146100000D03*
X157500000Y-146100000D03*
X155800000Y-146100000D03*
X155800000Y-150900000D03*
X157500000Y-150900000D03*
X159200000Y-150900000D03*
%TD*%
D11*
%TO.C,C11*%
X139000000Y-70137500D03*
X139000000Y-71862500D03*
%TD*%
D16*
%TO.C,C40*%
X126050000Y-57500000D03*
X124325000Y-57500000D03*
%TD*%
D15*
%TO.C,D4*%
X155800000Y-39400000D03*
X157500000Y-39400000D03*
X159200000Y-39400000D03*
X159200000Y-34600000D03*
X157500000Y-34600000D03*
X155800000Y-34600000D03*
%TD*%
D18*
%TO.C,D29*%
X170954504Y-149609942D03*
X169773584Y-150832820D03*
X168592665Y-152055698D03*
X172045496Y-155390058D03*
X173226416Y-154167180D03*
X174407335Y-152944302D03*
%TD*%
D19*
%TO.C,C26*%
X111137500Y-118000000D03*
X112862500Y-118000000D03*
%TD*%
D16*
%TO.C,C32*%
X110862500Y-41000000D03*
X109137500Y-41000000D03*
%TD*%
D15*
%TO.C,D2*%
X129300000Y-39400000D03*
X131000000Y-39400000D03*
X132700000Y-39400000D03*
X132700000Y-34600000D03*
X131000000Y-34600000D03*
X129300000Y-34600000D03*
%TD*%
D19*
%TO.C,C36*%
X164637500Y-144000000D03*
X166362500Y-144000000D03*
%TD*%
D10*
%TO.C,D8*%
X163600000Y-82800000D03*
X163600000Y-84500000D03*
X163600000Y-86200000D03*
X168400000Y-86200000D03*
X168400000Y-84500000D03*
X168400000Y-82800000D03*
%TD*%
D16*
%TO.C,C7*%
X164862500Y-67500000D03*
X163137500Y-67500000D03*
%TD*%
%TO.C,C33*%
X108862500Y-54000000D03*
X107137500Y-54000000D03*
%TD*%
D15*
%TO.C,D23*%
X142800000Y-94900000D03*
X144500000Y-94900000D03*
X146200000Y-94900000D03*
X146200000Y-90100000D03*
X144500000Y-90100000D03*
X142800000Y-90100000D03*
%TD*%
D20*
%TO.C,R5*%
X130825000Y-52480000D03*
X129000000Y-52480000D03*
%TD*%
D10*
%TO.C,D19*%
X112400000Y-115700000D03*
X112400000Y-114000000D03*
X112400000Y-112300000D03*
X107600000Y-112300000D03*
X107600000Y-114000000D03*
X107600000Y-115700000D03*
%TD*%
D21*
%TO.C,C44*%
X125500000Y-112000000D03*
X134200000Y-112000000D03*
%TD*%
D10*
%TO.C,D25*%
X107600000Y-43300000D03*
X107600000Y-45000000D03*
X107600000Y-46700000D03*
X112400000Y-46700000D03*
X112400000Y-45000000D03*
X112400000Y-43300000D03*
%TD*%
D15*
%TO.C,D3*%
X142800000Y-39400000D03*
X144500000Y-39400000D03*
X146200000Y-39400000D03*
X146200000Y-34600000D03*
X144500000Y-34600000D03*
X142800000Y-34600000D03*
%TD*%
D16*
%TO.C,C41*%
X126050000Y-54990000D03*
X124325000Y-54990000D03*
%TD*%
%TO.C,C16*%
X166862500Y-105000000D03*
X165137500Y-105000000D03*
%TD*%
D10*
%TO.C,D27*%
X107600000Y-69800000D03*
X107600000Y-71500000D03*
X107600000Y-73200000D03*
X112400000Y-73200000D03*
X112400000Y-71500000D03*
X112400000Y-69800000D03*
%TD*%
D19*
%TO.C,C1*%
X112637500Y-38500000D03*
X114362500Y-38500000D03*
%TD*%
D10*
%TO.C,D20*%
X112400000Y-102700000D03*
X112400000Y-101000000D03*
X112400000Y-99300000D03*
X107600000Y-99300000D03*
X107600000Y-101000000D03*
X107600000Y-102700000D03*
%TD*%
D19*
%TO.C,C25*%
X111137500Y-131000000D03*
X112862500Y-131000000D03*
%TD*%
D16*
%TO.C,C17*%
X164725000Y-110000000D03*
X163000000Y-110000000D03*
%TD*%
D10*
%TO.C,D9*%
X163600000Y-99300000D03*
X163600000Y-101000000D03*
X163600000Y-102700000D03*
X168400000Y-102700000D03*
X168400000Y-101000000D03*
X168400000Y-99300000D03*
%TD*%
D22*
%TO.C,U2*%
X148540000Y-65500000D03*
X147270000Y-65500000D03*
X146000000Y-65500000D03*
X144730000Y-65500000D03*
X144730000Y-70450000D03*
X146000000Y-70450000D03*
X147270000Y-70450000D03*
X148540000Y-70450000D03*
%TD*%
D19*
%TO.C,C27*%
X111137500Y-105000000D03*
X112862500Y-105000000D03*
%TD*%
D10*
%TO.C,D12*%
X163600000Y-138300000D03*
X163600000Y-140000000D03*
X163600000Y-141700000D03*
X168400000Y-141700000D03*
X168400000Y-140000000D03*
X168400000Y-138300000D03*
%TD*%
D14*
%TO.C,C23*%
X122000000Y-147362500D03*
X122000000Y-145637500D03*
%TD*%
D20*
%TO.C,R23*%
X136412500Y-79500000D03*
X134587500Y-79500000D03*
%TD*%
D23*
%TO.C,D30*%
X146000000Y-76500000D03*
X147900000Y-76500000D03*
X146950000Y-74625000D03*
%TD*%
D11*
%TO.C,C12*%
X137000000Y-70137500D03*
X137000000Y-71862500D03*
%TD*%
D16*
%TO.C,C43*%
X146362500Y-62000000D03*
X144637500Y-62000000D03*
%TD*%
D10*
%TO.C,D17*%
X112400000Y-141700000D03*
X112400000Y-140000000D03*
X112400000Y-138300000D03*
X107600000Y-138300000D03*
X107600000Y-140000000D03*
X107600000Y-141700000D03*
%TD*%
D14*
%TO.C,C10*%
X134000000Y-76862500D03*
X134000000Y-75137500D03*
%TD*%
D10*
%TO.C,D7*%
X163600000Y-69800000D03*
X163600000Y-71500000D03*
X163600000Y-73200000D03*
X168400000Y-73200000D03*
X168400000Y-71500000D03*
X168400000Y-69800000D03*
%TD*%
D16*
%TO.C,C18*%
X164862500Y-123000000D03*
X163137500Y-123000000D03*
%TD*%
D19*
%TO.C,C24*%
X110137500Y-144000000D03*
X111862500Y-144000000D03*
%TD*%
D24*
%TO.C,F2*%
X124500000Y-79487500D03*
X124500000Y-76512500D03*
%TD*%
D14*
%TO.C,C15*%
X124500000Y-73862500D03*
X124500000Y-72137500D03*
%TD*%
%TO.C,C20*%
X153500000Y-149500000D03*
X153500000Y-147775000D03*
%TD*%
D16*
%TO.C,C42*%
X126050000Y-52480000D03*
X124325000Y-52480000D03*
%TD*%
D14*
%TO.C,C22*%
X135000000Y-147225000D03*
X135000000Y-145500000D03*
%TD*%
D20*
%TO.C,R3*%
X130825000Y-57500000D03*
X129000000Y-57500000D03*
%TD*%
D16*
%TO.C,C39*%
X126050000Y-60010000D03*
X124325000Y-60010000D03*
%TD*%
D15*
%TO.C,D21*%
X116300000Y-94900000D03*
X118000000Y-94900000D03*
X119700000Y-94900000D03*
X119700000Y-90100000D03*
X118000000Y-90100000D03*
X116300000Y-90100000D03*
%TD*%
D10*
%TO.C,D10*%
X163600000Y-112300000D03*
X163600000Y-114000000D03*
X163600000Y-115700000D03*
X168400000Y-115700000D03*
X168400000Y-114000000D03*
X168400000Y-112300000D03*
%TD*%
D15*
%TO.C,D14*%
X146200000Y-146100000D03*
X144500000Y-146100000D03*
X142800000Y-146100000D03*
X142800000Y-150900000D03*
X144500000Y-150900000D03*
X146200000Y-150900000D03*
%TD*%
%TO.C,D24*%
X155800000Y-94900000D03*
X157500000Y-94900000D03*
X159200000Y-94900000D03*
X159200000Y-90100000D03*
X157500000Y-90100000D03*
X155800000Y-90100000D03*
%TD*%
D25*
%TO.C,R1*%
X146000000Y-80000000D03*
X147825000Y-80000000D03*
%TD*%
D16*
%TO.C,C6*%
X164725000Y-54000000D03*
X163000000Y-54000000D03*
%TD*%
D11*
%TO.C,C29*%
X127000000Y-93637500D03*
X127000000Y-95362500D03*
%TD*%
%TO.C,C28*%
X122000000Y-91637500D03*
X122000000Y-93362500D03*
%TD*%
D16*
%TO.C,C5*%
X166862500Y-49000000D03*
X165137500Y-49000000D03*
%TD*%
D15*
%TO.C,D16*%
X119700000Y-146100000D03*
X118000000Y-146100000D03*
X116300000Y-146100000D03*
X116300000Y-150900000D03*
X118000000Y-150900000D03*
X119700000Y-150900000D03*
%TD*%
D11*
%TO.C,C30*%
X140500000Y-93637500D03*
X140500000Y-95362500D03*
%TD*%
D16*
%TO.C,C8*%
X164862500Y-80500000D03*
X163137500Y-80500000D03*
%TD*%
D10*
%TO.C,D11*%
X163600000Y-125300000D03*
X163600000Y-127000000D03*
X163600000Y-128700000D03*
X168400000Y-128700000D03*
X168400000Y-127000000D03*
X168400000Y-125300000D03*
%TD*%
D15*
%TO.C,D15*%
X132700000Y-146100000D03*
X131000000Y-146100000D03*
X129300000Y-146100000D03*
X129300000Y-150900000D03*
X131000000Y-150900000D03*
X132700000Y-150900000D03*
%TD*%
D11*
%TO.C,C31*%
X153500000Y-93637500D03*
X153500000Y-95362500D03*
%TD*%
%TO.C,C38*%
X151000000Y-67137500D03*
X151000000Y-68862500D03*
%TD*%
D26*
%TO.C,R24*%
X137000000Y-75087500D03*
X137000000Y-76912500D03*
%TD*%
D27*
%TO.C,U1*%
X143300000Y-59225000D03*
X143950000Y-59225000D03*
X144600000Y-59225000D03*
X145250000Y-59225000D03*
X145900000Y-59225000D03*
X146550000Y-59225000D03*
X147200000Y-59225000D03*
X147850000Y-59225000D03*
X148500000Y-59225000D03*
X149150000Y-59225000D03*
X149150000Y-53500000D03*
X148500000Y-53500000D03*
X147850000Y-53500000D03*
X147200000Y-53500000D03*
X146550000Y-53500000D03*
X145900000Y-53500000D03*
X145250000Y-53500000D03*
X144600000Y-53500000D03*
X143950000Y-53500000D03*
X143300000Y-53500000D03*
%TD*%
D20*
%TO.C,R2*%
X130825000Y-60010000D03*
X129000000Y-60010000D03*
%TD*%
D10*
%TO.C,D6*%
X163600000Y-56300000D03*
X163600000Y-58000000D03*
X163600000Y-59700000D03*
X168400000Y-59700000D03*
X168400000Y-58000000D03*
X168400000Y-56300000D03*
%TD*%
D20*
%TO.C,R4*%
X130825000Y-54990000D03*
X129000000Y-54990000D03*
%TD*%
M02*
