%TF.GenerationSoftware,KiCad,Pcbnew,9.0.6+1*%
%TF.CreationDate,2026-02-07T00:07:08+00:00*%
%TF.ProjectId,LED7SEG02,4c454437-5345-4473-9032-2e6b69636164,rev?*%
%TF.SameCoordinates,Original*%
%TF.FileFunction,Copper,L2,Bot*%
%TF.FilePolarity,Positive*%
%FSLAX46Y46*%
G04 Gerber Fmt 4.6, Leading zero omitted, Abs format (unit mm)*
G04 Created by KiCad (PCBNEW 9.0.6+1) date 2026-02-07 00:07:08*
%MOMM*%
%LPD*%
G01*
G04 APERTURE LIST*
G04 Aperture macros list*
%AMRoundRect*
0 Rectangle with rounded corners*
0 $1 Rounding radius*
0 $2 $3 $4 $5 $6 $7 $8 $9 X,Y pos of 4 corners*
0 Add a 4 corners polygon primitive as box body*
4,1,4,$2,$3,$4,$5,$6,$7,$8,$9,$2,$3,0*
0 Add four circle primitives for the rounded corners*
1,1,$1+$1,$2,$3*
1,1,$1+$1,$4,$5*
1,1,$1+$1,$6,$7*
1,1,$1+$1,$8,$9*
0 Add four rect primitives between the rounded corners*
20,1,$1+$1,$2,$3,$4,$5,0*
20,1,$1+$1,$4,$5,$6,$7,0*
20,1,$1+$1,$6,$7,$8,$9,0*
20,1,$1+$1,$8,$9,$2,$3,0*%
G04 Aperture macros list end*
%TA.AperFunction,ComponentPad*%
%ADD10RoundRect,0.200000X0.450000X-0.200000X0.450000X0.200000X-0.450000X0.200000X-0.450000X-0.200000X0*%
%TD*%
%TA.AperFunction,ComponentPad*%
%ADD11O,1.300000X0.800000*%
%TD*%
%TA.AperFunction,ComponentPad*%
%ADD12R,1.700000X1.700000*%
%TD*%
%TA.AperFunction,ComponentPad*%
%ADD13C,1.700000*%
%TD*%
%TA.AperFunction,SMDPad,CuDef*%
%ADD14R,3.000000X1.000000*%
%TD*%
%TA.AperFunction,ViaPad*%
%ADD15C,0.600000*%
%TD*%
%TA.AperFunction,ViaPad*%
%ADD16C,1.000000*%
%TD*%
%TA.AperFunction,Conductor*%
%ADD17C,0.400000*%
%TD*%
%TA.AperFunction,Conductor*%
%ADD18C,1.000000*%
%TD*%
G04 APERTURE END LIST*
D10*
%TO.P,J4,1,Pin_1*%
%TO.N,/nrst*%
X135500000Y-59000000D03*
D11*
%TO.P,J4,2,Pin_2*%
%TO.N,unconnected-(J4-Pin_2-Pad2)*%
X135500000Y-57750000D03*
%TO.P,J4,3,Pin_3*%
%TO.N,GND*%
X135500000Y-56500000D03*
%TO.P,J4,4,Pin_4*%
%TO.N,/swclk*%
X135500000Y-55250000D03*
%TO.P,J4,5,Pin_5*%
%TO.N,/swdio*%
X135500000Y-54000000D03*
%TD*%
D12*
%TO.P,J2,1,Pin_1*%
%TO.N,Net-(J2-Pin_1)*%
X151775000Y-112500000D03*
D13*
%TO.P,J2,2,Pin_2*%
%TO.N,/rs_b*%
X149235000Y-112500000D03*
%TD*%
D14*
%TO.P,SW1,1,1*%
%TO.N,/addr_0*%
X142500000Y-109960000D03*
%TO.P,SW1,2,2*%
%TO.N,/addr_1*%
X134500000Y-115040000D03*
%TO.P,SW1,4,4*%
%TO.N,/addr_2*%
X142500000Y-115040000D03*
%TO.P,SW1,8,8*%
%TO.N,/addr_3*%
X134500000Y-109960000D03*
%TO.P,SW1,C,C*%
%TO.N,GND*%
X142500000Y-112500000D03*
X134500000Y-112500000D03*
%TD*%
D12*
%TO.P,J1,1,Pin_1*%
%TO.N,GND*%
X139500000Y-122420000D03*
D13*
%TO.P,J1,2,Pin_2*%
X136960000Y-122420000D03*
%TO.P,J1,3,Pin_3*%
%TO.N,/rs_a*%
X139500000Y-124960000D03*
%TO.P,J1,4,Pin_4*%
X136960000Y-124960000D03*
%TO.P,J1,5,Pin_5*%
%TO.N,+12V*%
X139500000Y-127500000D03*
%TO.P,J1,6,Pin_6*%
X136960000Y-127500000D03*
%TO.P,J1,7,Pin_7*%
%TO.N,/rs_b*%
X139500000Y-130040000D03*
%TO.P,J1,8,Pin_8*%
X136960000Y-130040000D03*
%TO.P,J1,9,Pin_9*%
%TO.N,GND*%
X139500000Y-132580000D03*
%TO.P,J1,10,Pin_10*%
X136960000Y-132580000D03*
%TD*%
D15*
%TO.N,/data_in*%
X143000000Y-43000000D03*
X122500000Y-37000000D03*
%TO.N,Net-(D19-DOUT)*%
X108000000Y-97500000D03*
X114500000Y-90500000D03*
%TO.N,Net-(D23-DOUT)*%
X141500000Y-44000000D03*
X147000000Y-44000000D03*
%TO.N,Net-(D24-DOUT)*%
X142500000Y-45500000D03*
X148500000Y-43000000D03*
%TO.N,Net-(D27-DOUT)*%
X172000000Y-147000000D03*
X155800000Y-86200000D03*
%TO.N,Net-(D28-DOUT)*%
X116500000Y-88000000D03*
X166500000Y-154000000D03*
X154000000Y-88000000D03*
X108500000Y-88000000D03*
%TO.N,/addr_2*%
X135000000Y-64500000D03*
X127500000Y-55000000D03*
X130000000Y-64500000D03*
%TO.N,/addr_0*%
X134000000Y-63500000D03*
X127500000Y-60000000D03*
X131000000Y-63500000D03*
%TO.N,/addr_3*%
X127500000Y-52500000D03*
%TO.N,/addr_1*%
X127500000Y-57500000D03*
%TO.N,/rs_b*%
X153500000Y-102500000D03*
X143000000Y-84000000D03*
%TO.N,/rs_a*%
X158500000Y-100500000D03*
X146000000Y-81500000D03*
%TO.N,Net-(J2-Pin_1)*%
X144500000Y-83000000D03*
X156000000Y-102000000D03*
%TO.N,GND*%
X138000000Y-39000000D03*
X123500000Y-89000000D03*
X110500000Y-77000000D03*
X148500000Y-89000000D03*
X126000000Y-148500000D03*
X106000000Y-134000000D03*
X138000000Y-53500000D03*
X158000000Y-103000000D03*
X114000000Y-77500000D03*
X171500000Y-152500000D03*
X108500000Y-95000000D03*
X107500000Y-64500000D03*
X170500000Y-77500000D03*
X167000000Y-77000000D03*
X107500000Y-51000000D03*
X123000000Y-60000000D03*
X154500000Y-149000000D03*
X106000000Y-121500000D03*
X112000000Y-90000000D03*
X141000000Y-53500000D03*
X147000000Y-77500000D03*
X137000000Y-95500000D03*
X147000000Y-73000000D03*
X146225000Y-56362500D03*
X123500000Y-95500000D03*
X164000000Y-93000000D03*
X164500000Y-150500000D03*
X169000000Y-146000000D03*
X114000000Y-97500000D03*
X163000000Y-120000000D03*
X116000000Y-148500000D03*
X124500000Y-145000000D03*
X106000000Y-153500000D03*
X111000000Y-143000000D03*
X165000000Y-117500000D03*
X170500000Y-40000000D03*
X165500000Y-90000000D03*
X116000000Y-45000000D03*
X123000000Y-52500000D03*
X166500000Y-50500000D03*
X151500000Y-144500000D03*
X114000000Y-51000000D03*
X164500000Y-145500000D03*
X158000000Y-107500000D03*
X138000000Y-145000000D03*
X107500000Y-77500000D03*
X123500000Y-91500000D03*
X114000000Y-64500000D03*
X167000000Y-147500000D03*
X165000000Y-106500000D03*
X163500000Y-41000000D03*
X163000000Y-133000000D03*
X170500000Y-51500000D03*
X162000000Y-153500000D03*
X163000000Y-77500000D03*
X105500000Y-33000000D03*
X149000000Y-153500000D03*
X109500000Y-121500000D03*
X113000000Y-107500000D03*
X150000000Y-95500000D03*
X109500000Y-134000000D03*
X113000000Y-134000000D03*
X150000000Y-91000000D03*
X135500000Y-153500000D03*
X163000000Y-107500000D03*
X158000000Y-44500000D03*
X150500000Y-33000000D03*
X170500000Y-120000000D03*
X148000000Y-104000000D03*
X151500000Y-56000000D03*
X157500000Y-86000000D03*
X170500000Y-131500000D03*
X108500000Y-89500000D03*
X143500000Y-67500000D03*
X161500000Y-150000000D03*
X137500000Y-89000000D03*
X123000000Y-55000000D03*
X122000000Y-88000000D03*
X106000000Y-107500000D03*
X162500000Y-37500000D03*
X168000000Y-88000000D03*
X162500000Y-33000000D03*
X170500000Y-33000000D03*
X161000000Y-142000000D03*
X113000000Y-121500000D03*
X136000000Y-92500000D03*
X170500000Y-64500000D03*
X120500000Y-92000000D03*
X112500000Y-33000000D03*
X146500000Y-63500000D03*
X142000000Y-59500000D03*
X151500000Y-64500000D03*
X123000000Y-57500000D03*
X124000000Y-39000000D03*
X115500000Y-93000000D03*
X105500000Y-145000000D03*
X147000000Y-76500000D03*
X150500000Y-39000000D03*
X122000000Y-153500000D03*
X147500000Y-116500000D03*
X160500000Y-147500000D03*
X124000000Y-33000000D03*
X109500000Y-107500000D03*
X162500000Y-51500000D03*
X163000000Y-64500000D03*
X118500000Y-88000000D03*
X138000000Y-33000000D03*
X170500000Y-107500000D03*
X139500000Y-148000000D03*
X151500000Y-149500000D03*
%TO.N,+3.3V*%
X134000000Y-60000000D03*
X130825000Y-53500000D03*
D16*
%TO.N,+12V*%
X158000000Y-142500000D03*
D15*
X125000000Y-83000000D03*
X125000000Y-97500000D03*
D16*
X164500000Y-149000000D03*
%TD*%
D17*
%TO.N,/data_in*%
X122500000Y-37000000D02*
X122500000Y-40000000D01*
X125500000Y-43000000D02*
X143000000Y-43000000D01*
X122500000Y-40000000D02*
X125500000Y-43000000D01*
%TO.N,Net-(D19-DOUT)*%
X108000000Y-97500000D02*
X108000000Y-97000000D01*
X108000000Y-97000000D02*
X114500000Y-90500000D01*
%TO.N,Net-(D23-DOUT)*%
X147000000Y-44000000D02*
X141500000Y-44000000D01*
%TO.N,Net-(D24-DOUT)*%
X147500000Y-45500000D02*
X142500000Y-45500000D01*
X148500000Y-43000000D02*
X148500000Y-44500000D01*
X148500000Y-44500000D02*
X147500000Y-45500000D01*
%TO.N,Net-(D27-DOUT)*%
X167500000Y-97900000D02*
X167500000Y-142500000D01*
X155800000Y-86200000D02*
X167500000Y-97900000D01*
X167500000Y-142500000D02*
X172000000Y-147000000D01*
%TO.N,Net-(D28-DOUT)*%
X155000000Y-88000000D02*
X166000000Y-99000000D01*
X166000000Y-153500000D02*
X166500000Y-154000000D01*
X154000000Y-88000000D02*
X155000000Y-88000000D01*
X108500000Y-88000000D02*
X116500000Y-88000000D01*
X166000000Y-99000000D02*
X166000000Y-153500000D01*
%TO.N,/addr_2*%
X143960000Y-115040000D02*
X145000000Y-114000000D01*
X126500000Y-61000000D02*
X126500000Y-56000000D01*
X145000000Y-108000000D02*
X143500000Y-106500000D01*
X143500000Y-106500000D02*
X136500000Y-106500000D01*
X130000000Y-64500000D02*
X126500000Y-61000000D01*
X145000000Y-114000000D02*
X145000000Y-108000000D01*
X135000000Y-105000000D02*
X135000000Y-64500000D01*
X126500000Y-56000000D02*
X127500000Y-55000000D01*
X136500000Y-106500000D02*
X135000000Y-105000000D01*
X142500000Y-115040000D02*
X143960000Y-115040000D01*
%TO.N,/addr_0*%
X135500000Y-108000000D02*
X134000000Y-106500000D01*
X142500000Y-109960000D02*
X140540000Y-108000000D01*
X134000000Y-106500000D02*
X134000000Y-63500000D01*
X142500000Y-109960000D02*
X141500000Y-109960000D01*
X140540000Y-108000000D02*
X135500000Y-108000000D01*
X131000000Y-63500000D02*
X127500000Y-60000000D01*
%TO.N,/addr_3*%
X133000000Y-58000000D02*
X127500000Y-52500000D01*
X134500000Y-109960000D02*
X133000000Y-108460000D01*
X133000000Y-108460000D02*
X133000000Y-58000000D01*
%TO.N,/addr_1*%
X134460000Y-115000000D02*
X133000000Y-115000000D01*
X132000000Y-62000000D02*
X127500000Y-57500000D01*
X133000000Y-115000000D02*
X132000000Y-114000000D01*
X134500000Y-115040000D02*
X134460000Y-115000000D01*
X132000000Y-114000000D02*
X132000000Y-62000000D01*
%TO.N,/rs_b*%
X153735000Y-102265000D02*
X153735000Y-95726364D01*
X143000000Y-84991364D02*
X153735000Y-95726364D01*
X153500000Y-102500000D02*
X153735000Y-102265000D01*
X143000000Y-84000000D02*
X143000000Y-84991364D01*
%TO.N,/rs_a*%
X146000000Y-81500000D02*
X146000000Y-84500000D01*
X146000000Y-84500000D02*
X158500000Y-97000000D01*
X158500000Y-100500000D02*
X158500000Y-97000000D01*
%TO.N,Net-(J2-Pin_1)*%
X156000000Y-102000000D02*
X156000000Y-95500000D01*
X156000000Y-95500000D02*
X144500000Y-84000000D01*
X144500000Y-84000000D02*
X144500000Y-83000000D01*
%TO.N,+3.3V*%
X134000000Y-56500000D02*
X134000000Y-60000000D01*
X130825000Y-53500000D02*
X131000000Y-53500000D01*
X131000000Y-53500000D02*
X134000000Y-56500000D01*
%TO.N,+12V*%
X125000000Y-83000000D02*
X125000000Y-97500000D01*
D18*
X164500000Y-149000000D02*
X158000000Y-142500000D01*
%TD*%
%TA.AperFunction,Conductor*%
%TO.N,GND*%
G36*
X138301444Y-130693999D02*
G01*
X138340486Y-130739056D01*
X138344951Y-130747820D01*
X138469890Y-130919786D01*
X138620213Y-131070109D01*
X138792179Y-131195048D01*
X138792181Y-131195049D01*
X138792184Y-131195051D01*
X138801493Y-131199794D01*
X138852290Y-131247766D01*
X138869087Y-131315587D01*
X138846552Y-131381722D01*
X138801505Y-131420760D01*
X138792446Y-131425376D01*
X138792440Y-131425380D01*
X138738282Y-131464727D01*
X138738282Y-131464728D01*
X139370591Y-132097037D01*
X139307007Y-132114075D01*
X139192993Y-132179901D01*
X139099901Y-132272993D01*
X139034075Y-132387007D01*
X139017037Y-132450591D01*
X138384728Y-131818282D01*
X138384727Y-131818282D01*
X138345380Y-131872440D01*
X138340483Y-131882051D01*
X138292506Y-131932845D01*
X138224684Y-131949638D01*
X138158550Y-131927098D01*
X138119516Y-131882048D01*
X138114626Y-131872452D01*
X138075270Y-131818282D01*
X138075269Y-131818282D01*
X137442962Y-132450590D01*
X137425925Y-132387007D01*
X137360099Y-132272993D01*
X137267007Y-132179901D01*
X137152993Y-132114075D01*
X137089409Y-132097037D01*
X137721716Y-131464728D01*
X137667547Y-131425373D01*
X137667547Y-131425372D01*
X137658500Y-131420763D01*
X137607706Y-131372788D01*
X137590912Y-131304966D01*
X137613451Y-131238832D01*
X137658508Y-131199793D01*
X137667816Y-131195051D01*
X137747007Y-131137515D01*
X137839786Y-131070109D01*
X137839788Y-131070106D01*
X137839792Y-131070104D01*
X137990104Y-130919792D01*
X137990106Y-130919788D01*
X137990109Y-130919786D01*
X138115048Y-130747820D01*
X138115047Y-130747820D01*
X138115051Y-130747816D01*
X138119514Y-130739054D01*
X138167488Y-130688259D01*
X138235308Y-130671463D01*
X138301444Y-130693999D01*
G37*
%TD.AperFunction*%
%TA.AperFunction,Conductor*%
G36*
X138112356Y-123218803D02*
G01*
X138145841Y-123280126D01*
X138144926Y-123294831D01*
X138147497Y-123294555D01*
X138156401Y-123377373D01*
X138156403Y-123377380D01*
X138206645Y-123512086D01*
X138206649Y-123512093D01*
X138292809Y-123627187D01*
X138292812Y-123627190D01*
X138407906Y-123713350D01*
X138407913Y-123713354D01*
X138539470Y-123762422D01*
X138595404Y-123804293D01*
X138619821Y-123869758D01*
X138604969Y-123938031D01*
X138583819Y-123966285D01*
X138469889Y-124080215D01*
X138344949Y-124252182D01*
X138340484Y-124260946D01*
X138292509Y-124311742D01*
X138224688Y-124328536D01*
X138158553Y-124305998D01*
X138119516Y-124260946D01*
X138115050Y-124252182D01*
X137990109Y-124080213D01*
X137839786Y-123929890D01*
X137667817Y-123804949D01*
X137658504Y-123800204D01*
X137607707Y-123752230D01*
X137590912Y-123684409D01*
X137613449Y-123618274D01*
X137658507Y-123579232D01*
X137667555Y-123574622D01*
X137721716Y-123535270D01*
X137721717Y-123535270D01*
X137089408Y-122902962D01*
X137152993Y-122885925D01*
X137267007Y-122820099D01*
X137360099Y-122727007D01*
X137425925Y-122612993D01*
X137442962Y-122549408D01*
X138112356Y-123218803D01*
G37*
%TD.AperFunction*%
%TA.AperFunction,Conductor*%
G36*
X172342539Y-30778384D02*
G01*
X172388294Y-30831188D01*
X172399500Y-30882699D01*
X172399500Y-85577213D01*
X172379815Y-85644252D01*
X172327011Y-85690007D01*
X172319289Y-85693224D01*
X172001487Y-85813179D01*
X172001471Y-85813186D01*
X171516540Y-86036814D01*
X171516531Y-86036818D01*
X171048719Y-86294369D01*
X171048704Y-86294378D01*
X170600413Y-86584526D01*
X170600403Y-86584533D01*
X170600394Y-86584539D01*
X170600392Y-86584541D01*
X170433458Y-86710289D01*
X170173840Y-86905854D01*
X169771207Y-87256694D01*
X169394556Y-87635263D01*
X169045767Y-88039667D01*
X168726637Y-88467826D01*
X168726631Y-88467834D01*
X168726629Y-88467838D01*
X168513707Y-88800500D01*
X168438733Y-88917636D01*
X168438732Y-88917636D01*
X168183564Y-89386745D01*
X168183559Y-89386755D01*
X167962388Y-89872832D01*
X167918948Y-89989711D01*
X167778773Y-90366865D01*
X167776337Y-90373418D01*
X167626363Y-90885932D01*
X167626357Y-90885957D01*
X167513207Y-91407838D01*
X167437450Y-91936473D01*
X167399475Y-92469152D01*
X167399475Y-93003186D01*
X167437449Y-93535859D01*
X167437451Y-93535875D01*
X167513206Y-94064500D01*
X167626357Y-94586382D01*
X167626363Y-94586407D01*
X167776337Y-95098921D01*
X167776340Y-95098930D01*
X167776343Y-95098939D01*
X167962390Y-95599514D01*
X168049135Y-95790157D01*
X168183558Y-96085585D01*
X168183562Y-96085594D01*
X168352846Y-96396806D01*
X168438739Y-96554713D01*
X168585544Y-96784076D01*
X168726627Y-97004501D01*
X168726630Y-97004505D01*
X169045767Y-97432672D01*
X169045772Y-97432678D01*
X169045773Y-97432679D01*
X169394557Y-97837078D01*
X169771215Y-98215653D01*
X170173839Y-98566485D01*
X170600391Y-98887798D01*
X171029045Y-99165238D01*
X171048703Y-99177961D01*
X171048717Y-99177970D01*
X171516530Y-99435520D01*
X171516532Y-99435521D01*
X172001481Y-99659158D01*
X172202051Y-99734863D01*
X172319288Y-99779115D01*
X172375058Y-99821205D01*
X172399218Y-99886765D01*
X172399500Y-99895126D01*
X172399500Y-142733402D01*
X172395438Y-142774299D01*
X172399500Y-142799028D01*
X172399500Y-142824090D01*
X172408547Y-142857857D01*
X172410137Y-142863790D01*
X172416798Y-142904341D01*
X172427119Y-142927172D01*
X172429738Y-142936944D01*
X172433606Y-142951380D01*
X172433610Y-142951389D01*
X172451091Y-142981668D01*
X172456692Y-142992584D01*
X176874351Y-152764025D01*
X176884032Y-152833220D01*
X176854766Y-152896665D01*
X176852796Y-152898867D01*
X172028805Y-158164801D01*
X171969006Y-158200938D01*
X171901022Y-158199594D01*
X161357153Y-154966814D01*
X160814604Y-154800467D01*
X160801144Y-154796340D01*
X160793293Y-154791807D01*
X160738301Y-154777071D01*
X160736200Y-154776427D01*
X160736161Y-154776416D01*
X160712942Y-154769297D01*
X160683823Y-154760370D01*
X160683822Y-154760369D01*
X160683819Y-154760369D01*
X160675804Y-154759021D01*
X160675873Y-154758609D01*
X160674112Y-154758345D01*
X160674058Y-154758760D01*
X160666000Y-154757699D01*
X160665999Y-154757699D01*
X160665997Y-154757699D01*
X160609042Y-154757699D01*
X160552123Y-154755666D01*
X160543285Y-154757699D01*
X103524500Y-154757699D01*
X103457461Y-154738014D01*
X103411706Y-154685210D01*
X103400500Y-154633699D01*
X103400500Y-124853713D01*
X135609500Y-124853713D01*
X135609500Y-125066286D01*
X135642753Y-125276239D01*
X135708444Y-125478414D01*
X135804951Y-125667820D01*
X135929890Y-125839786D01*
X136080213Y-125990109D01*
X136252182Y-126115050D01*
X136260946Y-126119516D01*
X136311742Y-126167491D01*
X136328536Y-126235312D01*
X136305998Y-126301447D01*
X136260946Y-126340484D01*
X136252182Y-126344949D01*
X136080213Y-126469890D01*
X135929890Y-126620213D01*
X135804951Y-126792179D01*
X135708444Y-126981585D01*
X135642753Y-127183760D01*
X135609500Y-127393713D01*
X135609500Y-127606286D01*
X135642753Y-127816239D01*
X135708444Y-128018414D01*
X135804951Y-128207820D01*
X135929890Y-128379786D01*
X136080213Y-128530109D01*
X136252182Y-128655050D01*
X136260946Y-128659516D01*
X136311742Y-128707491D01*
X136328536Y-128775312D01*
X136305998Y-128841447D01*
X136260946Y-128880484D01*
X136252182Y-128884949D01*
X136080213Y-129009890D01*
X135929890Y-129160213D01*
X135804951Y-129332179D01*
X135708444Y-129521585D01*
X135642753Y-129723760D01*
X135609500Y-129933713D01*
X135609500Y-130146286D01*
X135642753Y-130356239D01*
X135708444Y-130558414D01*
X135804951Y-130747820D01*
X135929890Y-130919786D01*
X136080213Y-131070109D01*
X136252179Y-131195048D01*
X136252181Y-131195049D01*
X136252184Y-131195051D01*
X136261493Y-131199794D01*
X136312290Y-131247766D01*
X136329087Y-131315587D01*
X136306552Y-131381722D01*
X136261505Y-131420760D01*
X136252446Y-131425376D01*
X136252440Y-131425380D01*
X136198282Y-131464727D01*
X136198282Y-131464728D01*
X136830591Y-132097037D01*
X136767007Y-132114075D01*
X136652993Y-132179901D01*
X136559901Y-132272993D01*
X136494075Y-132387007D01*
X136477037Y-132450591D01*
X135844728Y-131818282D01*
X135844727Y-131818282D01*
X135805380Y-131872439D01*
X135708904Y-132061782D01*
X135643242Y-132263869D01*
X135643242Y-132263872D01*
X135610000Y-132473753D01*
X135610000Y-132686246D01*
X135643242Y-132896127D01*
X135643242Y-132896130D01*
X135708904Y-133098217D01*
X135805375Y-133287550D01*
X135844728Y-133341716D01*
X136477037Y-132709408D01*
X136494075Y-132772993D01*
X136559901Y-132887007D01*
X136652993Y-132980099D01*
X136767007Y-133045925D01*
X136830590Y-133062962D01*
X136198282Y-133695269D01*
X136198282Y-133695270D01*
X136252449Y-133734624D01*
X136441782Y-133831095D01*
X136643870Y-133896757D01*
X136853754Y-133930000D01*
X137066246Y-133930000D01*
X137276127Y-133896757D01*
X137276130Y-133896757D01*
X137478217Y-133831095D01*
X137667554Y-133734622D01*
X137721716Y-133695270D01*
X137721717Y-133695270D01*
X137089408Y-133062962D01*
X137152993Y-133045925D01*
X137267007Y-132980099D01*
X137360099Y-132887007D01*
X137425925Y-132772993D01*
X137442962Y-132709408D01*
X138075270Y-133341717D01*
X138075270Y-133341716D01*
X138114622Y-133287554D01*
X138119514Y-133277954D01*
X138167488Y-133227157D01*
X138235308Y-133210361D01*
X138301444Y-133232897D01*
X138340486Y-133277954D01*
X138345375Y-133287550D01*
X138384728Y-133341716D01*
X139017037Y-132709408D01*
X139034075Y-132772993D01*
X139099901Y-132887007D01*
X139192993Y-132980099D01*
X139307007Y-133045925D01*
X139370590Y-133062962D01*
X138738282Y-133695269D01*
X138738282Y-133695270D01*
X138792449Y-133734624D01*
X138981782Y-133831095D01*
X139183870Y-133896757D01*
X139393754Y-133930000D01*
X139606246Y-133930000D01*
X139816127Y-133896757D01*
X139816130Y-133896757D01*
X140018217Y-133831095D01*
X140207554Y-133734622D01*
X140261716Y-133695270D01*
X140261717Y-133695270D01*
X139629408Y-133062962D01*
X139692993Y-133045925D01*
X139807007Y-132980099D01*
X139900099Y-132887007D01*
X139965925Y-132772993D01*
X139982962Y-132709408D01*
X140615270Y-133341717D01*
X140615270Y-133341716D01*
X140654622Y-133287554D01*
X140751095Y-133098217D01*
X140816757Y-132896130D01*
X140816757Y-132896127D01*
X140850000Y-132686246D01*
X140850000Y-132473753D01*
X140816757Y-132263872D01*
X140816757Y-132263869D01*
X140751095Y-132061782D01*
X140654624Y-131872449D01*
X140615270Y-131818282D01*
X140615269Y-131818282D01*
X139982962Y-132450590D01*
X139965925Y-132387007D01*
X139900099Y-132272993D01*
X139807007Y-132179901D01*
X139692993Y-132114075D01*
X139629409Y-132097037D01*
X140261716Y-131464728D01*
X140207547Y-131425373D01*
X140207547Y-131425372D01*
X140198500Y-131420763D01*
X140147706Y-131372788D01*
X140130912Y-131304966D01*
X140153451Y-131238832D01*
X140198508Y-131199793D01*
X140207816Y-131195051D01*
X140287007Y-131137515D01*
X140379786Y-131070109D01*
X140379788Y-131070106D01*
X140379792Y-131070104D01*
X140530104Y-130919792D01*
X140530106Y-130919788D01*
X140530109Y-130919786D01*
X140655048Y-130747820D01*
X140655047Y-130747820D01*
X140655051Y-130747816D01*
X140751557Y-130558412D01*
X140817246Y-130356243D01*
X140850500Y-130146287D01*
X140850500Y-129933713D01*
X140817246Y-129723757D01*
X140751557Y-129521588D01*
X140655051Y-129332184D01*
X140655049Y-129332181D01*
X140655048Y-129332179D01*
X140530109Y-129160213D01*
X140379786Y-129009890D01*
X140207820Y-128884951D01*
X140207115Y-128884591D01*
X140199054Y-128880485D01*
X140148259Y-128832512D01*
X140131463Y-128764692D01*
X140153999Y-128698556D01*
X140199054Y-128659515D01*
X140207816Y-128655051D01*
X140229789Y-128639086D01*
X140379786Y-128530109D01*
X140379788Y-128530106D01*
X140379792Y-128530104D01*
X140530104Y-128379792D01*
X140530106Y-128379788D01*
X140530109Y-128379786D01*
X140655048Y-128207820D01*
X140655047Y-128207820D01*
X140655051Y-128207816D01*
X140751557Y-128018412D01*
X140817246Y-127816243D01*
X140850500Y-127606287D01*
X140850500Y-127393713D01*
X140817246Y-127183757D01*
X140751557Y-126981588D01*
X140655051Y-126792184D01*
X140655049Y-126792181D01*
X140655048Y-126792179D01*
X140530109Y-126620213D01*
X140379786Y-126469890D01*
X140207820Y-126344951D01*
X140207115Y-126344591D01*
X140199054Y-126340485D01*
X140148259Y-126292512D01*
X140131463Y-126224692D01*
X140153999Y-126158556D01*
X140199054Y-126119515D01*
X140207816Y-126115051D01*
X140229789Y-126099086D01*
X140379786Y-125990109D01*
X140379788Y-125990106D01*
X140379792Y-125990104D01*
X140530104Y-125839792D01*
X140530106Y-125839788D01*
X140530109Y-125839786D01*
X140655048Y-125667820D01*
X140655047Y-125667820D01*
X140655051Y-125667816D01*
X140751557Y-125478412D01*
X140817246Y-125276243D01*
X140850500Y-125066287D01*
X140850500Y-124853713D01*
X140817246Y-124643757D01*
X140751557Y-124441588D01*
X140655051Y-124252184D01*
X140655049Y-124252181D01*
X140655048Y-124252179D01*
X140530109Y-124080213D01*
X140416181Y-123966285D01*
X140382696Y-123904962D01*
X140387680Y-123835270D01*
X140429552Y-123779337D01*
X140460529Y-123762422D01*
X140592086Y-123713354D01*
X140592093Y-123713350D01*
X140707187Y-123627190D01*
X140707190Y-123627187D01*
X140793350Y-123512093D01*
X140793354Y-123512086D01*
X140843596Y-123377379D01*
X140843598Y-123377372D01*
X140849999Y-123317844D01*
X140850000Y-123317827D01*
X140850000Y-122670000D01*
X139933012Y-122670000D01*
X139965925Y-122612993D01*
X140000000Y-122485826D01*
X140000000Y-122354174D01*
X139965925Y-122227007D01*
X139933012Y-122170000D01*
X140850000Y-122170000D01*
X140850000Y-121522172D01*
X140849999Y-121522155D01*
X140843598Y-121462627D01*
X140843596Y-121462620D01*
X140793354Y-121327913D01*
X140793350Y-121327906D01*
X140707190Y-121212812D01*
X140707187Y-121212809D01*
X140592093Y-121126649D01*
X140592086Y-121126645D01*
X140457379Y-121076403D01*
X140457372Y-121076401D01*
X140397844Y-121070000D01*
X139750000Y-121070000D01*
X139750000Y-121986988D01*
X139692993Y-121954075D01*
X139565826Y-121920000D01*
X139434174Y-121920000D01*
X139307007Y-121954075D01*
X139250000Y-121986988D01*
X139250000Y-121070000D01*
X138602155Y-121070000D01*
X138542627Y-121076401D01*
X138542620Y-121076403D01*
X138407913Y-121126645D01*
X138407906Y-121126649D01*
X138292812Y-121212809D01*
X138292809Y-121212812D01*
X138206649Y-121327906D01*
X138206645Y-121327913D01*
X138156403Y-121462619D01*
X138156401Y-121462626D01*
X138147497Y-121545444D01*
X138144434Y-121545114D01*
X138145336Y-121562094D01*
X138112356Y-121621195D01*
X137442962Y-122290590D01*
X137425925Y-122227007D01*
X137360099Y-122112993D01*
X137267007Y-122019901D01*
X137152993Y-121954075D01*
X137089409Y-121937037D01*
X137721716Y-121304728D01*
X137667550Y-121265375D01*
X137478217Y-121168904D01*
X137276129Y-121103242D01*
X137066246Y-121070000D01*
X136853754Y-121070000D01*
X136643872Y-121103242D01*
X136643869Y-121103242D01*
X136441782Y-121168904D01*
X136252439Y-121265380D01*
X136198282Y-121304727D01*
X136198282Y-121304728D01*
X136830591Y-121937037D01*
X136767007Y-121954075D01*
X136652993Y-122019901D01*
X136559901Y-122112993D01*
X136494075Y-122227007D01*
X136477037Y-122290591D01*
X135844728Y-121658282D01*
X135844727Y-121658282D01*
X135805380Y-121712439D01*
X135708904Y-121901782D01*
X135643242Y-122103869D01*
X135643242Y-122103872D01*
X135610000Y-122313753D01*
X135610000Y-122526246D01*
X135643242Y-122736127D01*
X135643242Y-122736130D01*
X135708904Y-122938217D01*
X135805375Y-123127550D01*
X135844728Y-123181716D01*
X136477037Y-122549408D01*
X136494075Y-122612993D01*
X136559901Y-122727007D01*
X136652993Y-122820099D01*
X136767007Y-122885925D01*
X136830590Y-122902962D01*
X136198282Y-123535269D01*
X136198282Y-123535270D01*
X136252452Y-123574626D01*
X136252451Y-123574626D01*
X136261495Y-123579234D01*
X136312292Y-123627208D01*
X136329087Y-123695029D01*
X136306550Y-123761164D01*
X136261499Y-123800202D01*
X136252182Y-123804949D01*
X136080213Y-123929890D01*
X135929890Y-124080213D01*
X135804951Y-124252179D01*
X135708444Y-124441585D01*
X135642753Y-124643760D01*
X135609500Y-124853713D01*
X103400500Y-124853713D01*
X103400500Y-99917158D01*
X103420185Y-99850119D01*
X103472989Y-99804364D01*
X103480712Y-99801147D01*
X103539082Y-99779115D01*
X103798519Y-99681190D01*
X104283469Y-99457554D01*
X104751288Y-99199999D01*
X105199609Y-98909830D01*
X105626162Y-98588517D01*
X106028786Y-98237684D01*
X106050706Y-98215653D01*
X106405439Y-97859115D01*
X106405438Y-97859115D01*
X106405444Y-97859110D01*
X106754228Y-97454710D01*
X107055267Y-97050823D01*
X107111112Y-97008837D01*
X107180793Y-97003708D01*
X107242186Y-97037066D01*
X107275798Y-97098319D01*
X107270959Y-97168021D01*
X107269249Y-97172380D01*
X107230263Y-97266503D01*
X107230261Y-97266510D01*
X107199500Y-97421153D01*
X107199500Y-97578846D01*
X107230261Y-97733489D01*
X107230264Y-97733501D01*
X107290602Y-97879172D01*
X107290609Y-97879185D01*
X107378210Y-98010288D01*
X107378213Y-98010292D01*
X107489707Y-98121786D01*
X107489711Y-98121789D01*
X107620814Y-98209390D01*
X107620827Y-98209397D01*
X107698378Y-98241519D01*
X107766503Y-98269737D01*
X107921153Y-98300499D01*
X107921156Y-98300500D01*
X107921158Y-98300500D01*
X108078844Y-98300500D01*
X108078845Y-98300499D01*
X108233497Y-98269737D01*
X108379179Y-98209394D01*
X108510289Y-98121789D01*
X108621789Y-98010289D01*
X108709394Y-97879179D01*
X108769737Y-97733497D01*
X108800500Y-97578842D01*
X108800500Y-97421158D01*
X108800500Y-97421155D01*
X108800499Y-97421153D01*
X108775105Y-97293486D01*
X108781332Y-97223895D01*
X108809039Y-97181616D01*
X114694586Y-91296069D01*
X114734810Y-91269192D01*
X114789435Y-91246566D01*
X114879173Y-91209397D01*
X114879176Y-91209395D01*
X114879179Y-91209394D01*
X115010289Y-91121789D01*
X115121789Y-91010289D01*
X115209394Y-90879179D01*
X115269737Y-90733497D01*
X115300500Y-90578842D01*
X115300500Y-90421158D01*
X115300500Y-90421155D01*
X115300499Y-90421153D01*
X115289700Y-90366865D01*
X115269737Y-90266503D01*
X115269191Y-90265184D01*
X115209397Y-90120827D01*
X115209390Y-90120814D01*
X115121789Y-89989711D01*
X115121786Y-89989707D01*
X115010292Y-89878213D01*
X115010288Y-89878210D01*
X114879185Y-89790609D01*
X114879172Y-89790602D01*
X114733501Y-89730264D01*
X114733489Y-89730261D01*
X114578845Y-89699500D01*
X114578842Y-89699500D01*
X114421158Y-89699500D01*
X114421155Y-89699500D01*
X114266510Y-89730261D01*
X114266498Y-89730264D01*
X114120827Y-89790602D01*
X114120814Y-89790609D01*
X113989711Y-89878210D01*
X113989707Y-89878213D01*
X113878213Y-89989707D01*
X113878210Y-89989711D01*
X113790609Y-90120814D01*
X113790604Y-90120823D01*
X113730809Y-90265184D01*
X113703929Y-90305412D01*
X107862324Y-96147017D01*
X107801001Y-96180502D01*
X107731309Y-96175518D01*
X107675376Y-96133646D01*
X107650959Y-96068182D01*
X107661776Y-96007983D01*
X107837611Y-95621545D01*
X108023659Y-95120970D01*
X108173640Y-94608432D01*
X108286795Y-94086526D01*
X108362552Y-93557895D01*
X108400527Y-93025216D01*
X108400527Y-92491184D01*
X108398956Y-92469154D01*
X108395112Y-92415232D01*
X108362552Y-91958505D01*
X108286795Y-91429874D01*
X108282017Y-91407838D01*
X108173644Y-90907986D01*
X108173638Y-90907961D01*
X108023666Y-90395452D01*
X108023663Y-90395444D01*
X108023659Y-90395430D01*
X107837611Y-89894855D01*
X107616439Y-89408776D01*
X107361263Y-88939655D01*
X107073373Y-88489867D01*
X106990866Y-88379172D01*
X106754233Y-88061696D01*
X106735228Y-88039661D01*
X106633018Y-87921153D01*
X107699500Y-87921153D01*
X107699500Y-88078846D01*
X107730261Y-88233489D01*
X107730264Y-88233501D01*
X107790602Y-88379172D01*
X107790609Y-88379185D01*
X107878210Y-88510288D01*
X107878213Y-88510292D01*
X107989707Y-88621786D01*
X107989711Y-88621789D01*
X108120814Y-88709390D01*
X108120827Y-88709397D01*
X108187031Y-88736819D01*
X108266503Y-88769737D01*
X108421153Y-88800499D01*
X108421156Y-88800500D01*
X108421158Y-88800500D01*
X108578844Y-88800500D01*
X108578845Y-88800499D01*
X108733497Y-88769737D01*
X108812969Y-88736819D01*
X108877864Y-88709939D01*
X108925316Y-88700500D01*
X116074684Y-88700500D01*
X116122136Y-88709939D01*
X116187031Y-88736819D01*
X116266503Y-88769737D01*
X116421153Y-88800499D01*
X116421156Y-88800500D01*
X116421158Y-88800500D01*
X116578844Y-88800500D01*
X116578845Y-88800499D01*
X116733497Y-88769737D01*
X116879179Y-88709394D01*
X117010289Y-88621789D01*
X117121789Y-88510289D01*
X117209394Y-88379179D01*
X117269737Y-88233497D01*
X117300500Y-88078842D01*
X117300500Y-87921158D01*
X117300500Y-87921155D01*
X117300499Y-87921153D01*
X117269738Y-87766510D01*
X117269737Y-87766503D01*
X117224500Y-87657290D01*
X117209397Y-87620827D01*
X117209390Y-87620814D01*
X117121789Y-87489711D01*
X117121786Y-87489707D01*
X117010292Y-87378213D01*
X117010288Y-87378210D01*
X116879185Y-87290609D01*
X116879172Y-87290602D01*
X116733501Y-87230264D01*
X116733489Y-87230261D01*
X116578845Y-87199500D01*
X116578842Y-87199500D01*
X116421158Y-87199500D01*
X116421155Y-87199500D01*
X116266510Y-87230261D01*
X116266498Y-87230264D01*
X116122136Y-87290061D01*
X116074684Y-87299500D01*
X108925316Y-87299500D01*
X108877864Y-87290061D01*
X108733501Y-87230264D01*
X108733489Y-87230261D01*
X108578845Y-87199500D01*
X108578842Y-87199500D01*
X108421158Y-87199500D01*
X108421155Y-87199500D01*
X108266510Y-87230261D01*
X108266498Y-87230264D01*
X108120827Y-87290602D01*
X108120814Y-87290609D01*
X107989711Y-87378210D01*
X107989707Y-87378213D01*
X107878213Y-87489707D01*
X107878210Y-87489711D01*
X107790609Y-87620814D01*
X107790602Y-87620827D01*
X107730264Y-87766498D01*
X107730261Y-87766510D01*
X107699500Y-87921153D01*
X106633018Y-87921153D01*
X106405444Y-87657290D01*
X106405439Y-87657284D01*
X106028804Y-87278733D01*
X106028797Y-87278726D01*
X105973180Y-87230263D01*
X105626162Y-86927883D01*
X105199609Y-86606570D01*
X105199606Y-86606568D01*
X105199602Y-86606565D01*
X104751296Y-86316406D01*
X104751281Y-86316397D01*
X104283469Y-86058846D01*
X104283460Y-86058842D01*
X103798529Y-85835214D01*
X103798513Y-85835207D01*
X103480711Y-85715251D01*
X103424942Y-85673160D01*
X103400782Y-85607601D01*
X103400500Y-85599240D01*
X103400500Y-82921153D01*
X124199500Y-82921153D01*
X124199500Y-83078846D01*
X124230261Y-83233489D01*
X124230264Y-83233501D01*
X124290061Y-83377864D01*
X124299500Y-83425316D01*
X124299500Y-97074684D01*
X124290061Y-97122136D01*
X124230264Y-97266498D01*
X124230261Y-97266510D01*
X124199500Y-97421153D01*
X124199500Y-97578846D01*
X124230261Y-97733489D01*
X124230264Y-97733501D01*
X124290602Y-97879172D01*
X124290609Y-97879185D01*
X124378210Y-98010288D01*
X124378213Y-98010292D01*
X124489707Y-98121786D01*
X124489711Y-98121789D01*
X124620814Y-98209390D01*
X124620827Y-98209397D01*
X124698378Y-98241519D01*
X124766503Y-98269737D01*
X124921153Y-98300499D01*
X124921156Y-98300500D01*
X124921158Y-98300500D01*
X125078844Y-98300500D01*
X125078845Y-98300499D01*
X125233497Y-98269737D01*
X125379179Y-98209394D01*
X125510289Y-98121789D01*
X125621789Y-98010289D01*
X125709394Y-97879179D01*
X125769737Y-97733497D01*
X125800500Y-97578842D01*
X125800500Y-97421158D01*
X125800500Y-97421155D01*
X125800499Y-97421153D01*
X125784659Y-97341519D01*
X125769737Y-97266503D01*
X125744423Y-97205389D01*
X125709939Y-97122136D01*
X125700500Y-97074684D01*
X125700500Y-83425316D01*
X125709939Y-83377864D01*
X125746082Y-83290606D01*
X125769737Y-83233497D01*
X125800500Y-83078842D01*
X125800500Y-82921158D01*
X125800500Y-82921155D01*
X125800499Y-82921153D01*
X125769738Y-82766510D01*
X125769737Y-82766503D01*
X125769735Y-82766498D01*
X125709397Y-82620827D01*
X125709390Y-82620814D01*
X125621789Y-82489711D01*
X125621786Y-82489707D01*
X125510292Y-82378213D01*
X125510288Y-82378210D01*
X125379185Y-82290609D01*
X125379172Y-82290602D01*
X125233501Y-82230264D01*
X125233489Y-82230261D01*
X125078845Y-82199500D01*
X125078842Y-82199500D01*
X124921158Y-82199500D01*
X124921155Y-82199500D01*
X124766510Y-82230261D01*
X124766498Y-82230264D01*
X124620827Y-82290602D01*
X124620814Y-82290609D01*
X124489711Y-82378210D01*
X124489707Y-82378213D01*
X124378213Y-82489707D01*
X124378210Y-82489711D01*
X124290609Y-82620814D01*
X124290602Y-82620827D01*
X124230264Y-82766498D01*
X124230261Y-82766510D01*
X124199500Y-82921153D01*
X103400500Y-82921153D01*
X103400500Y-61068996D01*
X125799499Y-61068996D01*
X125826418Y-61204322D01*
X125826421Y-61204332D01*
X125879222Y-61331807D01*
X125955887Y-61446545D01*
X125955888Y-61446546D01*
X129203927Y-64694583D01*
X129230807Y-64734812D01*
X129290602Y-64879172D01*
X129290609Y-64879185D01*
X129378210Y-65010288D01*
X129378213Y-65010292D01*
X129489707Y-65121786D01*
X129489711Y-65121789D01*
X129620814Y-65209390D01*
X129620827Y-65209397D01*
X129766498Y-65269735D01*
X129766503Y-65269737D01*
X129921153Y-65300499D01*
X129921156Y-65300500D01*
X129921158Y-65300500D01*
X130078844Y-65300500D01*
X130078845Y-65300499D01*
X130233497Y-65269737D01*
X130379179Y-65209394D01*
X130510289Y-65121789D01*
X130621789Y-65010289D01*
X130709394Y-64879179D01*
X130769737Y-64733497D01*
X130800500Y-64578842D01*
X130800500Y-64424500D01*
X130820185Y-64357461D01*
X130872989Y-64311706D01*
X130924500Y-64300500D01*
X131078843Y-64300500D01*
X131094564Y-64297372D01*
X131151309Y-64286085D01*
X131220899Y-64292312D01*
X131276077Y-64335174D01*
X131299322Y-64401063D01*
X131299500Y-64407702D01*
X131299500Y-113931006D01*
X131299500Y-114068994D01*
X131299500Y-114068996D01*
X131299499Y-114068996D01*
X131326418Y-114204322D01*
X131326421Y-114204332D01*
X131379222Y-114331807D01*
X131455887Y-114446545D01*
X131455888Y-114446546D01*
X132463181Y-115453838D01*
X132496666Y-115515161D01*
X132499500Y-115541517D01*
X132499500Y-115587868D01*
X132499501Y-115587876D01*
X132505908Y-115647483D01*
X132556202Y-115782328D01*
X132556206Y-115782335D01*
X132642452Y-115897544D01*
X132642455Y-115897547D01*
X132757664Y-115983793D01*
X132757671Y-115983797D01*
X132892517Y-116034091D01*
X132892516Y-116034091D01*
X132899444Y-116034835D01*
X132952127Y-116040500D01*
X136047872Y-116040499D01*
X136107483Y-116034091D01*
X136242331Y-115983796D01*
X136357546Y-115897546D01*
X136443796Y-115782331D01*
X136494091Y-115647483D01*
X136500500Y-115587873D01*
X136500499Y-114492128D01*
X136494091Y-114432517D01*
X136443796Y-114297669D01*
X136443795Y-114297668D01*
X136443793Y-114297664D01*
X136357547Y-114182455D01*
X136357544Y-114182452D01*
X136242335Y-114096206D01*
X136242328Y-114096202D01*
X136107482Y-114045908D01*
X136107483Y-114045908D01*
X136047883Y-114039501D01*
X136047881Y-114039500D01*
X136047873Y-114039500D01*
X136047865Y-114039500D01*
X133081519Y-114039500D01*
X133014480Y-114019815D01*
X132993838Y-114003181D01*
X132736819Y-113746162D01*
X132703334Y-113684839D01*
X132700500Y-113658481D01*
X132700500Y-111061066D01*
X132720185Y-110994027D01*
X132772989Y-110948272D01*
X132842147Y-110938328D01*
X132867833Y-110944884D01*
X132892517Y-110954091D01*
X132892516Y-110954091D01*
X132899444Y-110954835D01*
X132952127Y-110960500D01*
X136047872Y-110960499D01*
X136107483Y-110954091D01*
X136242331Y-110903796D01*
X136357546Y-110817546D01*
X136443796Y-110702331D01*
X136494091Y-110567483D01*
X136500500Y-110507873D01*
X136500499Y-109412128D01*
X136494091Y-109352517D01*
X136443796Y-109217669D01*
X136443794Y-109217666D01*
X136443793Y-109217664D01*
X136357547Y-109102455D01*
X136357544Y-109102452D01*
X136242335Y-109016206D01*
X136242328Y-109016202D01*
X136107482Y-108965908D01*
X136107483Y-108965908D01*
X136047883Y-108959501D01*
X136047881Y-108959500D01*
X136047873Y-108959500D01*
X136047865Y-108959500D01*
X134541518Y-108959500D01*
X134474479Y-108939815D01*
X134453837Y-108923181D01*
X133736819Y-108206162D01*
X133703334Y-108144839D01*
X133700500Y-108118481D01*
X133700500Y-107490518D01*
X133720185Y-107423479D01*
X133772989Y-107377724D01*
X133842147Y-107367780D01*
X133905703Y-107396805D01*
X133912181Y-107402837D01*
X134955886Y-108446542D01*
X135053458Y-108544114D01*
X135053459Y-108544115D01*
X135168182Y-108620771D01*
X135168186Y-108620773D01*
X135168189Y-108620775D01*
X135242866Y-108651707D01*
X135295671Y-108673580D01*
X135322591Y-108678934D01*
X135419630Y-108698237D01*
X135431006Y-108700500D01*
X135431007Y-108700500D01*
X140198481Y-108700500D01*
X140265520Y-108720185D01*
X140286162Y-108736819D01*
X140570476Y-109021133D01*
X140603961Y-109082456D01*
X140598977Y-109152148D01*
X140582064Y-109183122D01*
X140556205Y-109217666D01*
X140556202Y-109217671D01*
X140505908Y-109352517D01*
X140499501Y-109412116D01*
X140499501Y-109412123D01*
X140499500Y-109412135D01*
X140499500Y-110507870D01*
X140499501Y-110507876D01*
X140505908Y-110567483D01*
X140556202Y-110702328D01*
X140556206Y-110702335D01*
X140642452Y-110817544D01*
X140642455Y-110817547D01*
X140757664Y-110903793D01*
X140757671Y-110903797D01*
X140892517Y-110954091D01*
X140892516Y-110954091D01*
X140899444Y-110954835D01*
X140952127Y-110960500D01*
X144047872Y-110960499D01*
X144107483Y-110954091D01*
X144132165Y-110944884D01*
X144201856Y-110939899D01*
X144263180Y-110973384D01*
X144296666Y-111034706D01*
X144299500Y-111061066D01*
X144299500Y-113658480D01*
X144279815Y-113725519D01*
X144263181Y-113746161D01*
X144006161Y-114003181D01*
X143944838Y-114036666D01*
X143918480Y-114039500D01*
X140952129Y-114039500D01*
X140952123Y-114039501D01*
X140892516Y-114045908D01*
X140757671Y-114096202D01*
X140757664Y-114096206D01*
X140642455Y-114182452D01*
X140642452Y-114182455D01*
X140556206Y-114297664D01*
X140556202Y-114297671D01*
X140505908Y-114432517D01*
X140499501Y-114492116D01*
X140499501Y-114492123D01*
X140499500Y-114492135D01*
X140499500Y-115587870D01*
X140499501Y-115587876D01*
X140505908Y-115647483D01*
X140556202Y-115782328D01*
X140556206Y-115782335D01*
X140642452Y-115897544D01*
X140642455Y-115897547D01*
X140757664Y-115983793D01*
X140757671Y-115983797D01*
X140892517Y-116034091D01*
X140892516Y-116034091D01*
X140899444Y-116034835D01*
X140952127Y-116040500D01*
X144047872Y-116040499D01*
X144107483Y-116034091D01*
X144242331Y-115983796D01*
X144357546Y-115897546D01*
X144443796Y-115782331D01*
X144494091Y-115647483D01*
X144500500Y-115587873D01*
X144500500Y-115541517D01*
X144520182Y-115474481D01*
X144536813Y-115453842D01*
X145544114Y-114446543D01*
X145620775Y-114331811D01*
X145673580Y-114204328D01*
X145700500Y-114068994D01*
X145700500Y-113931006D01*
X145700500Y-112393713D01*
X147884500Y-112393713D01*
X147884500Y-112606286D01*
X147917753Y-112816239D01*
X147983444Y-113018414D01*
X148079951Y-113207820D01*
X148204890Y-113379786D01*
X148355213Y-113530109D01*
X148527179Y-113655048D01*
X148527181Y-113655049D01*
X148527184Y-113655051D01*
X148716588Y-113751557D01*
X148918757Y-113817246D01*
X149128713Y-113850500D01*
X149128714Y-113850500D01*
X149341286Y-113850500D01*
X149341287Y-113850500D01*
X149551243Y-113817246D01*
X149753412Y-113751557D01*
X149942816Y-113655051D01*
X150114792Y-113530104D01*
X150228329Y-113416566D01*
X150289648Y-113383084D01*
X150359340Y-113388068D01*
X150415274Y-113429939D01*
X150432189Y-113460917D01*
X150481202Y-113592328D01*
X150481206Y-113592335D01*
X150567452Y-113707544D01*
X150567455Y-113707547D01*
X150682664Y-113793793D01*
X150682671Y-113793797D01*
X150817517Y-113844091D01*
X150817516Y-113844091D01*
X150824444Y-113844835D01*
X150877127Y-113850500D01*
X152672872Y-113850499D01*
X152732483Y-113844091D01*
X152867331Y-113793796D01*
X152982546Y-113707546D01*
X153068796Y-113592331D01*
X153119091Y-113457483D01*
X153125500Y-113397873D01*
X153125499Y-111602128D01*
X153119091Y-111542517D01*
X153117810Y-111539083D01*
X153068797Y-111407671D01*
X153068793Y-111407664D01*
X152982547Y-111292455D01*
X152982544Y-111292452D01*
X152867335Y-111206206D01*
X152867328Y-111206202D01*
X152732482Y-111155908D01*
X152732483Y-111155908D01*
X152672883Y-111149501D01*
X152672881Y-111149500D01*
X152672873Y-111149500D01*
X152672864Y-111149500D01*
X150877129Y-111149500D01*
X150877123Y-111149501D01*
X150817516Y-111155908D01*
X150682671Y-111206202D01*
X150682664Y-111206206D01*
X150567455Y-111292452D01*
X150567452Y-111292455D01*
X150481206Y-111407664D01*
X150481203Y-111407669D01*
X150432189Y-111539083D01*
X150390317Y-111595016D01*
X150324853Y-111619433D01*
X150256580Y-111604581D01*
X150228326Y-111583430D01*
X150114786Y-111469890D01*
X149942820Y-111344951D01*
X149753414Y-111248444D01*
X149753413Y-111248443D01*
X149753412Y-111248443D01*
X149551243Y-111182754D01*
X149551241Y-111182753D01*
X149551240Y-111182753D01*
X149389957Y-111157208D01*
X149341287Y-111149500D01*
X149128713Y-111149500D01*
X149080042Y-111157208D01*
X148918760Y-111182753D01*
X148716585Y-111248444D01*
X148527179Y-111344951D01*
X148355213Y-111469890D01*
X148204890Y-111620213D01*
X148079951Y-111792179D01*
X147983444Y-111981585D01*
X147917753Y-112183760D01*
X147884500Y-112393713D01*
X145700500Y-112393713D01*
X145700500Y-107931007D01*
X145700500Y-107931004D01*
X145673581Y-107795677D01*
X145673580Y-107795676D01*
X145673580Y-107795672D01*
X145673578Y-107795667D01*
X145620778Y-107668195D01*
X145620771Y-107668182D01*
X145544115Y-107553459D01*
X145544114Y-107553458D01*
X145446542Y-107455886D01*
X145073541Y-107082885D01*
X143946546Y-105955888D01*
X143946545Y-105955887D01*
X143831807Y-105879222D01*
X143704332Y-105826421D01*
X143704322Y-105826418D01*
X143568996Y-105799500D01*
X143568994Y-105799500D01*
X143568993Y-105799500D01*
X136841518Y-105799500D01*
X136774479Y-105779815D01*
X136753837Y-105763181D01*
X135736819Y-104746162D01*
X135703334Y-104684839D01*
X135700500Y-104658481D01*
X135700500Y-83921153D01*
X142199500Y-83921153D01*
X142199500Y-84078846D01*
X142230261Y-84233489D01*
X142230264Y-84233501D01*
X142290061Y-84377864D01*
X142299500Y-84425316D01*
X142299500Y-84922370D01*
X142299500Y-85060358D01*
X142299500Y-85060360D01*
X142299499Y-85060360D01*
X142326418Y-85195686D01*
X142326421Y-85195696D01*
X142379222Y-85323171D01*
X142455887Y-85437909D01*
X142455888Y-85437910D01*
X152998181Y-95980202D01*
X153031666Y-96041525D01*
X153034500Y-96067883D01*
X153034500Y-101782806D01*
X153014815Y-101849845D01*
X152993690Y-101873577D01*
X152994018Y-101873905D01*
X152989713Y-101878209D01*
X152989711Y-101878211D01*
X152946769Y-101921153D01*
X152878209Y-101989712D01*
X152790609Y-102120814D01*
X152790602Y-102120827D01*
X152730264Y-102266498D01*
X152730261Y-102266510D01*
X152699500Y-102421153D01*
X152699500Y-102578846D01*
X152730261Y-102733489D01*
X152730264Y-102733501D01*
X152790602Y-102879172D01*
X152790609Y-102879185D01*
X152878210Y-103010288D01*
X152878213Y-103010292D01*
X152989707Y-103121786D01*
X152989711Y-103121789D01*
X153120814Y-103209390D01*
X153120827Y-103209397D01*
X153266498Y-103269735D01*
X153266503Y-103269737D01*
X153421153Y-103300499D01*
X153421156Y-103300500D01*
X153421158Y-103300500D01*
X153578844Y-103300500D01*
X153578845Y-103300499D01*
X153733497Y-103269737D01*
X153879179Y-103209394D01*
X154010289Y-103121789D01*
X154121789Y-103010289D01*
X154209394Y-102879179D01*
X154254727Y-102769735D01*
X154272069Y-102727868D01*
X154272786Y-102728165D01*
X154284356Y-102703699D01*
X154355774Y-102596813D01*
X154391612Y-102510292D01*
X154408580Y-102469329D01*
X154413991Y-102442122D01*
X154419452Y-102414672D01*
X154419452Y-102414669D01*
X154435500Y-102333993D01*
X154435500Y-95657371D01*
X154423991Y-95599514D01*
X154423989Y-95599506D01*
X154408581Y-95522043D01*
X154408580Y-95522036D01*
X154355775Y-95394553D01*
X154279114Y-95279821D01*
X154279112Y-95279818D01*
X143736819Y-84737525D01*
X143703334Y-84676202D01*
X143700500Y-84649844D01*
X143700500Y-84473104D01*
X143720185Y-84406065D01*
X143772989Y-84360310D01*
X143842147Y-84350366D01*
X143905703Y-84379391D01*
X143927603Y-84404214D01*
X143955887Y-84446545D01*
X143955888Y-84446546D01*
X155263181Y-95753838D01*
X155296666Y-95815161D01*
X155299500Y-95841519D01*
X155299500Y-101574684D01*
X155290061Y-101622136D01*
X155230264Y-101766498D01*
X155230261Y-101766510D01*
X155199500Y-101921153D01*
X155199500Y-102078846D01*
X155230261Y-102233489D01*
X155230264Y-102233501D01*
X155290602Y-102379172D01*
X155290609Y-102379185D01*
X155378210Y-102510288D01*
X155378213Y-102510292D01*
X155489707Y-102621786D01*
X155489711Y-102621789D01*
X155620814Y-102709390D01*
X155620827Y-102709397D01*
X155766498Y-102769735D01*
X155766503Y-102769737D01*
X155921153Y-102800499D01*
X155921156Y-102800500D01*
X155921158Y-102800500D01*
X156078844Y-102800500D01*
X156078845Y-102800499D01*
X156233497Y-102769737D01*
X156379179Y-102709394D01*
X156510289Y-102621789D01*
X156621789Y-102510289D01*
X156709394Y-102379179D01*
X156769737Y-102233497D01*
X156800500Y-102078842D01*
X156800500Y-101921158D01*
X156800500Y-101921155D01*
X156800499Y-101921153D01*
X156769738Y-101766510D01*
X156769737Y-101766503D01*
X156709939Y-101622136D01*
X156700500Y-101574684D01*
X156700500Y-96490519D01*
X156720185Y-96423480D01*
X156772989Y-96377725D01*
X156842147Y-96367781D01*
X156905703Y-96396806D01*
X156912181Y-96402838D01*
X157763181Y-97253838D01*
X157796666Y-97315161D01*
X157799500Y-97341519D01*
X157799500Y-100074684D01*
X157790061Y-100122136D01*
X157730264Y-100266498D01*
X157730261Y-100266510D01*
X157699500Y-100421153D01*
X157699500Y-100578846D01*
X157730261Y-100733489D01*
X157730264Y-100733501D01*
X157790602Y-100879172D01*
X157790609Y-100879185D01*
X157878210Y-101010288D01*
X157878213Y-101010292D01*
X157989707Y-101121786D01*
X157989711Y-101121789D01*
X158120814Y-101209390D01*
X158120827Y-101209397D01*
X158266498Y-101269735D01*
X158266503Y-101269737D01*
X158421153Y-101300499D01*
X158421156Y-101300500D01*
X158421158Y-101300500D01*
X158578844Y-101300500D01*
X158578845Y-101300499D01*
X158733497Y-101269737D01*
X158879179Y-101209394D01*
X159010289Y-101121789D01*
X159121789Y-101010289D01*
X159209394Y-100879179D01*
X159269737Y-100733497D01*
X159300500Y-100578842D01*
X159300500Y-100421158D01*
X159300500Y-100421155D01*
X159300499Y-100421153D01*
X159269738Y-100266510D01*
X159269737Y-100266503D01*
X159209939Y-100122136D01*
X159200500Y-100074684D01*
X159200500Y-96931004D01*
X159173581Y-96795677D01*
X159173580Y-96795676D01*
X159173580Y-96795672D01*
X159120775Y-96668189D01*
X159044953Y-96554713D01*
X159044114Y-96553457D01*
X159044111Y-96553454D01*
X159044109Y-96553451D01*
X150411811Y-87921153D01*
X153199500Y-87921153D01*
X153199500Y-88078846D01*
X153230261Y-88233489D01*
X153230264Y-88233501D01*
X153290602Y-88379172D01*
X153290609Y-88379185D01*
X153378210Y-88510288D01*
X153378213Y-88510292D01*
X153489707Y-88621786D01*
X153489711Y-88621789D01*
X153620814Y-88709390D01*
X153620827Y-88709397D01*
X153687031Y-88736819D01*
X153766503Y-88769737D01*
X153921153Y-88800499D01*
X153921156Y-88800500D01*
X153921158Y-88800500D01*
X154078844Y-88800500D01*
X154078845Y-88800499D01*
X154233497Y-88769737D01*
X154312969Y-88736819D01*
X154377864Y-88709939D01*
X154386040Y-88708312D01*
X154390381Y-88705523D01*
X154425316Y-88700500D01*
X154658481Y-88700500D01*
X154725520Y-88720185D01*
X154746162Y-88736819D01*
X165263181Y-99253838D01*
X165296666Y-99315161D01*
X165299500Y-99341519D01*
X165299500Y-148085218D01*
X165279815Y-148152257D01*
X165227011Y-148198012D01*
X165157853Y-148207956D01*
X165094297Y-148178931D01*
X165087819Y-148172899D01*
X158781479Y-141866559D01*
X158781459Y-141866537D01*
X158637785Y-141722863D01*
X158637781Y-141722860D01*
X158473920Y-141613371D01*
X158473911Y-141613366D01*
X158401315Y-141583296D01*
X158345165Y-141560038D01*
X158291836Y-141537949D01*
X158291832Y-141537948D01*
X158291828Y-141537946D01*
X158195188Y-141518724D01*
X158098544Y-141499500D01*
X158098541Y-141499500D01*
X157901459Y-141499500D01*
X157901455Y-141499500D01*
X157804812Y-141518724D01*
X157708167Y-141537947D01*
X157708161Y-141537949D01*
X157654834Y-141560037D01*
X157654834Y-141560038D01*
X157609315Y-141578892D01*
X157526089Y-141613366D01*
X157526079Y-141613371D01*
X157362218Y-141722860D01*
X157362214Y-141722863D01*
X157222863Y-141862214D01*
X157222860Y-141862218D01*
X157113371Y-142026079D01*
X157113364Y-142026092D01*
X157037950Y-142208160D01*
X157037947Y-142208170D01*
X156999500Y-142401456D01*
X156999500Y-142401459D01*
X156999500Y-142598541D01*
X156999500Y-142598543D01*
X156999499Y-142598543D01*
X157037947Y-142791829D01*
X157037950Y-142791839D01*
X157113364Y-142973907D01*
X157113371Y-142973920D01*
X157222860Y-143137781D01*
X157222863Y-143137785D01*
X157366537Y-143281459D01*
X157366559Y-143281479D01*
X163719735Y-149634655D01*
X163719764Y-149634686D01*
X163862214Y-149777136D01*
X163862218Y-149777139D01*
X164026079Y-149886628D01*
X164026092Y-149886635D01*
X164154833Y-149939961D01*
X164197744Y-149957735D01*
X164208164Y-149962051D01*
X164304812Y-149981275D01*
X164353135Y-149990887D01*
X164401458Y-150000500D01*
X164401459Y-150000500D01*
X164598542Y-150000500D01*
X164629566Y-149994328D01*
X164695188Y-149981275D01*
X164791836Y-149962051D01*
X164845165Y-149939961D01*
X164973914Y-149886632D01*
X165106609Y-149797967D01*
X165173287Y-149777090D01*
X165240667Y-149795575D01*
X165287357Y-149847553D01*
X165299500Y-149901070D01*
X165299500Y-153431006D01*
X165299500Y-153568994D01*
X165299500Y-153568996D01*
X165299499Y-153568996D01*
X165326418Y-153704322D01*
X165326421Y-153704332D01*
X165379222Y-153831807D01*
X165455887Y-153946545D01*
X165455888Y-153946546D01*
X165703928Y-154194585D01*
X165730808Y-154234814D01*
X165790602Y-154379172D01*
X165790609Y-154379185D01*
X165878210Y-154510288D01*
X165878213Y-154510292D01*
X165989707Y-154621786D01*
X165989711Y-154621789D01*
X166120814Y-154709390D01*
X166120827Y-154709397D01*
X166243886Y-154760369D01*
X166266503Y-154769737D01*
X166420992Y-154800467D01*
X166421153Y-154800499D01*
X166421156Y-154800500D01*
X166421158Y-154800500D01*
X166578844Y-154800500D01*
X166578845Y-154800499D01*
X166733497Y-154769737D01*
X166879179Y-154709394D01*
X167010289Y-154621789D01*
X167121789Y-154510289D01*
X167209394Y-154379179D01*
X167269737Y-154233497D01*
X167300500Y-154078842D01*
X167300500Y-153921158D01*
X167300500Y-153921155D01*
X167300499Y-153921153D01*
X167269737Y-153766503D01*
X167243985Y-153704332D01*
X167209397Y-153620827D01*
X167209390Y-153620814D01*
X167121789Y-153489711D01*
X167121786Y-153489707D01*
X167010292Y-153378213D01*
X167010288Y-153378210D01*
X166879185Y-153290609D01*
X166879175Y-153290604D01*
X166777047Y-153248301D01*
X166722644Y-153204460D01*
X166700579Y-153138166D01*
X166700500Y-153133740D01*
X166700500Y-142973104D01*
X166720185Y-142906065D01*
X166772989Y-142860310D01*
X166842147Y-142850366D01*
X166905703Y-142879391D01*
X166927603Y-142904214D01*
X166955887Y-142946545D01*
X166955888Y-142946546D01*
X171203928Y-147194585D01*
X171230808Y-147234814D01*
X171290602Y-147379172D01*
X171290609Y-147379185D01*
X171378210Y-147510288D01*
X171378213Y-147510292D01*
X171489707Y-147621786D01*
X171489711Y-147621789D01*
X171620814Y-147709390D01*
X171620827Y-147709397D01*
X171766498Y-147769735D01*
X171766503Y-147769737D01*
X171921153Y-147800499D01*
X171921156Y-147800500D01*
X171921158Y-147800500D01*
X172078844Y-147800500D01*
X172078845Y-147800499D01*
X172233497Y-147769737D01*
X172379179Y-147709394D01*
X172510289Y-147621789D01*
X172621789Y-147510289D01*
X172709394Y-147379179D01*
X172769737Y-147233497D01*
X172800500Y-147078842D01*
X172800500Y-146921158D01*
X172800500Y-146921155D01*
X172800499Y-146921153D01*
X172769738Y-146766510D01*
X172769737Y-146766503D01*
X172769735Y-146766498D01*
X172709397Y-146620827D01*
X172709390Y-146620814D01*
X172621789Y-146489711D01*
X172621786Y-146489707D01*
X172510292Y-146378213D01*
X172510288Y-146378210D01*
X172379185Y-146290609D01*
X172379172Y-146290602D01*
X172234814Y-146230808D01*
X172194585Y-146203928D01*
X168236819Y-142246162D01*
X168203334Y-142184839D01*
X168200500Y-142158481D01*
X168200500Y-97831004D01*
X168173581Y-97695677D01*
X168173580Y-97695676D01*
X168173580Y-97695672D01*
X168125189Y-97578846D01*
X168120776Y-97568191D01*
X168044951Y-97454710D01*
X168044939Y-97454692D01*
X168044113Y-97453455D01*
X168044111Y-97453453D01*
X156596071Y-86005414D01*
X156569191Y-85965185D01*
X156509397Y-85820827D01*
X156509390Y-85820814D01*
X156421789Y-85689711D01*
X156421786Y-85689707D01*
X156310292Y-85578213D01*
X156310288Y-85578210D01*
X156179185Y-85490609D01*
X156179172Y-85490602D01*
X156033501Y-85430264D01*
X156033489Y-85430261D01*
X155878845Y-85399500D01*
X155878842Y-85399500D01*
X155721158Y-85399500D01*
X155721155Y-85399500D01*
X155566510Y-85430261D01*
X155566498Y-85430264D01*
X155420827Y-85490602D01*
X155420814Y-85490609D01*
X155289711Y-85578210D01*
X155289707Y-85578213D01*
X155178213Y-85689707D01*
X155178210Y-85689711D01*
X155090609Y-85820814D01*
X155090602Y-85820827D01*
X155030264Y-85966498D01*
X155030261Y-85966510D01*
X154999500Y-86121153D01*
X154999500Y-86278846D01*
X155030261Y-86433489D01*
X155030264Y-86433501D01*
X155090602Y-86579172D01*
X155090609Y-86579185D01*
X155178210Y-86710288D01*
X155178213Y-86710292D01*
X155289707Y-86821786D01*
X155289711Y-86821789D01*
X155420814Y-86909390D01*
X155420827Y-86909397D01*
X155565185Y-86969191D01*
X155605414Y-86996071D01*
X166763181Y-98153838D01*
X166796666Y-98215161D01*
X166799500Y-98241519D01*
X166799500Y-98526895D01*
X166779815Y-98593934D01*
X166727011Y-98639689D01*
X166657853Y-98649633D01*
X166594297Y-98620608D01*
X166572398Y-98595786D01*
X166544114Y-98553457D01*
X166544111Y-98553453D01*
X155446545Y-87455887D01*
X155331807Y-87379222D01*
X155204332Y-87326421D01*
X155204322Y-87326418D01*
X155068996Y-87299500D01*
X155068994Y-87299500D01*
X155068993Y-87299500D01*
X154425316Y-87299500D01*
X154377864Y-87290061D01*
X154233501Y-87230264D01*
X154233489Y-87230261D01*
X154078845Y-87199500D01*
X154078842Y-87199500D01*
X153921158Y-87199500D01*
X153921155Y-87199500D01*
X153766510Y-87230261D01*
X153766498Y-87230264D01*
X153620827Y-87290602D01*
X153620814Y-87290609D01*
X153489711Y-87378210D01*
X153489707Y-87378213D01*
X153378213Y-87489707D01*
X153378210Y-87489711D01*
X153290609Y-87620814D01*
X153290602Y-87620827D01*
X153230264Y-87766498D01*
X153230261Y-87766510D01*
X153199500Y-87921153D01*
X150411811Y-87921153D01*
X146736819Y-84246161D01*
X146703334Y-84184838D01*
X146700500Y-84158480D01*
X146700500Y-81925316D01*
X146709939Y-81877864D01*
X146769735Y-81733501D01*
X146769737Y-81733497D01*
X146800500Y-81578842D01*
X146800500Y-81421158D01*
X146800500Y-81421155D01*
X146800499Y-81421153D01*
X146769738Y-81266510D01*
X146769737Y-81266503D01*
X146769735Y-81266498D01*
X146709397Y-81120827D01*
X146709390Y-81120814D01*
X146621789Y-80989711D01*
X146621786Y-80989707D01*
X146510292Y-80878213D01*
X146510288Y-80878210D01*
X146379185Y-80790609D01*
X146379172Y-80790602D01*
X146233501Y-80730264D01*
X146233489Y-80730261D01*
X146078845Y-80699500D01*
X146078842Y-80699500D01*
X145921158Y-80699500D01*
X145921155Y-80699500D01*
X145766510Y-80730261D01*
X145766498Y-80730264D01*
X145620827Y-80790602D01*
X145620814Y-80790609D01*
X145489711Y-80878210D01*
X145489707Y-80878213D01*
X145378213Y-80989707D01*
X145378210Y-80989711D01*
X145290609Y-81120814D01*
X145290602Y-81120827D01*
X145230264Y-81266498D01*
X145230261Y-81266510D01*
X145199500Y-81421153D01*
X145199500Y-81578846D01*
X145230261Y-81733489D01*
X145230264Y-81733501D01*
X145290061Y-81877864D01*
X145299500Y-81925316D01*
X145299500Y-82368059D01*
X145279815Y-82435098D01*
X145227011Y-82480853D01*
X145157853Y-82490797D01*
X145094297Y-82461772D01*
X145087819Y-82455740D01*
X145010292Y-82378213D01*
X145010288Y-82378210D01*
X144879185Y-82290609D01*
X144879172Y-82290602D01*
X144733501Y-82230264D01*
X144733489Y-82230261D01*
X144578845Y-82199500D01*
X144578842Y-82199500D01*
X144421158Y-82199500D01*
X144421155Y-82199500D01*
X144266510Y-82230261D01*
X144266498Y-82230264D01*
X144120827Y-82290602D01*
X144120814Y-82290609D01*
X143989711Y-82378210D01*
X143989707Y-82378213D01*
X143878213Y-82489707D01*
X143878210Y-82489711D01*
X143790609Y-82620814D01*
X143790602Y-82620827D01*
X143730264Y-82766498D01*
X143730261Y-82766510D01*
X143699500Y-82921153D01*
X143699500Y-83078846D01*
X143730261Y-83233489D01*
X143730263Y-83233497D01*
X143749575Y-83280120D01*
X143757043Y-83349590D01*
X143725767Y-83412069D01*
X143665678Y-83447721D01*
X143595853Y-83445226D01*
X143547332Y-83415253D01*
X143510292Y-83378213D01*
X143510288Y-83378210D01*
X143379185Y-83290609D01*
X143379172Y-83290602D01*
X143233501Y-83230264D01*
X143233489Y-83230261D01*
X143078845Y-83199500D01*
X143078842Y-83199500D01*
X142921158Y-83199500D01*
X142921155Y-83199500D01*
X142766510Y-83230261D01*
X142766498Y-83230264D01*
X142620827Y-83290602D01*
X142620814Y-83290609D01*
X142489711Y-83378210D01*
X142489707Y-83378213D01*
X142378213Y-83489707D01*
X142378210Y-83489711D01*
X142290609Y-83620814D01*
X142290602Y-83620827D01*
X142230264Y-83766498D01*
X142230261Y-83766510D01*
X142199500Y-83921153D01*
X135700500Y-83921153D01*
X135700500Y-64925316D01*
X135709939Y-64877864D01*
X135769735Y-64733501D01*
X135769737Y-64733497D01*
X135800500Y-64578842D01*
X135800500Y-64421158D01*
X135800500Y-64421155D01*
X135800499Y-64421153D01*
X135787830Y-64357461D01*
X135769737Y-64266503D01*
X135759752Y-64242397D01*
X135709397Y-64120827D01*
X135709390Y-64120814D01*
X135621789Y-63989711D01*
X135621786Y-63989707D01*
X135510292Y-63878213D01*
X135510288Y-63878210D01*
X135379185Y-63790609D01*
X135379172Y-63790602D01*
X135233501Y-63730264D01*
X135233489Y-63730261D01*
X135078845Y-63699500D01*
X135078842Y-63699500D01*
X134924500Y-63699500D01*
X134857461Y-63679815D01*
X134811706Y-63627011D01*
X134800500Y-63575500D01*
X134800500Y-63421155D01*
X134800499Y-63421153D01*
X134769738Y-63266510D01*
X134769737Y-63266503D01*
X134769735Y-63266498D01*
X134709397Y-63120827D01*
X134709390Y-63120814D01*
X134621789Y-62989711D01*
X134621786Y-62989707D01*
X134510292Y-62878213D01*
X134510288Y-62878210D01*
X134379185Y-62790609D01*
X134379172Y-62790602D01*
X134233501Y-62730264D01*
X134233489Y-62730261D01*
X134078845Y-62699500D01*
X134078842Y-62699500D01*
X133921158Y-62699500D01*
X133921155Y-62699500D01*
X133848691Y-62713914D01*
X133779100Y-62707687D01*
X133723922Y-62664824D01*
X133700678Y-62598934D01*
X133700500Y-62592297D01*
X133700500Y-60907702D01*
X133720185Y-60840663D01*
X133772989Y-60794908D01*
X133842147Y-60784964D01*
X133848667Y-60786080D01*
X133905435Y-60797372D01*
X133921157Y-60800500D01*
X133921158Y-60800500D01*
X134078844Y-60800500D01*
X134078845Y-60800499D01*
X134233497Y-60769737D01*
X134379179Y-60709394D01*
X134510289Y-60621789D01*
X134621789Y-60510289D01*
X134709394Y-60379179D01*
X134769737Y-60233497D01*
X134800500Y-60078842D01*
X134800500Y-60018750D01*
X134820185Y-59951711D01*
X134872989Y-59905956D01*
X134935719Y-59895259D01*
X134993384Y-59900500D01*
X134993389Y-59900500D01*
X136006613Y-59900500D01*
X136006616Y-59900500D01*
X136077196Y-59894086D01*
X136239606Y-59843478D01*
X136385185Y-59755472D01*
X136505472Y-59635185D01*
X136593478Y-59489606D01*
X136644086Y-59327196D01*
X136650500Y-59256616D01*
X136650500Y-58743384D01*
X136644086Y-58672804D01*
X136593478Y-58510394D01*
X136506716Y-58366873D01*
X136488881Y-58299322D01*
X136509731Y-58233839D01*
X136548013Y-58176547D01*
X136615894Y-58012666D01*
X136650500Y-57838691D01*
X136650500Y-57661309D01*
X136650500Y-57661306D01*
X136650499Y-57661304D01*
X136615896Y-57487341D01*
X136615893Y-57487332D01*
X136548016Y-57323459D01*
X136548014Y-57323455D01*
X136548013Y-57323453D01*
X136461140Y-57193440D01*
X136440263Y-57126764D01*
X136458747Y-57059384D01*
X136461141Y-57055659D01*
X136547566Y-56926315D01*
X136547571Y-56926306D01*
X136615412Y-56762523D01*
X136615415Y-56762516D01*
X136617904Y-56750000D01*
X135624000Y-56750000D01*
X135580538Y-56737238D01*
X135641614Y-56711940D01*
X135711940Y-56641614D01*
X135750000Y-56549728D01*
X135750000Y-56450272D01*
X135711940Y-56358386D01*
X135641614Y-56288060D01*
X135575303Y-56260593D01*
X135624000Y-56250000D01*
X136617904Y-56250000D01*
X136615415Y-56237483D01*
X136615412Y-56237476D01*
X136547571Y-56073693D01*
X136547566Y-56073683D01*
X136461141Y-55944340D01*
X136440263Y-55877663D01*
X136458747Y-55810283D01*
X136461129Y-55806576D01*
X136548013Y-55676547D01*
X136615894Y-55512666D01*
X136616367Y-55510292D01*
X136650499Y-55338695D01*
X136650500Y-55338693D01*
X136650500Y-55161306D01*
X136650499Y-55161304D01*
X136615896Y-54987341D01*
X136615893Y-54987332D01*
X136548016Y-54823459D01*
X136548014Y-54823455D01*
X136548013Y-54823453D01*
X136461442Y-54693891D01*
X136440564Y-54627214D01*
X136459048Y-54559834D01*
X136461442Y-54556109D01*
X136505808Y-54489711D01*
X136548013Y-54426547D01*
X136615894Y-54262666D01*
X136622340Y-54230263D01*
X136650499Y-54088695D01*
X136650500Y-54088693D01*
X136650500Y-53911306D01*
X136650499Y-53911304D01*
X136615896Y-53737341D01*
X136615893Y-53737332D01*
X136614954Y-53735066D01*
X136550247Y-53578846D01*
X136548016Y-53573459D01*
X136548009Y-53573446D01*
X136449464Y-53425965D01*
X136449461Y-53425961D01*
X136324038Y-53300538D01*
X136324034Y-53300535D01*
X136176553Y-53201990D01*
X136176540Y-53201983D01*
X136012667Y-53134106D01*
X136012658Y-53134103D01*
X135838694Y-53099500D01*
X135838691Y-53099500D01*
X135161309Y-53099500D01*
X135161306Y-53099500D01*
X134987341Y-53134103D01*
X134987332Y-53134106D01*
X134823459Y-53201983D01*
X134823446Y-53201990D01*
X134675965Y-53300535D01*
X134675961Y-53300538D01*
X134550538Y-53425961D01*
X134550535Y-53425965D01*
X134451990Y-53573446D01*
X134451983Y-53573459D01*
X134384106Y-53737332D01*
X134384103Y-53737341D01*
X134349500Y-53911304D01*
X134349500Y-54088695D01*
X134384103Y-54262658D01*
X134384106Y-54262667D01*
X134451983Y-54426540D01*
X134451990Y-54426553D01*
X134538557Y-54556109D01*
X134559435Y-54622787D01*
X134540950Y-54690167D01*
X134538557Y-54693891D01*
X134451990Y-54823446D01*
X134451983Y-54823459D01*
X134384106Y-54987332D01*
X134384103Y-54987341D01*
X134349500Y-55161304D01*
X134349500Y-55338695D01*
X134384103Y-55512658D01*
X134384106Y-55512667D01*
X134414799Y-55586767D01*
X134422268Y-55656237D01*
X134390992Y-55718716D01*
X134330903Y-55754367D01*
X134261078Y-55751873D01*
X134212557Y-55721900D01*
X131446546Y-52955888D01*
X131446545Y-52955887D01*
X131401498Y-52925788D01*
X131355502Y-52895055D01*
X131336714Y-52879635D01*
X131335292Y-52878213D01*
X131335288Y-52878210D01*
X131204185Y-52790609D01*
X131204172Y-52790602D01*
X131058501Y-52730264D01*
X131058489Y-52730261D01*
X130903845Y-52699500D01*
X130903842Y-52699500D01*
X130746158Y-52699500D01*
X130746155Y-52699500D01*
X130591510Y-52730261D01*
X130591498Y-52730264D01*
X130445827Y-52790602D01*
X130445814Y-52790609D01*
X130314711Y-52878210D01*
X130314707Y-52878213D01*
X130203213Y-52989707D01*
X130203210Y-52989711D01*
X130115609Y-53120814D01*
X130115602Y-53120827D01*
X130055264Y-53266498D01*
X130055261Y-53266510D01*
X130024500Y-53421153D01*
X130024500Y-53578846D01*
X130055261Y-53733491D01*
X130055739Y-53735066D01*
X130055746Y-53735931D01*
X130056451Y-53739472D01*
X130055779Y-53739605D01*
X130056360Y-53804933D01*
X130019110Y-53864045D01*
X129955815Y-53893634D01*
X129886571Y-53884306D01*
X129849396Y-53858739D01*
X128296071Y-52305414D01*
X128269191Y-52265185D01*
X128209397Y-52120827D01*
X128209390Y-52120814D01*
X128121789Y-51989711D01*
X128121786Y-51989707D01*
X128010292Y-51878213D01*
X128010288Y-51878210D01*
X127879185Y-51790609D01*
X127879172Y-51790602D01*
X127733501Y-51730264D01*
X127733489Y-51730261D01*
X127578845Y-51699500D01*
X127578842Y-51699500D01*
X127421158Y-51699500D01*
X127421155Y-51699500D01*
X127266510Y-51730261D01*
X127266498Y-51730264D01*
X127120827Y-51790602D01*
X127120814Y-51790609D01*
X126989711Y-51878210D01*
X126989707Y-51878213D01*
X126878213Y-51989707D01*
X126878210Y-51989711D01*
X126790609Y-52120814D01*
X126790602Y-52120827D01*
X126730264Y-52266498D01*
X126730261Y-52266510D01*
X126699500Y-52421153D01*
X126699500Y-52578846D01*
X126730261Y-52733489D01*
X126730264Y-52733501D01*
X126790602Y-52879172D01*
X126790609Y-52879185D01*
X126878210Y-53010288D01*
X126878213Y-53010292D01*
X126989707Y-53121786D01*
X126989711Y-53121789D01*
X127120814Y-53209390D01*
X127120827Y-53209397D01*
X127265185Y-53269191D01*
X127305414Y-53296071D01*
X132263181Y-58253838D01*
X132296666Y-58315161D01*
X132299500Y-58341519D01*
X132299500Y-61009481D01*
X132279815Y-61076520D01*
X132227011Y-61122275D01*
X132157853Y-61132219D01*
X132094297Y-61103194D01*
X132087819Y-61097162D01*
X128296071Y-57305414D01*
X128269191Y-57265185D01*
X128209397Y-57120827D01*
X128209390Y-57120814D01*
X128121789Y-56989711D01*
X128121786Y-56989707D01*
X128010292Y-56878213D01*
X128010288Y-56878210D01*
X127879185Y-56790609D01*
X127879172Y-56790602D01*
X127733501Y-56730264D01*
X127733489Y-56730261D01*
X127578845Y-56699500D01*
X127578842Y-56699500D01*
X127421158Y-56699500D01*
X127421155Y-56699500D01*
X127348691Y-56713914D01*
X127279100Y-56707687D01*
X127223922Y-56664824D01*
X127200678Y-56598934D01*
X127200500Y-56592297D01*
X127200500Y-56341518D01*
X127220185Y-56274479D01*
X127236815Y-56253841D01*
X127694586Y-55796069D01*
X127734810Y-55769192D01*
X127856674Y-55718716D01*
X127879173Y-55709397D01*
X127879176Y-55709395D01*
X127879179Y-55709394D01*
X128010289Y-55621789D01*
X128121789Y-55510289D01*
X128209394Y-55379179D01*
X128269737Y-55233497D01*
X128300500Y-55078842D01*
X128300500Y-54921158D01*
X128300500Y-54921155D01*
X128300499Y-54921153D01*
X128281064Y-54823447D01*
X128269737Y-54766503D01*
X128269191Y-54765184D01*
X128209397Y-54620827D01*
X128209390Y-54620814D01*
X128121789Y-54489711D01*
X128121786Y-54489707D01*
X128010292Y-54378213D01*
X128010288Y-54378210D01*
X127879185Y-54290609D01*
X127879172Y-54290602D01*
X127733501Y-54230264D01*
X127733489Y-54230261D01*
X127578845Y-54199500D01*
X127578842Y-54199500D01*
X127421158Y-54199500D01*
X127421155Y-54199500D01*
X127266510Y-54230261D01*
X127266498Y-54230264D01*
X127120827Y-54290602D01*
X127120814Y-54290609D01*
X126989711Y-54378210D01*
X126989707Y-54378213D01*
X126878213Y-54489707D01*
X126878210Y-54489711D01*
X126790609Y-54620814D01*
X126790604Y-54620823D01*
X126730809Y-54765184D01*
X126703929Y-54805412D01*
X125955887Y-55553454D01*
X125933629Y-55586767D01*
X125907748Y-55625501D01*
X125893437Y-55646918D01*
X125879223Y-55668191D01*
X125826421Y-55795667D01*
X125826418Y-55795677D01*
X125799500Y-55931004D01*
X125799500Y-55931007D01*
X125799500Y-60931006D01*
X125799500Y-61068994D01*
X125799500Y-61068996D01*
X125799499Y-61068996D01*
X103400500Y-61068996D01*
X103400500Y-36921153D01*
X121699500Y-36921153D01*
X121699500Y-37078846D01*
X121730261Y-37233489D01*
X121730264Y-37233501D01*
X121790061Y-37377864D01*
X121799500Y-37425316D01*
X121799500Y-39931006D01*
X121799500Y-40068994D01*
X121799500Y-40068996D01*
X121799499Y-40068996D01*
X121826418Y-40204322D01*
X121826421Y-40204332D01*
X121879222Y-40331807D01*
X121955887Y-40446545D01*
X125053454Y-43544112D01*
X125168192Y-43620777D01*
X125295667Y-43673578D01*
X125295672Y-43673580D01*
X125295676Y-43673580D01*
X125295677Y-43673581D01*
X125431003Y-43700500D01*
X125431006Y-43700500D01*
X125431007Y-43700500D01*
X140592297Y-43700500D01*
X140659336Y-43720185D01*
X140705091Y-43772989D01*
X140715035Y-43842147D01*
X140713914Y-43848691D01*
X140699500Y-43921153D01*
X140699500Y-44078846D01*
X140730261Y-44233489D01*
X140730264Y-44233501D01*
X140790602Y-44379172D01*
X140790609Y-44379185D01*
X140878210Y-44510288D01*
X140878213Y-44510292D01*
X140989707Y-44621786D01*
X140989711Y-44621789D01*
X141120814Y-44709390D01*
X141120827Y-44709397D01*
X141266498Y-44769735D01*
X141266503Y-44769737D01*
X141371418Y-44790606D01*
X141421153Y-44800499D01*
X141421156Y-44800500D01*
X141421158Y-44800500D01*
X141578844Y-44800500D01*
X141578845Y-44800499D01*
X141733497Y-44769737D01*
X141780121Y-44750424D01*
X141849588Y-44742956D01*
X141912067Y-44774231D01*
X141947720Y-44834319D01*
X141945227Y-44904144D01*
X141915254Y-44952666D01*
X141878214Y-44989706D01*
X141878210Y-44989711D01*
X141790609Y-45120814D01*
X141790602Y-45120827D01*
X141730264Y-45266498D01*
X141730261Y-45266510D01*
X141699500Y-45421153D01*
X141699500Y-45578846D01*
X141730261Y-45733489D01*
X141730264Y-45733501D01*
X141790602Y-45879172D01*
X141790609Y-45879185D01*
X141878210Y-46010288D01*
X141878213Y-46010292D01*
X141989707Y-46121786D01*
X141989711Y-46121789D01*
X142120814Y-46209390D01*
X142120827Y-46209397D01*
X142266498Y-46269735D01*
X142266503Y-46269737D01*
X142421153Y-46300499D01*
X142421156Y-46300500D01*
X142421158Y-46300500D01*
X142578844Y-46300500D01*
X142578845Y-46300499D01*
X142733497Y-46269737D01*
X142808963Y-46238478D01*
X142877864Y-46209939D01*
X142925316Y-46200500D01*
X147568996Y-46200500D01*
X147660040Y-46182389D01*
X147704328Y-46173580D01*
X147768069Y-46147177D01*
X147831807Y-46120777D01*
X147831808Y-46120776D01*
X147831811Y-46120775D01*
X147946543Y-46044114D01*
X149044114Y-44946543D01*
X149120775Y-44831811D01*
X149133745Y-44800500D01*
X149171480Y-44709397D01*
X149173580Y-44704328D01*
X149200500Y-44568994D01*
X149200500Y-44431006D01*
X149200500Y-43425316D01*
X149209939Y-43377864D01*
X149246082Y-43290606D01*
X149269737Y-43233497D01*
X149300500Y-43078842D01*
X149300500Y-42921158D01*
X149300500Y-42921155D01*
X149300499Y-42921153D01*
X149269738Y-42766510D01*
X149269737Y-42766503D01*
X149269735Y-42766498D01*
X149209397Y-42620827D01*
X149209390Y-42620814D01*
X149121789Y-42489711D01*
X149121786Y-42489707D01*
X149010292Y-42378213D01*
X149010288Y-42378210D01*
X148879185Y-42290609D01*
X148879172Y-42290602D01*
X148733501Y-42230264D01*
X148733489Y-42230261D01*
X148578845Y-42199500D01*
X148578842Y-42199500D01*
X148421158Y-42199500D01*
X148421155Y-42199500D01*
X148266510Y-42230261D01*
X148266498Y-42230264D01*
X148120827Y-42290602D01*
X148120814Y-42290609D01*
X147989711Y-42378210D01*
X147989707Y-42378213D01*
X147878213Y-42489707D01*
X147878210Y-42489711D01*
X147790609Y-42620814D01*
X147790602Y-42620827D01*
X147730264Y-42766498D01*
X147730261Y-42766510D01*
X147699500Y-42921153D01*
X147699500Y-43078846D01*
X147730261Y-43233489D01*
X147730263Y-43233497D01*
X147749575Y-43280120D01*
X147757043Y-43349590D01*
X147725767Y-43412069D01*
X147665678Y-43447721D01*
X147595853Y-43445226D01*
X147547332Y-43415253D01*
X147510292Y-43378213D01*
X147510288Y-43378210D01*
X147379185Y-43290609D01*
X147379172Y-43290602D01*
X147233501Y-43230264D01*
X147233489Y-43230261D01*
X147078845Y-43199500D01*
X147078842Y-43199500D01*
X146921158Y-43199500D01*
X146921155Y-43199500D01*
X146766510Y-43230261D01*
X146766498Y-43230264D01*
X146622136Y-43290061D01*
X146574684Y-43299500D01*
X143907703Y-43299500D01*
X143840664Y-43279815D01*
X143794909Y-43227011D01*
X143784965Y-43157853D01*
X143786086Y-43151309D01*
X143800499Y-43078846D01*
X143800500Y-43078844D01*
X143800500Y-42921155D01*
X143800499Y-42921153D01*
X143769738Y-42766510D01*
X143769737Y-42766503D01*
X143769735Y-42766498D01*
X143709397Y-42620827D01*
X143709390Y-42620814D01*
X143621789Y-42489711D01*
X143621786Y-42489707D01*
X143510292Y-42378213D01*
X143510288Y-42378210D01*
X143379185Y-42290609D01*
X143379172Y-42290602D01*
X143233501Y-42230264D01*
X143233489Y-42230261D01*
X143078845Y-42199500D01*
X143078842Y-42199500D01*
X142921158Y-42199500D01*
X142921155Y-42199500D01*
X142766510Y-42230261D01*
X142766498Y-42230264D01*
X142622136Y-42290061D01*
X142574684Y-42299500D01*
X125841519Y-42299500D01*
X125774480Y-42279815D01*
X125753838Y-42263181D01*
X123236819Y-39746162D01*
X123203334Y-39684839D01*
X123200500Y-39658481D01*
X123200500Y-37425316D01*
X123209939Y-37377864D01*
X123269735Y-37233501D01*
X123269737Y-37233497D01*
X123300500Y-37078842D01*
X123300500Y-36921158D01*
X123300500Y-36921155D01*
X123300499Y-36921153D01*
X123269738Y-36766510D01*
X123269737Y-36766503D01*
X123269735Y-36766498D01*
X123209397Y-36620827D01*
X123209390Y-36620814D01*
X123121789Y-36489711D01*
X123121786Y-36489707D01*
X123010292Y-36378213D01*
X123010288Y-36378210D01*
X122879185Y-36290609D01*
X122879172Y-36290602D01*
X122733501Y-36230264D01*
X122733489Y-36230261D01*
X122578845Y-36199500D01*
X122578842Y-36199500D01*
X122421158Y-36199500D01*
X122421155Y-36199500D01*
X122266510Y-36230261D01*
X122266498Y-36230264D01*
X122120827Y-36290602D01*
X122120814Y-36290609D01*
X121989711Y-36378210D01*
X121989707Y-36378213D01*
X121878213Y-36489707D01*
X121878210Y-36489711D01*
X121790609Y-36620814D01*
X121790602Y-36620827D01*
X121730264Y-36766498D01*
X121730261Y-36766510D01*
X121699500Y-36921153D01*
X103400500Y-36921153D01*
X103400500Y-30882699D01*
X103420185Y-30815660D01*
X103472989Y-30769905D01*
X103524500Y-30758699D01*
X172275500Y-30758699D01*
X172342539Y-30778384D01*
G37*
%TD.AperFunction*%
%TD*%
M02*
