M48
; DRILL file {KiCad 9.0.6+1} date 2026-02-07T00:07:08+0000
; FORMAT={3:3/ absolute / metric / suppress leading zeros}
; #@! TF.CreationDate,2026-02-07T00:07:08+00:00
; #@! TF.GenerationSoftware,Kicad,Pcbnew,9.0.6+1
; #@! TF.FileFunction,Plated,1,2,PTH
FMAT,2
METRIC,TZ
; #@! TA.AperFunction,Plated,PTH,ViaDrill
T1C0.300
; #@! TA.AperFunction,Plated,PTH,ComponentDrill
T2C0.500
; #@! TA.AperFunction,Plated,PTH,ViaDrill
T3C0.600
; #@! TA.AperFunction,Plated,PTH,ComponentDrill
T4C1.000
%
G90
G05
T1
X105500Y-33000
X105500Y-145000
X106000Y-107500
X106000Y-121500
X106000Y-134000
X106000Y-153500
X107500Y-51000
X107500Y-64500
X107500Y-77500
X108000Y-97500
X108500Y-88000
X108500Y-89500
X108500Y-95000
X109500Y-107500
X109500Y-121500
X109500Y-134000
X110500Y-77000
X111000Y-143000
X112000Y-90000
X112500Y-33000
X113000Y-107500
X113000Y-121500
X113000Y-134000
X114000Y-51000
X114000Y-64500
X114000Y-77500
X114000Y-97500
X114500Y-90500
X115500Y-93000
X116000Y-45000
X116000Y-148500
X116500Y-88000
X118500Y-88000
X120500Y-92000
X122000Y-88000
X122000Y-153500
X122500Y-37000
X123000Y-52500
X123000Y-55000
X123000Y-57500
X123000Y-60000
X123500Y-89000
X123500Y-91500
X123500Y-95500
X124000Y-33000
X124000Y-39000
X124500Y-145000
X125000Y-83000
X125000Y-97500
X126000Y-148500
X127500Y-52500
X127500Y-55000
X127500Y-57500
X127500Y-60000
X130000Y-64500
X130825Y-53500
X131000Y-63500
X134000Y-60000
X134000Y-63500
X135000Y-64500
X135500Y-153500
X136000Y-92500
X137000Y-95500
X137500Y-89000
X138000Y-33000
X138000Y-39000
X138000Y-53500
X138000Y-145000
X139500Y-148000
X141000Y-53500
X141500Y-44000
X142000Y-59500
X142500Y-45500
X143000Y-43000
X143000Y-84000
X143500Y-67500
X144500Y-83000
X146000Y-81500
X146225Y-56363
X146500Y-63500
X147000Y-44000
X147000Y-73000
X147000Y-76500
X147000Y-77500
X147500Y-116500
X148000Y-104000
X148500Y-43000
X148500Y-89000
X149000Y-153500
X150000Y-91000
X150000Y-95500
X150500Y-33000
X150500Y-39000
X151500Y-56000
X151500Y-64500
X151500Y-144500
X151500Y-149500
X153500Y-102500
X154000Y-88000
X154500Y-149000
X155800Y-86200
X156000Y-102000
X157500Y-86000
X158000Y-44500
X158000Y-103000
X158000Y-107500
X158500Y-100500
X160500Y-147500
X161000Y-142000
X161500Y-150000
X162000Y-153500
X162500Y-33000
X162500Y-37500
X162500Y-51500
X163000Y-64500
X163000Y-77500
X163000Y-107500
X163000Y-120000
X163000Y-133000
X163500Y-41000
X164000Y-93000
X164500Y-145500
X164500Y-150500
X165000Y-106500
X165000Y-117500
X165500Y-90000
X166500Y-50500
X166500Y-154000
X167000Y-77000
X167000Y-147500
X168000Y-88000
X169000Y-146000
X170500Y-33000
X170500Y-40000
X170500Y-51500
X170500Y-64500
X170500Y-77500
X170500Y-107500
X170500Y-120000
X170500Y-131500
X171500Y-152500
X172000Y-147000
T2
X135500Y-54000
X135500Y-55250
X135500Y-56500
X135500Y-57750
X135500Y-59000
T3
X158000Y-142500
X164500Y-149000
T4
X136960Y-122420
X136960Y-124960
X136960Y-127500
X136960Y-130040
X136960Y-132580
X139500Y-122420
X139500Y-124960
X139500Y-127500
X139500Y-130040
X139500Y-132580
X149235Y-112500
X151775Y-112500
M30
